# MagicaVoxel @ Ephtracy

# material
mtllib calle30.mtl
usemtl palette

# normals
vn -1 0 0
vn 1 0 0
vn 0 0 1
vn 0 0 -1
vn 0 -1 0
vn 0 1 0

# texcoords
vt 0.00195312 0.5
vt 0.00976562 0.5
vt 0.0253906 0.5
vt 0.0449219 0.5
vt 0.978516 0.5

# verts
v -15 0 15
v -15 0 -15
v -15 2 15
v -15 2 -15
v 7 1 15
v 7 1 -15
v 7 2 15
v 7 2 -15
v -7 1 15
v -7 1 -15
v -7 2 15
v -7 2 -15
v 15 0 15
v 15 0 -15
v 15 2 15
v 15 2 -15
v -15 0 15
v -15 2 15
v -7 0 15
v -7 1 15
v -7 2 15
v -6 0 15
v -6 1 15
v 6 0 15
v 6 1 15
v 7 0 15
v 7 1 15
v 7 2 15
v 15 0 15
v 15 2 15
v -15 0 -15
v -15 2 -15
v -7 0 -15
v -7 1 -15
v -7 2 -15
v -6 0 -15
v -6 1 -15
v 6 0 -15
v 6 1 -15
v 7 0 -15
v 7 1 -15
v 7 2 -15
v 15 0 -15
v 15 2 -15
v -15 0 15
v -7 0 15
v -6 0 15
v 6 0 15
v 7 0 15
v 15 0 15
v -14 0 14
v -7 0 14
v 7 0 14
v 14 0 14
v 0 0 10
v 1 0 10
v 0 0 4
v 1 0 4
v 0 0 -4
v 1 0 -4
v 0 0 -11
v 1 0 -11
v -14 0 -14
v -7 0 -14
v 7 0 -14
v 14 0 -14
v -15 0 -15
v -7 0 -15
v -6 0 -15
v 6 0 -15
v 7 0 -15
v 15 0 -15
v -7 1 15
v -6 1 15
v 6 1 15
v 7 1 15
v 0 1 10
v 1 1 10
v 0 1 4
v 1 1 4
v 0 1 -4
v 1 1 -4
v 0 1 -11
v 1 1 -11
v -7 1 -15
v -6 1 -15
v 6 1 -15
v 7 1 -15
v -15 2 15
v -7 2 15
v 7 2 15
v 15 2 15
v -15 2 -15
v -7 2 -15
v 7 2 -15
v 15 2 -15

# faces
f 3/3/1 2/3/1 1/3/1
f 4/3/1 2/3/1 3/3/1
f 7/3/1 6/3/1 5/3/1
f 8/3/1 6/3/1 7/3/1
f 9/3/2 10/3/2 11/3/2
f 11/3/2 10/3/2 12/3/2
f 13/3/2 14/3/2 15/3/2
f 15/3/2 14/3/2 16/3/2
f 19/3/3 18/3/3 17/3/3
f 20/3/3 18/3/3 19/3/3
f 21/3/3 18/3/3 20/3/3
f 22/2/3 20/2/3 19/2/3
f 23/2/3 20/2/3 22/2/3
f 24/4/3 23/4/3 22/4/3
f 25/4/3 23/4/3 24/4/3
f 26/2/3 25/2/3 24/2/3
f 27/2/3 25/2/3 26/2/3
f 29/3/3 27/3/3 26/3/3
f 29/3/3 28/3/3 27/3/3
f 30/3/3 28/3/3 29/3/3
f 31/3/4 32/3/4 33/3/4
f 33/3/4 32/3/4 34/3/4
f 34/3/4 32/3/4 35/3/4
f 33/2/4 34/2/4 36/2/4
f 36/2/4 34/2/4 37/2/4
f 36/4/4 37/4/4 38/4/4
f 38/4/4 37/4/4 39/4/4
f 38/2/4 39/2/4 40/2/4
f 40/2/4 39/2/4 41/2/4
f 40/3/4 41/3/4 43/3/4
f 41/3/4 42/3/4 43/3/4
f 43/3/4 42/3/4 44/3/4
f 51/3/5 46/3/5 45/3/5
f 52/2/5 47/2/5 46/2/5
f 52/3/5 46/3/5 51/3/5
f 53/3/5 50/3/5 49/3/5
f 53/2/5 49/2/5 48/2/5
f 54/3/5 50/3/5 53/3/5
f 55/4/5 48/4/5 47/4/5
f 56/4/5 48/4/5 55/4/5
f 57/4/5 55/4/5 47/4/5
f 57/1/5 56/1/5 55/1/5
f 58/4/5 48/4/5 56/4/5
f 58/1/5 56/1/5 57/1/5
f 59/4/5 57/4/5 47/4/5
f 59/4/5 58/4/5 57/4/5
f 60/4/5 48/4/5 58/4/5
f 60/4/5 58/4/5 59/4/5
f 61/4/5 59/4/5 47/4/5
f 61/1/5 60/1/5 59/1/5
f 62/4/5 48/4/5 60/4/5
f 62/1/5 60/1/5 61/1/5
f 63/3/5 51/3/5 45/3/5
f 63/5/5 52/5/5 51/5/5
f 64/2/5 47/2/5 52/2/5
f 64/5/5 52/5/5 63/5/5
f 65/2/5 53/2/5 48/2/5
f 65/5/5 54/5/5 53/5/5
f 66/3/5 50/3/5 54/3/5
f 66/5/5 54/5/5 65/5/5
f 67/3/5 63/3/5 45/3/5
f 67/3/5 64/3/5 63/3/5
f 68/2/5 47/2/5 64/2/5
f 68/3/5 64/3/5 67/3/5
f 69/4/5 62/4/5 61/4/5
f 69/2/5 47/2/5 68/2/5
f 69/4/5 61/4/5 47/4/5
f 70/4/5 48/4/5 62/4/5
f 70/4/5 62/4/5 69/4/5
f 70/2/5 65/2/5 48/2/5
f 71/3/5 66/3/5 65/3/5
f 71/2/5 65/2/5 70/2/5
f 72/3/5 50/3/5 66/3/5
f 72/3/5 66/3/5 71/3/5
f 74/4/6 75/4/6 77/4/6
f 77/4/6 75/4/6 78/4/6
f 74/4/6 77/4/6 79/4/6
f 77/1/6 78/1/6 79/1/6
f 78/4/6 75/4/6 80/4/6
f 79/1/6 78/1/6 80/1/6
f 74/4/6 79/4/6 81/4/6
f 79/4/6 80/4/6 81/4/6
f 80/4/6 75/4/6 82/4/6
f 81/4/6 80/4/6 82/4/6
f 74/4/6 81/4/6 83/4/6
f 81/1/6 82/1/6 83/1/6
f 82/4/6 75/4/6 84/4/6
f 83/1/6 82/1/6 84/1/6
f 73/2/6 74/2/6 85/2/6
f 74/4/6 83/4/6 86/4/6
f 85/2/6 74/2/6 86/2/6
f 83/4/6 84/4/6 86/4/6
f 84/4/6 75/4/6 87/4/6
f 86/4/6 84/4/6 87/4/6
f 75/2/6 76/2/6 87/2/6
f 87/2/6 76/2/6 88/2/6
f 89/3/6 90/3/6 93/3/6
f 93/3/6 90/3/6 94/3/6
f 91/3/6 92/3/6 95/3/6
f 95/3/6 92/3/6 96/3/6
