# MagicaVoxel @ Ephtracy

# material
mtllib CurvaM30.mtl
usemtl palette

# normals
vn -1 0 0
vn 1 0 0
vn 0 0 1
vn 0 0 -1
vn 0 -1 0
vn 0 1 0

# texcoords
vt 0.00195312 0.5
vt 0.0253906 0.5
vt 0.0449219 0.5

# verts
v -30 0 30
v -30 0 22
v -30 0 21
v -30 0 9
v -30 0 8
v -30 0 7
v -30 0 6
v -30 0 -6
v -30 0 -7
v -30 0 -8
v -30 0 -9
v -30 0 -21
v -30 0 -22
v -30 0 -30
v -30 1 30
v -30 1 22
v -30 1 21
v -30 1 9
v -30 1 8
v -30 1 7
v -30 1 6
v -30 1 -6
v -30 1 -7
v -30 1 -8
v -30 1 -9
v -30 1 -21
v -30 1 -22
v -30 2 30
v -30 2 22
v -30 2 -22
v -30 2 -30
v 22 1 30
v 22 1 -22
v 22 2 30
v 22 2 -22
v -22 1 30
v -22 1 22
v -22 2 30
v -22 2 22
v 30 0 30
v 30 0 -30
v 30 2 30
v 30 2 -30
v -30 0 30
v -30 1 30
v -30 2 30
v -22 0 30
v -22 1 30
v -22 2 30
v -21 0 30
v -21 1 30
v -9 0 30
v -9 1 30
v -8 0 30
v -8 1 30
v -7 0 30
v -7 1 30
v -6 0 30
v -6 1 30
v 6 0 30
v 6 1 30
v 7 0 30
v 7 1 30
v 8 0 30
v 8 1 30
v 9 0 30
v 9 1 30
v 21 0 30
v 21 1 30
v 22 0 30
v 22 1 30
v 22 2 30
v 30 0 30
v 30 2 30
v -30 1 -22
v -30 2 -22
v 22 1 -22
v 22 2 -22
v -30 1 22
v -30 2 22
v -22 1 22
v -22 2 22
v -30 0 -30
v -30 2 -30
v 30 0 -30
v 30 2 -30
v -30 0 30
v -22 0 30
v -21 0 30
v -9 0 30
v -8 0 30
v -7 0 30
v -6 0 30
v 6 0 30
v 7 0 30
v 8 0 30
v 9 0 30
v 21 0 30
v 22 0 30
v 30 0 30
v -16 0 26
v -15 0 26
v 14 0 26
v 15 0 26
v -9 0 24
v -8 0 24
v -7 0 24
v -6 0 24
v 6 0 24
v 7 0 24
v 8 0 24
v 9 0 24
v -30 0 22
v -22 0 22
v -30 0 21
v -21 0 21
v -16 0 21
v -15 0 21
v 14 0 21
v 15 0 21
v -27 0 16
v -21 0 16
v 14 0 16
v 15 0 16
v -27 0 15
v -21 0 15
v -3 0 12
v -2 0 12
v 14 0 11
v 15 0 11
v -30 0 9
v -25 0 9
v -30 0 8
v -25 0 8
v -30 0 7
v -25 0 7
v -3 0 7
v -2 0 7
v -30 0 6
v -25 0 6
v 14 0 6
v 15 0 6
v -15 0 1
v -10 0 1
v 14 0 1
v 15 0 1
v -15 0 -0
v -10 0 -0
v 14 0 -5
v 15 0 -5
v -30 0 -6
v -25 0 -6
v -30 0 -7
v -25 0 -7
v -30 0 -8
v -25 0 -8
v -30 0 -9
v -25 0 -9
v 14 0 -10
v 15 0 -10
v -27 0 -15
v -22 0 -15
v -15 0 -15
v -11 0 -15
v -4 0 -15
v 0 0 -15
v 5 0 -15
v 10 0 -15
v -27 0 -16
v -22 0 -16
v -15 0 -16
v -11 0 -16
v -4 0 -16
v 0 0 -16
v 5 0 -16
v 10 0 -16
v -30 0 -21
v 21 0 -21
v -30 0 -22
v 22 0 -22
v -30 0 -30
v 30 0 -30
v -22 1 30
v -21 1 30
v -9 1 30
v -8 1 30
v -7 1 30
v -6 1 30
v 6 1 30
v 7 1 30
v 8 1 30
v 9 1 30
v 21 1 30
v 22 1 30
v -16 1 26
v -15 1 26
v 14 1 26
v 15 1 26
v -9 1 24
v -8 1 24
v -7 1 24
v -6 1 24
v 6 1 24
v 7 1 24
v 8 1 24
v 9 1 24
v -30 1 22
v -22 1 22
v -30 1 21
v -21 1 21
v -16 1 21
v -15 1 21
v 14 1 21
v 15 1 21
v -27 1 16
v -21 1 16
v 14 1 16
v 15 1 16
v -27 1 15
v -21 1 15
v -3 1 12
v -2 1 12
v 14 1 11
v 15 1 11
v -30 1 9
v -25 1 9
v -30 1 8
v -25 1 8
v -30 1 7
v -25 1 7
v -3 1 7
v -2 1 7
v -30 1 6
v -25 1 6
v 14 1 6
v 15 1 6
v -15 1 1
v -10 1 1
v 14 1 1
v 15 1 1
v -15 1 -0
v -10 1 -0
v 14 1 -5
v 15 1 -5
v -30 1 -6
v -25 1 -6
v -30 1 -7
v -25 1 -7
v -30 1 -8
v -25 1 -8
v -30 1 -9
v -25 1 -9
v 14 1 -10
v 15 1 -10
v -27 1 -15
v -22 1 -15
v -15 1 -15
v -11 1 -15
v -4 1 -15
v 0 1 -15
v 5 1 -15
v 10 1 -15
v -27 1 -16
v -22 1 -16
v -15 1 -16
v -11 1 -16
v -4 1 -16
v 0 1 -16
v 5 1 -16
v 10 1 -16
v -30 1 -21
v 21 1 -21
v -30 1 -22
v 22 1 -22
v -30 2 30
v -22 2 30
v 22 2 30
v 30 2 30
v -30 2 22
v -22 2 22
v -30 2 -22
v 22 2 -22
v -30 2 -30
v 30 2 -30

# faces
f 15/3/1 2/3/1 1/3/1
f 16/1/1 3/1/1 2/1/1
f 16/3/1 2/3/1 15/3/1
f 17/3/1 4/3/1 3/3/1
f 17/1/1 3/1/1 16/1/1
f 18/1/1 5/1/1 4/1/1
f 18/3/1 4/3/1 17/3/1
f 19/3/1 6/3/1 5/3/1
f 19/1/1 5/1/1 18/1/1
f 20/1/1 7/1/1 6/1/1
f 20/3/1 6/3/1 19/3/1
f 21/3/1 8/3/1 7/3/1
f 21/1/1 7/1/1 20/1/1
f 22/1/1 9/1/1 8/1/1
f 22/3/1 8/3/1 21/3/1
f 23/3/1 10/3/1 9/3/1
f 23/1/1 9/1/1 22/1/1
f 24/1/1 11/1/1 10/1/1
f 24/3/1 10/3/1 23/3/1
f 25/3/1 12/3/1 11/3/1
f 25/1/1 11/1/1 24/1/1
f 26/1/1 13/1/1 12/1/1
f 26/3/1 12/3/1 25/3/1
f 27/2/1 14/2/1 13/2/1
f 27/1/1 13/1/1 26/1/1
f 28/2/1 16/2/1 15/2/1
f 29/2/1 16/2/1 28/2/1
f 30/2/1 14/2/1 27/2/1
f 31/2/1 14/2/1 30/2/1
f 34/2/1 33/2/1 32/2/1
f 35/2/1 33/2/1 34/2/1
f 36/2/2 37/2/2 38/2/2
f 38/2/2 37/2/2 39/2/2
f 40/2/2 41/2/2 42/2/2
f 42/2/2 41/2/2 43/2/2
f 47/3/3 45/3/3 44/3/3
f 48/2/3 46/2/3 45/2/3
f 48/3/3 45/3/3 47/3/3
f 49/2/3 46/2/3 48/2/3
f 50/1/3 48/1/3 47/1/3
f 51/1/3 48/1/3 50/1/3
f 52/3/3 51/3/3 50/3/3
f 53/3/3 51/3/3 52/3/3
f 54/1/3 53/1/3 52/1/3
f 55/1/3 53/1/3 54/1/3
f 56/3/3 55/3/3 54/3/3
f 57/3/3 55/3/3 56/3/3
f 58/1/3 57/1/3 56/1/3
f 59/1/3 57/1/3 58/1/3
f 60/3/3 59/3/3 58/3/3
f 61/3/3 59/3/3 60/3/3
f 62/1/3 61/1/3 60/1/3
f 63/1/3 61/1/3 62/1/3
f 64/3/3 63/3/3 62/3/3
f 65/3/3 63/3/3 64/3/3
f 66/1/3 65/1/3 64/1/3
f 67/1/3 65/1/3 66/1/3
f 68/3/3 67/3/3 66/3/3
f 69/3/3 67/3/3 68/3/3
f 70/1/3 69/1/3 68/1/3
f 71/1/3 69/1/3 70/1/3
f 73/2/3 71/2/3 70/2/3
f 73/2/3 72/2/3 71/2/3
f 74/2/3 72/2/3 73/2/3
f 77/2/3 76/2/3 75/2/3
f 78/2/3 76/2/3 77/2/3
f 79/2/4 80/2/4 81/2/4
f 81/2/4 80/2/4 82/2/4
f 83/2/4 84/2/4 85/2/4
f 85/2/4 84/2/4 86/2/4
f 101/3/5 90/3/5 89/3/5
f 102/3/5 90/3/5 101/3/5
f 103/3/5 98/3/5 97/3/5
f 104/3/5 98/3/5 103/3/5
f 105/1/5 91/1/5 90/1/5
f 105/3/5 90/3/5 102/3/5
f 106/3/5 92/3/5 91/3/5
f 106/1/5 91/1/5 105/1/5
f 107/1/5 93/1/5 92/1/5
f 107/3/5 92/3/5 106/3/5
f 108/3/5 94/3/5 93/3/5
f 108/1/5 93/1/5 107/1/5
f 109/1/5 95/1/5 94/1/5
f 109/3/5 94/3/5 108/3/5
f 110/3/5 96/3/5 95/3/5
f 110/1/5 95/1/5 109/1/5
f 111/1/5 97/1/5 96/1/5
f 111/3/5 96/3/5 110/3/5
f 112/3/5 103/3/5 97/3/5
f 112/1/5 97/1/5 111/1/5
f 113/3/5 88/3/5 87/3/5
f 114/1/5 89/1/5 88/1/5
f 114/3/5 88/3/5 113/3/5
f 115/1/5 114/1/5 113/1/5
f 116/3/5 101/3/5 89/3/5
f 116/1/5 114/1/5 115/1/5
f 116/1/5 89/1/5 114/1/5
f 117/1/5 102/1/5 101/1/5
f 117/3/5 101/3/5 116/3/5
f 118/3/5 105/3/5 102/3/5
f 118/1/5 102/1/5 117/1/5
f 118/3/5 106/3/5 105/3/5
f 118/3/5 112/3/5 111/3/5
f 118/3/5 111/3/5 110/3/5
f 118/3/5 107/3/5 106/3/5
f 118/3/5 108/3/5 107/3/5
f 118/3/5 109/3/5 108/3/5
f 118/3/5 110/3/5 109/3/5
f 119/3/5 103/3/5 112/3/5
f 119/3/5 112/3/5 118/3/5
f 119/1/5 104/1/5 103/1/5
f 120/3/5 98/3/5 104/3/5
f 120/1/5 104/1/5 119/1/5
f 121/3/5 118/3/5 117/3/5
f 121/3/5 119/3/5 118/3/5
f 121/3/5 120/3/5 119/3/5
f 121/3/5 117/3/5 116/3/5
f 121/3/5 116/3/5 115/3/5
f 122/3/5 120/3/5 121/3/5
f 123/3/5 120/3/5 122/3/5
f 124/3/5 98/3/5 120/3/5
f 124/3/5 120/3/5 123/3/5
f 125/3/5 121/3/5 115/3/5
f 125/1/5 122/1/5 121/1/5
f 126/3/5 123/3/5 122/3/5
f 126/1/5 122/1/5 125/1/5
f 127/3/5 126/3/5 125/3/5
f 127/3/5 123/3/5 126/3/5
f 128/3/5 123/3/5 127/3/5
f 129/1/5 124/1/5 123/1/5
f 129/3/5 123/3/5 128/3/5
f 130/3/5 98/3/5 124/3/5
f 130/1/5 124/1/5 129/1/5
f 131/3/5 125/3/5 115/3/5
f 131/3/5 127/3/5 125/3/5
f 132/3/5 127/3/5 131/3/5
f 133/1/5 132/1/5 131/1/5
f 134/3/5 127/3/5 132/3/5
f 134/1/5 132/1/5 133/1/5
f 135/3/5 134/3/5 133/3/5
f 136/3/5 127/3/5 134/3/5
f 136/3/5 134/3/5 135/3/5
f 137/1/5 128/1/5 127/1/5
f 137/3/5 127/3/5 136/3/5
f 138/3/5 129/3/5 128/3/5
f 138/1/5 128/1/5 137/1/5
f 138/3/5 130/3/5 129/3/5
f 139/1/5 136/1/5 135/1/5
f 140/3/5 137/3/5 136/3/5
f 140/1/5 136/1/5 139/1/5
f 140/3/5 138/3/5 137/3/5
f 141/3/5 130/3/5 138/3/5
f 141/3/5 138/3/5 140/3/5
f 142/3/5 98/3/5 130/3/5
f 142/3/5 130/3/5 141/3/5
f 143/3/5 141/3/5 140/3/5
f 143/3/5 140/3/5 139/3/5
f 144/3/5 141/3/5 143/3/5
f 145/1/5 142/1/5 141/1/5
f 145/3/5 141/3/5 144/3/5
f 146/3/5 98/3/5 142/3/5
f 146/1/5 142/1/5 145/1/5
f 147/1/5 144/1/5 143/1/5
f 147/3/5 143/3/5 139/3/5
f 148/3/5 145/3/5 144/3/5
f 148/1/5 144/1/5 147/1/5
f 148/3/5 146/3/5 145/3/5
f 149/3/5 148/3/5 147/3/5
f 149/3/5 146/3/5 148/3/5
f 150/3/5 98/3/5 146/3/5
f 150/3/5 146/3/5 149/3/5
f 151/3/5 147/3/5 139/3/5
f 151/3/5 149/3/5 147/3/5
f 152/3/5 149/3/5 151/3/5
f 153/1/5 152/1/5 151/1/5
f 154/3/5 149/3/5 152/3/5
f 154/1/5 152/1/5 153/1/5
f 155/3/5 154/3/5 153/3/5
f 156/3/5 149/3/5 154/3/5
f 156/3/5 154/3/5 155/3/5
f 157/1/5 156/1/5 155/1/5
f 158/3/5 149/3/5 156/3/5
f 158/1/5 156/1/5 157/1/5
f 159/1/5 150/1/5 149/1/5
f 159/3/5 149/3/5 158/3/5
f 159/3/5 158/3/5 157/3/5
f 160/3/5 98/3/5 150/3/5
f 160/1/5 150/1/5 159/1/5
f 161/3/5 159/3/5 157/3/5
f 161/3/5 160/3/5 159/3/5
f 162/3/5 160/3/5 161/3/5
f 163/3/5 160/3/5 162/3/5
f 164/3/5 160/3/5 163/3/5
f 165/3/5 160/3/5 164/3/5
f 166/3/5 160/3/5 165/3/5
f 167/3/5 160/3/5 166/3/5
f 168/3/5 160/3/5 167/3/5
f 169/3/5 161/3/5 157/3/5
f 169/1/5 162/1/5 161/1/5
f 170/3/5 163/3/5 162/3/5
f 170/1/5 162/1/5 169/1/5
f 171/1/5 164/1/5 163/1/5
f 171/3/5 163/3/5 170/3/5
f 172/3/5 165/3/5 164/3/5
f 172/1/5 164/1/5 171/1/5
f 173/1/5 166/1/5 165/1/5
f 173/3/5 165/3/5 172/3/5
f 174/3/5 167/3/5 166/3/5
f 174/1/5 166/1/5 173/1/5
f 175/1/5 168/1/5 167/1/5
f 175/3/5 167/3/5 174/3/5
f 176/3/5 160/3/5 168/3/5
f 176/1/5 168/1/5 175/1/5
f 177/3/5 175/3/5 174/3/5
f 177/3/5 174/3/5 173/3/5
f 177/3/5 176/3/5 175/3/5
f 177/3/5 173/3/5 172/3/5
f 177/3/5 172/3/5 171/3/5
f 177/3/5 171/3/5 170/3/5
f 177/3/5 170/3/5 169/3/5
f 177/3/5 169/3/5 157/3/5
f 178/3/5 98/3/5 160/3/5
f 178/3/5 176/3/5 177/3/5
f 178/1/5 99/1/5 98/1/5
f 178/3/5 160/3/5 176/3/5
f 179/1/5 178/1/5 177/1/5
f 180/2/5 100/2/5 99/2/5
f 180/1/5 178/1/5 179/1/5
f 180/1/5 99/1/5 178/1/5
f 181/2/5 180/2/5 179/2/5
f 182/2/5 100/2/5 180/2/5
f 182/2/5 180/2/5 181/2/5
f 184/3/6 185/3/6 195/3/6
f 195/3/6 185/3/6 196/3/6
f 192/3/6 193/3/6 197/3/6
f 197/3/6 193/3/6 198/3/6
f 185/1/6 186/1/6 199/1/6
f 196/3/6 185/3/6 199/3/6
f 186/3/6 187/3/6 200/3/6
f 199/1/6 186/1/6 200/1/6
f 187/1/6 188/1/6 201/1/6
f 200/3/6 187/3/6 201/3/6
f 188/3/6 189/3/6 202/3/6
f 201/1/6 188/1/6 202/1/6
f 189/1/6 190/1/6 203/1/6
f 202/3/6 189/3/6 203/3/6
f 190/3/6 191/3/6 204/3/6
f 203/1/6 190/1/6 204/1/6
f 191/1/6 192/1/6 205/1/6
f 204/3/6 191/3/6 205/3/6
f 192/3/6 197/3/6 206/3/6
f 205/1/6 192/1/6 206/1/6
f 183/1/6 184/1/6 208/1/6
f 207/1/6 208/1/6 209/1/6
f 184/3/6 195/3/6 210/3/6
f 209/1/6 208/1/6 210/1/6
f 208/1/6 184/1/6 210/1/6
f 195/1/6 196/1/6 211/1/6
f 210/3/6 195/3/6 211/3/6
f 196/3/6 199/3/6 212/3/6
f 211/1/6 196/1/6 212/1/6
f 199/3/6 200/3/6 212/3/6
f 200/3/6 201/3/6 212/3/6
f 205/3/6 206/3/6 212/3/6
f 204/3/6 205/3/6 212/3/6
f 201/3/6 202/3/6 212/3/6
f 202/3/6 203/3/6 212/3/6
f 203/3/6 204/3/6 212/3/6
f 206/3/6 197/3/6 213/3/6
f 212/3/6 206/3/6 213/3/6
f 197/1/6 198/1/6 213/1/6
f 198/3/6 193/3/6 214/3/6
f 213/1/6 198/1/6 214/1/6
f 211/3/6 212/3/6 215/3/6
f 212/3/6 213/3/6 215/3/6
f 213/3/6 214/3/6 215/3/6
f 210/3/6 211/3/6 215/3/6
f 209/3/6 210/3/6 215/3/6
f 215/3/6 214/3/6 216/3/6
f 216/3/6 214/3/6 217/3/6
f 214/3/6 193/3/6 218/3/6
f 217/3/6 214/3/6 218/3/6
f 209/3/6 215/3/6 219/3/6
f 215/1/6 216/1/6 219/1/6
f 216/3/6 217/3/6 220/3/6
f 219/1/6 216/1/6 220/1/6
f 219/3/6 220/3/6 221/3/6
f 220/3/6 217/3/6 221/3/6
f 221/3/6 217/3/6 222/3/6
f 217/1/6 218/1/6 223/1/6
f 222/3/6 217/3/6 223/3/6
f 218/3/6 193/3/6 224/3/6
f 223/1/6 218/1/6 224/1/6
f 209/3/6 219/3/6 225/3/6
f 219/3/6 221/3/6 225/3/6
f 225/3/6 221/3/6 226/3/6
f 225/1/6 226/1/6 227/1/6
f 226/3/6 221/3/6 228/3/6
f 227/1/6 226/1/6 228/1/6
f 227/3/6 228/3/6 229/3/6
f 228/3/6 221/3/6 230/3/6
f 229/3/6 228/3/6 230/3/6
f 221/1/6 222/1/6 231/1/6
f 230/3/6 221/3/6 231/3/6
f 222/3/6 223/3/6 232/3/6
f 231/1/6 222/1/6 232/1/6
f 223/3/6 224/3/6 232/3/6
f 229/1/6 230/1/6 233/1/6
f 230/3/6 231/3/6 234/3/6
f 233/1/6 230/1/6 234/1/6
f 231/3/6 232/3/6 234/3/6
f 232/3/6 224/3/6 235/3/6
f 234/3/6 232/3/6 235/3/6
f 224/3/6 193/3/6 236/3/6
f 235/3/6 224/3/6 236/3/6
f 234/3/6 235/3/6 237/3/6
f 233/3/6 234/3/6 237/3/6
f 237/3/6 235/3/6 238/3/6
f 235/1/6 236/1/6 239/1/6
f 238/3/6 235/3/6 239/3/6
f 236/3/6 193/3/6 240/3/6
f 239/1/6 236/1/6 240/1/6
f 237/1/6 238/1/6 241/1/6
f 233/3/6 237/3/6 241/3/6
f 238/3/6 239/3/6 242/3/6
f 241/1/6 238/1/6 242/1/6
f 239/3/6 240/3/6 242/3/6
f 241/3/6 242/3/6 243/3/6
f 242/3/6 240/3/6 243/3/6
f 240/3/6 193/3/6 244/3/6
f 243/3/6 240/3/6 244/3/6
f 233/3/6 241/3/6 245/3/6
f 241/3/6 243/3/6 245/3/6
f 245/3/6 243/3/6 246/3/6
f 245/1/6 246/1/6 247/1/6
f 246/3/6 243/3/6 248/3/6
f 247/1/6 246/1/6 248/1/6
f 247/3/6 248/3/6 249/3/6
f 248/3/6 243/3/6 250/3/6
f 249/3/6 248/3/6 250/3/6
f 249/1/6 250/1/6 251/1/6
f 250/3/6 243/3/6 252/3/6
f 251/1/6 250/1/6 252/1/6
f 243/1/6 244/1/6 253/1/6
f 252/3/6 243/3/6 253/3/6
f 251/3/6 252/3/6 253/3/6
f 244/3/6 193/3/6 254/3/6
f 253/1/6 244/1/6 254/1/6
f 251/3/6 253/3/6 255/3/6
f 253/3/6 254/3/6 255/3/6
f 255/3/6 254/3/6 256/3/6
f 256/3/6 254/3/6 257/3/6
f 257/3/6 254/3/6 258/3/6
f 258/3/6 254/3/6 259/3/6
f 259/3/6 254/3/6 260/3/6
f 260/3/6 254/3/6 261/3/6
f 261/3/6 254/3/6 262/3/6
f 251/3/6 255/3/6 263/3/6
f 255/1/6 256/1/6 263/1/6
f 256/3/6 257/3/6 264/3/6
f 263/1/6 256/1/6 264/1/6
f 257/1/6 258/1/6 265/1/6
f 264/3/6 257/3/6 265/3/6
f 258/3/6 259/3/6 266/3/6
f 265/1/6 258/1/6 266/1/6
f 259/1/6 260/1/6 267/1/6
f 266/3/6 259/3/6 267/3/6
f 260/3/6 261/3/6 268/3/6
f 267/1/6 260/1/6 268/1/6
f 261/1/6 262/1/6 269/1/6
f 268/3/6 261/3/6 269/3/6
f 262/3/6 254/3/6 270/3/6
f 269/1/6 262/1/6 270/1/6
f 268/3/6 269/3/6 271/3/6
f 267/3/6 268/3/6 271/3/6
f 269/3/6 270/3/6 271/3/6
f 266/3/6 267/3/6 271/3/6
f 265/3/6 266/3/6 271/3/6
f 264/3/6 265/3/6 271/3/6
f 263/3/6 264/3/6 271/3/6
f 251/3/6 263/3/6 271/3/6
f 254/3/6 193/3/6 272/3/6
f 271/3/6 270/3/6 272/3/6
f 193/1/6 194/1/6 272/1/6
f 270/3/6 254/3/6 272/3/6
f 271/1/6 272/1/6 273/1/6
f 272/1/6 194/1/6 274/1/6
f 273/1/6 272/1/6 274/1/6
f 275/2/6 276/2/6 279/2/6
f 279/2/6 276/2/6 280/2/6
f 277/2/6 278/2/6 282/2/6
f 281/2/6 282/2/6 283/2/6
f 282/2/6 278/2/6 284/2/6
f 283/2/6 282/2/6 284/2/6
