# MagicaVoxel @ Ephtracy

# material
mtllib singleTM302.mtl
usemtl palette

# normals
vn -1 0 0
vn 1 0 0
vn 0 0 1
vn 0 0 -1
vn 0 -1 0
vn 0 1 0

# texcoords
vt 0.00195312 0.5
vt 0.00585938 0.5
vt 0.0253906 0.5
vt 0.0449219 0.5

# verts
v -15 0 30
v -15 0 22
v -15 0 21
v -15 0 -21
v -15 0 -22
v -15 0 -30
v -15 1 30
v -15 1 22
v -15 1 21
v -15 1 -21
v -15 1 -22
v -15 2 30
v -15 2 -30
v 7 1 30
v 7 1 24
v 7 1 22
v 7 2 30
v 7 2 22
v -7 1 30
v -7 1 24
v -7 1 22
v -7 1 -30
v -7 2 30
v -7 2 -30
v 15 0 30
v 15 0 26
v 15 0 21
v 15 0 -30
v 15 1 30
v 15 1 26
v 15 1 22
v 15 1 21
v 15 1 -30
v 15 2 30
v 15 2 22
v -15 0 30
v -15 1 30
v -15 2 30
v -9 0 30
v -9 1 30
v -8 0 30
v -8 1 30
v -7 0 30
v -7 1 30
v -7 2 30
v -6 0 30
v -6 1 30
v 6 0 30
v 6 1 30
v 7 0 30
v 7 1 30
v 7 2 30
v 8 0 30
v 8 1 30
v 9 0 30
v 9 1 30
v 15 0 30
v 15 1 30
v 15 2 30
v 7 1 22
v 7 2 22
v 14 1 22
v 15 1 22
v 15 2 22
v -15 0 -30
v -15 2 -30
v -7 0 -30
v -7 1 -30
v -7 2 -30
v -6 0 -30
v -6 1 -30
v 15 0 -30
v 15 1 -30
v -15 0 30
v -9 0 30
v -8 0 30
v -7 0 30
v -6 0 30
v 6 0 30
v 7 0 30
v 8 0 30
v 9 0 30
v 15 0 30
v -1 0 26
v 0 0 26
v 14 0 26
v 15 0 26
v -9 0 24
v -8 0 24
v -7 0 24
v -6 0 24
v 6 0 24
v 7 0 24
v 8 0 24
v 9 0 24
v -15 0 22
v -7 0 22
v -6 0 22
v 6 0 22
v 7 0 22
v 14 0 22
v -15 0 21
v -7 0 21
v -1 0 21
v 0 0 21
v 6 0 21
v 7 0 21
v 14 0 21
v 15 0 21
v -13 0 15
v -8 0 15
v -13 0 14
v -8 0 14
v -12 0 -15
v -8 0 -15
v -12 0 -16
v -8 0 -16
v -15 0 -21
v -7 0 -21
v -15 0 -22
v -7 0 -22
v -1 0 -22
v 0 0 -22
v -1 0 -28
v 0 0 -28
v -15 0 -30
v -7 0 -30
v -6 0 -30
v 15 0 -30
v -7 1 30
v -6 1 30
v 6 1 30
v 7 1 30
v -1 1 26
v 0 1 26
v -7 1 24
v -6 1 24
v 6 1 24
v 7 1 24
v -7 1 22
v -6 1 22
v 6 1 22
v 7 1 22
v 14 1 22
v 15 1 22
v -1 1 21
v 0 1 21
v 6 1 21
v 7 1 21
v 14 1 21
v 15 1 21
v -1 1 -22
v 0 1 -22
v -1 1 -28
v 0 1 -28
v -7 1 -30
v -6 1 -30
v 15 1 -30
v -15 2 30
v -7 2 30
v 7 2 30
v 15 2 30
v 7 2 22
v 15 2 22
v -15 2 -30
v -7 2 -30

# faces
f 7/4/1 2/4/1 1/4/1
f 8/2/1 3/2/1 2/2/1
f 8/4/1 2/4/1 7/4/1
f 9/4/1 4/4/1 3/4/1
f 9/2/1 3/2/1 8/2/1
f 10/1/1 5/1/1 4/1/1
f 10/4/1 4/4/1 9/4/1
f 11/3/1 6/3/1 5/3/1
f 11/1/1 5/1/1 10/1/1
f 12/3/1 10/3/1 9/3/1
f 12/3/1 8/3/1 7/3/1
f 12/3/1 11/3/1 10/3/1
f 12/3/1 9/3/1 8/3/1
f 13/3/1 6/3/1 11/3/1
f 13/3/1 11/3/1 12/3/1
f 17/3/1 15/3/1 14/3/1
f 17/3/1 16/3/1 15/3/1
f 18/3/1 16/3/1 17/3/1
f 19/3/2 20/3/2 23/3/2
f 21/3/2 22/3/2 23/3/2
f 20/3/2 21/3/2 23/3/2
f 23/3/2 22/3/2 24/3/2
f 25/4/2 26/4/2 29/4/2
f 26/1/2 27/1/2 30/1/2
f 29/4/2 26/4/2 30/4/2
f 30/1/2 27/1/2 31/1/2
f 27/4/2 28/4/2 32/4/2
f 31/1/2 27/1/2 32/1/2
f 32/4/2 28/4/2 33/4/2
f 30/3/2 31/3/2 34/3/2
f 29/3/2 30/3/2 34/3/2
f 34/3/2 31/3/2 35/3/2
f 39/4/3 37/4/3 36/4/3
f 40/3/3 38/3/3 37/3/3
f 40/4/3 37/4/3 39/4/3
f 41/1/3 40/1/3 39/1/3
f 42/3/3 38/3/3 40/3/3
f 42/1/3 40/1/3 41/1/3
f 43/4/3 42/4/3 41/4/3
f 44/3/3 38/3/3 42/3/3
f 44/4/3 42/4/3 43/4/3
f 45/3/3 38/3/3 44/3/3
f 46/1/3 44/1/3 43/1/3
f 47/1/3 44/1/3 46/1/3
f 48/4/3 47/4/3 46/4/3
f 49/4/3 47/4/3 48/4/3
f 50/1/3 49/1/3 48/1/3
f 51/1/3 49/1/3 50/1/3
f 53/4/3 51/4/3 50/4/3
f 54/3/3 52/3/3 51/3/3
f 54/4/3 51/4/3 53/4/3
f 55/1/3 54/1/3 53/1/3
f 56/3/3 52/3/3 54/3/3
f 56/1/3 54/1/3 55/1/3
f 57/4/3 56/4/3 55/4/3
f 58/3/3 52/3/3 56/3/3
f 58/4/3 56/4/3 57/4/3
f 59/3/3 52/3/3 58/3/3
f 60/3/4 61/3/4 62/3/4
f 62/3/4 61/3/4 63/3/4
f 63/3/4 61/3/4 64/3/4
f 65/3/4 66/3/4 67/3/4
f 67/3/4 66/3/4 68/3/4
f 68/3/4 66/3/4 69/3/4
f 67/1/4 68/1/4 70/1/4
f 70/1/4 68/1/4 71/1/4
f 70/4/4 71/4/4 72/4/4
f 72/4/4 71/4/4 73/4/4
f 84/4/5 79/4/5 78/4/5
f 85/4/5 79/4/5 84/4/5
f 86/4/5 83/4/5 82/4/5
f 87/4/5 83/4/5 86/4/5
f 88/4/5 75/4/5 74/4/5
f 88/1/5 76/1/5 75/1/5
f 89/4/5 77/4/5 76/4/5
f 89/1/5 76/1/5 88/1/5
f 90/1/5 78/1/5 77/1/5
f 90/4/5 77/4/5 89/4/5
f 91/4/5 84/4/5 78/4/5
f 91/1/5 78/1/5 90/1/5
f 92/4/5 79/4/5 85/4/5
f 92/1/5 80/1/5 79/1/5
f 93/4/5 81/4/5 80/4/5
f 93/1/5 80/1/5 92/1/5
f 94/1/5 82/1/5 81/1/5
f 94/4/5 81/4/5 93/4/5
f 95/4/5 86/4/5 82/4/5
f 95/1/5 82/1/5 94/1/5
f 96/4/5 88/4/5 74/4/5
f 96/4/5 89/4/5 88/4/5
f 96/4/5 90/4/5 89/4/5
f 97/2/5 91/2/5 90/2/5
f 97/4/5 90/4/5 96/4/5
f 98/4/5 84/4/5 91/4/5
f 98/2/5 91/2/5 97/2/5
f 99/4/5 92/4/5 85/4/5
f 99/2/5 93/2/5 92/2/5
f 100/4/5 95/4/5 94/4/5
f 100/2/5 93/2/5 99/2/5
f 100/4/5 94/4/5 93/4/5
f 101/1/5 87/1/5 86/1/5
f 101/4/5 95/4/5 100/4/5
f 101/4/5 86/4/5 95/4/5
f 102/2/5 97/2/5 96/2/5
f 103/1/5 98/1/5 97/1/5
f 103/2/5 97/2/5 102/2/5
f 104/2/5 85/2/5 84/2/5
f 104/4/5 84/4/5 98/4/5
f 105/4/5 99/4/5 85/4/5
f 105/2/5 85/2/5 104/2/5
f 106/1/5 100/1/5 99/1/5
f 106/4/5 99/4/5 105/4/5
f 107/2/5 101/2/5 100/2/5
f 107/1/5 100/1/5 106/1/5
f 108/1/5 87/1/5 101/1/5
f 108/2/5 101/2/5 107/2/5
f 109/1/5 87/1/5 108/1/5
f 110/4/5 103/4/5 102/4/5
f 111/4/5 103/4/5 110/4/5
f 112/4/5 110/4/5 102/4/5
f 112/2/5 111/2/5 110/2/5
f 113/4/5 103/4/5 111/4/5
f 113/2/5 111/2/5 112/2/5
f 114/4/5 113/4/5 112/4/5
f 115/4/5 103/4/5 113/4/5
f 115/4/5 113/4/5 114/4/5
f 116/4/5 114/4/5 112/4/5
f 116/2/5 115/2/5 114/2/5
f 117/4/5 103/4/5 115/4/5
f 117/2/5 115/2/5 116/2/5
f 118/4/5 112/4/5 102/4/5
f 118/4/5 116/4/5 112/4/5
f 118/4/5 117/4/5 116/4/5
f 119/1/5 98/1/5 103/1/5
f 119/4/5 117/4/5 118/4/5
f 119/4/5 103/4/5 117/4/5
f 120/1/5 119/1/5 118/1/5
f 121/1/5 98/1/5 119/1/5
f 121/1/5 119/1/5 120/1/5
f 122/4/5 105/4/5 104/4/5
f 122/4/5 104/4/5 98/4/5
f 122/4/5 107/4/5 106/4/5
f 122/4/5 106/4/5 105/4/5
f 122/4/5 109/4/5 108/4/5
f 122/4/5 108/4/5 107/4/5
f 123/4/5 109/4/5 122/4/5
f 124/4/5 122/4/5 98/4/5
f 124/1/5 123/1/5 122/1/5
f 125/4/5 109/4/5 123/4/5
f 125/1/5 123/1/5 124/1/5
f 126/3/5 121/3/5 120/3/5
f 127/1/5 98/1/5 121/1/5
f 127/3/5 121/3/5 126/3/5
f 128/4/5 124/4/5 98/4/5
f 128/1/5 98/1/5 127/1/5
f 128/4/5 125/4/5 124/4/5
f 129/4/5 109/4/5 125/4/5
f 129/4/5 125/4/5 128/4/5
f 131/4/6 132/4/6 134/4/6
f 134/4/6 132/4/6 135/4/6
f 130/1/6 131/1/6 136/1/6
f 131/4/6 134/4/6 137/4/6
f 136/1/6 131/1/6 137/1/6
f 135/4/6 132/4/6 138/4/6
f 132/1/6 133/1/6 138/1/6
f 138/1/6 133/1/6 139/1/6
f 136/2/6 137/2/6 140/2/6
f 137/4/6 134/4/6 141/4/6
f 140/2/6 137/2/6 141/2/6
f 135/4/6 138/4/6 142/4/6
f 138/2/6 139/2/6 142/2/6
f 142/2/6 139/2/6 143/2/6
f 134/2/6 135/2/6 146/2/6
f 141/4/6 134/4/6 146/4/6
f 135/4/6 142/4/6 147/4/6
f 146/2/6 135/2/6 147/2/6
f 142/1/6 143/1/6 148/1/6
f 147/4/6 142/4/6 148/4/6
f 143/2/6 144/2/6 149/2/6
f 148/1/6 143/1/6 149/1/6
f 144/1/6 145/1/6 150/1/6
f 149/2/6 144/2/6 150/2/6
f 150/1/6 145/1/6 151/1/6
f 146/4/6 147/4/6 152/4/6
f 148/4/6 149/4/6 152/4/6
f 150/4/6 151/4/6 152/4/6
f 149/4/6 150/4/6 152/4/6
f 141/4/6 146/4/6 152/4/6
f 147/4/6 148/4/6 152/4/6
f 152/4/6 151/4/6 153/4/6
f 141/4/6 152/4/6 154/4/6
f 152/1/6 153/1/6 154/1/6
f 153/4/6 151/4/6 155/4/6
f 154/1/6 153/1/6 155/1/6
f 140/1/6 141/1/6 156/1/6
f 141/4/6 154/4/6 157/4/6
f 156/1/6 141/1/6 157/1/6
f 154/4/6 155/4/6 157/4/6
f 155/4/6 151/4/6 158/4/6
f 157/4/6 155/4/6 158/4/6
f 161/3/6 162/3/6 163/3/6
f 163/3/6 162/3/6 164/3/6
f 159/3/6 160/3/6 165/3/6
f 165/3/6 160/3/6 166/3/6
