# MagicaVoxel @ Ephtracy

# material
mtllib singleTM30.mtl
usemtl palette

# normals
vn -1 0 0
vn 1 0 0
vn 0 0 1
vn 0 0 -1
vn 0 -1 0
vn 0 1 0

# texcoords
vt 0.00195312 0.5
vt 0.00585938 0.5
vt 0.0253906 0.5
vt 0.0449219 0.5

# verts
v -15 0 30
v -15 0 22
v -15 0 21
v -15 0 -21
v -15 0 -22
v -15 0 -30
v -15 1 30
v -15 1 22
v -15 1 21
v -15 1 -21
v -15 1 -22
v -15 2 30
v -15 2 22
v -15 2 -22
v -15 2 -30
v 7 1 30
v 7 1 24
v 7 1 22
v 7 2 30
v 7 2 22
v -7 1 30
v -7 1 24
v -7 1 22
v -7 2 30
v -7 2 22
v 15 0 30
v 15 0 26
v 15 0 21
v 15 0 -21
v 15 0 -22
v 15 0 -30
v 15 1 30
v 15 1 26
v 15 1 22
v 15 1 21
v 15 1 -21
v 15 1 -22
v 15 2 30
v 15 2 22
v 15 2 -22
v 15 2 -30
v -15 0 30
v -15 1 30
v -15 2 30
v -9 0 30
v -9 1 30
v -8 0 30
v -8 1 30
v -7 0 30
v -7 1 30
v -7 2 30
v -6 0 30
v -6 1 30
v 6 0 30
v 6 1 30
v 7 0 30
v 7 1 30
v 7 2 30
v 8 0 30
v 8 1 30
v 9 0 30
v 9 1 30
v 15 0 30
v 15 1 30
v 15 2 30
v -15 1 -22
v -15 2 -22
v 15 1 -22
v 15 2 -22
v -15 1 22
v -15 2 22
v -7 1 22
v -7 2 22
v 7 1 22
v 7 2 22
v 14 1 22
v 15 1 22
v 15 2 22
v -15 0 -30
v -15 2 -30
v 15 0 -30
v 15 2 -30
v -15 0 30
v -9 0 30
v -8 0 30
v -7 0 30
v -6 0 30
v 6 0 30
v 7 0 30
v 8 0 30
v 9 0 30
v 15 0 30
v -1 0 26
v 0 0 26
v 14 0 26
v 15 0 26
v -9 0 24
v -8 0 24
v -7 0 24
v -6 0 24
v 6 0 24
v 7 0 24
v 8 0 24
v 9 0 24
v -15 0 22
v -7 0 22
v 7 0 22
v 14 0 22
v -15 0 21
v -6 0 21
v -1 0 21
v 0 0 21
v 6 0 21
v 14 0 21
v 15 0 21
v -13 0 15
v -8 0 15
v 8 0 15
v 13 0 15
v -13 0 14
v -8 0 14
v 8 0 14
v 13 0 14
v -12 0 -15
v -8 0 -15
v -3 0 -15
v 2 0 -15
v 7 0 -15
v 11 0 -15
v -12 0 -16
v -8 0 -16
v -3 0 -16
v 2 0 -16
v 7 0 -16
v 11 0 -16
v -15 0 -21
v 15 0 -21
v -15 0 -22
v 15 0 -22
v -15 0 -30
v 15 0 -30
v -7 1 30
v -6 1 30
v 6 1 30
v 7 1 30
v -1 1 26
v 0 1 26
v -7 1 24
v -6 1 24
v 6 1 24
v 7 1 24
v -15 1 22
v -7 1 22
v 7 1 22
v 14 1 22
v 15 1 22
v -15 1 21
v -6 1 21
v -1 1 21
v 0 1 21
v 6 1 21
v 14 1 21
v 15 1 21
v -13 1 15
v -8 1 15
v 8 1 15
v 13 1 15
v -13 1 14
v -8 1 14
v 8 1 14
v 13 1 14
v -12 1 -15
v -8 1 -15
v -3 1 -15
v 2 1 -15
v 7 1 -15
v 11 1 -15
v -12 1 -16
v -8 1 -16
v -3 1 -16
v 2 1 -16
v 7 1 -16
v 11 1 -16
v -15 1 -21
v 15 1 -21
v -15 1 -22
v 15 1 -22
v -15 2 30
v -7 2 30
v 7 2 30
v 15 2 30
v -15 2 22
v -7 2 22
v 7 2 22
v 15 2 22
v -15 2 -22
v 15 2 -22
v -15 2 -30
v 15 2 -30

# faces
f 7/4/1 2/4/1 1/4/1
f 8/2/1 3/2/1 2/2/1
f 8/4/1 2/4/1 7/4/1
f 9/4/1 4/4/1 3/4/1
f 9/2/1 3/2/1 8/2/1
f 10/1/1 5/1/1 4/1/1
f 10/4/1 4/4/1 9/4/1
f 11/3/1 6/3/1 5/3/1
f 11/1/1 5/1/1 10/1/1
f 12/3/1 8/3/1 7/3/1
f 13/3/1 8/3/1 12/3/1
f 14/3/1 6/3/1 11/3/1
f 15/3/1 6/3/1 14/3/1
f 19/3/1 17/3/1 16/3/1
f 19/3/1 18/3/1 17/3/1
f 20/3/1 18/3/1 19/3/1
f 21/3/2 22/3/2 24/3/2
f 22/3/2 23/3/2 24/3/2
f 24/3/2 23/3/2 25/3/2
f 26/4/2 27/4/2 32/4/2
f 27/1/2 28/1/2 33/1/2
f 32/4/2 27/4/2 33/4/2
f 33/1/2 28/1/2 34/1/2
f 28/4/2 29/4/2 35/4/2
f 34/1/2 28/1/2 35/1/2
f 29/1/2 30/1/2 36/1/2
f 35/4/2 29/4/2 36/4/2
f 30/3/2 31/3/2 37/3/2
f 36/1/2 30/1/2 37/1/2
f 33/3/2 34/3/2 38/3/2
f 32/3/2 33/3/2 38/3/2
f 38/3/2 34/3/2 39/3/2
f 37/3/2 31/3/2 40/3/2
f 40/3/2 31/3/2 41/3/2
f 45/4/3 43/4/3 42/4/3
f 46/3/3 44/3/3 43/3/3
f 46/4/3 43/4/3 45/4/3
f 47/1/3 46/1/3 45/1/3
f 48/3/3 44/3/3 46/3/3
f 48/1/3 46/1/3 47/1/3
f 49/4/3 48/4/3 47/4/3
f 50/3/3 44/3/3 48/3/3
f 50/4/3 48/4/3 49/4/3
f 51/3/3 44/3/3 50/3/3
f 52/1/3 50/1/3 49/1/3
f 53/1/3 50/1/3 52/1/3
f 54/4/3 53/4/3 52/4/3
f 55/4/3 53/4/3 54/4/3
f 56/1/3 55/1/3 54/1/3
f 57/1/3 55/1/3 56/1/3
f 59/4/3 57/4/3 56/4/3
f 60/3/3 58/3/3 57/3/3
f 60/4/3 57/4/3 59/4/3
f 61/1/3 60/1/3 59/1/3
f 62/3/3 58/3/3 60/3/3
f 62/1/3 60/1/3 61/1/3
f 63/4/3 62/4/3 61/4/3
f 64/3/3 58/3/3 62/3/3
f 64/4/3 62/4/3 63/4/3
f 65/3/3 58/3/3 64/3/3
f 68/3/3 67/3/3 66/3/3
f 69/3/3 67/3/3 68/3/3
f 70/3/4 71/3/4 72/3/4
f 72/3/4 71/3/4 73/3/4
f 74/3/4 75/3/4 76/3/4
f 76/3/4 75/3/4 77/3/4
f 77/3/4 75/3/4 78/3/4
f 79/3/4 80/3/4 81/3/4
f 81/3/4 80/3/4 82/3/4
f 93/4/5 88/4/5 87/4/5
f 94/4/5 88/4/5 93/4/5
f 95/4/5 92/4/5 91/4/5
f 96/4/5 92/4/5 95/4/5
f 97/4/5 84/4/5 83/4/5
f 97/1/5 85/1/5 84/1/5
f 98/4/5 86/4/5 85/4/5
f 98/1/5 85/1/5 97/1/5
f 99/1/5 87/1/5 86/1/5
f 99/4/5 86/4/5 98/4/5
f 100/4/5 93/4/5 87/4/5
f 100/1/5 87/1/5 99/1/5
f 101/4/5 88/4/5 94/4/5
f 101/1/5 89/1/5 88/1/5
f 102/4/5 90/4/5 89/4/5
f 102/1/5 89/1/5 101/1/5
f 103/1/5 91/1/5 90/1/5
f 103/4/5 90/4/5 102/4/5
f 104/4/5 95/4/5 91/4/5
f 104/1/5 91/1/5 103/1/5
f 105/4/5 97/4/5 83/4/5
f 105/4/5 98/4/5 97/4/5
f 105/4/5 99/4/5 98/4/5
f 106/2/5 100/2/5 99/2/5
f 106/4/5 99/4/5 105/4/5
f 107/4/5 104/4/5 103/4/5
f 107/2/5 102/2/5 101/2/5
f 107/4/5 103/4/5 102/4/5
f 108/1/5 96/1/5 95/1/5
f 108/4/5 104/4/5 107/4/5
f 108/4/5 95/4/5 104/4/5
f 109/2/5 106/2/5 105/2/5
f 110/2/5 100/2/5 106/2/5
f 110/2/5 106/2/5 109/2/5
f 110/4/5 93/4/5 100/4/5
f 111/2/5 94/2/5 93/2/5
f 111/4/5 93/4/5 110/4/5
f 112/4/5 101/4/5 94/4/5
f 112/2/5 94/2/5 111/2/5
f 113/2/5 107/2/5 101/2/5
f 113/4/5 101/4/5 112/4/5
f 113/2/5 108/2/5 107/2/5
f 114/1/5 96/1/5 108/1/5
f 114/2/5 108/2/5 113/2/5
f 115/1/5 96/1/5 114/1/5
f 116/4/5 112/4/5 111/4/5
f 116/4/5 110/4/5 109/4/5
f 116/4/5 115/4/5 114/4/5
f 116/4/5 114/4/5 113/4/5
f 116/4/5 111/4/5 110/4/5
f 116/4/5 113/4/5 112/4/5
f 117/4/5 115/4/5 116/4/5
f 118/4/5 115/4/5 117/4/5
f 119/4/5 115/4/5 118/4/5
f 120/4/5 116/4/5 109/4/5
f 120/2/5 117/2/5 116/2/5
f 121/4/5 118/4/5 117/4/5
f 121/2/5 117/2/5 120/2/5
f 122/2/5 119/2/5 118/2/5
f 122/4/5 118/4/5 121/4/5
f 123/4/5 115/4/5 119/4/5
f 123/2/5 119/2/5 122/2/5
f 124/4/5 122/4/5 121/4/5
f 124/4/5 121/4/5 120/4/5
f 124/4/5 123/4/5 122/4/5
f 125/4/5 123/4/5 124/4/5
f 126/4/5 123/4/5 125/4/5
f 127/4/5 123/4/5 126/4/5
f 128/4/5 123/4/5 127/4/5
f 129/4/5 123/4/5 128/4/5
f 130/4/5 124/4/5 120/4/5
f 130/2/5 125/2/5 124/2/5
f 131/4/5 126/4/5 125/4/5
f 131/2/5 125/2/5 130/2/5
f 132/2/5 127/2/5 126/2/5
f 132/4/5 126/4/5 131/4/5
f 133/4/5 128/4/5 127/4/5
f 133/2/5 127/2/5 132/2/5
f 134/2/5 129/2/5 128/2/5
f 134/4/5 128/4/5 133/4/5
f 135/4/5 123/4/5 129/4/5
f 135/2/5 129/2/5 134/2/5
f 136/4/5 120/4/5 109/4/5
f 136/4/5 134/4/5 133/4/5
f 136/4/5 135/4/5 134/4/5
f 136/4/5 132/4/5 131/4/5
f 136/4/5 131/4/5 130/4/5
f 136/4/5 130/4/5 120/4/5
f 136/4/5 133/4/5 132/4/5
f 137/4/5 115/4/5 123/4/5
f 137/4/5 135/4/5 136/4/5
f 137/4/5 123/4/5 135/4/5
f 138/1/5 137/1/5 136/1/5
f 139/1/5 137/1/5 138/1/5
f 140/3/5 139/3/5 138/3/5
f 141/3/5 139/3/5 140/3/5
f 143/4/6 144/4/6 146/4/6
f 146/4/6 144/4/6 147/4/6
f 142/1/6 143/1/6 148/1/6
f 143/4/6 146/4/6 149/4/6
f 148/1/6 143/1/6 149/1/6
f 147/4/6 144/4/6 150/4/6
f 144/1/6 145/1/6 150/1/6
f 150/1/6 145/1/6 151/1/6
f 148/2/6 149/2/6 153/2/6
f 150/2/6 151/2/6 154/2/6
f 152/2/6 153/2/6 157/2/6
f 149/4/6 146/4/6 158/4/6
f 157/2/6 153/2/6 158/2/6
f 153/2/6 149/2/6 158/2/6
f 146/2/6 147/2/6 159/2/6
f 158/4/6 146/4/6 159/4/6
f 147/4/6 150/4/6 160/4/6
f 159/2/6 147/2/6 160/2/6
f 150/2/6 154/2/6 161/2/6
f 160/4/6 150/4/6 161/4/6
f 154/2/6 155/2/6 161/2/6
f 155/1/6 156/1/6 162/1/6
f 161/2/6 155/2/6 162/2/6
f 162/1/6 156/1/6 163/1/6
f 159/4/6 160/4/6 164/4/6
f 157/4/6 158/4/6 164/4/6
f 162/4/6 163/4/6 164/4/6
f 161/4/6 162/4/6 164/4/6
f 158/4/6 159/4/6 164/4/6
f 160/4/6 161/4/6 164/4/6
f 164/4/6 163/4/6 165/4/6
f 165/4/6 163/4/6 166/4/6
f 166/4/6 163/4/6 167/4/6
f 157/4/6 164/4/6 168/4/6
f 164/2/6 165/2/6 168/2/6
f 165/4/6 166/4/6 169/4/6
f 168/2/6 165/2/6 169/2/6
f 166/2/6 167/2/6 170/2/6
f 169/4/6 166/4/6 170/4/6
f 167/4/6 163/4/6 171/4/6
f 170/2/6 167/2/6 171/2/6
f 169/4/6 170/4/6 172/4/6
f 168/4/6 169/4/6 172/4/6
f 170/4/6 171/4/6 172/4/6
f 172/4/6 171/4/6 173/4/6
f 173/4/6 171/4/6 174/4/6
f 174/4/6 171/4/6 175/4/6
f 175/4/6 171/4/6 176/4/6
f 176/4/6 171/4/6 177/4/6
f 168/4/6 172/4/6 178/4/6
f 172/2/6 173/2/6 178/2/6
f 173/4/6 174/4/6 179/4/6
f 178/2/6 173/2/6 179/2/6
f 174/2/6 175/2/6 180/2/6
f 179/4/6 174/4/6 180/4/6
f 175/4/6 176/4/6 181/4/6
f 180/2/6 175/2/6 181/2/6
f 176/2/6 177/2/6 182/2/6
f 181/4/6 176/4/6 182/4/6
f 177/4/6 171/4/6 183/4/6
f 182/2/6 177/2/6 183/2/6
f 157/4/6 168/4/6 184/4/6
f 181/4/6 182/4/6 184/4/6
f 182/4/6 183/4/6 184/4/6
f 179/4/6 180/4/6 184/4/6
f 178/4/6 179/4/6 184/4/6
f 168/4/6 178/4/6 184/4/6
f 180/4/6 181/4/6 184/4/6
f 171/4/6 163/4/6 185/4/6
f 184/4/6 183/4/6 185/4/6
f 183/4/6 171/4/6 185/4/6
f 184/1/6 185/1/6 186/1/6
f 186/1/6 185/1/6 187/1/6
f 188/3/6 189/3/6 192/3/6
f 192/3/6 189/3/6 193/3/6
f 190/3/6 191/3/6 194/3/6
f 194/3/6 191/3/6 195/3/6
f 196/3/6 197/3/6 198/3/6
f 198/3/6 197/3/6 199/3/6
