# MagicaVoxel @ Ephtracy

# material
mtllib TM30.mtl
usemtl palette

# normals
vn -1 0 0
vn 1 0 0
vn 0 0 1
vn 0 0 -1
vn 0 -1 0
vn 0 1 0

# texcoords
vt 0.00195312 0.5
vt 0.0253906 0.5
vt 0.0449219 0.5

# verts
v -30 0 30
v -30 0 22
v -30 0 21
v -30 0 9
v -30 0 8
v -30 0 7
v -30 0 6
v -30 0 -6
v -30 0 -7
v -30 0 -8
v -30 0 -9
v -30 0 -21
v -30 0 -22
v -30 0 -30
v -30 1 30
v -30 1 22
v -30 1 21
v -30 1 9
v -30 1 8
v -30 1 7
v -30 1 6
v -30 1 -6
v -30 1 -7
v -30 1 -8
v -30 1 -9
v -30 1 -21
v -30 1 -22
v -30 2 30
v -30 2 22
v -30 2 -22
v -30 2 -30
v 22 1 30
v 22 1 22
v 22 2 30
v 22 2 22
v -22 1 30
v -22 1 22
v -22 2 30
v -22 2 22
v 30 0 30
v 30 0 22
v 30 0 21
v 30 0 9
v 30 0 8
v 30 0 7
v 30 0 6
v 30 0 -6
v 30 0 -7
v 30 0 -8
v 30 0 -9
v 30 0 -21
v 30 0 -22
v 30 0 -30
v 30 1 22
v 30 1 21
v 30 1 9
v 30 1 8
v 30 1 7
v 30 1 6
v 30 1 -6
v 30 1 -7
v 30 1 -8
v 30 1 -9
v 30 1 -21
v 30 1 -22
v 30 2 30
v 30 2 22
v 30 2 -22
v 30 2 -30
v -30 0 30
v -30 1 30
v -30 2 30
v -22 0 30
v -22 1 30
v -22 2 30
v -21 0 30
v -21 1 30
v -9 0 30
v -9 1 30
v -8 0 30
v -8 1 30
v -7 0 30
v -7 1 30
v -6 0 30
v -6 1 30
v 6 0 30
v 6 1 30
v 7 0 30
v 7 1 30
v 8 0 30
v 8 1 30
v 9 0 30
v 9 1 30
v 21 0 30
v 21 1 30
v 22 0 30
v 22 1 30
v 22 2 30
v 30 0 30
v 30 2 30
v -30 1 -22
v -30 2 -22
v 30 1 -22
v 30 2 -22
v -30 1 22
v -30 2 22
v -22 1 22
v -22 2 22
v 22 1 22
v 22 2 22
v 30 1 22
v 30 2 22
v -30 0 -30
v -30 2 -30
v 30 0 -30
v 30 2 -30
v -30 0 30
v -22 0 30
v -21 0 30
v -9 0 30
v -8 0 30
v -7 0 30
v -6 0 30
v 6 0 30
v 7 0 30
v 8 0 30
v 9 0 30
v 21 0 30
v 22 0 30
v 30 0 30
v -16 0 26
v -15 0 26
v 14 0 26
v 15 0 26
v -9 0 24
v -8 0 24
v -7 0 24
v -6 0 24
v 6 0 24
v 7 0 24
v 8 0 24
v 9 0 24
v -30 0 22
v -22 0 22
v 22 0 22
v 30 0 22
v -30 0 21
v -21 0 21
v -16 0 21
v -15 0 21
v 14 0 21
v 15 0 21
v 21 0 21
v 30 0 21
v -27 0 16
v -21 0 16
v 14 0 16
v 15 0 16
v 21 0 16
v 26 0 16
v -27 0 15
v -21 0 15
v 21 0 15
v 26 0 15
v -3 0 12
v -2 0 12
v 14 0 11
v 15 0 11
v -30 0 9
v -25 0 9
v 26 0 9
v 30 0 9
v -30 0 8
v -25 0 8
v 26 0 8
v 30 0 8
v -30 0 7
v -25 0 7
v -3 0 7
v -2 0 7
v 26 0 7
v 30 0 7
v -30 0 6
v -25 0 6
v 14 0 6
v 15 0 6
v 26 0 6
v 30 0 6
v -15 0 1
v -10 0 1
v 14 0 1
v 15 0 1
v -15 0 -0
v -10 0 -0
v 14 0 -5
v 15 0 -5
v -30 0 -6
v -25 0 -6
v 26 0 -6
v 30 0 -6
v -30 0 -7
v -25 0 -7
v 26 0 -7
v 30 0 -7
v -30 0 -8
v -25 0 -8
v 26 0 -8
v 30 0 -8
v -30 0 -9
v -25 0 -9
v 26 0 -9
v 30 0 -9
v 14 0 -10
v 15 0 -10
v 21 0 -14
v 26 0 -14
v -27 0 -15
v -22 0 -15
v -15 0 -15
v -11 0 -15
v -4 0 -15
v 0 0 -15
v 5 0 -15
v 10 0 -15
v 21 0 -15
v 26 0 -15
v -27 0 -16
v -22 0 -16
v -15 0 -16
v -11 0 -16
v -4 0 -16
v 0 0 -16
v 5 0 -16
v 10 0 -16
v -30 0 -21
v 30 0 -21
v -30 0 -22
v 30 0 -22
v -30 0 -30
v 30 0 -30
v -22 1 30
v -21 1 30
v -9 1 30
v -8 1 30
v -7 1 30
v -6 1 30
v 6 1 30
v 7 1 30
v 8 1 30
v 9 1 30
v 21 1 30
v 22 1 30
v -16 1 26
v -15 1 26
v 14 1 26
v 15 1 26
v -9 1 24
v -8 1 24
v -7 1 24
v -6 1 24
v 6 1 24
v 7 1 24
v 8 1 24
v 9 1 24
v -30 1 22
v -22 1 22
v 22 1 22
v 30 1 22
v -30 1 21
v -21 1 21
v -16 1 21
v -15 1 21
v 14 1 21
v 15 1 21
v 21 1 21
v 30 1 21
v -27 1 16
v -21 1 16
v 14 1 16
v 15 1 16
v 21 1 16
v 26 1 16
v -27 1 15
v -21 1 15
v 21 1 15
v 26 1 15
v -3 1 12
v -2 1 12
v 14 1 11
v 15 1 11
v -30 1 9
v -25 1 9
v 26 1 9
v 30 1 9
v -30 1 8
v -25 1 8
v 26 1 8
v 30 1 8
v -30 1 7
v -25 1 7
v -3 1 7
v -2 1 7
v 26 1 7
v 30 1 7
v -30 1 6
v -25 1 6
v 14 1 6
v 15 1 6
v 26 1 6
v 30 1 6
v -15 1 1
v -10 1 1
v 14 1 1
v 15 1 1
v -15 1 -0
v -10 1 -0
v 14 1 -5
v 15 1 -5
v -30 1 -6
v -25 1 -6
v 26 1 -6
v 30 1 -6
v -30 1 -7
v -25 1 -7
v 26 1 -7
v 30 1 -7
v -30 1 -8
v -25 1 -8
v 26 1 -8
v 30 1 -8
v -30 1 -9
v -25 1 -9
v 26 1 -9
v 30 1 -9
v 14 1 -10
v 15 1 -10
v 21 1 -14
v 26 1 -14
v -27 1 -15
v -22 1 -15
v -15 1 -15
v -11 1 -15
v -4 1 -15
v 0 1 -15
v 5 1 -15
v 10 1 -15
v 21 1 -15
v 26 1 -15
v -27 1 -16
v -22 1 -16
v -15 1 -16
v -11 1 -16
v -4 1 -16
v 0 1 -16
v 5 1 -16
v 10 1 -16
v -30 1 -21
v 30 1 -21
v -30 1 -22
v 30 1 -22
v -30 2 30
v -22 2 30
v 22 2 30
v 30 2 30
v -30 2 22
v -22 2 22
v 22 2 22
v 30 2 22
v -30 2 -22
v 30 2 -22
v -30 2 -30
v 30 2 -30

# faces
f 15/3/1 2/3/1 1/3/1
f 16/1/1 3/1/1 2/1/1
f 16/3/1 2/3/1 15/3/1
f 17/3/1 4/3/1 3/3/1
f 17/1/1 3/1/1 16/1/1
f 18/1/1 5/1/1 4/1/1
f 18/3/1 4/3/1 17/3/1
f 19/3/1 6/3/1 5/3/1
f 19/1/1 5/1/1 18/1/1
f 20/1/1 7/1/1 6/1/1
f 20/3/1 6/3/1 19/3/1
f 21/3/1 8/3/1 7/3/1
f 21/1/1 7/1/1 20/1/1
f 22/1/1 9/1/1 8/1/1
f 22/3/1 8/3/1 21/3/1
f 23/3/1 10/3/1 9/3/1
f 23/1/1 9/1/1 22/1/1
f 24/1/1 11/1/1 10/1/1
f 24/3/1 10/3/1 23/3/1
f 25/3/1 12/3/1 11/3/1
f 25/1/1 11/1/1 24/1/1
f 26/1/1 13/1/1 12/1/1
f 26/3/1 12/3/1 25/3/1
f 27/2/1 14/2/1 13/2/1
f 27/1/1 13/1/1 26/1/1
f 28/2/1 16/2/1 15/2/1
f 29/2/1 16/2/1 28/2/1
f 30/2/1 14/2/1 27/2/1
f 31/2/1 14/2/1 30/2/1
f 34/2/1 33/2/1 32/2/1
f 35/2/1 33/2/1 34/2/1
f 36/2/2 37/2/2 38/2/2
f 38/2/2 37/2/2 39/2/2
f 40/2/2 41/2/2 54/2/2
f 41/1/2 42/1/2 54/1/2
f 42/3/2 43/3/2 55/3/2
f 54/1/2 42/1/2 55/1/2
f 43/1/2 44/1/2 56/1/2
f 55/3/2 43/3/2 56/3/2
f 44/3/2 45/3/2 57/3/2
f 56/1/2 44/1/2 57/1/2
f 45/1/2 46/1/2 58/1/2
f 57/3/2 45/3/2 58/3/2
f 46/3/2 47/3/2 59/3/2
f 58/1/2 46/1/2 59/1/2
f 47/1/2 48/1/2 60/1/2
f 59/3/2 47/3/2 60/3/2
f 48/3/2 49/3/2 61/3/2
f 60/1/2 48/1/2 61/1/2
f 49/1/2 50/1/2 62/1/2
f 61/3/2 49/3/2 62/3/2
f 50/3/2 51/3/2 63/3/2
f 62/1/2 50/1/2 63/1/2
f 51/1/2 52/1/2 64/1/2
f 63/3/2 51/3/2 64/3/2
f 52/2/2 53/2/2 65/2/2
f 64/1/2 52/1/2 65/1/2
f 40/2/2 54/2/2 66/2/2
f 66/2/2 54/2/2 67/2/2
f 65/2/2 53/2/2 68/2/2
f 68/2/2 53/2/2 69/2/2
f 73/3/3 71/3/3 70/3/3
f 74/2/3 72/2/3 71/2/3
f 74/3/3 71/3/3 73/3/3
f 75/2/3 72/2/3 74/2/3
f 76/1/3 74/1/3 73/1/3
f 77/1/3 74/1/3 76/1/3
f 78/3/3 77/3/3 76/3/3
f 79/3/3 77/3/3 78/3/3
f 80/1/3 79/1/3 78/1/3
f 81/1/3 79/1/3 80/1/3
f 82/3/3 81/3/3 80/3/3
f 83/3/3 81/3/3 82/3/3
f 84/1/3 83/1/3 82/1/3
f 85/1/3 83/1/3 84/1/3
f 86/3/3 85/3/3 84/3/3
f 87/3/3 85/3/3 86/3/3
f 88/1/3 87/1/3 86/1/3
f 89/1/3 87/1/3 88/1/3
f 90/3/3 89/3/3 88/3/3
f 91/3/3 89/3/3 90/3/3
f 92/1/3 91/1/3 90/1/3
f 93/1/3 91/1/3 92/1/3
f 94/3/3 93/3/3 92/3/3
f 95/3/3 93/3/3 94/3/3
f 96/1/3 95/1/3 94/1/3
f 97/1/3 95/1/3 96/1/3
f 99/2/3 97/2/3 96/2/3
f 99/2/3 98/2/3 97/2/3
f 100/2/3 98/2/3 99/2/3
f 103/2/3 102/2/3 101/2/3
f 104/2/3 102/2/3 103/2/3
f 105/2/4 106/2/4 107/2/4
f 107/2/4 106/2/4 108/2/4
f 109/2/4 110/2/4 111/2/4
f 111/2/4 110/2/4 112/2/4
f 113/2/4 114/2/4 115/2/4
f 115/2/4 114/2/4 116/2/4
f 131/3/5 120/3/5 119/3/5
f 132/3/5 120/3/5 131/3/5
f 133/3/5 128/3/5 127/3/5
f 134/3/5 128/3/5 133/3/5
f 135/1/5 121/1/5 120/1/5
f 135/3/5 120/3/5 132/3/5
f 136/3/5 122/3/5 121/3/5
f 136/1/5 121/1/5 135/1/5
f 137/1/5 123/1/5 122/1/5
f 137/3/5 122/3/5 136/3/5
f 138/3/5 124/3/5 123/3/5
f 138/1/5 123/1/5 137/1/5
f 139/1/5 125/1/5 124/1/5
f 139/3/5 124/3/5 138/3/5
f 140/3/5 126/3/5 125/3/5
f 140/1/5 125/1/5 139/1/5
f 141/1/5 127/1/5 126/1/5
f 141/3/5 126/3/5 140/3/5
f 142/3/5 133/3/5 127/3/5
f 142/1/5 127/1/5 141/1/5
f 143/3/5 118/3/5 117/3/5
f 144/1/5 119/1/5 118/1/5
f 144/3/5 118/3/5 143/3/5
f 145/2/5 130/2/5 129/2/5
f 145/1/5 129/1/5 128/1/5
f 146/2/5 130/2/5 145/2/5
f 147/1/5 144/1/5 143/1/5
f 148/1/5 119/1/5 144/1/5
f 148/1/5 144/1/5 147/1/5
f 148/3/5 131/3/5 119/3/5
f 149/1/5 132/1/5 131/1/5
f 149/3/5 131/3/5 148/3/5
f 150/3/5 135/3/5 132/3/5
f 150/1/5 132/1/5 149/1/5
f 150/3/5 136/3/5 135/3/5
f 150/3/5 137/3/5 136/3/5
f 150/3/5 142/3/5 141/3/5
f 150/3/5 141/3/5 140/3/5
f 150/3/5 138/3/5 137/3/5
f 150/3/5 139/3/5 138/3/5
f 150/3/5 140/3/5 139/3/5
f 151/3/5 133/3/5 142/3/5
f 151/3/5 142/3/5 150/3/5
f 151/1/5 134/1/5 133/1/5
f 152/3/5 128/3/5 134/3/5
f 152/1/5 134/1/5 151/1/5
f 153/1/5 145/1/5 128/1/5
f 153/3/5 128/3/5 152/3/5
f 153/1/5 146/1/5 145/1/5
f 154/1/5 146/1/5 153/1/5
f 155/3/5 150/3/5 149/3/5
f 155/3/5 151/3/5 150/3/5
f 155/3/5 154/3/5 153/3/5
f 155/3/5 153/3/5 152/3/5
f 155/3/5 149/3/5 148/3/5
f 155/3/5 148/3/5 147/3/5
f 155/3/5 152/3/5 151/3/5
f 156/3/5 154/3/5 155/3/5
f 157/3/5 154/3/5 156/3/5
f 158/3/5 154/3/5 157/3/5
f 159/3/5 154/3/5 158/3/5
f 160/3/5 154/3/5 159/3/5
f 161/3/5 155/3/5 147/3/5
f 161/1/5 156/1/5 155/1/5
f 162/3/5 157/3/5 156/3/5
f 162/1/5 156/1/5 161/1/5
f 163/1/5 160/1/5 159/1/5
f 163/3/5 159/3/5 158/3/5
f 164/3/5 154/3/5 160/3/5
f 164/1/5 160/1/5 163/1/5
f 165/3/5 157/3/5 162/3/5
f 165/3/5 162/3/5 161/3/5
f 166/3/5 157/3/5 165/3/5
f 167/1/5 158/1/5 157/1/5
f 167/3/5 157/3/5 166/3/5
f 168/3/5 163/3/5 158/3/5
f 168/1/5 158/1/5 167/1/5
f 168/3/5 164/3/5 163/3/5
f 169/3/5 161/3/5 147/3/5
f 169/3/5 165/3/5 161/3/5
f 170/3/5 165/3/5 169/3/5
f 171/3/5 154/3/5 164/3/5
f 171/3/5 164/3/5 168/3/5
f 171/3/5 168/3/5 167/3/5
f 172/3/5 154/3/5 171/3/5
f 173/1/5 170/1/5 169/1/5
f 174/3/5 165/3/5 170/3/5
f 174/1/5 170/1/5 173/1/5
f 175/3/5 171/3/5 167/3/5
f 175/1/5 172/1/5 171/1/5
f 176/1/5 172/1/5 175/1/5
f 177/3/5 174/3/5 173/3/5
f 178/3/5 165/3/5 174/3/5
f 178/3/5 174/3/5 177/3/5
f 179/1/5 166/1/5 165/1/5
f 179/3/5 165/3/5 178/3/5
f 180/3/5 167/3/5 166/3/5
f 180/1/5 166/1/5 179/1/5
f 180/3/5 175/3/5 167/3/5
f 180/3/5 176/3/5 175/3/5
f 181/3/5 176/3/5 180/3/5
f 182/3/5 176/3/5 181/3/5
f 183/1/5 178/1/5 177/1/5
f 184/3/5 179/3/5 178/3/5
f 184/1/5 178/1/5 183/1/5
f 184/3/5 180/3/5 179/3/5
f 184/3/5 181/3/5 180/3/5
f 185/3/5 181/3/5 184/3/5
f 186/3/5 181/3/5 185/3/5
f 187/1/5 182/1/5 181/1/5
f 187/3/5 181/3/5 186/3/5
f 188/1/5 182/1/5 187/1/5
f 189/3/5 184/3/5 183/3/5
f 189/3/5 185/3/5 184/3/5
f 190/3/5 185/3/5 189/3/5
f 191/1/5 186/1/5 185/1/5
f 191/3/5 185/3/5 190/3/5
f 192/3/5 188/3/5 187/3/5
f 192/1/5 186/1/5 191/1/5
f 192/3/5 187/3/5 186/3/5
f 193/1/5 190/1/5 189/1/5
f 193/3/5 189/3/5 183/3/5
f 194/3/5 191/3/5 190/3/5
f 194/1/5 190/1/5 193/1/5
f 194/3/5 192/3/5 191/3/5
f 195/3/5 194/3/5 193/3/5
f 195/3/5 192/3/5 194/3/5
f 196/3/5 188/3/5 192/3/5
f 196/3/5 192/3/5 195/3/5
f 197/3/5 195/3/5 193/3/5
f 197/3/5 193/3/5 183/3/5
f 198/3/5 195/3/5 197/3/5
f 199/3/5 188/3/5 196/3/5
f 200/3/5 188/3/5 199/3/5
f 201/1/5 198/1/5 197/1/5
f 202/3/5 195/3/5 198/3/5
f 202/1/5 198/1/5 201/1/5
f 203/3/5 199/3/5 196/3/5
f 203/1/5 200/1/5 199/1/5
f 204/1/5 200/1/5 203/1/5
f 205/3/5 202/3/5 201/3/5
f 206/3/5 195/3/5 202/3/5
f 206/3/5 202/3/5 205/3/5
f 207/3/5 203/3/5 196/3/5
f 207/3/5 204/3/5 203/3/5
f 208/3/5 204/3/5 207/3/5
f 209/1/5 206/1/5 205/1/5
f 210/3/5 195/3/5 206/3/5
f 210/1/5 206/1/5 209/1/5
f 211/3/5 207/3/5 196/3/5
f 211/1/5 208/1/5 207/1/5
f 212/1/5 208/1/5 211/1/5
f 213/1/5 196/1/5 195/1/5
f 213/3/5 195/3/5 210/3/5
f 213/3/5 210/3/5 209/3/5
f 214/3/5 212/3/5 211/3/5
f 214/1/5 196/1/5 213/1/5
f 214/3/5 211/3/5 196/3/5
f 215/3/5 214/3/5 213/3/5
f 215/3/5 212/3/5 214/3/5
f 216/3/5 212/3/5 215/3/5
f 217/3/5 213/3/5 209/3/5
f 217/3/5 215/3/5 213/3/5
f 218/3/5 215/3/5 217/3/5
f 219/3/5 215/3/5 218/3/5
f 220/3/5 215/3/5 219/3/5
f 221/3/5 215/3/5 220/3/5
f 222/3/5 215/3/5 221/3/5
f 223/3/5 215/3/5 222/3/5
f 224/3/5 215/3/5 223/3/5
f 225/1/5 216/1/5 215/1/5
f 225/3/5 215/3/5 224/3/5
f 226/3/5 212/3/5 216/3/5
f 226/1/5 216/1/5 225/1/5
f 227/3/5 217/3/5 209/3/5
f 227/1/5 218/1/5 217/1/5
f 228/3/5 219/3/5 218/3/5
f 228/1/5 218/1/5 227/1/5
f 229/1/5 220/1/5 219/1/5
f 229/3/5 219/3/5 228/3/5
f 230/3/5 221/3/5 220/3/5
f 230/1/5 220/1/5 229/1/5
f 231/1/5 222/1/5 221/1/5
f 231/3/5 221/3/5 230/3/5
f 232/3/5 223/3/5 222/3/5
f 232/1/5 222/1/5 231/1/5
f 233/1/5 224/1/5 223/1/5
f 233/3/5 223/3/5 232/3/5
f 234/3/5 225/3/5 224/3/5
f 234/1/5 224/1/5 233/1/5
f 234/3/5 226/3/5 225/3/5
f 235/3/5 233/3/5 232/3/5
f 235/3/5 232/3/5 231/3/5
f 235/3/5 234/3/5 233/3/5
f 235/3/5 230/3/5 229/3/5
f 235/3/5 229/3/5 228/3/5
f 235/3/5 228/3/5 227/3/5
f 235/3/5 227/3/5 209/3/5
f 235/3/5 231/3/5 230/3/5
f 236/3/5 226/3/5 234/3/5
f 236/3/5 234/3/5 235/3/5
f 236/3/5 212/3/5 226/3/5
f 237/1/5 236/1/5 235/1/5
f 238/1/5 236/1/5 237/1/5
f 239/2/5 238/2/5 237/2/5
f 240/2/5 238/2/5 239/2/5
f 242/3/6 243/3/6 253/3/6
f 253/3/6 243/3/6 254/3/6
f 250/3/6 251/3/6 255/3/6
f 255/3/6 251/3/6 256/3/6
f 243/1/6 244/1/6 257/1/6
f 254/3/6 243/3/6 257/3/6
f 244/3/6 245/3/6 258/3/6
f 257/1/6 244/1/6 258/1/6
f 245/1/6 246/1/6 259/1/6
f 258/3/6 245/3/6 259/3/6
f 246/3/6 247/3/6 260/3/6
f 259/1/6 246/1/6 260/1/6
f 247/1/6 248/1/6 261/1/6
f 260/3/6 247/3/6 261/3/6
f 248/3/6 249/3/6 262/3/6
f 261/1/6 248/1/6 262/1/6
f 249/1/6 250/1/6 263/1/6
f 262/3/6 249/3/6 263/3/6
f 250/3/6 255/3/6 264/3/6
f 263/1/6 250/1/6 264/1/6
f 241/1/6 242/1/6 266/1/6
f 251/1/6 252/1/6 267/1/6
f 265/1/6 266/1/6 269/1/6
f 242/3/6 253/3/6 270/3/6
f 269/1/6 266/1/6 270/1/6
f 266/1/6 242/1/6 270/1/6
f 253/1/6 254/1/6 271/1/6
f 270/3/6 253/3/6 271/3/6
f 254/3/6 257/3/6 272/3/6
f 271/1/6 254/1/6 272/1/6
f 257/3/6 258/3/6 272/3/6
f 258/3/6 259/3/6 272/3/6
f 259/3/6 260/3/6 272/3/6
f 263/3/6 264/3/6 272/3/6
f 262/3/6 263/3/6 272/3/6
f 260/3/6 261/3/6 272/3/6
f 261/3/6 262/3/6 272/3/6
f 264/3/6 255/3/6 273/3/6
f 272/3/6 264/3/6 273/3/6
f 255/1/6 256/1/6 273/1/6
f 256/3/6 251/3/6 274/3/6
f 273/1/6 256/1/6 274/1/6
f 267/1/6 268/1/6 275/1/6
f 274/3/6 251/3/6 275/3/6
f 251/1/6 267/1/6 275/1/6
f 275/1/6 268/1/6 276/1/6
f 271/3/6 272/3/6 277/3/6
f 273/3/6 274/3/6 277/3/6
f 275/3/6 276/3/6 277/3/6
f 274/3/6 275/3/6 277/3/6
f 269/3/6 270/3/6 277/3/6
f 272/3/6 273/3/6 277/3/6
f 270/3/6 271/3/6 277/3/6
f 277/3/6 276/3/6 278/3/6
f 278/3/6 276/3/6 279/3/6
f 279/3/6 276/3/6 280/3/6
f 280/3/6 276/3/6 281/3/6
f 281/3/6 276/3/6 282/3/6
f 269/3/6 277/3/6 283/3/6
f 277/1/6 278/1/6 283/1/6
f 278/3/6 279/3/6 284/3/6
f 283/1/6 278/1/6 284/1/6
f 281/1/6 282/1/6 285/1/6
f 280/3/6 281/3/6 285/3/6
f 282/3/6 276/3/6 286/3/6
f 285/1/6 282/1/6 286/1/6
f 284/3/6 279/3/6 287/3/6
f 283/3/6 284/3/6 287/3/6
f 287/3/6 279/3/6 288/3/6
f 279/1/6 280/1/6 289/1/6
f 288/3/6 279/3/6 289/3/6
f 280/3/6 285/3/6 290/3/6
f 289/1/6 280/1/6 290/1/6
f 285/3/6 286/3/6 290/3/6
f 269/3/6 283/3/6 291/3/6
f 283/3/6 287/3/6 291/3/6
f 291/3/6 287/3/6 292/3/6
f 286/3/6 276/3/6 293/3/6
f 290/3/6 286/3/6 293/3/6
f 289/3/6 290/3/6 293/3/6
f 293/3/6 276/3/6 294/3/6
f 291/1/6 292/1/6 295/1/6
f 292/3/6 287/3/6 296/3/6
f 295/1/6 292/1/6 296/1/6
f 289/3/6 293/3/6 297/3/6
f 293/1/6 294/1/6 297/1/6
f 297/1/6 294/1/6 298/1/6
f 295/3/6 296/3/6 299/3/6
f 296/3/6 287/3/6 300/3/6
f 299/3/6 296/3/6 300/3/6
f 287/1/6 288/1/6 301/1/6
f 300/3/6 287/3/6 301/3/6
f 288/3/6 289/3/6 302/3/6
f 301/1/6 288/1/6 302/1/6
f 289/3/6 297/3/6 302/3/6
f 297/3/6 298/3/6 302/3/6
f 302/3/6 298/3/6 303/3/6
f 303/3/6 298/3/6 304/3/6
f 299/1/6 300/1/6 305/1/6
f 300/3/6 301/3/6 306/3/6
f 305/1/6 300/1/6 306/1/6
f 301/3/6 302/3/6 306/3/6
f 302/3/6 303/3/6 306/3/6
f 306/3/6 303/3/6 307/3/6
f 307/3/6 303/3/6 308/3/6
f 303/1/6 304/1/6 309/1/6
f 308/3/6 303/3/6 309/3/6
f 309/1/6 304/1/6 310/1/6
f 305/3/6 306/3/6 311/3/6
f 306/3/6 307/3/6 311/3/6
f 311/3/6 307/3/6 312/3/6
f 307/1/6 308/1/6 313/1/6
f 312/3/6 307/3/6 313/3/6
f 309/3/6 310/3/6 314/3/6
f 313/1/6 308/1/6 314/1/6
f 308/3/6 309/3/6 314/3/6
f 311/1/6 312/1/6 315/1/6
f 305/3/6 311/3/6 315/3/6
f 312/3/6 313/3/6 316/3/6
f 315/1/6 312/1/6 316/1/6
f 313/3/6 314/3/6 316/3/6
f 315/3/6 316/3/6 317/3/6
f 316/3/6 314/3/6 317/3/6
f 314/3/6 310/3/6 318/3/6
f 317/3/6 314/3/6 318/3/6
f 315/3/6 317/3/6 319/3/6
f 305/3/6 315/3/6 319/3/6
f 319/3/6 317/3/6 320/3/6
f 318/3/6 310/3/6 321/3/6
f 321/3/6 310/3/6 322/3/6
f 319/1/6 320/1/6 323/1/6
f 320/3/6 317/3/6 324/3/6
f 323/1/6 320/1/6 324/1/6
f 318/3/6 321/3/6 325/3/6
f 321/1/6 322/1/6 325/1/6
f 325/1/6 322/1/6 326/1/6
f 323/3/6 324/3/6 327/3/6
f 324/3/6 317/3/6 328/3/6
f 327/3/6 324/3/6 328/3/6
f 318/3/6 325/3/6 329/3/6
f 325/3/6 326/3/6 329/3/6
f 329/3/6 326/3/6 330/3/6
f 327/1/6 328/1/6 331/1/6
f 328/3/6 317/3/6 332/3/6
f 331/1/6 328/1/6 332/1/6
f 318/3/6 329/3/6 333/3/6
f 329/1/6 330/1/6 333/1/6
f 333/1/6 330/1/6 334/1/6
f 317/1/6 318/1/6 335/1/6
f 332/3/6 317/3/6 335/3/6
f 331/3/6 332/3/6 335/3/6
f 333/3/6 334/3/6 336/3/6
f 335/1/6 318/1/6 336/1/6
f 318/3/6 333/3/6 336/3/6
f 335/3/6 336/3/6 337/3/6
f 336/3/6 334/3/6 337/3/6
f 337/3/6 334/3/6 338/3/6
f 331/3/6 335/3/6 339/3/6
f 335/3/6 337/3/6 339/3/6
f 339/3/6 337/3/6 340/3/6
f 340/3/6 337/3/6 341/3/6
f 341/3/6 337/3/6 342/3/6
f 342/3/6 337/3/6 343/3/6
f 343/3/6 337/3/6 344/3/6
f 344/3/6 337/3/6 345/3/6
f 345/3/6 337/3/6 346/3/6
f 337/1/6 338/1/6 347/1/6
f 346/3/6 337/3/6 347/3/6
f 338/3/6 334/3/6 348/3/6
f 347/1/6 338/1/6 348/1/6
f 331/3/6 339/3/6 349/3/6
f 339/1/6 340/1/6 349/1/6
f 340/3/6 341/3/6 350/3/6
f 349/1/6 340/1/6 350/1/6
f 341/1/6 342/1/6 351/1/6
f 350/3/6 341/3/6 351/3/6
f 342/3/6 343/3/6 352/3/6
f 351/1/6 342/1/6 352/1/6
f 343/1/6 344/1/6 353/1/6
f 352/3/6 343/3/6 353/3/6
f 344/3/6 345/3/6 354/3/6
f 353/1/6 344/1/6 354/1/6
f 345/1/6 346/1/6 355/1/6
f 354/3/6 345/3/6 355/3/6
f 346/3/6 347/3/6 356/3/6
f 355/1/6 346/1/6 356/1/6
f 347/3/6 348/3/6 356/3/6
f 354/3/6 355/3/6 357/3/6
f 353/3/6 354/3/6 357/3/6
f 355/3/6 356/3/6 357/3/6
f 351/3/6 352/3/6 357/3/6
f 350/3/6 351/3/6 357/3/6
f 349/3/6 350/3/6 357/3/6
f 331/3/6 349/3/6 357/3/6
f 352/3/6 353/3/6 357/3/6
f 356/3/6 348/3/6 358/3/6
f 357/3/6 356/3/6 358/3/6
f 348/3/6 334/3/6 358/3/6
f 357/1/6 358/1/6 359/1/6
f 359/1/6 358/1/6 360/1/6
f 361/2/6 362/2/6 365/2/6
f 365/2/6 362/2/6 366/2/6
f 363/2/6 364/2/6 367/2/6
f 367/2/6 364/2/6 368/2/6
f 369/2/6 370/2/6 371/2/6
f 371/2/6 370/2/6 372/2/6
