# MagicaVoxel @ Ephtracy

# material
mtllib calletrip30.mtl
usemtl palette

# normals
vn -1 0 0
vn 1 0 0
vn 0 0 1
vn 0 0 -1
vn 0 -1 0
vn 0 1 0

# texcoords
vt 0.00195312 0.5
vt 0.00976562 0.5
vt 0.0253906 0.5
vt 0.0449219 0.5
vt 0.978516 0.5

# verts
v -15 0 15
v -15 0 -15
v -15 2 15
v -15 2 -15
v -7 1 15
v -7 1 -15
v -7 2 15
v -7 2 -15
v 15 0 15
v 15 0 -15
v 15 1 15
v 15 1 -15
v -15 0 15
v -15 2 15
v -7 0 15
v -7 1 15
v -7 2 15
v -6 0 15
v -6 1 15
v 6 0 15
v 6 1 15
v 7 0 15
v 7 1 15
v 8 0 15
v 8 1 15
v 9 0 15
v 9 1 15
v 15 0 15
v 15 1 15
v -15 0 -15
v -15 2 -15
v -7 0 -15
v -7 1 -15
v -7 2 -15
v -6 0 -15
v -6 1 -15
v 6 0 -15
v 6 1 -15
v 7 0 -15
v 7 1 -15
v 8 0 -15
v 8 1 -15
v 9 0 -15
v 9 1 -15
v 15 0 -15
v 15 1 -15
v -15 0 15
v -7 0 15
v -6 0 15
v 6 0 15
v 7 0 15
v 8 0 15
v 9 0 15
v 15 0 15
v -14 0 14
v -7 0 14
v 0 0 10
v 1 0 10
v 0 0 4
v 1 0 4
v 0 0 -4
v 1 0 -4
v 0 0 -11
v 1 0 -11
v -14 0 -14
v -7 0 -14
v -15 0 -15
v -7 0 -15
v -6 0 -15
v 6 0 -15
v 7 0 -15
v 8 0 -15
v 9 0 -15
v 15 0 -15
v -7 1 15
v -6 1 15
v 6 1 15
v 7 1 15
v 8 1 15
v 9 1 15
v 15 1 15
v 0 1 10
v 1 1 10
v 0 1 4
v 1 1 4
v 0 1 -4
v 1 1 -4
v 0 1 -11
v 1 1 -11
v -7 1 -15
v -6 1 -15
v 6 1 -15
v 7 1 -15
v 8 1 -15
v 9 1 -15
v 15 1 -15
v -15 2 15
v -7 2 15
v -15 2 -15
v -7 2 -15

# faces
f 3/3/1 2/3/1 1/3/1
f 4/3/1 2/3/1 3/3/1
f 5/3/2 6/3/2 7/3/2
f 7/3/2 6/3/2 8/3/2
f 9/4/2 10/4/2 11/4/2
f 11/4/2 10/4/2 12/4/2
f 15/3/3 14/3/3 13/3/3
f 16/3/3 14/3/3 15/3/3
f 17/3/3 14/3/3 16/3/3
f 18/2/3 16/2/3 15/2/3
f 19/2/3 16/2/3 18/2/3
f 20/4/3 19/4/3 18/4/3
f 21/4/3 19/4/3 20/4/3
f 22/2/3 21/2/3 20/2/3
f 23/2/3 21/2/3 22/2/3
f 24/4/3 23/4/3 22/4/3
f 25/4/3 23/4/3 24/4/3
f 26/2/3 25/2/3 24/2/3
f 27/2/3 25/2/3 26/2/3
f 28/4/3 27/4/3 26/4/3
f 29/4/3 27/4/3 28/4/3
f 30/3/4 31/3/4 32/3/4
f 32/3/4 31/3/4 33/3/4
f 33/3/4 31/3/4 34/3/4
f 32/2/4 33/2/4 35/2/4
f 35/2/4 33/2/4 36/2/4
f 35/4/4 36/4/4 37/4/4
f 37/4/4 36/4/4 38/4/4
f 37/2/4 38/2/4 39/2/4
f 39/2/4 38/2/4 40/2/4
f 39/4/4 40/4/4 41/4/4
f 41/4/4 40/4/4 42/4/4
f 41/2/4 42/2/4 43/2/4
f 43/2/4 42/2/4 44/2/4
f 43/4/4 44/4/4 45/4/4
f 45/4/4 44/4/4 46/4/4
f 55/3/5 48/3/5 47/3/5
f 56/2/5 49/2/5 48/2/5
f 56/3/5 48/3/5 55/3/5
f 57/4/5 50/4/5 49/4/5
f 58/4/5 50/4/5 57/4/5
f 59/4/5 57/4/5 49/4/5
f 59/1/5 58/1/5 57/1/5
f 60/4/5 50/4/5 58/4/5
f 60/1/5 58/1/5 59/1/5
f 61/4/5 59/4/5 49/4/5
f 61/4/5 60/4/5 59/4/5
f 62/4/5 50/4/5 60/4/5
f 62/4/5 60/4/5 61/4/5
f 63/4/5 61/4/5 49/4/5
f 63/1/5 62/1/5 61/1/5
f 64/4/5 50/4/5 62/4/5
f 64/1/5 62/1/5 63/1/5
f 65/3/5 55/3/5 47/3/5
f 65/5/5 56/5/5 55/5/5
f 66/2/5 49/2/5 56/2/5
f 66/5/5 56/5/5 65/5/5
f 67/3/5 65/3/5 47/3/5
f 67/3/5 66/3/5 65/3/5
f 68/2/5 49/2/5 66/2/5
f 68/3/5 66/3/5 67/3/5
f 69/4/5 64/4/5 63/4/5
f 69/2/5 49/2/5 68/2/5
f 69/4/5 63/4/5 49/4/5
f 70/4/5 50/4/5 64/4/5
f 70/4/5 64/4/5 69/4/5
f 70/2/5 51/2/5 50/2/5
f 71/4/5 52/4/5 51/4/5
f 71/2/5 51/2/5 70/2/5
f 72/2/5 53/2/5 52/2/5
f 72/4/5 52/4/5 71/4/5
f 73/4/5 54/4/5 53/4/5
f 73/2/5 53/2/5 72/2/5
f 74/4/5 54/4/5 73/4/5
f 76/4/6 77/4/6 82/4/6
f 82/4/6 77/4/6 83/4/6
f 76/4/6 82/4/6 84/4/6
f 82/1/6 83/1/6 84/1/6
f 83/4/6 77/4/6 85/4/6
f 84/1/6 83/1/6 85/1/6
f 76/4/6 84/4/6 86/4/6
f 84/4/6 85/4/6 86/4/6
f 85/4/6 77/4/6 87/4/6
f 86/4/6 85/4/6 87/4/6
f 76/4/6 86/4/6 88/4/6
f 86/1/6 87/1/6 88/1/6
f 87/4/6 77/4/6 89/4/6
f 88/1/6 87/1/6 89/1/6
f 75/2/6 76/2/6 90/2/6
f 76/4/6 88/4/6 91/4/6
f 90/2/6 76/2/6 91/2/6
f 88/4/6 89/4/6 91/4/6
f 89/4/6 77/4/6 92/4/6
f 91/4/6 89/4/6 92/4/6
f 77/2/6 78/2/6 92/2/6
f 78/4/6 79/4/6 93/4/6
f 92/2/6 78/2/6 93/2/6
f 79/2/6 80/2/6 94/2/6
f 93/4/6 79/4/6 94/4/6
f 80/4/6 81/4/6 95/4/6
f 94/2/6 80/2/6 95/2/6
f 95/4/6 81/4/6 96/4/6
f 97/3/6 98/3/6 99/3/6
f 99/3/6 98/3/6 100/3/6
