# MagicaVoxel @ Ephtracy

# material
mtllib calle30peaton.mtl
usemtl palette

# normals
vn -1 0 0
vn 1 0 0
vn 0 0 1
vn 0 0 -1
vn 0 -1 0
vn 0 1 0

# texcoords
vt 0.00195312 0.5
vt 0.00976562 0.5
vt 0.0253906 0.5
vt 0.0371094 0.5
vt 0.0449219 0.5
vt 0.814453 0.5
vt 0.939453 0.5
vt 0.978516 0.5

# verts
v -15 0 15
v -15 0 -15
v -15 2 15
v -15 2 -15
v -2 16 14
v -2 16 13
v -2 19 14
v -2 19 13
v -1 15 14
v -1 15 13
v -1 16 14
v -1 16 13
v -1 19 14
v -1 19 13
v -1 20 14
v -1 20 13
v 7 1 15
v 7 1 -15
v 7 2 15
v 7 2 -15
v 8 2 14
v 8 2 13
v 8 17 14
v 8 17 13
v -7 1 15
v -7 1 -15
v -7 2 15
v -7 2 -15
v 0 15 14
v 0 15 13
v 0 16 14
v 0 16 13
v 0 19 14
v 0 19 13
v 0 20 14
v 0 20 13
v 1 16 14
v 1 16 13
v 1 17 14
v 1 17 13
v 1 18 14
v 1 18 13
v 1 19 14
v 1 19 13
v 8 17 14
v 8 17 13
v 8 18 14
v 8 18 13
v 9 2 14
v 9 2 13
v 9 17 14
v 9 17 13
v 15 0 15
v 15 0 -15
v 15 2 15
v 15 2 -15
v -15 0 15
v -15 2 15
v -7 0 15
v -7 1 15
v -7 2 15
v -6 0 15
v -6 1 15
v -5 0 15
v -5 1 15
v -4 0 15
v -4 1 15
v -2 0 15
v -2 1 15
v -1 0 15
v -1 1 15
v 1 0 15
v 1 1 15
v 2 0 15
v 2 1 15
v 4 0 15
v 4 1 15
v 5 0 15
v 5 1 15
v 6 0 15
v 6 1 15
v 7 0 15
v 7 1 15
v 7 2 15
v 15 0 15
v 15 2 15
v -2 16 14
v -2 19 14
v -1 15 14
v -1 16 14
v -1 17 14
v -1 18 14
v -1 19 14
v -1 20 14
v 0 15 14
v 0 16 14
v 0 17 14
v 0 18 14
v 0 19 14
v 0 20 14
v 1 16 14
v 1 17 14
v 1 18 14
v 1 19 14
v 8 2 14
v 8 17 14
v 8 18 14
v 9 2 14
v 9 17 14
v -2 16 13
v -2 19 13
v -1 15 13
v -1 16 13
v -1 17 13
v -1 18 13
v -1 19 13
v -1 20 13
v 0 15 13
v 0 16 13
v 0 17 13
v 0 18 13
v 0 19 13
v 0 20 13
v 1 16 13
v 1 17 13
v 1 18 13
v 1 19 13
v 8 2 13
v 8 17 13
v 8 18 13
v 9 2 13
v 9 17 13
v -15 0 -15
v -15 2 -15
v -7 0 -15
v -7 1 -15
v -7 2 -15
v -6 0 -15
v -6 1 -15
v 6 0 -15
v 6 1 -15
v 7 0 -15
v 7 1 -15
v 7 2 -15
v 15 0 -15
v 15 2 -15
v -15 0 15
v -7 0 15
v -6 0 15
v -5 0 15
v -4 0 15
v -2 0 15
v -1 0 15
v 1 0 15
v 2 0 15
v 4 0 15
v 5 0 15
v 6 0 15
v 7 0 15
v 15 0 15
v -14 0 14
v -7 0 14
v 7 0 14
v 14 0 14
v -5 0 9
v -4 0 9
v -2 0 9
v -1 0 9
v 1 0 9
v 2 0 9
v 4 0 9
v 5 0 9
v 0 0 -4
v 1 0 -4
v 0 0 -11
v 1 0 -11
v -14 0 -14
v -7 0 -14
v 7 0 -14
v 14 0 -14
v -15 0 -15
v -7 0 -15
v -6 0 -15
v 6 0 -15
v 7 0 -15
v 15 0 -15
v -1 15 14
v 0 15 14
v -1 15 13
v 0 15 13
v -2 16 14
v -1 16 14
v 0 16 14
v 1 16 14
v -2 16 13
v -1 16 13
v 0 16 13
v 1 16 13
v 1 17 14
v 8 17 14
v 1 17 13
v 8 17 13
v -7 1 15
v -6 1 15
v -5 1 15
v -4 1 15
v -2 1 15
v -1 1 15
v 1 1 15
v 2 1 15
v 4 1 15
v 5 1 15
v 6 1 15
v 7 1 15
v -5 1 9
v -4 1 9
v -2 1 9
v -1 1 9
v 1 1 9
v 2 1 9
v 4 1 9
v 5 1 9
v 0 1 -4
v 1 1 -4
v 0 1 -11
v 1 1 -11
v -7 1 -15
v -6 1 -15
v 6 1 -15
v 7 1 -15
v -15 2 15
v -7 2 15
v 7 2 15
v 15 2 15
v 8 2 14
v 9 2 14
v 8 2 13
v 9 2 13
v -15 2 -15
v -7 2 -15
v 7 2 -15
v 15 2 -15
v 8 17 14
v 9 17 14
v 8 17 13
v 9 17 13
v 1 18 14
v 8 18 14
v 1 18 13
v 8 18 13
v -2 19 14
v -1 19 14
v 0 19 14
v 1 19 14
v -2 19 13
v -1 19 13
v 0 19 13
v 1 19 13
v -1 20 14
v 0 20 14
v -1 20 13
v 0 20 13

# faces
f 3/3/1 2/3/1 1/3/1
f 4/3/1 2/3/1 3/3/1
f 7/4/1 6/4/1 5/4/1
f 8/4/1 6/4/1 7/4/1
f 11/4/1 10/4/1 9/4/1
f 12/4/1 10/4/1 11/4/1
f 15/4/1 14/4/1 13/4/1
f 16/4/1 14/4/1 15/4/1
f 19/3/1 18/3/1 17/3/1
f 20/3/1 18/3/1 19/3/1
f 23/4/1 22/4/1 21/4/1
f 24/4/1 22/4/1 23/4/1
f 25/3/2 26/3/2 27/3/2
f 27/3/2 26/3/2 28/3/2
f 29/4/2 30/4/2 31/4/2
f 31/4/2 30/4/2 32/4/2
f 33/4/2 34/4/2 35/4/2
f 35/4/2 34/4/2 36/4/2
f 37/4/2 38/4/2 39/4/2
f 39/4/2 38/4/2 40/4/2
f 41/4/2 42/4/2 43/4/2
f 43/4/2 42/4/2 44/4/2
f 45/4/2 46/4/2 47/4/2
f 47/4/2 46/4/2 48/4/2
f 49/4/2 50/4/2 51/4/2
f 51/4/2 50/4/2 52/4/2
f 53/3/2 54/3/2 55/3/2
f 55/3/2 54/3/2 56/3/2
f 59/3/3 58/3/3 57/3/3
f 60/3/3 58/3/3 59/3/3
f 61/3/3 58/3/3 60/3/3
f 62/2/3 60/2/3 59/2/3
f 63/2/3 60/2/3 62/2/3
f 64/5/3 63/5/3 62/5/3
f 65/5/3 63/5/3 64/5/3
f 66/2/3 65/2/3 64/2/3
f 67/2/3 65/2/3 66/2/3
f 68/5/3 67/5/3 66/5/3
f 69/5/3 67/5/3 68/5/3
f 70/2/3 69/2/3 68/2/3
f 71/2/3 69/2/3 70/2/3
f 72/5/3 71/5/3 70/5/3
f 73/5/3 71/5/3 72/5/3
f 74/2/3 73/2/3 72/2/3
f 75/2/3 73/2/3 74/2/3
f 76/5/3 75/5/3 74/5/3
f 77/5/3 75/5/3 76/5/3
f 78/2/3 77/2/3 76/2/3
f 79/2/3 77/2/3 78/2/3
f 80/5/3 79/5/3 78/5/3
f 81/5/3 79/5/3 80/5/3
f 82/2/3 81/2/3 80/2/3
f 83/2/3 81/2/3 82/2/3
f 85/3/3 83/3/3 82/3/3
f 85/3/3 84/3/3 83/3/3
f 86/3/3 84/3/3 85/3/3
f 90/4/3 88/4/3 87/4/3
f 91/4/3 88/4/3 90/4/3
f 92/4/3 88/4/3 91/4/3
f 93/4/3 88/4/3 92/4/3
f 95/4/3 90/4/3 89/4/3
f 96/7/3 91/7/3 90/7/3
f 96/4/3 90/4/3 95/4/3
f 97/4/3 92/4/3 91/4/3
f 97/7/3 91/7/3 96/7/3
f 98/6/3 93/6/3 92/6/3
f 98/4/3 92/4/3 97/4/3
f 99/4/3 94/4/3 93/4/3
f 99/6/3 93/6/3 98/6/3
f 100/4/3 94/4/3 99/4/3
f 101/4/3 98/4/3 97/4/3
f 101/4/3 99/4/3 98/4/3
f 101/4/3 97/4/3 96/4/3
f 102/4/3 99/4/3 101/4/3
f 103/4/3 99/4/3 102/4/3
f 104/4/3 99/4/3 103/4/3
f 106/4/3 103/4/3 102/4/3
f 107/4/3 103/4/3 106/4/3
f 108/4/3 106/4/3 105/4/3
f 109/4/3 106/4/3 108/4/3
f 110/4/4 111/4/4 113/4/4
f 113/4/4 111/4/4 114/4/4
f 114/4/4 111/4/4 115/4/4
f 115/4/4 111/4/4 116/4/4
f 112/4/4 113/4/4 118/4/4
f 113/7/4 114/7/4 119/7/4
f 118/4/4 113/4/4 119/4/4
f 114/4/4 115/4/4 120/4/4
f 119/7/4 114/7/4 120/7/4
f 115/6/4 116/6/4 121/6/4
f 120/4/4 115/4/4 121/4/4
f 116/4/4 117/4/4 122/4/4
f 121/6/4 116/6/4 122/6/4
f 122/4/4 117/4/4 123/4/4
f 120/4/4 121/4/4 124/4/4
f 121/4/4 122/4/4 124/4/4
f 119/4/4 120/4/4 124/4/4
f 124/4/4 122/4/4 125/4/4
f 125/4/4 122/4/4 126/4/4
f 126/4/4 122/4/4 127/4/4
f 125/4/4 126/4/4 129/4/4
f 129/4/4 126/4/4 130/4/4
f 128/4/4 129/4/4 131/4/4
f 131/4/4 129/4/4 132/4/4
f 133/3/4 134/3/4 135/3/4
f 135/3/4 134/3/4 136/3/4
f 136/3/4 134/3/4 137/3/4
f 135/2/4 136/2/4 138/2/4
f 138/2/4 136/2/4 139/2/4
f 138/5/4 139/5/4 140/5/4
f 140/5/4 139/5/4 141/5/4
f 140/2/4 141/2/4 142/2/4
f 142/2/4 141/2/4 143/2/4
f 142/3/4 143/3/4 145/3/4
f 143/3/4 144/3/4 145/3/4
f 145/3/4 144/3/4 146/3/4
f 161/3/5 148/3/5 147/3/5
f 162/2/5 149/2/5 148/2/5
f 162/3/5 148/3/5 161/3/5
f 163/3/5 160/3/5 159/3/5
f 163/2/5 159/2/5 158/2/5
f 164/3/5 160/3/5 163/3/5
f 165/5/5 150/5/5 149/5/5
f 165/2/5 151/2/5 150/2/5
f 166/5/5 152/5/5 151/5/5
f 166/2/5 151/2/5 165/2/5
f 167/2/5 153/2/5 152/2/5
f 167/5/5 152/5/5 166/5/5
f 168/5/5 154/5/5 153/5/5
f 168/2/5 153/2/5 167/2/5
f 169/2/5 155/2/5 154/2/5
f 169/5/5 154/5/5 168/5/5
f 170/5/5 156/5/5 155/5/5
f 170/2/5 155/2/5 169/2/5
f 171/2/5 157/2/5 156/2/5
f 171/5/5 156/5/5 170/5/5
f 172/5/5 158/5/5 157/5/5
f 172/2/5 157/2/5 171/2/5
f 173/5/5 166/5/5 165/5/5
f 173/5/5 167/5/5 166/5/5
f 173/5/5 172/5/5 171/5/5
f 173/5/5 168/5/5 167/5/5
f 173/5/5 169/5/5 168/5/5
f 173/5/5 171/5/5 170/5/5
f 173/5/5 170/5/5 169/5/5
f 174/5/5 172/5/5 173/5/5
f 175/5/5 173/5/5 165/5/5
f 175/1/5 174/1/5 173/1/5
f 176/5/5 172/5/5 174/5/5
f 176/1/5 174/1/5 175/1/5
f 177/3/5 161/3/5 147/3/5
f 177/8/5 162/8/5 161/8/5
f 178/2/5 149/2/5 162/2/5
f 178/8/5 162/8/5 177/8/5
f 179/8/5 164/8/5 163/8/5
f 179/2/5 163/2/5 158/2/5
f 180/3/5 160/3/5 164/3/5
f 180/8/5 164/8/5 179/8/5
f 181/3/5 177/3/5 147/3/5
f 181/3/5 178/3/5 177/3/5
f 182/2/5 149/2/5 178/2/5
f 182/3/5 178/3/5 181/3/5
f 183/5/5 165/5/5 149/5/5
f 183/2/5 149/2/5 182/2/5
f 183/5/5 176/5/5 175/5/5
f 183/5/5 175/5/5 165/5/5
f 184/5/5 172/5/5 176/5/5
f 184/5/5 176/5/5 183/5/5
f 184/2/5 179/2/5 158/2/5
f 184/5/5 158/5/5 172/5/5
f 185/3/5 180/3/5 179/3/5
f 185/2/5 179/2/5 184/2/5
f 186/3/5 160/3/5 180/3/5
f 186/3/5 180/3/5 185/3/5
f 189/4/5 188/4/5 187/4/5
f 190/4/5 188/4/5 189/4/5
f 195/4/5 192/4/5 191/4/5
f 196/4/5 192/4/5 195/4/5
f 197/4/5 194/4/5 193/4/5
f 198/4/5 194/4/5 197/4/5
f 201/4/5 200/4/5 199/4/5
f 202/4/5 200/4/5 201/4/5
f 204/5/6 205/5/6 215/5/6
f 205/2/6 206/2/6 215/2/6
f 206/5/6 207/5/6 216/5/6
f 215/2/6 206/2/6 216/2/6
f 207/2/6 208/2/6 217/2/6
f 216/5/6 207/5/6 217/5/6
f 208/5/6 209/5/6 218/5/6
f 217/2/6 208/2/6 218/2/6
f 209/2/6 210/2/6 219/2/6
f 218/5/6 209/5/6 219/5/6
f 210/5/6 211/5/6 220/5/6
f 219/2/6 210/2/6 220/2/6
f 211/2/6 212/2/6 221/2/6
f 220/5/6 211/5/6 221/5/6
f 212/5/6 213/5/6 222/5/6
f 221/2/6 212/2/6 222/2/6
f 220/5/6 221/5/6 223/5/6
f 215/5/6 216/5/6 223/5/6
f 221/5/6 222/5/6 223/5/6
f 219/5/6 220/5/6 223/5/6
f 218/5/6 219/5/6 223/5/6
f 217/5/6 218/5/6 223/5/6
f 216/5/6 217/5/6 223/5/6
f 223/5/6 222/5/6 224/5/6
f 215/5/6 223/5/6 225/5/6
f 223/1/6 224/1/6 225/1/6
f 224/5/6 222/5/6 226/5/6
f 225/1/6 224/1/6 226/1/6
f 203/2/6 204/2/6 227/2/6
f 204/5/6 215/5/6 228/5/6
f 227/2/6 204/2/6 228/2/6
f 215/5/6 225/5/6 228/5/6
f 225/5/6 226/5/6 228/5/6
f 226/5/6 222/5/6 229/5/6
f 228/5/6 226/5/6 229/5/6
f 213/2/6 214/2/6 229/2/6
f 222/5/6 213/5/6 229/5/6
f 229/2/6 214/2/6 230/2/6
f 233/3/6 234/3/6 235/3/6
f 235/3/6 234/3/6 236/3/6
f 233/3/6 235/3/6 237/3/6
f 236/3/6 234/3/6 238/3/6
f 231/3/6 232/3/6 239/3/6
f 239/3/6 232/3/6 240/3/6
f 237/3/6 238/3/6 241/3/6
f 233/3/6 237/3/6 241/3/6
f 238/3/6 234/3/6 242/3/6
f 241/3/6 238/3/6 242/3/6
f 243/4/6 244/4/6 245/4/6
f 245/4/6 244/4/6 246/4/6
f 247/4/6 248/4/6 249/4/6
f 249/4/6 248/4/6 250/4/6
f 251/4/6 252/4/6 255/4/6
f 255/4/6 252/4/6 256/4/6
f 253/4/6 254/4/6 257/4/6
f 257/4/6 254/4/6 258/4/6
f 259/4/6 260/4/6 261/4/6
f 261/4/6 260/4/6 262/4/6
