# MagicaVoxel @ Ephtracy

# material
mtllib bici.mtl
usemtl palette

# normals
vn -1 0 0
vn 1 0 0
vn 0 0 1
vn 0 0 -1
vn 0 -1 0
vn 0 1 0

# texcoords
vt 0.0605469 0.5
vt 0.951172 0.5

# verts
v -1.5 5 2
v -1.5 5 1
v -1.5 6 2
v -1.5 6 1
v -0.5 0 2
v -0.5 0 1
v -0.5 0 -2
v -0.5 0 -3
v -0.5 1 3
v -0.5 1 2
v -0.5 1 1
v -0.5 1 -0
v -0.5 1 -1
v -0.5 1 -2
v -0.5 1 -3
v -0.5 1 -4
v -0.5 2 3
v -0.5 2 2
v -0.5 2 1
v -0.5 2 -0
v -0.5 2 -1
v -0.5 2 -2
v -0.5 2 -3
v -0.5 2 -4
v -0.5 3 3
v -0.5 3 2
v -0.5 3 1
v -0.5 3 -1
v -0.5 3 -2
v -0.5 3 -3
v -0.5 3 -4
v -0.5 4 1
v -0.5 4 -1
v -0.5 4 -3
v -0.5 5 2
v -0.5 5 1
v -0.5 5 -1
v -0.5 5 -3
v 0.5 0 2
v 0.5 0 1
v 0.5 0 -2
v 0.5 0 -3
v 0.5 1 3
v 0.5 1 2
v 0.5 1 1
v 0.5 1 -0
v 0.5 1 -1
v 0.5 1 -2
v 0.5 1 -3
v 0.5 1 -4
v 0.5 2 3
v 0.5 2 2
v 0.5 2 1
v 0.5 2 -0
v 0.5 2 -1
v 0.5 2 -2
v 0.5 2 -3
v 0.5 2 -4
v 0.5 3 3
v 0.5 3 2
v 0.5 3 1
v 0.5 3 -1
v 0.5 3 -2
v 0.5 3 -3
v 0.5 3 -4
v 0.5 4 1
v 0.5 4 -1
v 0.5 4 -3
v 0.5 5 2
v 0.5 5 1
v 0.5 5 -1
v 0.5 5 -3
v 1.5 5 2
v 1.5 5 1
v 1.5 6 2
v 1.5 6 1
v -0.5 1 3
v -0.5 2 3
v -0.5 3 3
v 0.5 1 3
v 0.5 2 3
v 0.5 3 3
v -1.5 5 2
v -1.5 6 2
v -0.5 0 2
v -0.5 1 2
v -0.5 3 2
v -0.5 5 2
v 0.5 0 2
v 0.5 1 2
v 0.5 3 2
v 0.5 5 2
v 1.5 5 2
v 1.5 6 2
v -0.5 1 1
v -0.5 2 1
v 0.5 1 1
v 0.5 2 1
v -0.5 1 -1
v -0.5 2 -1
v -0.5 3 -1
v -0.5 4 -1
v -0.5 5 -1
v 0.5 1 -1
v 0.5 2 -1
v 0.5 3 -1
v 0.5 4 -1
v 0.5 5 -1
v -0.5 0 -2
v -0.5 1 -2
v 0.5 0 -2
v 0.5 1 -2
v -0.5 1 -3
v -0.5 2 -3
v 0.5 1 -3
v 0.5 2 -3
v -0.5 1 2
v -0.5 2 2
v 0.5 1 2
v 0.5 2 2
v -1.5 5 1
v -1.5 6 1
v -0.5 0 1
v -0.5 1 1
v -0.5 2 1
v -0.5 3 1
v -0.5 4 1
v -0.5 5 1
v 0.5 0 1
v 0.5 1 1
v 0.5 2 1
v 0.5 3 1
v 0.5 4 1
v 0.5 5 1
v 1.5 5 1
v 1.5 6 1
v -0.5 1 -0
v -0.5 2 -0
v 0.5 1 -0
v 0.5 2 -0
v -0.5 1 -2
v -0.5 2 -2
v 0.5 1 -2
v 0.5 2 -2
v -0.5 0 -3
v -0.5 1 -3
v -0.5 3 -3
v -0.5 4 -3
v -0.5 5 -3
v 0.5 0 -3
v 0.5 1 -3
v 0.5 3 -3
v 0.5 4 -3
v 0.5 5 -3
v -0.5 1 -4
v -0.5 2 -4
v -0.5 3 -4
v 0.5 1 -4
v 0.5 2 -4
v 0.5 3 -4
v -0.5 0 2
v 0.5 0 2
v -0.5 0 1
v 0.5 0 1
v -0.5 0 -2
v 0.5 0 -2
v -0.5 0 -3
v 0.5 0 -3
v -0.5 1 3
v 0.5 1 3
v -0.5 1 2
v 0.5 1 2
v -0.5 1 1
v 0.5 1 1
v -0.5 1 -0
v 0.5 1 -0
v -0.5 1 -1
v 0.5 1 -1
v -0.5 1 -2
v 0.5 1 -2
v -0.5 1 -3
v 0.5 1 -3
v -0.5 1 -4
v 0.5 1 -4
v -0.5 2 2
v 0.5 2 2
v -0.5 2 1
v 0.5 2 1
v -0.5 2 -2
v 0.5 2 -2
v -0.5 2 -3
v 0.5 2 -3
v -0.5 3 1
v 0.5 3 1
v -0.5 3 -1
v 0.5 3 -1
v -1.5 5 2
v -0.5 5 2
v 0.5 5 2
v 1.5 5 2
v -1.5 5 1
v -0.5 5 1
v 0.5 5 1
v 1.5 5 1
v -0.5 1 2
v 0.5 1 2
v -0.5 1 1
v 0.5 1 1
v -0.5 1 -2
v 0.5 1 -2
v -0.5 1 -3
v 0.5 1 -3
v -0.5 2 1
v 0.5 2 1
v -0.5 2 -0
v 0.5 2 -0
v -0.5 3 3
v 0.5 3 3
v -0.5 3 2
v 0.5 3 2
v -0.5 3 -3
v 0.5 3 -3
v -0.5 3 -4
v 0.5 3 -4
v -0.5 4 1
v 0.5 4 1
v -0.5 4 -1
v 0.5 4 -1
v -0.5 5 -1
v 0.5 5 -1
v -0.5 5 -3
v 0.5 5 -3
v -1.5 6 2
v 1.5 6 2
v -1.5 6 1
v 1.5 6 1

# faces
f 3/1/1 2/1/1 1/1/1
f 4/1/1 2/1/1 3/1/1
f 10/1/1 6/1/1 5/1/1
f 11/1/1 6/1/1 10/1/1
f 14/1/1 8/1/1 7/1/1
f 15/1/1 8/1/1 14/1/1
f 17/1/1 10/1/1 9/1/1
f 18/1/1 10/1/1 17/1/1
f 19/1/1 12/1/1 11/1/1
f 20/1/1 12/1/1 19/1/1
f 21/1/1 14/1/1 13/1/1
f 22/1/1 14/1/1 21/1/1
f 23/1/1 16/1/1 15/1/1
f 24/1/1 16/1/1 23/1/1
f 25/2/1 18/2/1 17/2/1
f 26/1/1 19/1/1 18/1/1
f 26/2/1 18/2/1 25/2/1
f 27/1/1 19/1/1 26/1/1
f 28/2/1 22/2/1 21/2/1
f 29/1/1 23/1/1 22/1/1
f 29/2/1 22/2/1 28/2/1
f 30/2/1 24/2/1 23/2/1
f 30/1/1 23/1/1 29/1/1
f 31/2/1 24/2/1 30/2/1
f 32/2/1 27/2/1 26/2/1
f 32/2/1 29/2/1 28/2/1
f 32/2/1 30/2/1 29/2/1
f 32/2/1 28/2/1 27/2/1
f 33/2/1 30/2/1 32/2/1
f 34/2/1 30/2/1 33/2/1
f 35/2/1 32/2/1 26/2/1
f 36/2/1 32/2/1 35/2/1
f 37/1/1 34/1/1 33/1/1
f 38/1/1 34/1/1 37/1/1
f 39/1/2 40/1/2 44/1/2
f 44/1/2 40/1/2 45/1/2
f 41/1/2 42/1/2 48/1/2
f 48/1/2 42/1/2 49/1/2
f 43/1/2 44/1/2 51/1/2
f 51/1/2 44/1/2 52/1/2
f 45/1/2 46/1/2 53/1/2
f 53/1/2 46/1/2 54/1/2
f 47/1/2 48/1/2 55/1/2
f 55/1/2 48/1/2 56/1/2
f 49/1/2 50/1/2 57/1/2
f 57/1/2 50/1/2 58/1/2
f 51/2/2 52/2/2 59/2/2
f 52/1/2 53/1/2 60/1/2
f 59/2/2 52/2/2 60/2/2
f 60/1/2 53/1/2 61/1/2
f 55/2/2 56/2/2 62/2/2
f 56/1/2 57/1/2 63/1/2
f 62/2/2 56/2/2 63/2/2
f 57/2/2 58/2/2 64/2/2
f 63/1/2 57/1/2 64/1/2
f 64/2/2 58/2/2 65/2/2
f 60/2/2 61/2/2 66/2/2
f 62/2/2 63/2/2 66/2/2
f 63/2/2 64/2/2 66/2/2
f 61/2/2 62/2/2 66/2/2
f 66/2/2 64/2/2 67/2/2
f 67/2/2 64/2/2 68/2/2
f 60/2/2 66/2/2 69/2/2
f 69/2/2 66/2/2 70/2/2
f 67/1/2 68/1/2 71/1/2
f 71/1/2 68/1/2 72/1/2
f 73/1/2 74/1/2 75/1/2
f 75/1/2 74/1/2 76/1/2
f 80/1/3 78/1/3 77/1/3
f 81/2/3 79/2/3 78/2/3
f 81/1/3 78/1/3 80/1/3
f 82/2/3 79/2/3 81/2/3
f 88/1/3 84/1/3 83/1/3
f 89/1/3 86/1/3 85/1/3
f 90/1/3 86/1/3 89/1/3
f 91/2/3 88/2/3 87/2/3
f 92/1/3 84/1/3 88/1/3
f 92/2/3 88/2/3 91/2/3
f 93/1/3 84/1/3 92/1/3
f 94/1/3 84/1/3 93/1/3
f 97/1/3 96/1/3 95/1/3
f 98/1/3 96/1/3 97/1/3
f 104/1/3 100/1/3 99/1/3
f 105/2/3 101/2/3 100/2/3
f 105/1/3 100/1/3 104/1/3
f 106/2/3 101/2/3 105/2/3
f 107/1/3 103/1/3 102/1/3
f 108/1/3 103/1/3 107/1/3
f 111/1/3 110/1/3 109/1/3
f 112/1/3 110/1/3 111/1/3
f 115/1/3 114/1/3 113/1/3
f 116/1/3 114/1/3 115/1/3
f 117/1/4 118/1/4 119/1/4
f 119/1/4 118/1/4 120/1/4
f 121/1/4 122/1/4 128/1/4
f 123/1/4 124/1/4 129/1/4
f 129/1/4 124/1/4 130/1/4
f 125/1/4 126/1/4 131/1/4
f 131/1/4 126/1/4 132/1/4
f 127/2/4 128/2/4 133/2/4
f 128/1/4 122/1/4 134/1/4
f 133/2/4 128/2/4 134/2/4
f 134/1/4 122/1/4 135/1/4
f 135/1/4 122/1/4 136/1/4
f 137/1/4 138/1/4 139/1/4
f 139/1/4 138/1/4 140/1/4
f 141/1/4 142/1/4 143/1/4
f 143/1/4 142/1/4 144/1/4
f 145/1/4 146/1/4 150/1/4
f 150/1/4 146/1/4 151/1/4
f 147/2/4 148/2/4 152/2/4
f 148/1/4 149/1/4 153/1/4
f 152/2/4 148/2/4 153/2/4
f 153/1/4 149/1/4 154/1/4
f 155/1/4 156/1/4 158/1/4
f 156/2/4 157/2/4 159/2/4
f 158/1/4 156/1/4 159/1/4
f 159/2/4 157/2/4 160/2/4
f 163/1/5 162/1/5 161/1/5
f 164/1/5 162/1/5 163/1/5
f 167/1/5 166/1/5 165/1/5
f 168/1/5 166/1/5 167/1/5
f 171/1/5 170/1/5 169/1/5
f 172/1/5 170/1/5 171/1/5
f 175/1/5 174/1/5 173/1/5
f 176/1/5 174/1/5 175/1/5
f 179/1/5 178/1/5 177/1/5
f 180/1/5 178/1/5 179/1/5
f 183/1/5 182/1/5 181/1/5
f 184/1/5 182/1/5 183/1/5
f 187/1/5 186/1/5 185/1/5
f 188/1/5 186/1/5 187/1/5
f 191/1/5 190/1/5 189/1/5
f 192/1/5 190/1/5 191/1/5
f 195/2/5 194/2/5 193/2/5
f 196/2/5 194/2/5 195/2/5
f 201/1/5 198/1/5 197/1/5
f 202/1/5 198/1/5 201/1/5
f 203/1/5 200/1/5 199/1/5
f 204/1/5 200/1/5 203/1/5
f 205/1/6 206/1/6 207/1/6
f 207/1/6 206/1/6 208/1/6
f 209/1/6 210/1/6 211/1/6
f 211/1/6 210/1/6 212/1/6
f 213/1/6 214/1/6 215/1/6
f 215/1/6 214/1/6 216/1/6
f 217/2/6 218/2/6 219/2/6
f 219/2/6 218/2/6 220/2/6
f 221/2/6 222/2/6 223/2/6
f 223/2/6 222/2/6 224/2/6
f 225/2/6 226/2/6 227/2/6
f 227/2/6 226/2/6 228/2/6
f 229/1/6 230/1/6 231/1/6
f 231/1/6 230/1/6 232/1/6
f 233/1/6 234/1/6 235/1/6
f 235/1/6 234/1/6 236/1/6
