# MagicaVoxel @ Ephtracy

# material
mtllib calleT30.mtl
usemtl palette

# normals
vn -1 0 0
vn 1 0 0
vn 0 0 1
vn 0 0 -1
vn 0 -1 0
vn 0 1 0

# texcoords
vt 0.00195312 0.5
vt 0.00585938 0.5
vt 0.0253906 0.5
vt 0.0449219 0.5
vt 0.978516 0.5

# verts
v -15 0 15
v -15 0 -15
v -15 2 15
v -15 2 -15
v 7 1 15
v 7 1 7
v 7 1 -7
v 7 1 -15
v 7 2 15
v 7 2 7
v 7 2 -7
v 7 2 -15
v -7 1 15
v -7 1 -15
v -7 2 15
v -7 2 -15
v 15 0 15
v 15 0 7
v 15 0 6
v 15 0 -6
v 15 0 -7
v 15 0 -15
v 15 1 7
v 15 1 6
v 15 1 -6
v 15 1 -7
v 15 2 15
v 15 2 7
v 15 2 -7
v 15 2 -15
v -15 0 15
v -15 2 15
v -7 0 15
v -7 1 15
v -7 2 15
v -6 0 15
v -6 1 15
v 6 0 15
v 6 1 15
v 7 0 15
v 7 1 15
v 7 2 15
v 15 0 15
v 15 2 15
v 7 1 -7
v 7 2 -7
v 15 1 -7
v 15 2 -7
v 7 1 7
v 7 2 7
v 15 1 7
v 15 2 7
v -15 0 -15
v -15 2 -15
v -7 0 -15
v -7 1 -15
v -7 2 -15
v -6 0 -15
v -6 1 -15
v 6 0 -15
v 6 1 -15
v 7 0 -15
v 7 1 -15
v 7 2 -15
v 15 0 -15
v 15 2 -15
v -15 0 15
v -7 0 15
v -6 0 15
v 6 0 15
v 7 0 15
v 15 0 15
v -14 0 14
v -7 0 14
v 7 0 14
v 14 0 14
v 0 0 11
v 1 0 11
v 7 0 7
v 14 0 7
v 15 0 7
v 6 0 6
v 15 0 6
v 0 0 4
v 1 0 4
v 5 0 -0
v 10 0 -0
v 5 0 -1
v 10 0 -1
v 0 0 -4
v 1 0 -4
v 6 0 -6
v 15 0 -6
v 7 0 -7
v 14 0 -7
v 15 0 -7
v 0 0 -11
v 1 0 -11
v -14 0 -14
v -7 0 -14
v 7 0 -14
v 14 0 -14
v -15 0 -15
v -7 0 -15
v -6 0 -15
v 6 0 -15
v 7 0 -15
v 15 0 -15
v -7 1 15
v -6 1 15
v 6 1 15
v 7 1 15
v 0 1 11
v 1 1 11
v 7 1 7
v 15 1 7
v 6 1 6
v 15 1 6
v 0 1 4
v 1 1 4
v 5 1 -0
v 10 1 -0
v 5 1 -1
v 10 1 -1
v 0 1 -4
v 1 1 -4
v 6 1 -6
v 15 1 -6
v 7 1 -7
v 15 1 -7
v 0 1 -11
v 1 1 -11
v -7 1 -15
v -6 1 -15
v 6 1 -15
v 7 1 -15
v -15 2 15
v -7 2 15
v 7 2 15
v 15 2 15
v 7 2 7
v 15 2 7
v 7 2 -7
v 15 2 -7
v -15 2 -15
v -7 2 -15
v 7 2 -15
v 15 2 -15

# faces
f 3/3/1 2/3/1 1/3/1
f 4/3/1 2/3/1 3/3/1
f 9/3/1 6/3/1 5/3/1
f 10/3/1 6/3/1 9/3/1
f 11/3/1 8/3/1 7/3/1
f 12/3/1 8/3/1 11/3/1
f 13/3/2 14/3/2 15/3/2
f 15/3/2 14/3/2 16/3/2
f 17/3/2 18/3/2 23/3/2
f 18/2/2 19/2/2 23/2/2
f 19/4/2 20/4/2 24/4/2
f 23/2/2 19/2/2 24/2/2
f 20/2/2 21/2/2 25/2/2
f 24/4/2 20/4/2 25/4/2
f 21/3/2 22/3/2 26/3/2
f 25/2/2 21/2/2 26/2/2
f 17/3/2 23/3/2 27/3/2
f 27/3/2 23/3/2 28/3/2
f 26/3/2 22/3/2 29/3/2
f 29/3/2 22/3/2 30/3/2
f 33/3/3 32/3/3 31/3/3
f 34/3/3 32/3/3 33/3/3
f 35/3/3 32/3/3 34/3/3
f 36/2/3 34/2/3 33/2/3
f 37/2/3 34/2/3 36/2/3
f 38/4/3 37/4/3 36/4/3
f 39/4/3 37/4/3 38/4/3
f 40/2/3 39/2/3 38/2/3
f 41/2/3 39/2/3 40/2/3
f 43/3/3 41/3/3 40/3/3
f 43/3/3 42/3/3 41/3/3
f 44/3/3 42/3/3 43/3/3
f 47/3/3 46/3/3 45/3/3
f 48/3/3 46/3/3 47/3/3
f 49/3/4 50/3/4 51/3/4
f 51/3/4 50/3/4 52/3/4
f 53/3/4 54/3/4 55/3/4
f 55/3/4 54/3/4 56/3/4
f 56/3/4 54/3/4 57/3/4
f 55/2/4 56/2/4 58/2/4
f 58/2/4 56/2/4 59/2/4
f 58/4/4 59/4/4 60/4/4
f 60/4/4 59/4/4 61/4/4
f 60/2/4 61/2/4 62/2/4
f 62/2/4 61/2/4 63/2/4
f 62/3/4 63/3/4 65/3/4
f 63/3/4 64/3/4 65/3/4
f 65/3/4 64/3/4 66/3/4
f 73/3/5 68/3/5 67/3/5
f 74/2/5 69/2/5 68/2/5
f 74/3/5 68/3/5 73/3/5
f 75/3/5 72/3/5 71/3/5
f 75/2/5 71/2/5 70/2/5
f 76/3/5 72/3/5 75/3/5
f 77/4/5 70/4/5 69/4/5
f 78/4/5 70/4/5 77/4/5
f 79/2/5 75/2/5 70/2/5
f 79/5/5 76/5/5 75/5/5
f 80/3/5 72/3/5 76/3/5
f 80/5/5 76/5/5 79/5/5
f 81/3/5 72/3/5 80/3/5
f 82/2/5 79/2/5 70/2/5
f 82/4/5 70/4/5 78/4/5
f 82/2/5 81/2/5 80/2/5
f 82/2/5 80/2/5 79/2/5
f 83/2/5 81/2/5 82/2/5
f 84/4/5 77/4/5 69/4/5
f 84/1/5 78/1/5 77/1/5
f 85/4/5 83/4/5 82/4/5
f 85/1/5 78/1/5 84/1/5
f 85/4/5 82/4/5 78/4/5
f 86/4/5 85/4/5 84/4/5
f 86/4/5 83/4/5 85/4/5
f 87/4/5 83/4/5 86/4/5
f 88/4/5 86/4/5 84/4/5
f 88/1/5 87/1/5 86/1/5
f 89/4/5 83/4/5 87/4/5
f 89/1/5 87/1/5 88/1/5
f 90/4/5 84/4/5 69/4/5
f 90/4/5 88/4/5 84/4/5
f 90/4/5 89/4/5 88/4/5
f 91/4/5 89/4/5 90/4/5
f 92/4/5 89/4/5 91/4/5
f 93/4/5 83/4/5 89/4/5
f 93/4/5 89/4/5 92/4/5
f 94/2/5 93/2/5 92/2/5
f 95/2/5 93/2/5 94/2/5
f 96/2/5 93/2/5 95/2/5
f 97/4/5 90/4/5 69/4/5
f 97/1/5 91/1/5 90/1/5
f 98/4/5 92/4/5 91/4/5
f 98/1/5 91/1/5 97/1/5
f 99/3/5 73/3/5 67/3/5
f 99/5/5 74/5/5 73/5/5
f 100/2/5 69/2/5 74/2/5
f 100/5/5 74/5/5 99/5/5
f 101/2/5 94/2/5 92/2/5
f 101/5/5 95/5/5 94/5/5
f 102/3/5 96/3/5 95/3/5
f 102/5/5 95/5/5 101/5/5
f 103/3/5 99/3/5 67/3/5
f 103/3/5 100/3/5 99/3/5
f 104/2/5 69/2/5 100/2/5
f 104/3/5 100/3/5 103/3/5
f 105/4/5 98/4/5 97/4/5
f 105/2/5 69/2/5 104/2/5
f 105/4/5 97/4/5 69/4/5
f 106/4/5 92/4/5 98/4/5
f 106/4/5 98/4/5 105/4/5
f 106/2/5 101/2/5 92/2/5
f 107/3/5 102/3/5 101/3/5
f 107/2/5 101/2/5 106/2/5
f 108/3/5 96/3/5 102/3/5
f 108/3/5 102/3/5 107/3/5
f 110/4/6 111/4/6 113/4/6
f 113/4/6 111/4/6 114/4/6
f 111/2/6 112/2/6 115/2/6
f 114/4/6 111/4/6 117/4/6
f 115/2/6 116/2/6 117/2/6
f 111/2/6 115/2/6 117/2/6
f 117/2/6 116/2/6 118/2/6
f 113/1/6 114/1/6 119/1/6
f 110/4/6 113/4/6 119/4/6
f 117/4/6 118/4/6 120/4/6
f 119/1/6 114/1/6 120/1/6
f 114/4/6 117/4/6 120/4/6
f 119/4/6 120/4/6 121/4/6
f 120/4/6 118/4/6 121/4/6
f 121/4/6 118/4/6 122/4/6
f 119/4/6 121/4/6 123/4/6
f 121/1/6 122/1/6 123/1/6
f 122/4/6 118/4/6 124/4/6
f 123/1/6 122/1/6 124/1/6
f 110/4/6 119/4/6 125/4/6
f 119/4/6 123/4/6 125/4/6
f 123/4/6 124/4/6 125/4/6
f 125/4/6 124/4/6 126/4/6
f 126/4/6 124/4/6 127/4/6
f 124/4/6 118/4/6 128/4/6
f 127/4/6 124/4/6 128/4/6
f 127/2/6 128/2/6 129/2/6
f 129/2/6 128/2/6 130/2/6
f 110/4/6 125/4/6 131/4/6
f 125/1/6 126/1/6 131/1/6
f 126/4/6 127/4/6 132/4/6
f 131/1/6 126/1/6 132/1/6
f 109/2/6 110/2/6 133/2/6
f 110/4/6 131/4/6 134/4/6
f 133/2/6 110/2/6 134/2/6
f 131/4/6 132/4/6 134/4/6
f 132/4/6 127/4/6 135/4/6
f 134/4/6 132/4/6 135/4/6
f 127/2/6 129/2/6 135/2/6
f 135/2/6 129/2/6 136/2/6
f 139/3/6 140/3/6 141/3/6
f 141/3/6 140/3/6 142/3/6
f 137/3/6 138/3/6 145/3/6
f 145/3/6 138/3/6 146/3/6
f 143/3/6 144/3/6 147/3/6
f 147/3/6 144/3/6 148/3/6
