# MagicaVoxel @ Ephtracy

# material
mtllib calleSIDEvox.mtl
usemtl palette

# normals
vn -1 0 0
vn 1 0 0
vn 0 0 1
vn 0 0 -1
vn 0 -1 0
vn 0 1 0

# texcoords
vt 0.00585938 0.5
vt 0.0253906 0.5
vt 0.0449219 0.5

# verts
v -4 0 15
v -4 0 7
v -4 0 6
v -4 0 5
v -4 0 4
v -4 0 2
v -4 0 1
v -4 0 -1
v -4 0 -2
v -4 0 -4
v -4 0 -5
v -4 0 -6
v -4 0 -7
v -4 0 -15
v -4 1 7
v -4 1 6
v -4 1 5
v -4 1 4
v -4 1 2
v -4 1 1
v -4 1 -1
v -4 1 -2
v -4 1 -4
v -4 1 -5
v -4 1 -6
v -4 1 -7
v -4 2 15
v -4 2 7
v -4 2 -7
v -4 2 -15
v 4 0 15
v 4 0 7
v 4 0 6
v 4 0 -6
v 4 0 -7
v 4 0 -15
v 4 1 7
v 4 1 6
v 4 1 -6
v 4 1 -7
v 4 2 15
v 4 2 7
v 4 2 -7
v 4 2 -15
v -4 0 15
v -4 2 15
v 4 0 15
v 4 2 15
v -4 1 -7
v -4 2 -7
v 4 1 -7
v 4 2 -7
v -4 1 7
v -4 2 7
v 4 1 7
v 4 2 7
v -4 0 -15
v -4 2 -15
v 4 0 -15
v 4 2 -15
v -4 0 15
v 4 0 15
v -4 0 7
v 4 0 7
v -4 0 6
v 4 0 6
v -4 0 5
v 0 0 5
v -4 0 4
v 0 0 4
v -4 0 2
v 0 0 2
v -4 0 1
v 0 0 1
v -4 0 -1
v 0 0 -1
v -4 0 -2
v 0 0 -2
v -4 0 -4
v 0 0 -4
v -4 0 -5
v 0 0 -5
v -4 0 -6
v 4 0 -6
v -4 0 -7
v 4 0 -7
v -4 0 -15
v 4 0 -15
v -4 1 7
v 4 1 7
v -4 1 6
v 4 1 6
v -4 1 5
v 0 1 5
v -4 1 4
v 0 1 4
v -4 1 2
v 0 1 2
v -4 1 1
v 0 1 1
v -4 1 -1
v 0 1 -1
v -4 1 -2
v 0 1 -2
v -4 1 -4
v 0 1 -4
v -4 1 -5
v 0 1 -5
v -4 1 -6
v 4 1 -6
v -4 1 -7
v 4 1 -7
v -4 2 15
v 4 2 15
v -4 2 7
v 4 2 7
v -4 2 -7
v 4 2 -7
v -4 2 -15
v 4 2 -15

# faces
f 15/2/1 2/2/1 1/2/1
f 15/1/1 3/1/1 2/1/1
f 16/3/1 4/3/1 3/3/1
f 16/1/1 3/1/1 15/1/1
f 17/1/1 5/1/1 4/1/1
f 17/3/1 4/3/1 16/3/1
f 18/3/1 6/3/1 5/3/1
f 18/1/1 5/1/1 17/1/1
f 19/1/1 7/1/1 6/1/1
f 19/3/1 6/3/1 18/3/1
f 20/3/1 8/3/1 7/3/1
f 20/1/1 7/1/1 19/1/1
f 21/1/1 9/1/1 8/1/1
f 21/3/1 8/3/1 20/3/1
f 22/3/1 10/3/1 9/3/1
f 22/1/1 9/1/1 21/1/1
f 23/1/1 11/1/1 10/1/1
f 23/3/1 10/3/1 22/3/1
f 24/3/1 12/3/1 11/3/1
f 24/1/1 11/1/1 23/1/1
f 25/1/1 13/1/1 12/1/1
f 25/3/1 12/3/1 24/3/1
f 26/2/1 14/2/1 13/2/1
f 26/1/1 13/1/1 25/1/1
f 27/2/1 15/2/1 1/2/1
f 28/2/1 15/2/1 27/2/1
f 29/2/1 14/2/1 26/2/1
f 30/2/1 14/2/1 29/2/1
f 31/2/2 32/2/2 37/2/2
f 32/1/2 33/1/2 37/1/2
f 33/3/2 34/3/2 38/3/2
f 37/1/2 33/1/2 38/1/2
f 34/1/2 35/1/2 39/1/2
f 38/3/2 34/3/2 39/3/2
f 35/2/2 36/2/2 40/2/2
f 39/1/2 35/1/2 40/1/2
f 31/2/2 37/2/2 41/2/2
f 41/2/2 37/2/2 42/2/2
f 40/2/2 36/2/2 43/2/2
f 43/2/2 36/2/2 44/2/2
f 47/2/3 46/2/3 45/2/3
f 48/2/3 46/2/3 47/2/3
f 51/2/3 50/2/3 49/2/3
f 52/2/3 50/2/3 51/2/3
f 53/2/4 54/2/4 55/2/4
f 55/2/4 54/2/4 56/2/4
f 57/2/4 58/2/4 59/2/4
f 59/2/4 58/2/4 60/2/4
f 63/2/5 62/2/5 61/2/5
f 64/2/5 62/2/5 63/2/5
f 65/1/5 64/1/5 63/1/5
f 66/1/5 64/1/5 65/1/5
f 67/3/5 66/3/5 65/3/5
f 68/3/5 66/3/5 67/3/5
f 69/1/5 68/1/5 67/1/5
f 70/3/5 66/3/5 68/3/5
f 70/1/5 68/1/5 69/1/5
f 71/3/5 70/3/5 69/3/5
f 72/3/5 66/3/5 70/3/5
f 72/3/5 70/3/5 71/3/5
f 73/1/5 72/1/5 71/1/5
f 74/3/5 66/3/5 72/3/5
f 74/1/5 72/1/5 73/1/5
f 75/3/5 74/3/5 73/3/5
f 76/3/5 66/3/5 74/3/5
f 76/3/5 74/3/5 75/3/5
f 77/1/5 76/1/5 75/1/5
f 78/3/5 66/3/5 76/3/5
f 78/1/5 76/1/5 77/1/5
f 79/3/5 78/3/5 77/3/5
f 80/3/5 66/3/5 78/3/5
f 80/3/5 78/3/5 79/3/5
f 81/1/5 80/1/5 79/1/5
f 82/3/5 66/3/5 80/3/5
f 82/1/5 80/1/5 81/1/5
f 83/3/5 82/3/5 81/3/5
f 84/3/5 66/3/5 82/3/5
f 84/3/5 82/3/5 83/3/5
f 85/1/5 84/1/5 83/1/5
f 86/1/5 84/1/5 85/1/5
f 87/2/5 86/2/5 85/2/5
f 88/2/5 86/2/5 87/2/5
f 89/1/6 90/1/6 91/1/6
f 91/1/6 90/1/6 92/1/6
f 91/3/6 92/3/6 93/3/6
f 93/3/6 92/3/6 94/3/6
f 93/1/6 94/1/6 95/1/6
f 94/3/6 92/3/6 96/3/6
f 95/1/6 94/1/6 96/1/6
f 95/3/6 96/3/6 97/3/6
f 96/3/6 92/3/6 98/3/6
f 97/3/6 96/3/6 98/3/6
f 97/1/6 98/1/6 99/1/6
f 98/3/6 92/3/6 100/3/6
f 99/1/6 98/1/6 100/1/6
f 99/3/6 100/3/6 101/3/6
f 100/3/6 92/3/6 102/3/6
f 101/3/6 100/3/6 102/3/6
f 101/1/6 102/1/6 103/1/6
f 102/3/6 92/3/6 104/3/6
f 103/1/6 102/1/6 104/1/6
f 103/3/6 104/3/6 105/3/6
f 104/3/6 92/3/6 106/3/6
f 105/3/6 104/3/6 106/3/6
f 105/1/6 106/1/6 107/1/6
f 106/3/6 92/3/6 108/3/6
f 107/1/6 106/1/6 108/1/6
f 107/3/6 108/3/6 109/3/6
f 108/3/6 92/3/6 110/3/6
f 109/3/6 108/3/6 110/3/6
f 109/1/6 110/1/6 111/1/6
f 111/1/6 110/1/6 112/1/6
f 113/2/6 114/2/6 115/2/6
f 115/2/6 114/2/6 116/2/6
f 117/2/6 118/2/6 119/2/6
f 119/2/6 118/2/6 120/2/6
