# MagicaVoxel @ Ephtracy

# material
mtllib calletripBusMarq30.mtl
usemtl palette

# normals
vn -1 0 0
vn 1 0 0
vn 0 0 1
vn 0 0 -1
vn 0 -1 0
vn 0 1 0

# texcoords
vt 0.00976562 0.5
vt 0.0253906 0.5
vt 0.0449219 0.5
vt 0.978516 0.5

# verts
v -15 0 15
v -15 0 -15
v -15 2 15
v -15 2 -15
v -13 2 8
v -13 2 -3
v -13 3 7
v -13 3 -2
v -13 11 7
v -13 11 -2
v -13 12 8
v -13 12 -3
v -9 3 8
v -9 3 7
v -9 11 8
v -9 11 7
v -12 2 7
v -12 2 -3
v -12 3 8
v -12 3 7
v -12 3 -2
v -12 11 8
v -12 11 7
v -12 11 -2
v -12 11 -3
v -8 2 8
v -8 2 7
v -8 11 7
v -8 11 -3
v -8 12 8
v -8 12 -3
v -7 1 15
v -7 1 -15
v -7 2 15
v -7 2 -15
v 15 0 15
v 15 0 -15
v 15 1 15
v 15 1 -15
v -15 0 15
v -15 2 15
v -7 0 15
v -7 1 15
v -7 2 15
v -6 0 15
v -6 1 15
v 7 0 15
v 7 1 15
v 9 0 15
v 9 1 15
v 15 0 15
v 15 1 15
v -13 2 8
v -13 12 8
v -12 3 8
v -12 11 8
v -9 3 8
v -9 11 8
v -8 2 8
v -8 12 8
v -13 3 -2
v -13 11 -2
v -12 3 -2
v -12 11 -2
v -13 3 7
v -13 11 7
v -12 2 7
v -12 3 7
v -12 11 7
v -9 3 7
v -9 11 7
v -8 2 7
v -8 11 7
v -13 2 -3
v -13 12 -3
v -12 2 -3
v -12 11 -3
v -8 11 -3
v -8 12 -3
v -15 0 -15
v -15 2 -15
v -7 0 -15
v -7 1 -15
v -7 2 -15
v -6 0 -15
v -6 1 -15
v 7 0 -15
v 7 1 -15
v 9 0 -15
v 9 1 -15
v 15 0 -15
v 15 1 -15
v -15 0 15
v -7 0 15
v -6 0 15
v 7 0 15
v 9 0 15
v 15 0 15
v -14 0 14
v -7 0 14
v -5 0 -9
v -3 0 -9
v -1 0 -9
v 0 0 -9
v 1 0 -9
v 2 0 -9
v 4 0 -9
v 6 0 -9
v -5 0 -10
v -3 0 -10
v -2 0 -10
v 3 0 -10
v 4 0 -10
v 5 0 -10
v -4 0 -11
v -3 0 -11
v -2 0 -11
v 3 0 -11
v 4 0 -11
v 5 0 -11
v -5 0 -12
v -4 0 -12
v -3 0 -12
v 3 0 -12
v 4 0 -12
v 5 0 -12
v -5 0 -13
v -4 0 -13
v -2 0 -13
v -1 0 -13
v 0 0 -13
v 1 0 -13
v 2 0 -13
v 3 0 -13
v 4 0 -13
v 5 0 -13
v -14 0 -14
v -7 0 -14
v -4 0 -14
v -2 0 -14
v 0 0 -14
v 1 0 -14
v 4 0 -14
v 6 0 -14
v -15 0 -15
v -7 0 -15
v -6 0 -15
v 7 0 -15
v 9 0 -15
v 15 0 -15
v -12 11 8
v -9 11 8
v -13 11 7
v -12 11 7
v -9 11 7
v -8 11 7
v -13 11 -2
v -12 11 -2
v -12 11 -3
v -8 11 -3
v -7 1 15
v -6 1 15
v 7 1 15
v 9 1 15
v 15 1 15
v -5 1 -9
v -3 1 -9
v -1 1 -9
v 0 1 -9
v 1 1 -9
v 2 1 -9
v 4 1 -9
v 6 1 -9
v -5 1 -10
v -3 1 -10
v -2 1 -10
v 3 1 -10
v 4 1 -10
v 5 1 -10
v -4 1 -11
v -3 1 -11
v -2 1 -11
v 3 1 -11
v 4 1 -11
v 5 1 -11
v -5 1 -12
v -4 1 -12
v -3 1 -12
v 3 1 -12
v 4 1 -12
v 5 1 -12
v -5 1 -13
v -4 1 -13
v -2 1 -13
v -1 1 -13
v 0 1 -13
v 1 1 -13
v 2 1 -13
v 3 1 -13
v 4 1 -13
v 5 1 -13
v -4 1 -14
v -2 1 -14
v 0 1 -14
v 1 1 -14
v 4 1 -14
v 6 1 -14
v -7 1 -15
v -6 1 -15
v 7 1 -15
v 9 1 -15
v 15 1 -15
v -15 2 15
v -7 2 15
v -13 2 8
v -8 2 8
v -12 2 7
v -8 2 7
v -13 2 -3
v -12 2 -3
v -15 2 -15
v -7 2 -15
v -12 3 8
v -9 3 8
v -13 3 7
v -12 3 7
v -9 3 7
v -13 3 -2
v -12 3 -2
v -13 12 8
v -8 12 8
v -13 12 -3
v -8 12 -3

# faces
f 3/2/1 2/2/1 1/2/1
f 4/2/1 2/2/1 3/2/1
f 7/1/1 6/1/1 5/1/1
f 8/1/1 6/1/1 7/1/1
f 9/1/1 7/1/1 5/1/1
f 10/1/1 6/1/1 8/1/1
f 11/1/1 9/1/1 5/1/1
f 11/1/1 10/1/1 9/1/1
f 12/1/1 6/1/1 10/1/1
f 12/1/1 10/1/1 11/1/1
f 15/1/1 14/1/1 13/1/1
f 16/1/1 14/1/1 15/1/1
f 17/1/2 18/1/2 20/1/2
f 20/1/2 18/1/2 21/1/2
f 19/1/2 20/1/2 22/1/2
f 22/1/2 20/1/2 23/1/2
f 21/1/2 18/1/2 24/1/2
f 24/1/2 18/1/2 25/1/2
f 26/1/2 27/1/2 28/1/2
f 26/1/2 28/1/2 30/1/2
f 28/1/2 29/1/2 30/1/2
f 30/1/2 29/1/2 31/1/2
f 32/2/2 33/2/2 34/2/2
f 34/2/2 33/2/2 35/2/2
f 36/3/2 37/3/2 38/3/2
f 38/3/2 37/3/2 39/3/2
f 42/2/3 41/2/3 40/2/3
f 43/2/3 41/2/3 42/2/3
f 44/2/3 41/2/3 43/2/3
f 45/1/3 43/1/3 42/1/3
f 46/1/3 43/1/3 45/1/3
f 47/3/3 46/3/3 45/3/3
f 48/3/3 46/3/3 47/3/3
f 49/1/3 48/1/3 47/1/3
f 50/1/3 48/1/3 49/1/3
f 51/3/3 50/3/3 49/3/3
f 52/3/3 50/3/3 51/3/3
f 55/1/3 54/1/3 53/1/3
f 56/1/3 54/1/3 55/1/3
f 57/1/3 55/1/3 53/1/3
f 58/1/3 54/1/3 56/1/3
f 59/1/3 57/1/3 53/1/3
f 59/1/3 58/1/3 57/1/3
f 60/1/3 54/1/3 58/1/3
f 60/1/3 58/1/3 59/1/3
f 63/1/3 62/1/3 61/1/3
f 64/1/3 62/1/3 63/1/3
f 65/1/4 66/1/4 68/1/4
f 68/1/4 66/1/4 69/1/4
f 67/1/4 68/1/4 70/1/4
f 67/1/4 70/1/4 72/1/4
f 70/1/4 71/1/4 72/1/4
f 72/1/4 71/1/4 73/1/4
f 74/1/4 75/1/4 76/1/4
f 76/1/4 75/1/4 77/1/4
f 77/1/4 75/1/4 78/1/4
f 78/1/4 75/1/4 79/1/4
f 80/2/4 81/2/4 82/2/4
f 82/2/4 81/2/4 83/2/4
f 83/2/4 81/2/4 84/2/4
f 82/1/4 83/1/4 85/1/4
f 85/1/4 83/1/4 86/1/4
f 85/3/4 86/3/4 87/3/4
f 87/3/4 86/3/4 88/3/4
f 87/1/4 88/1/4 89/1/4
f 89/1/4 88/1/4 90/1/4
f 89/3/4 90/3/4 91/3/4
f 91/3/4 90/3/4 92/3/4
f 99/2/5 94/2/5 93/2/5
f 100/1/5 95/1/5 94/1/5
f 100/2/5 94/2/5 99/2/5
f 101/3/5 96/3/5 95/3/5
f 102/3/5 96/3/5 101/3/5
f 103/3/5 96/3/5 102/3/5
f 104/3/5 96/3/5 103/3/5
f 105/3/5 96/3/5 104/3/5
f 106/3/5 96/3/5 105/3/5
f 107/3/5 96/3/5 106/3/5
f 108/3/5 96/3/5 107/3/5
f 109/3/5 101/3/5 95/3/5
f 109/1/5 102/1/5 101/1/5
f 110/3/5 103/3/5 102/3/5
f 110/1/5 102/1/5 109/1/5
f 111/3/5 103/3/5 110/3/5
f 112/3/5 107/3/5 106/3/5
f 113/1/5 108/1/5 107/1/5
f 113/3/5 107/3/5 112/3/5
f 114/1/5 108/1/5 113/1/5
f 115/3/5 110/3/5 109/3/5
f 116/1/5 111/1/5 110/1/5
f 116/3/5 110/3/5 115/3/5
f 117/3/5 103/3/5 111/3/5
f 117/1/5 111/1/5 116/1/5
f 118/3/5 112/3/5 106/3/5
f 118/1/5 113/1/5 112/1/5
f 119/3/5 114/3/5 113/3/5
f 119/1/5 113/1/5 118/1/5
f 120/1/5 108/1/5 114/1/5
f 120/3/5 114/3/5 119/3/5
f 121/3/5 109/3/5 95/3/5
f 121/3/5 115/3/5 109/3/5
f 122/1/5 116/1/5 115/1/5
f 122/3/5 115/3/5 121/3/5
f 123/3/5 117/3/5 116/3/5
f 123/1/5 116/1/5 122/1/5
f 124/3/5 119/3/5 118/3/5
f 124/3/5 118/3/5 106/3/5
f 125/1/5 120/1/5 119/1/5
f 125/3/5 119/3/5 124/3/5
f 126/1/5 108/1/5 120/1/5
f 126/1/5 120/1/5 125/1/5
f 127/3/5 121/3/5 95/3/5
f 127/1/5 122/1/5 121/1/5
f 128/3/5 123/3/5 122/3/5
f 128/1/5 122/1/5 127/1/5
f 129/3/5 103/3/5 117/3/5
f 129/3/5 123/3/5 128/3/5
f 129/3/5 117/3/5 123/3/5
f 130/1/5 104/1/5 103/1/5
f 130/3/5 103/3/5 129/3/5
f 131/3/5 105/3/5 104/3/5
f 131/1/5 104/1/5 130/1/5
f 132/1/5 106/1/5 105/1/5
f 132/3/5 105/3/5 131/3/5
f 133/3/5 124/3/5 106/3/5
f 133/1/5 106/1/5 132/1/5
f 134/1/5 125/1/5 124/1/5
f 134/3/5 124/3/5 133/3/5
f 135/3/5 126/3/5 125/3/5
f 135/1/5 125/1/5 134/1/5
f 136/1/5 108/1/5 126/1/5
f 136/3/5 126/3/5 135/3/5
f 137/2/5 99/2/5 93/2/5
f 137/4/5 100/4/5 99/4/5
f 138/1/5 95/1/5 100/1/5
f 138/4/5 100/4/5 137/4/5
f 139/3/5 128/3/5 127/3/5
f 139/1/5 129/1/5 128/1/5
f 140/3/5 130/3/5 129/3/5
f 140/1/5 129/1/5 139/1/5
f 140/3/5 131/3/5 130/3/5
f 141/1/5 132/1/5 131/1/5
f 141/3/5 131/3/5 140/3/5
f 142/3/5 133/3/5 132/3/5
f 142/1/5 132/1/5 141/1/5
f 142/3/5 134/3/5 133/3/5
f 142/3/5 135/3/5 134/3/5
f 143/1/5 136/1/5 135/1/5
f 143/3/5 135/3/5 142/3/5
f 144/1/5 108/1/5 136/1/5
f 144/1/5 136/1/5 143/1/5
f 144/3/5 96/3/5 108/3/5
f 145/2/5 137/2/5 93/2/5
f 145/2/5 138/2/5 137/2/5
f 146/1/5 95/1/5 138/1/5
f 146/2/5 138/2/5 145/2/5
f 147/3/5 143/3/5 142/3/5
f 147/1/5 95/1/5 146/1/5
f 147/3/5 142/3/5 141/3/5
f 147/3/5 140/3/5 139/3/5
f 147/3/5 139/3/5 127/3/5
f 147/3/5 144/3/5 143/3/5
f 147/3/5 141/3/5 140/3/5
f 147/3/5 127/3/5 95/3/5
f 148/3/5 96/3/5 144/3/5
f 148/3/5 144/3/5 147/3/5
f 148/1/5 97/1/5 96/1/5
f 149/3/5 98/3/5 97/3/5
f 149/1/5 97/1/5 148/1/5
f 150/3/5 98/3/5 149/3/5
f 154/1/5 152/1/5 151/1/5
f 155/1/5 152/1/5 154/1/5
f 157/1/5 154/1/5 153/1/5
f 157/1/5 156/1/5 155/1/5
f 157/1/5 155/1/5 154/1/5
f 158/1/5 156/1/5 157/1/5
f 159/1/5 156/1/5 158/1/5
f 160/1/5 156/1/5 159/1/5
f 162/3/6 163/3/6 166/3/6
f 166/3/6 163/3/6 167/3/6
f 167/3/6 163/3/6 168/3/6
f 168/3/6 163/3/6 169/3/6
f 169/3/6 163/3/6 170/3/6
f 170/3/6 163/3/6 171/3/6
f 171/3/6 163/3/6 172/3/6
f 172/3/6 163/3/6 173/3/6
f 162/3/6 166/3/6 174/3/6
f 166/1/6 167/1/6 174/1/6
f 167/3/6 168/3/6 175/3/6
f 174/1/6 167/1/6 175/1/6
f 175/3/6 168/3/6 176/3/6
f 171/3/6 172/3/6 177/3/6
f 172/1/6 173/1/6 178/1/6
f 177/3/6 172/3/6 178/3/6
f 178/1/6 173/1/6 179/1/6
f 174/3/6 175/3/6 180/3/6
f 175/1/6 176/1/6 181/1/6
f 180/3/6 175/3/6 181/3/6
f 176/3/6 168/3/6 182/3/6
f 181/1/6 176/1/6 182/1/6
f 171/3/6 177/3/6 183/3/6
f 177/1/6 178/1/6 183/1/6
f 178/3/6 179/3/6 184/3/6
f 183/1/6 178/1/6 184/1/6
f 179/1/6 173/1/6 185/1/6
f 184/3/6 179/3/6 185/3/6
f 162/3/6 174/3/6 186/3/6
f 174/3/6 180/3/6 186/3/6
f 180/1/6 181/1/6 187/1/6
f 186/3/6 180/3/6 187/3/6
f 181/3/6 182/3/6 188/3/6
f 187/1/6 181/1/6 188/1/6
f 183/3/6 184/3/6 189/3/6
f 171/3/6 183/3/6 189/3/6
f 184/1/6 185/1/6 190/1/6
f 189/3/6 184/3/6 190/3/6
f 185/1/6 173/1/6 191/1/6
f 190/1/6 185/1/6 191/1/6
f 162/3/6 186/3/6 192/3/6
f 186/1/6 187/1/6 192/1/6
f 187/3/6 188/3/6 193/3/6
f 192/1/6 187/1/6 193/1/6
f 182/3/6 168/3/6 194/3/6
f 193/3/6 188/3/6 194/3/6
f 188/3/6 182/3/6 194/3/6
f 168/1/6 169/1/6 195/1/6
f 194/3/6 168/3/6 195/3/6
f 169/3/6 170/3/6 196/3/6
f 195/1/6 169/1/6 196/1/6
f 170/1/6 171/1/6 197/1/6
f 196/3/6 170/3/6 197/3/6
f 171/3/6 189/3/6 198/3/6
f 197/1/6 171/1/6 198/1/6
f 189/1/6 190/1/6 199/1/6
f 198/3/6 189/3/6 199/3/6
f 190/3/6 191/3/6 200/3/6
f 199/1/6 190/1/6 200/1/6
f 191/1/6 173/1/6 201/1/6
f 200/3/6 191/3/6 201/3/6
f 192/3/6 193/3/6 202/3/6
f 193/1/6 194/1/6 202/1/6
f 194/3/6 195/3/6 203/3/6
f 202/1/6 194/1/6 203/1/6
f 195/3/6 196/3/6 203/3/6
f 196/1/6 197/1/6 204/1/6
f 203/3/6 196/3/6 204/3/6
f 197/3/6 198/3/6 205/3/6
f 204/1/6 197/1/6 205/1/6
f 198/3/6 199/3/6 205/3/6
f 199/3/6 200/3/6 205/3/6
f 200/1/6 201/1/6 206/1/6
f 205/3/6 200/3/6 206/3/6
f 173/3/6 163/3/6 207/3/6
f 206/1/6 201/1/6 207/1/6
f 201/1/6 173/1/6 207/1/6
f 161/1/6 162/1/6 208/1/6
f 205/3/6 206/3/6 209/3/6
f 208/1/6 162/1/6 209/1/6
f 162/3/6 192/3/6 209/3/6
f 206/3/6 207/3/6 209/3/6
f 202/3/6 203/3/6 209/3/6
f 192/3/6 202/3/6 209/3/6
f 204/3/6 205/3/6 209/3/6
f 203/3/6 204/3/6 209/3/6
f 207/3/6 163/3/6 210/3/6
f 209/3/6 207/3/6 210/3/6
f 163/1/6 164/1/6 210/1/6
f 164/3/6 165/3/6 211/3/6
f 210/1/6 164/1/6 211/1/6
f 211/3/6 165/3/6 212/3/6
f 213/2/6 214/2/6 215/2/6
f 215/2/6 214/2/6 216/2/6
f 216/2/6 214/2/6 218/2/6
f 213/2/6 215/2/6 219/2/6
f 217/2/6 218/2/6 220/2/6
f 213/2/6 219/2/6 221/2/6
f 219/2/6 220/2/6 221/2/6
f 220/2/6 218/2/6 222/2/6
f 221/2/6 220/2/6 222/2/6
f 218/2/6 214/2/6 222/2/6
f 223/1/6 224/1/6 226/1/6
f 226/1/6 224/1/6 227/1/6
f 225/1/6 226/1/6 228/1/6
f 228/1/6 226/1/6 229/1/6
f 230/1/6 231/1/6 232/1/6
f 232/1/6 231/1/6 233/1/6
