# MagicaVoxel @ Ephtracy

# material
mtllib SIDEWALK.mtl
usemtl palette

# normals
vn -1 0 0
vn 1 0 0
vn 0 0 1
vn 0 0 -1
vn 0 -1 0
vn 0 1 0

# texcoords
vt 0.0253906 0.5
vt 0.978516 0.5

# verts
v -4 0 15
v -4 0 14
v -4 0 -14
v -4 0 -15
v -4 1 14
v -4 1 -14
v -4 2 15
v -4 2 -15
v 4 0 15
v 4 0 -15
v 4 2 15
v 4 2 -15
v -4 0 15
v -4 2 15
v 4 0 15
v 4 2 15
v -4 0 -15
v -4 2 -15
v 4 0 -15
v 4 2 -15
v -4 0 15
v 4 0 15
v -4 0 14
v 3 0 14
v -4 0 -14
v 3 0 -14
v -4 0 -15
v 4 0 -15
v -4 2 15
v 4 2 15
v -4 2 -15
v 4 2 -15

# faces
f 5/1/1 2/1/1 1/1/1
f 5/2/1 3/2/1 2/2/1
f 6/1/1 4/1/1 3/1/1
f 6/2/1 3/2/1 5/2/1
f 7/1/1 5/1/1 1/1/1
f 7/1/1 6/1/1 5/1/1
f 8/1/1 4/1/1 6/1/1
f 8/1/1 6/1/1 7/1/1
f 9/1/2 10/1/2 11/1/2
f 11/1/2 10/1/2 12/1/2
f 15/1/3 14/1/3 13/1/3
f 16/1/3 14/1/3 15/1/3
f 17/1/4 18/1/4 19/1/4
f 19/1/4 18/1/4 20/1/4
f 23/1/5 22/1/5 21/1/5
f 24/1/5 22/1/5 23/1/5
f 25/2/5 24/2/5 23/2/5
f 26/1/5 22/1/5 24/1/5
f 26/2/5 24/2/5 25/2/5
f 27/1/5 26/1/5 25/1/5
f 28/1/5 22/1/5 26/1/5
f 28/1/5 26/1/5 27/1/5
f 29/1/6 30/1/6 31/1/6
f 31/1/6 30/1/6 32/1/6
