# MagicaVoxel @ Ephtracy

# material
mtllib singleTM303.mtl
usemtl palette

# normals
vn -1 0 0
vn 1 0 0
vn 0 0 1
vn 0 0 -1
vn 0 -1 0
vn 0 1 0

# texcoords
vt 0.00195312 0.5
vt 0.00585938 0.5
vt 0.0253906 0.5
vt 0.0449219 0.5

# verts
v -15 0 30
v -15 0 22
v -15 0 21
v -15 0 9
v -15 0 8
v -15 0 -21
v -15 0 -22
v -15 0 -30
v -15 1 30
v -15 1 22
v -15 1 21
v -15 1 9
v -15 1 8
v -15 1 -21
v -15 1 -22
v -15 2 30
v -15 2 22
v -15 2 8
v -15 2 -30
v 7 1 30
v 7 1 24
v 7 1 22
v 7 2 30
v 7 2 22
v -7 1 30
v -7 1 24
v -7 1 22
v -7 1 8
v -7 1 -30
v -7 2 30
v -7 2 22
v -7 2 8
v -7 2 -30
v 15 0 30
v 15 0 26
v 15 0 21
v 15 0 -30
v 15 1 30
v 15 1 26
v 15 1 22
v 15 1 21
v 15 1 -30
v 15 2 30
v 15 2 22
v -15 0 30
v -15 1 30
v -15 2 30
v -9 0 30
v -9 1 30
v -8 0 30
v -8 1 30
v -7 0 30
v -7 1 30
v -7 2 30
v -6 0 30
v -6 1 30
v 6 0 30
v 6 1 30
v 7 0 30
v 7 1 30
v 7 2 30
v 8 0 30
v 8 1 30
v 9 0 30
v 9 1 30
v 15 0 30
v 15 1 30
v 15 2 30
v -15 1 8
v -15 2 8
v -7 1 8
v -7 2 8
v -15 1 22
v -15 2 22
v -7 1 22
v -7 2 22
v 7 1 22
v 7 2 22
v 14 1 22
v 15 1 22
v 15 2 22
v -15 0 -30
v -15 2 -30
v -7 0 -30
v -7 1 -30
v -7 2 -30
v -6 0 -30
v -6 1 -30
v 15 0 -30
v 15 1 -30
v -15 0 30
v -9 0 30
v -8 0 30
v -7 0 30
v -6 0 30
v 6 0 30
v 7 0 30
v 8 0 30
v 9 0 30
v 15 0 30
v -1 0 26
v 0 0 26
v 14 0 26
v 15 0 26
v -9 0 24
v -8 0 24
v -7 0 24
v -6 0 24
v 6 0 24
v 7 0 24
v 8 0 24
v 9 0 24
v -15 0 22
v -7 0 22
v -6 0 22
v 6 0 22
v 7 0 22
v 14 0 22
v -15 0 21
v -7 0 21
v -6 0 21
v -1 0 21
v 0 0 21
v 6 0 21
v 7 0 21
v 14 0 21
v 15 0 21
v 7 0 16
v 12 0 16
v -13 0 15
v -8 0 15
v 7 0 15
v 12 0 15
v -13 0 14
v -8 0 14
v -15 0 9
v -6 0 9
v -15 0 8
v -7 0 8
v -6 0 8
v -12 0 -15
v -8 0 -15
v -12 0 -16
v -8 0 -16
v -15 0 -21
v -7 0 -21
v -15 0 -22
v -7 0 -22
v -1 0 -22
v 0 0 -22
v -1 0 -28
v 0 0 -28
v -15 0 -30
v -7 0 -30
v -6 0 -30
v 15 0 -30
v -7 1 30
v -6 1 30
v 6 1 30
v 7 1 30
v -1 1 26
v 0 1 26
v -7 1 24
v -6 1 24
v 6 1 24
v 7 1 24
v -15 1 22
v -7 1 22
v -6 1 22
v 6 1 22
v 7 1 22
v 14 1 22
v 15 1 22
v -15 1 21
v -7 1 21
v -6 1 21
v -1 1 21
v 0 1 21
v 6 1 21
v 7 1 21
v 14 1 21
v 15 1 21
v 7 1 16
v 12 1 16
v -13 1 15
v -8 1 15
v 7 1 15
v 12 1 15
v -13 1 14
v -8 1 14
v -15 1 9
v -6 1 9
v -15 1 8
v -7 1 8
v -6 1 8
v -1 1 -22
v 0 1 -22
v -1 1 -28
v 0 1 -28
v -7 1 -30
v -6 1 -30
v 15 1 -30
v -15 2 30
v -7 2 30
v 7 2 30
v 15 2 30
v -15 2 22
v -7 2 22
v 7 2 22
v 15 2 22
v -15 2 8
v -7 2 8
v -15 2 -30
v -7 2 -30

# faces
f 9/4/1 2/4/1 1/4/1
f 10/2/1 3/2/1 2/2/1
f 10/4/1 2/4/1 9/4/1
f 11/4/1 4/4/1 3/4/1
f 11/2/1 3/2/1 10/2/1
f 12/2/1 5/2/1 4/2/1
f 12/4/1 4/4/1 11/4/1
f 13/4/1 6/4/1 5/4/1
f 13/2/1 5/2/1 12/2/1
f 14/1/1 7/1/1 6/1/1
f 14/4/1 6/4/1 13/4/1
f 15/3/1 8/3/1 7/3/1
f 15/1/1 7/1/1 14/1/1
f 16/3/1 10/3/1 9/3/1
f 17/3/1 10/3/1 16/3/1
f 18/3/1 14/3/1 13/3/1
f 18/3/1 15/3/1 14/3/1
f 19/3/1 8/3/1 15/3/1
f 19/3/1 15/3/1 18/3/1
f 23/3/1 21/3/1 20/3/1
f 23/3/1 22/3/1 21/3/1
f 24/3/1 22/3/1 23/3/1
f 25/3/2 26/3/2 30/3/2
f 26/3/2 27/3/2 30/3/2
f 30/3/2 27/3/2 31/3/2
f 28/3/2 29/3/2 32/3/2
f 32/3/2 29/3/2 33/3/2
f 34/4/2 35/4/2 38/4/2
f 35/1/2 36/1/2 39/1/2
f 38/4/2 35/4/2 39/4/2
f 39/1/2 36/1/2 40/1/2
f 36/4/2 37/4/2 41/4/2
f 40/1/2 36/1/2 41/1/2
f 41/4/2 37/4/2 42/4/2
f 39/3/2 40/3/2 43/3/2
f 38/3/2 39/3/2 43/3/2
f 43/3/2 40/3/2 44/3/2
f 48/4/3 46/4/3 45/4/3
f 49/3/3 47/3/3 46/3/3
f 49/4/3 46/4/3 48/4/3
f 50/1/3 49/1/3 48/1/3
f 51/3/3 47/3/3 49/3/3
f 51/1/3 49/1/3 50/1/3
f 52/4/3 51/4/3 50/4/3
f 53/3/3 47/3/3 51/3/3
f 53/4/3 51/4/3 52/4/3
f 54/3/3 47/3/3 53/3/3
f 55/1/3 53/1/3 52/1/3
f 56/1/3 53/1/3 55/1/3
f 57/4/3 56/4/3 55/4/3
f 58/4/3 56/4/3 57/4/3
f 59/1/3 58/1/3 57/1/3
f 60/1/3 58/1/3 59/1/3
f 62/4/3 60/4/3 59/4/3
f 63/3/3 61/3/3 60/3/3
f 63/4/3 60/4/3 62/4/3
f 64/1/3 63/1/3 62/1/3
f 65/3/3 61/3/3 63/3/3
f 65/1/3 63/1/3 64/1/3
f 66/4/3 65/4/3 64/4/3
f 67/3/3 61/3/3 65/3/3
f 67/4/3 65/4/3 66/4/3
f 68/3/3 61/3/3 67/3/3
f 71/3/3 70/3/3 69/3/3
f 72/3/3 70/3/3 71/3/3
f 73/3/4 74/3/4 75/3/4
f 75/3/4 74/3/4 76/3/4
f 77/3/4 78/3/4 79/3/4
f 79/3/4 78/3/4 80/3/4
f 80/3/4 78/3/4 81/3/4
f 82/3/4 83/3/4 84/3/4
f 84/3/4 83/3/4 85/3/4
f 85/3/4 83/3/4 86/3/4
f 84/1/4 85/1/4 87/1/4
f 87/1/4 85/1/4 88/1/4
f 87/4/4 88/4/4 89/4/4
f 89/4/4 88/4/4 90/4/4
f 101/4/5 96/4/5 95/4/5
f 102/4/5 96/4/5 101/4/5
f 103/4/5 100/4/5 99/4/5
f 104/4/5 100/4/5 103/4/5
f 105/4/5 92/4/5 91/4/5
f 105/1/5 93/1/5 92/1/5
f 106/4/5 94/4/5 93/4/5
f 106/1/5 93/1/5 105/1/5
f 107/1/5 95/1/5 94/1/5
f 107/4/5 94/4/5 106/4/5
f 108/4/5 101/4/5 95/4/5
f 108/1/5 95/1/5 107/1/5
f 109/4/5 96/4/5 102/4/5
f 109/1/5 97/1/5 96/1/5
f 110/4/5 98/4/5 97/4/5
f 110/1/5 97/1/5 109/1/5
f 111/1/5 99/1/5 98/1/5
f 111/4/5 98/4/5 110/4/5
f 112/4/5 103/4/5 99/4/5
f 112/1/5 99/1/5 111/1/5
f 113/4/5 105/4/5 91/4/5
f 113/4/5 106/4/5 105/4/5
f 113/4/5 107/4/5 106/4/5
f 114/2/5 108/2/5 107/2/5
f 114/4/5 107/4/5 113/4/5
f 115/4/5 101/4/5 108/4/5
f 115/2/5 108/2/5 114/2/5
f 116/4/5 109/4/5 102/4/5
f 116/2/5 110/2/5 109/2/5
f 117/4/5 112/4/5 111/4/5
f 117/2/5 110/2/5 116/2/5
f 117/4/5 111/4/5 110/4/5
f 118/1/5 104/1/5 103/1/5
f 118/4/5 112/4/5 117/4/5
f 118/4/5 103/4/5 112/4/5
f 119/2/5 114/2/5 113/2/5
f 120/1/5 115/1/5 114/1/5
f 120/2/5 114/2/5 119/2/5
f 121/4/5 101/4/5 115/4/5
f 121/1/5 115/1/5 120/1/5
f 122/2/5 102/2/5 101/2/5
f 122/4/5 101/4/5 121/4/5
f 123/4/5 116/4/5 102/4/5
f 123/2/5 102/2/5 122/2/5
f 124/1/5 117/1/5 116/1/5
f 124/4/5 116/4/5 123/4/5
f 125/2/5 118/2/5 117/2/5
f 125/1/5 117/1/5 124/1/5
f 126/1/5 104/1/5 118/1/5
f 126/2/5 118/2/5 125/2/5
f 127/1/5 104/1/5 126/1/5
f 128/4/5 123/4/5 122/4/5
f 128/4/5 121/4/5 120/4/5
f 128/4/5 127/4/5 126/4/5
f 128/4/5 126/4/5 125/4/5
f 128/4/5 124/4/5 123/4/5
f 128/4/5 122/4/5 121/4/5
f 128/4/5 120/4/5 119/4/5
f 128/4/5 125/4/5 124/4/5
f 129/4/5 127/4/5 128/4/5
f 130/4/5 128/4/5 119/4/5
f 131/4/5 128/4/5 130/4/5
f 132/2/5 129/2/5 128/2/5
f 132/4/5 128/4/5 131/4/5
f 133/4/5 127/4/5 129/4/5
f 133/2/5 129/2/5 132/2/5
f 134/2/5 131/2/5 130/2/5
f 134/4/5 130/4/5 119/4/5
f 135/4/5 132/4/5 131/4/5
f 135/2/5 131/2/5 134/2/5
f 135/4/5 133/4/5 132/4/5
f 136/4/5 134/4/5 119/4/5
f 136/4/5 135/4/5 134/4/5
f 137/4/5 133/4/5 135/4/5
f 137/4/5 135/4/5 136/4/5
f 138/2/5 137/2/5 136/2/5
f 139/2/5 137/2/5 138/2/5
f 140/4/5 133/4/5 137/4/5
f 140/2/5 137/2/5 139/2/5
f 141/4/5 139/4/5 138/4/5
f 142/4/5 139/4/5 141/4/5
f 143/4/5 141/4/5 138/4/5
f 143/2/5 142/2/5 141/2/5
f 144/4/5 139/4/5 142/4/5
f 144/2/5 142/2/5 143/2/5
f 145/4/5 143/4/5 138/4/5
f 145/4/5 144/4/5 143/4/5
f 146/1/5 140/1/5 139/1/5
f 146/4/5 144/4/5 145/4/5
f 146/4/5 139/4/5 144/4/5
f 147/1/5 146/1/5 145/1/5
f 148/1/5 140/1/5 146/1/5
f 148/1/5 146/1/5 147/1/5
f 149/4/5 133/4/5 140/4/5
f 150/4/5 133/4/5 149/4/5
f 151/4/5 149/4/5 140/4/5
f 151/1/5 150/1/5 149/1/5
f 152/4/5 133/4/5 150/4/5
f 152/1/5 150/1/5 151/1/5
f 153/3/5 148/3/5 147/3/5
f 154/1/5 140/1/5 148/1/5
f 154/3/5 148/3/5 153/3/5
f 155/4/5 151/4/5 140/4/5
f 155/1/5 140/1/5 154/1/5
f 155/4/5 152/4/5 151/4/5
f 156/4/5 127/4/5 133/4/5
f 156/4/5 152/4/5 155/4/5
f 156/4/5 133/4/5 152/4/5
f 158/4/6 159/4/6 161/4/6
f 161/4/6 159/4/6 162/4/6
f 157/1/6 158/1/6 163/1/6
f 158/4/6 161/4/6 164/4/6
f 163/1/6 158/1/6 164/1/6
f 162/4/6 159/4/6 165/4/6
f 159/1/6 160/1/6 165/1/6
f 165/1/6 160/1/6 166/1/6
f 163/2/6 164/2/6 168/2/6
f 164/4/6 161/4/6 169/4/6
f 168/2/6 164/2/6 169/2/6
f 162/4/6 165/4/6 170/4/6
f 165/2/6 166/2/6 170/2/6
f 170/2/6 166/2/6 171/2/6
f 167/2/6 168/2/6 174/2/6
f 168/1/6 169/1/6 175/1/6
f 174/2/6 168/2/6 175/2/6
f 169/4/6 161/4/6 176/4/6
f 175/1/6 169/1/6 176/1/6
f 161/2/6 162/2/6 177/2/6
f 176/4/6 161/4/6 177/4/6
f 162/4/6 170/4/6 178/4/6
f 177/2/6 162/2/6 178/2/6
f 170/1/6 171/1/6 179/1/6
f 178/4/6 170/4/6 179/4/6
f 171/2/6 172/2/6 180/2/6
f 179/1/6 171/1/6 180/1/6
f 172/1/6 173/1/6 181/1/6
f 180/2/6 172/2/6 181/2/6
f 181/1/6 173/1/6 182/1/6
f 179/4/6 180/4/6 183/4/6
f 177/4/6 178/4/6 183/4/6
f 181/4/6 182/4/6 183/4/6
f 180/4/6 181/4/6 183/4/6
f 178/4/6 179/4/6 183/4/6
f 176/4/6 177/4/6 183/4/6
f 175/4/6 176/4/6 183/4/6
f 174/4/6 175/4/6 183/4/6
f 183/4/6 182/4/6 184/4/6
f 174/4/6 183/4/6 185/4/6
f 185/4/6 183/4/6 186/4/6
f 183/2/6 184/2/6 187/2/6
f 186/4/6 183/4/6 187/4/6
f 184/4/6 182/4/6 188/4/6
f 187/2/6 184/2/6 188/2/6
f 185/2/6 186/2/6 189/2/6
f 174/4/6 185/4/6 189/4/6
f 186/4/6 187/4/6 190/4/6
f 189/2/6 186/2/6 190/2/6
f 187/4/6 188/4/6 190/4/6
f 174/4/6 189/4/6 191/4/6
f 189/4/6 190/4/6 191/4/6
f 190/4/6 188/4/6 192/4/6
f 191/4/6 190/4/6 192/4/6
f 191/2/6 192/2/6 193/2/6
f 193/2/6 192/2/6 194/2/6
f 192/4/6 188/4/6 195/4/6
f 194/2/6 192/2/6 195/2/6
f 195/4/6 188/4/6 196/4/6
f 196/4/6 188/4/6 197/4/6
f 195/4/6 196/4/6 198/4/6
f 196/1/6 197/1/6 198/1/6
f 197/4/6 188/4/6 199/4/6
f 198/1/6 197/1/6 199/1/6
f 194/1/6 195/1/6 200/1/6
f 195/4/6 198/4/6 201/4/6
f 200/1/6 195/1/6 201/1/6
f 198/4/6 199/4/6 201/4/6
f 188/4/6 182/4/6 202/4/6
f 201/4/6 199/4/6 202/4/6
f 199/4/6 188/4/6 202/4/6
f 203/3/6 204/3/6 207/3/6
f 207/3/6 204/3/6 208/3/6
f 205/3/6 206/3/6 209/3/6
f 209/3/6 206/3/6 210/3/6
f 211/3/6 212/3/6 213/3/6
f 213/3/6 212/3/6 214/3/6
