# MagicaVoxel @ Ephtracy

# material
mtllib calleDoblecruce.mtl
usemtl palette

# normals
vn -1 0 0
vn 1 0 0
vn 0 0 1
vn 0 0 -1
vn 0 -1 0
vn 0 1 0

# texcoords
vt 0.966797 0.5
vt 0.970703 0.5
vt 0.978516 0.5
vt 0.986328 0.5

# verts
v -61.5 0 61.5
v -61.5 0 -61.5
v -61.5 1 45.5
v -61.5 1 21.5
v -61.5 2 61.5
v -61.5 2 45.5
v -61.5 2 21.5
v -61.5 2 -61.5
v 28.5 2 61.5
v 28.5 2 27.5
v 28.5 4 61.5
v 28.5 4 27.5
v 61.5 0 61.5
v 61.5 0 22.5
v 61.5 0 21.5
v 61.5 0 -61.5
v 61.5 1 27.5
v 61.5 1 22.5
v 61.5 1 21.5
v 61.5 1 -31.5
v 61.5 1 -33.5
v 61.5 1 -34.5
v 61.5 1 -36.5
v 61.5 1 -61.5
v 61.5 2 27.5
v 61.5 2 22.5
v 61.5 2 -31.5
v 61.5 2 -33.5
v 61.5 2 -34.5
v 61.5 2 -36.5
v 61.5 2 -61.5
v 61.5 4 61.5
v 61.5 4 27.5
v -61.5 0 61.5
v -61.5 2 61.5
v -35.5 1 61.5
v -35.5 2 61.5
v -33.5 1 61.5
v -33.5 2 61.5
v -32.5 1 61.5
v -32.5 2 61.5
v -30.5 1 61.5
v -30.5 2 61.5
v 23.5 0 61.5
v 23.5 2 61.5
v 28.5 0 61.5
v 28.5 2 61.5
v 28.5 4 61.5
v 61.5 0 61.5
v 61.5 4 61.5
v 28.5 2 27.5
v 28.5 4 27.5
v 61.5 2 27.5
v 61.5 4 27.5
v -61.5 0 -61.5
v -61.5 2 -61.5
v 23.5 0 -61.5
v 23.5 2 -61.5
v 28.5 0 -61.5
v 28.5 1 -61.5
v 48.5 1 -61.5
v 48.5 2 -61.5
v 61.5 0 -61.5
v 61.5 1 -61.5
v 61.5 2 -61.5
v -61.5 0 61.5
v 23.5 0 61.5
v 28.5 0 61.5
v 61.5 0 61.5
v 23.5 0 60.5
v 28.5 0 60.5
v -1.5 0 44.5
v 1.5 0 44.5
v 28.5 0 22.5
v 61.5 0 22.5
v 28.5 0 21.5
v 61.5 0 21.5
v -1.5 0 17.5
v 1.5 0 17.5
v -1.5 0 -17.5
v 1.5 0 -17.5
v -1.5 0 -44.5
v 1.5 0 -44.5
v 23.5 0 -60.5
v 28.5 0 -60.5
v -61.5 0 -61.5
v 23.5 0 -61.5
v 28.5 0 -61.5
v 61.5 0 -61.5
v -61.5 2 61.5
v -35.5 2 61.5
v -33.5 2 61.5
v -32.5 2 61.5
v -30.5 2 61.5
v 23.5 2 61.5
v 28.5 2 61.5
v -26.5 2 46.5
v -19.5 2 46.5
v -16.5 2 46.5
v -9.5 2 46.5
v -6.5 2 46.5
v 0.5 2 46.5
v 3.5 2 46.5
v 10.5 2 46.5
v 13.5 2 46.5
v 20.5 2 46.5
v -61.5 2 45.5
v -58.5 2 45.5
v -55.5 2 45.5
v -48.5 2 45.5
v -45.5 2 45.5
v -38.5 2 45.5
v 28.5 2 27.5
v 61.5 2 27.5
v 23.5 2 22.5
v 61.5 2 22.5
v -61.5 2 21.5
v -58.5 2 21.5
v -55.5 2 21.5
v -48.5 2 21.5
v -45.5 2 21.5
v -38.5 2 21.5
v -35.5 2 21.5
v -33.5 2 21.5
v -32.5 2 21.5
v -30.5 2 21.5
v -26.5 2 21.5
v -19.5 2 21.5
v -16.5 2 21.5
v -9.5 2 21.5
v -6.5 2 21.5
v 0.5 2 21.5
v 3.5 2 21.5
v 10.5 2 21.5
v 13.5 2 21.5
v 20.5 2 21.5
v 23.5 2 18.5
v 47.5 2 18.5
v 23.5 2 11.5
v 47.5 2 11.5
v 23.5 2 8.5
v 47.5 2 8.5
v 23.5 2 1.5
v 47.5 2 1.5
v 23.5 2 -1.5
v 47.5 2 -1.5
v 23.5 2 -8.5
v 47.5 2 -8.5
v 23.5 2 -11.5
v 47.5 2 -11.5
v 23.5 2 -18.5
v 47.5 2 -18.5
v 23.5 2 -21.5
v 47.5 2 -21.5
v 23.5 2 -28.5
v 47.5 2 -28.5
v 23.5 2 -31.5
v 61.5 2 -31.5
v 23.5 2 -33.5
v 61.5 2 -33.5
v 23.5 2 -34.5
v 61.5 2 -34.5
v 23.5 2 -36.5
v 61.5 2 -36.5
v 23.5 2 -39.5
v 48.5 2 -39.5
v 23.5 2 -46.5
v 48.5 2 -46.5
v 23.5 2 -49.5
v 48.5 2 -49.5
v 23.5 2 -55.5
v 48.5 2 -55.5
v 23.5 2 -58.5
v 48.5 2 -58.5
v -61.5 2 -61.5
v 23.5 2 -61.5
v 48.5 2 -61.5
v 61.5 2 -61.5
v 28.5 4 61.5
v 61.5 4 61.5
v 28.5 4 27.5
v 61.5 4 27.5

# faces
f 3/4/1 2/4/1 1/4/1
f 4/4/1 2/4/1 3/4/1
f 5/4/1 3/4/1 1/4/1
f 6/2/1 4/2/1 3/2/1
f 6/4/1 3/4/1 5/4/1
f 7/4/1 2/4/1 4/4/1
f 7/2/1 4/2/1 6/2/1
f 8/4/1 2/4/1 7/4/1
f 11/3/1 10/3/1 9/3/1
f 12/3/1 10/3/1 11/3/1
f 13/3/2 14/3/2 17/3/2
f 14/4/2 15/4/2 18/4/2
f 17/3/2 14/3/2 18/3/2
f 15/3/2 16/3/2 19/3/2
f 18/4/2 15/4/2 19/4/2
f 19/3/2 16/3/2 20/3/2
f 20/3/2 16/3/2 21/3/2
f 21/3/2 16/3/2 22/3/2
f 22/3/2 16/3/2 23/3/2
f 23/3/2 16/3/2 24/3/2
f 17/2/2 18/2/2 25/2/2
f 13/3/2 17/3/2 25/3/2
f 18/4/2 19/4/2 26/4/2
f 25/2/2 18/2/2 26/2/2
f 19/4/2 20/4/2 26/4/2
f 20/2/2 21/2/2 27/2/2
f 26/4/2 20/4/2 27/4/2
f 21/4/2 22/4/2 28/4/2
f 27/2/2 21/2/2 28/2/2
f 22/2/2 23/2/2 29/2/2
f 28/4/2 22/4/2 29/4/2
f 23/4/2 24/4/2 30/4/2
f 29/2/2 23/2/2 30/2/2
f 30/4/2 24/4/2 31/4/2
f 13/3/2 25/3/2 32/3/2
f 32/3/2 25/3/2 33/3/2
f 36/4/3 35/4/3 34/4/3
f 37/4/3 35/4/3 36/4/3
f 38/4/3 36/4/3 34/4/3
f 38/2/3 37/2/3 36/2/3
f 39/2/3 37/2/3 38/2/3
f 40/4/3 38/4/3 34/4/3
f 40/4/3 39/4/3 38/4/3
f 41/4/3 39/4/3 40/4/3
f 42/4/3 40/4/3 34/4/3
f 42/2/3 41/2/3 40/2/3
f 43/2/3 41/2/3 42/2/3
f 44/4/3 42/4/3 34/4/3
f 44/4/3 43/4/3 42/4/3
f 45/4/3 43/4/3 44/4/3
f 46/2/3 45/2/3 44/2/3
f 47/2/3 45/2/3 46/2/3
f 49/3/3 47/3/3 46/3/3
f 49/3/3 48/3/3 47/3/3
f 50/3/3 48/3/3 49/3/3
f 51/3/4 52/3/4 53/3/4
f 53/3/4 52/3/4 54/3/4
f 55/4/4 56/4/4 57/4/4
f 57/4/4 56/4/4 58/4/4
f 57/2/4 58/2/4 59/2/4
f 59/2/4 58/2/4 60/2/4
f 59/3/4 60/3/4 61/3/4
f 60/2/4 58/2/4 61/2/4
f 61/2/4 58/2/4 62/2/4
f 59/3/4 61/3/4 63/3/4
f 61/4/4 62/4/4 64/4/4
f 63/3/4 61/3/4 64/3/4
f 64/4/4 62/4/4 65/4/4
f 70/4/5 67/4/5 66/4/5
f 70/2/5 68/2/5 67/2/5
f 71/3/5 69/3/5 68/3/5
f 71/2/5 68/2/5 70/2/5
f 72/4/5 70/4/5 66/4/5
f 72/4/5 71/4/5 70/4/5
f 73/4/5 71/4/5 72/4/5
f 74/3/5 69/3/5 71/3/5
f 74/4/5 71/4/5 73/4/5
f 75/3/5 69/3/5 74/3/5
f 76/4/5 74/4/5 73/4/5
f 76/4/5 75/4/5 74/4/5
f 77/4/5 75/4/5 76/4/5
f 78/1/5 73/1/5 72/1/5
f 78/4/5 72/4/5 66/4/5
f 79/4/5 76/4/5 73/4/5
f 79/1/5 73/1/5 78/1/5
f 80/4/5 78/4/5 66/4/5
f 80/4/5 79/4/5 78/4/5
f 81/4/5 76/4/5 79/4/5
f 81/4/5 79/4/5 80/4/5
f 82/4/5 80/4/5 66/4/5
f 82/1/5 81/1/5 80/1/5
f 83/4/5 76/4/5 81/4/5
f 83/1/5 81/1/5 82/1/5
f 84/4/5 83/4/5 82/4/5
f 84/4/5 76/4/5 83/4/5
f 85/3/5 77/3/5 76/3/5
f 85/4/5 76/4/5 84/4/5
f 86/4/5 84/4/5 82/4/5
f 86/4/5 82/4/5 66/4/5
f 87/2/5 85/2/5 84/2/5
f 87/4/5 84/4/5 86/4/5
f 88/3/5 77/3/5 85/3/5
f 88/2/5 85/2/5 87/2/5
f 89/3/5 77/3/5 88/3/5
f 94/4/6 95/4/6 97/4/6
f 97/4/6 95/4/6 98/4/6
f 98/4/6 95/4/6 99/4/6
f 99/4/6 95/4/6 100/4/6
f 100/4/6 95/4/6 101/4/6
f 101/4/6 95/4/6 102/4/6
f 102/4/6 95/4/6 103/4/6
f 103/4/6 95/4/6 104/4/6
f 104/4/6 95/4/6 105/4/6
f 105/4/6 95/4/6 106/4/6
f 90/4/6 91/4/6 107/4/6
f 107/4/6 91/4/6 108/4/6
f 108/4/6 91/4/6 109/4/6
f 109/4/6 91/4/6 110/4/6
f 110/4/6 91/4/6 111/4/6
f 111/4/6 91/4/6 112/4/6
f 95/2/6 96/2/6 113/2/6
f 106/4/6 95/4/6 115/4/6
f 113/2/6 114/2/6 115/2/6
f 95/2/6 113/2/6 115/2/6
f 115/2/6 114/2/6 116/2/6
f 107/2/6 108/2/6 117/2/6
f 108/4/6 109/4/6 118/4/6
f 117/2/6 108/2/6 118/2/6
f 109/2/6 110/2/6 119/2/6
f 118/4/6 109/4/6 119/4/6
f 110/4/6 111/4/6 120/4/6
f 119/2/6 110/2/6 120/2/6
f 111/2/6 112/2/6 121/2/6
f 120/4/6 111/4/6 121/4/6
f 112/4/6 91/4/6 122/4/6
f 121/2/6 112/2/6 122/2/6
f 91/2/6 92/2/6 123/2/6
f 122/4/6 91/4/6 123/4/6
f 92/4/6 93/4/6 124/4/6
f 123/2/6 92/2/6 124/2/6
f 93/2/6 94/2/6 125/2/6
f 124/4/6 93/4/6 125/4/6
f 94/4/6 97/4/6 126/4/6
f 125/2/6 94/2/6 126/2/6
f 97/2/6 98/2/6 127/2/6
f 126/4/6 97/4/6 127/4/6
f 98/4/6 99/4/6 128/4/6
f 127/2/6 98/2/6 128/2/6
f 99/2/6 100/2/6 129/2/6
f 128/4/6 99/4/6 129/4/6
f 100/4/6 101/4/6 130/4/6
f 129/2/6 100/2/6 130/2/6
f 101/2/6 102/2/6 131/2/6
f 130/4/6 101/4/6 131/4/6
f 102/4/6 103/4/6 132/4/6
f 131/2/6 102/2/6 132/2/6
f 103/2/6 104/2/6 133/2/6
f 132/4/6 103/4/6 133/4/6
f 104/4/6 105/4/6 134/4/6
f 133/2/6 104/2/6 134/2/6
f 105/2/6 106/2/6 135/2/6
f 134/4/6 105/4/6 135/4/6
f 106/4/6 115/4/6 136/4/6
f 135/2/6 106/2/6 136/2/6
f 115/4/6 116/4/6 136/4/6
f 119/4/6 120/4/6 137/4/6
f 136/4/6 116/4/6 137/4/6
f 135/4/6 136/4/6 137/4/6
f 134/4/6 135/4/6 137/4/6
f 118/4/6 119/4/6 137/4/6
f 117/4/6 118/4/6 137/4/6
f 121/4/6 122/4/6 137/4/6
f 122/4/6 123/4/6 137/4/6
f 123/4/6 124/4/6 137/4/6
f 133/4/6 134/4/6 137/4/6
f 132/4/6 133/4/6 137/4/6
f 131/4/6 132/4/6 137/4/6
f 130/4/6 131/4/6 137/4/6
f 129/4/6 130/4/6 137/4/6
f 128/4/6 129/4/6 137/4/6
f 127/4/6 128/4/6 137/4/6
f 126/4/6 127/4/6 137/4/6
f 125/4/6 126/4/6 137/4/6
f 124/4/6 125/4/6 137/4/6
f 120/4/6 121/4/6 137/4/6
f 137/4/6 116/4/6 138/4/6
f 117/4/6 137/4/6 139/4/6
f 137/2/6 138/2/6 139/2/6
f 138/4/6 116/4/6 140/4/6
f 139/2/6 138/2/6 140/2/6
f 117/4/6 139/4/6 141/4/6
f 139/4/6 140/4/6 141/4/6
f 140/4/6 116/4/6 142/4/6
f 141/4/6 140/4/6 142/4/6
f 117/4/6 141/4/6 143/4/6
f 141/2/6 142/2/6 143/2/6
f 142/4/6 116/4/6 144/4/6
f 143/2/6 142/2/6 144/2/6
f 117/4/6 143/4/6 145/4/6
f 143/4/6 144/4/6 145/4/6
f 144/4/6 116/4/6 146/4/6
f 145/4/6 144/4/6 146/4/6
f 117/4/6 145/4/6 147/4/6
f 145/2/6 146/2/6 147/2/6
f 146/4/6 116/4/6 148/4/6
f 147/2/6 146/2/6 148/2/6
f 117/4/6 147/4/6 149/4/6
f 147/4/6 148/4/6 149/4/6
f 148/4/6 116/4/6 150/4/6
f 149/4/6 148/4/6 150/4/6
f 117/4/6 149/4/6 151/4/6
f 149/2/6 150/2/6 151/2/6
f 150/4/6 116/4/6 152/4/6
f 151/2/6 150/2/6 152/2/6
f 117/4/6 151/4/6 153/4/6
f 151/4/6 152/4/6 153/4/6
f 152/4/6 116/4/6 154/4/6
f 153/4/6 152/4/6 154/4/6
f 117/4/6 153/4/6 155/4/6
f 153/2/6 154/2/6 155/2/6
f 154/4/6 116/4/6 156/4/6
f 155/2/6 154/2/6 156/2/6
f 117/4/6 155/4/6 157/4/6
f 155/4/6 156/4/6 157/4/6
f 156/4/6 116/4/6 158/4/6
f 157/4/6 156/4/6 158/4/6
f 117/4/6 157/4/6 159/4/6
f 157/2/6 158/2/6 159/2/6
f 159/2/6 158/2/6 160/2/6
f 117/4/6 159/4/6 161/4/6
f 159/4/6 160/4/6 161/4/6
f 161/4/6 160/4/6 162/4/6
f 117/4/6 161/4/6 163/4/6
f 161/2/6 162/2/6 163/2/6
f 163/2/6 162/2/6 164/2/6
f 117/4/6 163/4/6 165/4/6
f 163/4/6 164/4/6 165/4/6
f 165/4/6 164/4/6 166/4/6
f 117/4/6 165/4/6 167/4/6
f 165/2/6 166/2/6 167/2/6
f 166/4/6 164/4/6 168/4/6
f 167/2/6 166/2/6 168/2/6
f 117/4/6 167/4/6 169/4/6
f 167/4/6 168/4/6 169/4/6
f 168/4/6 164/4/6 170/4/6
f 169/4/6 168/4/6 170/4/6
f 117/4/6 169/4/6 171/4/6
f 169/2/6 170/2/6 171/2/6
f 170/4/6 164/4/6 172/4/6
f 171/2/6 170/2/6 172/2/6
f 117/4/6 171/4/6 173/4/6
f 171/4/6 172/4/6 173/4/6
f 172/4/6 164/4/6 174/4/6
f 173/4/6 172/4/6 174/4/6
f 117/4/6 173/4/6 175/4/6
f 173/2/6 174/2/6 176/2/6
f 175/4/6 173/4/6 176/4/6
f 174/4/6 164/4/6 177/4/6
f 176/2/6 174/2/6 177/2/6
f 177/4/6 164/4/6 178/4/6
f 179/3/6 180/3/6 181/3/6
f 181/3/6 180/3/6 182/3/6
