# MagicaVoxel @ Ephtracy

# material
mtllib calleDoble.mtl
usemtl palette

# normals
vn -1 0 0
vn 1 0 0
vn 0 0 1
vn 0 0 -1
vn 0 -1 0
vn 0 1 0

# texcoords
vt 0.966797 0.5
vt 0.970703 0.5
vt 0.978516 0.5
vt 0.986328 0.5

# verts
v -61.5 0 61.5
v -61.5 0 -61.5
v -61.5 1 45.5
v -61.5 1 16.5
v -61.5 1 -11.5
v -61.5 1 -44.5
v -61.5 2 61.5
v -61.5 2 45.5
v -61.5 2 16.5
v -61.5 2 -11.5
v -61.5 2 -44.5
v -61.5 2 -61.5
v 28.5 2 61.5
v 28.5 2 -61.5
v 28.5 4 61.5
v 28.5 4 -61.5
v 61.5 0 61.5
v 61.5 0 -61.5
v 61.5 4 61.5
v 61.5 4 -61.5
v -61.5 0 61.5
v -61.5 2 61.5
v -35.5 1 61.5
v -35.5 2 61.5
v -33.5 1 61.5
v -33.5 2 61.5
v -32.5 1 61.5
v -32.5 2 61.5
v -30.5 1 61.5
v -30.5 2 61.5
v 23.5 0 61.5
v 23.5 2 61.5
v 28.5 0 61.5
v 28.5 2 61.5
v 28.5 4 61.5
v 61.5 0 61.5
v 61.5 4 61.5
v -61.5 0 -61.5
v -61.5 2 -61.5
v -35.5 1 -61.5
v -35.5 2 -61.5
v -33.5 1 -61.5
v -33.5 2 -61.5
v -32.5 1 -61.5
v -32.5 2 -61.5
v -30.5 1 -61.5
v -30.5 2 -61.5
v 23.5 0 -61.5
v 23.5 2 -61.5
v 28.5 0 -61.5
v 28.5 2 -61.5
v 28.5 4 -61.5
v 61.5 0 -61.5
v 61.5 4 -61.5
v -61.5 0 61.5
v 23.5 0 61.5
v 28.5 0 61.5
v 61.5 0 61.5
v 23.5 0 60.5
v 28.5 0 60.5
v -1.5 0 44.5
v 1.5 0 44.5
v -1.5 0 17.5
v 1.5 0 17.5
v -1.5 0 -17.5
v 1.5 0 -17.5
v -1.5 0 -44.5
v 1.5 0 -44.5
v 23.5 0 -60.5
v 28.5 0 -60.5
v -61.5 0 -61.5
v 23.5 0 -61.5
v 28.5 0 -61.5
v 61.5 0 -61.5
v -61.5 2 61.5
v -35.5 2 61.5
v -33.5 2 61.5
v -32.5 2 61.5
v -30.5 2 61.5
v 23.5 2 61.5
v 28.5 2 61.5
v -61.5 2 45.5
v -59.5 2 45.5
v -5.5 2 44.5
v -2.5 2 44.5
v -5.5 2 17.5
v -2.5 2 17.5
v -61.5 2 16.5
v -59.5 2 16.5
v -61.5 2 -11.5
v -59.5 2 -11.5
v -5.5 2 -17.5
v -2.5 2 -17.5
v -61.5 2 -44.5
v -59.5 2 -44.5
v -5.5 2 -44.5
v -2.5 2 -44.5
v -61.5 2 -61.5
v -35.5 2 -61.5
v -33.5 2 -61.5
v -32.5 2 -61.5
v -30.5 2 -61.5
v 23.5 2 -61.5
v 28.5 2 -61.5
v 28.5 4 61.5
v 61.5 4 61.5
v 28.5 4 -61.5
v 61.5 4 -61.5

# faces
f 3/4/1 2/4/1 1/4/1
f 4/4/1 2/4/1 3/4/1
f 5/4/1 2/4/1 4/4/1
f 6/4/1 2/4/1 5/4/1
f 7/4/1 3/4/1 1/4/1
f 8/1/1 4/1/1 3/1/1
f 8/4/1 3/4/1 7/4/1
f 9/4/1 5/4/1 4/4/1
f 9/1/1 4/1/1 8/1/1
f 10/1/1 6/1/1 5/1/1
f 10/4/1 5/4/1 9/4/1
f 11/4/1 2/4/1 6/4/1
f 11/1/1 6/1/1 10/1/1
f 12/4/1 2/4/1 11/4/1
f 15/3/1 14/3/1 13/3/1
f 16/3/1 14/3/1 15/3/1
f 17/3/2 18/3/2 19/3/2
f 19/3/2 18/3/2 20/3/2
f 23/4/3 22/4/3 21/4/3
f 24/4/3 22/4/3 23/4/3
f 25/4/3 23/4/3 21/4/3
f 25/2/3 24/2/3 23/2/3
f 26/2/3 24/2/3 25/2/3
f 27/4/3 25/4/3 21/4/3
f 27/4/3 26/4/3 25/4/3
f 28/4/3 26/4/3 27/4/3
f 29/4/3 27/4/3 21/4/3
f 29/2/3 28/2/3 27/2/3
f 30/2/3 28/2/3 29/2/3
f 31/4/3 29/4/3 21/4/3
f 31/4/3 30/4/3 29/4/3
f 32/4/3 30/4/3 31/4/3
f 33/2/3 32/2/3 31/2/3
f 34/2/3 32/2/3 33/2/3
f 36/3/3 34/3/3 33/3/3
f 36/3/3 35/3/3 34/3/3
f 37/3/3 35/3/3 36/3/3
f 38/4/4 39/4/4 40/4/4
f 40/4/4 39/4/4 41/4/4
f 38/4/4 40/4/4 42/4/4
f 40/2/4 41/2/4 42/2/4
f 42/2/4 41/2/4 43/2/4
f 38/4/4 42/4/4 44/4/4
f 42/4/4 43/4/4 44/4/4
f 44/4/4 43/4/4 45/4/4
f 38/4/4 44/4/4 46/4/4
f 44/2/4 45/2/4 46/2/4
f 46/2/4 45/2/4 47/2/4
f 38/4/4 46/4/4 48/4/4
f 46/4/4 47/4/4 48/4/4
f 48/4/4 47/4/4 49/4/4
f 48/2/4 49/2/4 50/2/4
f 50/2/4 49/2/4 51/2/4
f 50/3/4 51/3/4 53/3/4
f 51/3/4 52/3/4 53/3/4
f 53/3/4 52/3/4 54/3/4
f 59/4/5 56/4/5 55/4/5
f 59/2/5 57/2/5 56/2/5
f 60/3/5 58/3/5 57/3/5
f 60/2/5 57/2/5 59/2/5
f 61/4/5 59/4/5 55/4/5
f 61/4/5 60/4/5 59/4/5
f 62/4/5 60/4/5 61/4/5
f 63/4/5 61/4/5 55/4/5
f 63/1/5 62/1/5 61/1/5
f 64/4/5 60/4/5 62/4/5
f 64/1/5 62/1/5 63/1/5
f 65/4/5 63/4/5 55/4/5
f 65/4/5 64/4/5 63/4/5
f 66/4/5 60/4/5 64/4/5
f 66/4/5 64/4/5 65/4/5
f 67/4/5 65/4/5 55/4/5
f 67/1/5 66/1/5 65/1/5
f 68/4/5 60/4/5 66/4/5
f 68/1/5 66/1/5 67/1/5
f 69/4/5 68/4/5 67/4/5
f 69/4/5 60/4/5 68/4/5
f 70/3/5 58/3/5 60/3/5
f 70/4/5 60/4/5 69/4/5
f 71/4/5 69/4/5 67/4/5
f 71/4/5 67/4/5 55/4/5
f 72/2/5 70/2/5 69/2/5
f 72/4/5 69/4/5 71/4/5
f 73/3/5 58/3/5 70/3/5
f 73/2/5 70/2/5 72/2/5
f 74/3/5 58/3/5 73/3/5
f 75/4/6 76/4/6 82/4/6
f 82/4/6 76/4/6 83/4/6
f 79/4/6 80/4/6 84/4/6
f 84/4/6 80/4/6 85/4/6
f 79/4/6 84/4/6 86/4/6
f 84/1/6 85/1/6 86/1/6
f 85/4/6 80/4/6 87/4/6
f 86/1/6 85/1/6 87/1/6
f 82/1/6 83/1/6 88/1/6
f 83/4/6 76/4/6 89/4/6
f 88/1/6 83/1/6 89/1/6
f 88/4/6 89/4/6 90/4/6
f 89/4/6 76/4/6 91/4/6
f 90/4/6 89/4/6 91/4/6
f 79/4/6 86/4/6 92/4/6
f 86/4/6 87/4/6 92/4/6
f 87/4/6 80/4/6 93/4/6
f 92/4/6 87/4/6 93/4/6
f 90/1/6 91/1/6 94/1/6
f 91/4/6 76/4/6 95/4/6
f 94/1/6 91/1/6 95/1/6
f 79/4/6 92/4/6 96/4/6
f 92/1/6 93/1/6 96/1/6
f 93/4/6 80/4/6 97/4/6
f 96/1/6 93/1/6 97/1/6
f 94/4/6 95/4/6 98/4/6
f 76/2/6 77/2/6 99/2/6
f 98/4/6 95/4/6 99/4/6
f 95/4/6 76/4/6 99/4/6
f 77/4/6 78/4/6 100/4/6
f 99/2/6 77/2/6 100/2/6
f 78/2/6 79/2/6 101/2/6
f 100/4/6 78/4/6 101/4/6
f 96/4/6 97/4/6 102/4/6
f 101/2/6 79/2/6 102/2/6
f 79/4/6 96/4/6 102/4/6
f 80/2/6 81/2/6 103/2/6
f 102/4/6 97/4/6 103/4/6
f 97/4/6 80/4/6 103/4/6
f 103/2/6 81/2/6 104/2/6
f 105/3/6 106/3/6 107/3/6
f 107/3/6 106/3/6 108/3/6
