# MagicaVoxel @ Ephtracy

# material
mtllib cruce.mtl
usemtl palette

# normals
vn -1 0 0
vn 1 0 0
vn 0 0 1
vn 0 0 -1
vn 0 -1 0
vn 0 1 0

# texcoords
vt 0.966797 0.5
vt 0.970703 0.5
vt 0.978516 0.5
vt 0.986328 0.5

# verts
v -61.5 0 61.5
v -61.5 0 28.5
v -61.5 0 23.5
v -61.5 0 -23.5
v -61.5 0 -28.5
v -61.5 0 -61.5
v -61.5 2 28.5
v -61.5 2 23.5
v -61.5 2 -23.5
v -61.5 2 -28.5
v -61.5 4 61.5
v -61.5 4 28.5
v -61.5 4 -28.5
v -61.5 4 -61.5
v 28.5 2 61.5
v 28.5 2 28.5
v 28.5 2 -28.5
v 28.5 2 -61.5
v 28.5 4 61.5
v 28.5 4 28.5
v 28.5 4 -28.5
v 28.5 4 -61.5
v -28.5 2 61.5
v -28.5 2 28.5
v -28.5 2 -28.5
v -28.5 2 -61.5
v -28.5 4 61.5
v -28.5 4 28.5
v -28.5 4 -28.5
v -28.5 4 -61.5
v 61.5 0 61.5
v 61.5 0 28.5
v 61.5 0 23.5
v 61.5 0 -23.5
v 61.5 0 -28.5
v 61.5 0 -61.5
v 61.5 2 28.5
v 61.5 2 23.5
v 61.5 2 -23.5
v 61.5 2 -28.5
v 61.5 4 61.5
v 61.5 4 28.5
v 61.5 4 -28.5
v 61.5 4 -61.5
v -61.5 0 61.5
v -61.5 4 61.5
v -28.5 0 61.5
v -28.5 2 61.5
v -28.5 4 61.5
v -23.5 0 61.5
v -23.5 2 61.5
v 23.5 0 61.5
v 23.5 2 61.5
v 28.5 0 61.5
v 28.5 2 61.5
v 28.5 4 61.5
v 61.5 0 61.5
v 61.5 4 61.5
v -61.5 2 -28.5
v -61.5 4 -28.5
v -28.5 2 -28.5
v -28.5 4 -28.5
v 28.5 2 -28.5
v 28.5 4 -28.5
v 61.5 2 -28.5
v 61.5 4 -28.5
v -61.5 2 28.5
v -61.5 4 28.5
v -28.5 2 28.5
v -28.5 4 28.5
v 28.5 2 28.5
v 28.5 4 28.5
v 61.5 2 28.5
v 61.5 4 28.5
v -61.5 0 -61.5
v -61.5 4 -61.5
v -28.5 0 -61.5
v -28.5 2 -61.5
v -28.5 4 -61.5
v -23.5 0 -61.5
v -23.5 2 -61.5
v 23.5 0 -61.5
v 23.5 2 -61.5
v 28.5 0 -61.5
v 28.5 2 -61.5
v 28.5 4 -61.5
v 61.5 0 -61.5
v 61.5 4 -61.5
v -61.5 0 61.5
v -28.5 0 61.5
v -23.5 0 61.5
v 23.5 0 61.5
v 28.5 0 61.5
v 61.5 0 61.5
v -28.5 0 60.5
v -23.5 0 60.5
v 23.5 0 60.5
v 28.5 0 60.5
v -1.5 0 44.5
v 1.5 0 44.5
v -61.5 0 28.5
v -59.5 0 28.5
v 59.5 0 28.5
v 61.5 0 28.5
v -61.5 0 23.5
v -59.5 0 23.5
v 59.5 0 23.5
v 61.5 0 23.5
v -1.5 0 17.5
v 1.5 0 17.5
v -1.5 0 -17.5
v 1.5 0 -17.5
v -61.5 0 -23.5
v -59.5 0 -23.5
v 59.5 0 -23.5
v 61.5 0 -23.5
v -61.5 0 -28.5
v -59.5 0 -28.5
v 59.5 0 -28.5
v 61.5 0 -28.5
v -1.5 0 -44.5
v 1.5 0 -44.5
v -28.5 0 -60.5
v -23.5 0 -60.5
v 23.5 0 -60.5
v 28.5 0 -60.5
v -61.5 0 -61.5
v -28.5 0 -61.5
v -23.5 0 -61.5
v 23.5 0 -61.5
v 28.5 0 -61.5
v 61.5 0 -61.5
v -28.5 2 61.5
v -23.5 2 61.5
v 23.5 2 61.5
v 28.5 2 61.5
v -1.5 2 44.5
v 1.5 2 44.5
v -61.5 2 28.5
v -28.5 2 28.5
v 28.5 2 28.5
v 61.5 2 28.5
v -61.5 2 23.5
v -23.5 2 23.5
v 23.5 2 23.5
v 61.5 2 23.5
v -1.5 2 17.5
v 1.5 2 17.5
v -45.5 2 1.5
v -21.5 2 1.5
v 21.5 2 1.5
v 45.5 2 1.5
v -45.5 2 -1.5
v -21.5 2 -1.5
v 21.5 2 -1.5
v 45.5 2 -1.5
v -1.5 2 -17.5
v 1.5 2 -17.5
v -61.5 2 -23.5
v -23.5 2 -23.5
v 23.5 2 -23.5
v 61.5 2 -23.5
v -61.5 2 -28.5
v -28.5 2 -28.5
v 28.5 2 -28.5
v 61.5 2 -28.5
v -1.5 2 -44.5
v 1.5 2 -44.5
v -28.5 2 -61.5
v -23.5 2 -61.5
v 23.5 2 -61.5
v 28.5 2 -61.5
v -61.5 4 61.5
v -28.5 4 61.5
v 28.5 4 61.5
v 61.5 4 61.5
v -61.5 4 28.5
v -28.5 4 28.5
v 28.5 4 28.5
v 61.5 4 28.5
v -61.5 4 -28.5
v -28.5 4 -28.5
v 28.5 4 -28.5
v 61.5 4 -28.5
v -61.5 4 -61.5
v -28.5 4 -61.5
v 28.5 4 -61.5
v 61.5 4 -61.5

# faces
f 7/3/1 2/3/1 1/3/1
f 7/2/1 3/2/1 2/2/1
f 8/4/1 4/4/1 3/4/1
f 8/2/1 3/2/1 7/2/1
f 9/2/1 5/2/1 4/2/1
f 9/4/1 4/4/1 8/4/1
f 10/3/1 6/3/1 5/3/1
f 10/2/1 5/2/1 9/2/1
f 11/3/1 7/3/1 1/3/1
f 12/3/1 7/3/1 11/3/1
f 13/3/1 6/3/1 10/3/1
f 14/3/1 6/3/1 13/3/1
f 19/3/1 16/3/1 15/3/1
f 20/3/1 16/3/1 19/3/1
f 21/3/1 18/3/1 17/3/1
f 22/3/1 18/3/1 21/3/1
f 23/3/2 24/3/2 27/3/2
f 27/3/2 24/3/2 28/3/2
f 25/3/2 26/3/2 29/3/2
f 29/3/2 26/3/2 30/3/2
f 31/3/2 32/3/2 37/3/2
f 32/2/2 33/2/2 37/2/2
f 33/4/2 34/4/2 38/4/2
f 37/2/2 33/2/2 38/2/2
f 34/2/2 35/2/2 39/2/2
f 38/4/2 34/4/2 39/4/2
f 35/3/2 36/3/2 40/3/2
f 39/2/2 35/2/2 40/2/2
f 31/3/2 37/3/2 41/3/2
f 41/3/2 37/3/2 42/3/2
f 40/3/2 36/3/2 43/3/2
f 43/3/2 36/3/2 44/3/2
f 47/3/3 46/3/3 45/3/3
f 48/3/3 46/3/3 47/3/3
f 49/3/3 46/3/3 48/3/3
f 50/2/3 48/2/3 47/2/3
f 51/2/3 48/2/3 50/2/3
f 52/4/3 51/4/3 50/4/3
f 53/4/3 51/4/3 52/4/3
f 54/2/3 53/2/3 52/2/3
f 55/2/3 53/2/3 54/2/3
f 57/3/3 55/3/3 54/3/3
f 57/3/3 56/3/3 55/3/3
f 58/3/3 56/3/3 57/3/3
f 61/3/3 60/3/3 59/3/3
f 62/3/3 60/3/3 61/3/3
f 65/3/3 64/3/3 63/3/3
f 66/3/3 64/3/3 65/3/3
f 67/3/4 68/3/4 69/3/4
f 69/3/4 68/3/4 70/3/4
f 71/3/4 72/3/4 73/3/4
f 73/3/4 72/3/4 74/3/4
f 75/3/4 76/3/4 77/3/4
f 77/3/4 76/3/4 78/3/4
f 78/3/4 76/3/4 79/3/4
f 77/2/4 78/2/4 80/2/4
f 80/2/4 78/2/4 81/2/4
f 80/4/4 81/4/4 82/4/4
f 82/4/4 81/4/4 83/4/4
f 82/2/4 83/2/4 84/2/4
f 84/2/4 83/2/4 85/2/4
f 84/3/4 85/3/4 87/3/4
f 85/3/4 86/3/4 87/3/4
f 87/3/4 86/3/4 88/3/4
f 95/3/5 90/3/5 89/3/5
f 95/2/5 91/2/5 90/2/5
f 96/4/5 92/4/5 91/4/5
f 96/2/5 91/2/5 95/2/5
f 97/2/5 93/2/5 92/2/5
f 97/4/5 92/4/5 96/4/5
f 98/3/5 94/3/5 93/3/5
f 98/2/5 93/2/5 97/2/5
f 99/4/5 97/4/5 96/4/5
f 99/4/5 96/4/5 95/4/5
f 99/4/5 98/4/5 97/4/5
f 100/4/5 98/4/5 99/4/5
f 101/3/5 95/3/5 89/3/5
f 102/3/5 95/3/5 101/3/5
f 103/3/5 94/3/5 98/3/5
f 104/3/5 94/3/5 103/3/5
f 105/2/5 102/2/5 101/2/5
f 106/3/5 95/3/5 102/3/5
f 106/2/5 102/2/5 105/2/5
f 107/3/5 103/3/5 98/3/5
f 107/2/5 104/2/5 103/2/5
f 108/2/5 104/2/5 107/2/5
f 109/4/5 99/4/5 95/4/5
f 109/1/5 100/1/5 99/1/5
f 110/4/5 98/4/5 100/4/5
f 110/1/5 100/1/5 109/1/5
f 111/4/5 109/4/5 95/4/5
f 111/4/5 110/4/5 109/4/5
f 112/4/5 98/4/5 110/4/5
f 112/4/5 110/4/5 111/4/5
f 113/4/5 106/4/5 105/4/5
f 114/3/5 95/3/5 106/3/5
f 114/4/5 106/4/5 113/4/5
f 115/4/5 108/4/5 107/4/5
f 115/3/5 107/3/5 98/3/5
f 116/4/5 108/4/5 115/4/5
f 117/2/5 114/2/5 113/2/5
f 118/3/5 95/3/5 114/3/5
f 118/2/5 114/2/5 117/2/5
f 119/3/5 115/3/5 98/3/5
f 119/2/5 116/2/5 115/2/5
f 120/2/5 116/2/5 119/2/5
f 121/4/5 111/4/5 95/4/5
f 121/1/5 112/1/5 111/1/5
f 122/4/5 98/4/5 112/4/5
f 122/1/5 112/1/5 121/1/5
f 123/4/5 121/4/5 95/4/5
f 123/3/5 95/3/5 118/3/5
f 123/4/5 122/4/5 121/4/5
f 123/3/5 118/3/5 117/3/5
f 124/4/5 122/4/5 123/4/5
f 125/4/5 98/4/5 122/4/5
f 125/4/5 122/4/5 124/4/5
f 126/3/5 120/3/5 119/3/5
f 126/4/5 98/4/5 125/4/5
f 126/3/5 119/3/5 98/3/5
f 127/3/5 123/3/5 117/3/5
f 128/2/5 124/2/5 123/2/5
f 128/3/5 123/3/5 127/3/5
f 129/4/5 125/4/5 124/4/5
f 129/2/5 124/2/5 128/2/5
f 130/2/5 126/2/5 125/2/5
f 130/4/5 125/4/5 129/4/5
f 131/3/5 120/3/5 126/3/5
f 131/2/5 126/2/5 130/2/5
f 132/3/5 120/3/5 131/3/5
f 134/4/6 135/4/6 137/4/6
f 137/4/6 135/4/6 138/4/6
f 133/2/6 134/2/6 140/2/6
f 135/2/6 136/2/6 141/2/6
f 139/2/6 140/2/6 143/2/6
f 134/4/6 137/4/6 144/4/6
f 143/2/6 140/2/6 144/2/6
f 140/2/6 134/2/6 144/2/6
f 138/4/6 135/4/6 145/4/6
f 141/2/6 142/2/6 145/2/6
f 135/2/6 141/2/6 145/2/6
f 145/2/6 142/2/6 146/2/6
f 144/4/6 137/4/6 147/4/6
f 143/4/6 144/4/6 147/4/6
f 137/1/6 138/1/6 147/1/6
f 145/4/6 146/4/6 148/4/6
f 147/1/6 138/1/6 148/1/6
f 138/4/6 145/4/6 148/4/6
f 143/4/6 147/4/6 149/4/6
f 147/4/6 148/4/6 149/4/6
f 149/4/6 148/4/6 150/4/6
f 148/4/6 146/4/6 151/4/6
f 150/4/6 148/4/6 151/4/6
f 151/4/6 146/4/6 152/4/6
f 149/1/6 150/1/6 153/1/6
f 143/4/6 149/4/6 153/4/6
f 150/4/6 151/4/6 154/4/6
f 153/1/6 150/1/6 154/1/6
f 151/1/6 152/1/6 155/1/6
f 154/4/6 151/4/6 155/4/6
f 152/4/6 146/4/6 156/4/6
f 155/1/6 152/1/6 156/1/6
f 154/4/6 155/4/6 157/4/6
f 153/4/6 154/4/6 157/4/6
f 155/4/6 156/4/6 157/4/6
f 157/4/6 156/4/6 158/4/6
f 143/4/6 153/4/6 159/4/6
f 153/4/6 157/4/6 159/4/6
f 159/4/6 157/4/6 160/4/6
f 158/4/6 156/4/6 161/4/6
f 156/4/6 146/4/6 162/4/6
f 161/4/6 156/4/6 162/4/6
f 159/2/6 160/2/6 163/2/6
f 163/2/6 160/2/6 164/2/6
f 161/2/6 162/2/6 165/2/6
f 165/2/6 162/2/6 166/2/6
f 160/4/6 157/4/6 167/4/6
f 157/1/6 158/1/6 167/1/6
f 158/4/6 161/4/6 168/4/6
f 167/1/6 158/1/6 168/1/6
f 164/2/6 160/2/6 169/2/6
f 160/4/6 167/4/6 170/4/6
f 169/2/6 160/2/6 170/2/6
f 167/4/6 168/4/6 170/4/6
f 161/2/6 165/2/6 171/2/6
f 170/4/6 168/4/6 171/4/6
f 168/4/6 161/4/6 171/4/6
f 171/2/6 165/2/6 172/2/6
f 173/3/6 174/3/6 177/3/6
f 177/3/6 174/3/6 178/3/6
f 175/3/6 176/3/6 179/3/6
f 179/3/6 176/3/6 180/3/6
f 181/3/6 182/3/6 185/3/6
f 185/3/6 182/3/6 186/3/6
f 183/3/6 184/3/6 187/3/6
f 187/3/6 184/3/6 188/3/6
