# MagicaVoxel @ Ephtracy

# material
mtllib edificioesquina3.mtl
usemtl palette

# normals
vn -1 0 0
vn 1 0 0
vn 0 0 1
vn 0 0 -1
vn 0 -1 0
vn 0 1 0

# texcoords
vt 0.00585938 0.5
vt 0.314453 0.5
vt 0.365234 0.5
vt 0.451172 0.5
vt 0.646484 0.5
vt 0.779297 0.5
vt 0.958984 0.5
vt 0.966797 0.5
vt 0.970703 0.5
vt 0.978516 0.5
vt 0.986328 0.5

# verts
v -61.5 0 61.5
v -61.5 0 60.5
v -61.5 0 -61.5
v -61.5 3 60.5
v -61.5 3 18.5
v -61.5 4 61.5
v -61.5 4 28.5
v -61.5 4 18.5
v -61.5 65 28.5
v -61.5 65 4.5
v -61.5 123 4.5
v -61.5 123 -61.5
v -27.5 4 12.5
v -27.5 4 11.5
v -27.5 4 -11.5
v -27.5 4 -12.5
v -27.5 15 -21.5
v -27.5 15 -45.5
v -27.5 16 -22.5
v -27.5 16 -44.5
v -27.5 44 -22.5
v -27.5 44 -44.5
v -27.5 45 -21.5
v -27.5 45 -45.5
v -27.5 46 11.5
v -27.5 46 -11.5
v -27.5 47 12.5
v -27.5 47 -12.5
v -27.5 65 -6.5
v -27.5 65 -20.5
v -27.5 65 -32.5
v -27.5 65 -45.5
v -27.5 66 -7.5
v -27.5 66 -19.5
v -27.5 66 -33.5
v -27.5 66 -44.5
v -27.5 81 -7.5
v -27.5 81 -19.5
v -27.5 81 -33.5
v -27.5 81 -44.5
v -27.5 82 -6.5
v -27.5 82 -20.5
v -27.5 82 -32.5
v -27.5 82 -45.5
v -28.5 4 12.5
v -28.5 4 -12.5
v -28.5 15 -21.5
v -28.5 15 -45.5
v -28.5 45 -21.5
v -28.5 45 -45.5
v -28.5 47 12.5
v -28.5 47 -12.5
v -28.5 65 -6.5
v -28.5 65 -20.5
v -28.5 65 -32.5
v -28.5 65 -45.5
v -28.5 82 -6.5
v -28.5 82 -20.5
v -28.5 82 -32.5
v -28.5 82 -45.5
v 27.5 4 12.5
v 27.5 4 11.5
v 27.5 4 -11.5
v 27.5 4 -12.5
v 27.5 15 -21.5
v 27.5 15 -45.5
v 27.5 16 -22.5
v 27.5 16 -44.5
v 27.5 44 -22.5
v 27.5 44 -44.5
v 27.5 45 -21.5
v 27.5 45 -45.5
v 27.5 46 11.5
v 27.5 46 -11.5
v 27.5 47 12.5
v 27.5 47 -12.5
v 27.5 65 -6.5
v 27.5 65 -20.5
v 27.5 65 -32.5
v 27.5 65 -45.5
v 27.5 66 -7.5
v 27.5 66 -19.5
v 27.5 66 -33.5
v 27.5 66 -44.5
v 27.5 81 -7.5
v 27.5 81 -19.5
v 27.5 81 -33.5
v 27.5 81 -44.5
v 27.5 82 -6.5
v 27.5 82 -20.5
v 27.5 82 -32.5
v 27.5 82 -45.5
v 27.5 95 -6.5
v 27.5 95 -20.5
v 27.5 95 -32.5
v 27.5 95 -45.5
v 27.5 96 -7.5
v 27.5 96 -19.5
v 27.5 96 -33.5
v 27.5 96 -44.5
v 27.5 111 -7.5
v 27.5 111 -19.5
v 27.5 111 -33.5
v 27.5 111 -44.5
v 27.5 112 -6.5
v 27.5 112 -20.5
v 27.5 112 -32.5
v 27.5 112 -45.5
v 28.5 4 28.5
v 28.5 4 12.5
v 28.5 4 -12.5
v 28.5 4 -61.5
v 28.5 15 -21.5
v 28.5 15 -45.5
v 28.5 45 -21.5
v 28.5 45 -45.5
v 28.5 47 15.5
v 28.5 47 12.5
v 28.5 47 -12.5
v 28.5 47 -14.5
v 28.5 50 15.5
v 28.5 50 -14.5
v 28.5 65 28.5
v 28.5 65 4.5
v 28.5 65 -6.5
v 28.5 65 -20.5
v 28.5 65 -32.5
v 28.5 65 -45.5
v 28.5 82 -6.5
v 28.5 82 -20.5
v 28.5 82 -32.5
v 28.5 82 -45.5
v 28.5 95 -6.5
v 28.5 95 -20.5
v 28.5 95 -32.5
v 28.5 95 -45.5
v 28.5 112 -6.5
v 28.5 112 -20.5
v 28.5 112 -32.5
v 28.5 112 -45.5
v 28.5 123 4.5
v 28.5 123 -61.5
v 29.5 47 15.5
v 29.5 47 -14.5
v 29.5 50 15.5
v 29.5 50 -14.5
v 61.5 0 61.5
v 61.5 0 -61.5
v 61.5 4 61.5
v 61.5 4 -61.5
v -61.5 0 61.5
v -61.5 4 61.5
v 61.5 0 61.5
v 61.5 4 61.5
v -61.5 4 28.5
v -61.5 65 28.5
v 28.5 4 28.5
v 28.5 65 28.5
v 28.5 47 15.5
v 28.5 50 15.5
v 29.5 47 15.5
v 29.5 50 15.5
v -61.5 65 4.5
v -61.5 123 4.5
v 28.5 65 4.5
v 28.5 123 4.5
v -28.5 4 -12.5
v -28.5 47 -12.5
v -27.5 4 -12.5
v -27.5 47 -12.5
v 27.5 4 -12.5
v 27.5 47 -12.5
v 28.5 4 -12.5
v 28.5 47 -12.5
v -28.5 65 -20.5
v -28.5 82 -20.5
v -27.5 65 -20.5
v -27.5 82 -20.5
v 27.5 65 -20.5
v 27.5 82 -20.5
v 27.5 95 -20.5
v 27.5 112 -20.5
v 28.5 65 -20.5
v 28.5 82 -20.5
v 28.5 95 -20.5
v 28.5 112 -20.5
v -28.5 15 -45.5
v -28.5 45 -45.5
v -28.5 65 -45.5
v -28.5 82 -45.5
v -27.5 15 -45.5
v -27.5 45 -45.5
v -27.5 65 -45.5
v -27.5 82 -45.5
v 27.5 15 -45.5
v 27.5 45 -45.5
v 27.5 65 -45.5
v 27.5 82 -45.5
v 27.5 95 -45.5
v 27.5 112 -45.5
v 28.5 15 -45.5
v 28.5 45 -45.5
v 28.5 65 -45.5
v 28.5 82 -45.5
v 28.5 95 -45.5
v 28.5 112 -45.5
v -28.5 4 12.5
v -28.5 47 12.5
v -27.5 4 12.5
v -27.5 47 12.5
v 27.5 4 12.5
v 27.5 47 12.5
v 28.5 4 12.5
v 28.5 47 12.5
v -28.5 65 -6.5
v -28.5 82 -6.5
v -27.5 65 -6.5
v -27.5 82 -6.5
v 27.5 65 -6.5
v 27.5 82 -6.5
v 27.5 95 -6.5
v 27.5 112 -6.5
v 28.5 65 -6.5
v 28.5 82 -6.5
v 28.5 95 -6.5
v 28.5 112 -6.5
v 28.5 47 -14.5
v 28.5 50 -14.5
v 29.5 47 -14.5
v 29.5 50 -14.5
v -28.5 15 -21.5
v -28.5 45 -21.5
v -27.5 15 -21.5
v -27.5 45 -21.5
v 27.5 15 -21.5
v 27.5 45 -21.5
v 28.5 15 -21.5
v 28.5 45 -21.5
v -28.5 65 -32.5
v -28.5 82 -32.5
v -27.5 65 -32.5
v -27.5 82 -32.5
v 27.5 65 -32.5
v 27.5 82 -32.5
v 27.5 95 -32.5
v 27.5 112 -32.5
v 28.5 65 -32.5
v 28.5 82 -32.5
v 28.5 95 -32.5
v 28.5 112 -32.5
v -61.5 0 -61.5
v -61.5 123 -61.5
v 28.5 0 -61.5
v 28.5 4 -61.5
v 28.5 123 -61.5
v 61.5 0 -61.5
v 61.5 4 -61.5
v -61.5 0 61.5
v 61.5 0 61.5
v -61.5 0 60.5
v -60.5 0 60.5
v -28.5 0 60.5
v 28.5 0 60.5
v -60.5 0 -60.5
v -28.5 0 -60.5
v 28.5 0 -60.5
v -61.5 0 -61.5
v 28.5 0 -61.5
v 61.5 0 -61.5
v -28.5 45 -21.5
v -27.5 45 -21.5
v 27.5 45 -21.5
v 28.5 45 -21.5
v -28.5 45 -45.5
v -27.5 45 -45.5
v 27.5 45 -45.5
v 28.5 45 -45.5
v 28.5 47 15.5
v 29.5 47 15.5
v -28.5 47 12.5
v -27.5 47 12.5
v 27.5 47 12.5
v 28.5 47 12.5
v -28.5 47 -12.5
v -27.5 47 -12.5
v 27.5 47 -12.5
v 28.5 47 -12.5
v 28.5 47 -14.5
v 29.5 47 -14.5
v -28.5 82 -6.5
v -27.5 82 -6.5
v 27.5 82 -6.5
v 28.5 82 -6.5
v -28.5 82 -20.5
v -27.5 82 -20.5
v 27.5 82 -20.5
v 28.5 82 -20.5
v -28.5 82 -32.5
v -27.5 82 -32.5
v 27.5 82 -32.5
v 28.5 82 -32.5
v -28.5 82 -45.5
v -27.5 82 -45.5
v 27.5 82 -45.5
v 28.5 82 -45.5
v 27.5 112 -6.5
v 28.5 112 -6.5
v 27.5 112 -20.5
v 28.5 112 -20.5
v 27.5 112 -32.5
v 28.5 112 -32.5
v 27.5 112 -45.5
v 28.5 112 -45.5
v -61.5 4 61.5
v 61.5 4 61.5
v -61.5 4 28.5
v 28.5 4 28.5
v -28.5 4 12.5
v -27.5 4 12.5
v 27.5 4 12.5
v 28.5 4 12.5
v -27.5 4 11.5
v 27.5 4 11.5
v -27.5 4 -11.5
v 27.5 4 -11.5
v -28.5 4 -12.5
v -27.5 4 -12.5
v 27.5 4 -12.5
v 28.5 4 -12.5
v 28.5 4 -61.5
v 61.5 4 -61.5
v -28.5 15 -21.5
v -27.5 15 -21.5
v 27.5 15 -21.5
v 28.5 15 -21.5
v -28.5 15 -45.5
v -27.5 15 -45.5
v 27.5 15 -45.5
v 28.5 15 -45.5
v 28.5 50 15.5
v 29.5 50 15.5
v 28.5 50 -14.5
v 29.5 50 -14.5
v -61.5 65 28.5
v 28.5 65 28.5
v -61.5 65 4.5
v 28.5 65 4.5
v -28.5 65 -6.5
v -27.5 65 -6.5
v 27.5 65 -6.5
v 28.5 65 -6.5
v -28.5 65 -20.5
v -27.5 65 -20.5
v 27.5 65 -20.5
v 28.5 65 -20.5
v -28.5 65 -32.5
v -27.5 65 -32.5
v 27.5 65 -32.5
v 28.5 65 -32.5
v -28.5 65 -45.5
v -27.5 65 -45.5
v 27.5 65 -45.5
v 28.5 65 -45.5
v 27.5 95 -6.5
v 28.5 95 -6.5
v 27.5 95 -20.5
v 28.5 95 -20.5
v 27.5 95 -32.5
v 28.5 95 -32.5
v 27.5 95 -45.5
v 28.5 95 -45.5
v -61.5 123 4.5
v 28.5 123 4.5
v -61.5 123 -61.5
v 28.5 123 -61.5

# faces
f 4/10/1 2/10/1 1/10/1
f 4/2/1 3/2/1 2/2/1
f 5/2/1 3/2/1 4/2/1
f 6/10/1 4/10/1 1/10/1
f 6/10/1 5/10/1 4/10/1
f 7/10/1 5/10/1 6/10/1
f 8/2/1 3/2/1 5/2/1
f 8/10/1 5/10/1 7/10/1
f 9/2/1 8/2/1 7/2/1
f 10/2/1 3/2/1 8/2/1
f 10/2/1 8/2/1 9/2/1
f 11/2/1 3/2/1 10/2/1
f 12/2/1 3/2/1 11/2/1
f 19/7/1 18/7/1 17/7/1
f 20/7/1 18/7/1 19/7/1
f 21/7/1 19/7/1 17/7/1
f 21/4/1 20/4/1 19/4/1
f 22/7/1 18/7/1 20/7/1
f 22/4/1 20/4/1 21/4/1
f 23/7/1 21/7/1 17/7/1
f 23/7/1 22/7/1 21/7/1
f 24/7/1 18/7/1 22/7/1
f 24/7/1 22/7/1 23/7/1
f 25/7/1 14/7/1 13/7/1
f 25/4/1 15/4/1 14/4/1
f 26/7/1 16/7/1 15/7/1
f 26/4/1 15/4/1 25/4/1
f 27/7/1 25/7/1 13/7/1
f 27/7/1 26/7/1 25/7/1
f 28/7/1 16/7/1 26/7/1
f 28/7/1 26/7/1 27/7/1
f 33/7/1 30/7/1 29/7/1
f 34/7/1 30/7/1 33/7/1
f 35/7/1 32/7/1 31/7/1
f 36/7/1 32/7/1 35/7/1
f 37/7/1 33/7/1 29/7/1
f 37/4/1 34/4/1 33/4/1
f 38/7/1 30/7/1 34/7/1
f 38/4/1 34/4/1 37/4/1
f 39/4/1 36/4/1 35/4/1
f 39/7/1 35/7/1 31/7/1
f 40/7/1 32/7/1 36/7/1
f 40/4/1 36/4/1 39/4/1
f 41/7/1 37/7/1 29/7/1
f 41/7/1 38/7/1 37/7/1
f 42/7/1 30/7/1 38/7/1
f 42/7/1 38/7/1 41/7/1
f 43/7/1 39/7/1 31/7/1
f 43/7/1 40/7/1 39/7/1
f 44/7/1 32/7/1 40/7/1
f 44/7/1 40/7/1 43/7/1
f 47/1/2 48/1/2 49/1/2
f 49/1/2 48/1/2 50/1/2
f 45/1/2 46/1/2 51/1/2
f 51/1/2 46/1/2 52/1/2
f 53/1/2 54/1/2 57/1/2
f 57/1/2 54/1/2 58/1/2
f 55/1/2 56/1/2 59/1/2
f 59/1/2 56/1/2 60/1/2
f 65/7/2 66/7/2 67/7/2
f 67/7/2 66/7/2 68/7/2
f 65/7/2 67/7/2 69/7/2
f 67/4/2 68/4/2 69/4/2
f 68/7/2 66/7/2 70/7/2
f 69/4/2 68/4/2 70/4/2
f 65/7/2 69/7/2 71/7/2
f 69/7/2 70/7/2 71/7/2
f 70/7/2 66/7/2 72/7/2
f 71/7/2 70/7/2 72/7/2
f 61/7/2 62/7/2 73/7/2
f 62/4/2 63/4/2 73/4/2
f 63/7/2 64/7/2 74/7/2
f 73/4/2 63/4/2 74/4/2
f 61/7/2 73/7/2 75/7/2
f 73/7/2 74/7/2 75/7/2
f 74/7/2 64/7/2 76/7/2
f 75/7/2 74/7/2 76/7/2
f 77/7/2 78/7/2 81/7/2
f 81/7/2 78/7/2 82/7/2
f 79/7/2 80/7/2 83/7/2
f 83/7/2 80/7/2 84/7/2
f 77/7/2 81/7/2 85/7/2
f 81/4/2 82/4/2 85/4/2
f 82/7/2 78/7/2 86/7/2
f 85/4/2 82/4/2 86/4/2
f 83/4/2 84/4/2 87/4/2
f 79/7/2 83/7/2 87/7/2
f 84/7/2 80/7/2 88/7/2
f 87/4/2 84/4/2 88/4/2
f 77/7/2 85/7/2 89/7/2
f 85/7/2 86/7/2 89/7/2
f 86/7/2 78/7/2 90/7/2
f 89/7/2 86/7/2 90/7/2
f 79/7/2 87/7/2 91/7/2
f 87/7/2 88/7/2 91/7/2
f 88/7/2 80/7/2 92/7/2
f 91/7/2 88/7/2 92/7/2
f 93/7/2 94/7/2 97/7/2
f 97/7/2 94/7/2 98/7/2
f 95/7/2 96/7/2 99/7/2
f 99/7/2 96/7/2 100/7/2
f 93/7/2 97/7/2 101/7/2
f 97/4/2 98/4/2 101/4/2
f 98/7/2 94/7/2 102/7/2
f 101/4/2 98/4/2 102/4/2
f 99/4/2 100/4/2 103/4/2
f 95/7/2 99/7/2 103/7/2
f 100/7/2 96/7/2 104/7/2
f 103/4/2 100/4/2 104/4/2
f 93/7/2 101/7/2 105/7/2
f 101/7/2 102/7/2 105/7/2
f 102/7/2 94/7/2 106/7/2
f 105/7/2 102/7/2 106/7/2
f 95/7/2 103/7/2 107/7/2
f 103/7/2 104/7/2 107/7/2
f 104/7/2 96/7/2 108/7/2
f 107/7/2 104/7/2 108/7/2
f 111/2/2 112/2/2 113/2/2
f 113/2/2 112/2/2 114/2/2
f 111/2/2 113/2/2 115/2/2
f 114/2/2 112/2/2 116/2/2
f 109/2/2 110/2/2 117/2/2
f 117/2/2 110/2/2 118/2/2
f 115/2/2 116/2/2 119/2/2
f 111/2/2 115/2/2 119/2/2
f 119/2/2 116/2/2 120/2/2
f 109/2/2 117/2/2 121/2/2
f 120/2/2 116/2/2 122/2/2
f 109/2/2 121/2/2 123/2/2
f 121/2/2 122/2/2 123/2/2
f 123/2/2 122/2/2 124/2/2
f 124/2/2 122/2/2 125/2/2
f 122/2/2 116/2/2 126/2/2
f 125/2/2 122/2/2 126/2/2
f 126/2/2 116/2/2 127/2/2
f 116/2/2 112/2/2 128/2/2
f 127/2/2 116/2/2 128/2/2
f 124/2/2 125/2/2 129/2/2
f 126/2/2 127/2/2 130/2/2
f 130/2/2 127/2/2 131/2/2
f 128/2/2 112/2/2 132/2/2
f 130/2/2 131/2/2 133/2/2
f 131/2/2 132/2/2 133/2/2
f 124/2/2 129/2/2 133/2/2
f 129/2/2 130/2/2 133/2/2
f 133/2/2 132/2/2 134/2/2
f 134/2/2 132/2/2 135/2/2
f 132/2/2 112/2/2 136/2/2
f 135/2/2 132/2/2 136/2/2
f 124/2/2 133/2/2 137/2/2
f 134/2/2 135/2/2 138/2/2
f 138/2/2 135/2/2 139/2/2
f 136/2/2 112/2/2 140/2/2
f 124/2/2 137/2/2 141/2/2
f 139/2/2 140/2/2 141/2/2
f 138/2/2 139/2/2 141/2/2
f 137/2/2 138/2/2 141/2/2
f 140/2/2 112/2/2 142/2/2
f 141/2/2 140/2/2 142/2/2
f 143/8/2 144/8/2 145/8/2
f 145/8/2 144/8/2 146/8/2
f 147/10/2 148/10/2 149/10/2
f 149/10/2 148/10/2 150/10/2
f 153/10/3 152/10/3 151/10/3
f 154/10/3 152/10/3 153/10/3
f 157/2/3 156/2/3 155/2/3
f 158/2/3 156/2/3 157/2/3
f 161/8/3 160/8/3 159/8/3
f 162/8/3 160/8/3 161/8/3
f 165/2/3 164/2/3 163/2/3
f 166/2/3 164/2/3 165/2/3
f 169/3/3 168/3/3 167/3/3
f 170/3/3 168/3/3 169/3/3
f 173/2/3 172/2/3 171/2/3
f 174/2/3 172/2/3 173/2/3
f 177/3/3 176/3/3 175/3/3
f 178/3/3 176/3/3 177/3/3
f 183/2/3 180/2/3 179/2/3
f 184/2/3 180/2/3 183/2/3
f 185/2/3 182/2/3 181/2/3
f 186/2/3 182/2/3 185/2/3
f 191/3/3 188/3/3 187/3/3
f 192/3/3 188/3/3 191/3/3
f 193/3/3 190/3/3 189/3/3
f 194/3/3 190/3/3 193/3/3
f 201/2/3 196/2/3 195/2/3
f 202/2/3 196/2/3 201/2/3
f 203/2/3 198/2/3 197/2/3
f 204/2/3 198/2/3 203/2/3
f 205/2/3 200/2/3 199/2/3
f 206/2/3 200/2/3 205/2/3
f 207/3/4 208/3/4 209/3/4
f 209/3/4 208/3/4 210/3/4
f 211/2/4 212/2/4 213/2/4
f 213/2/4 212/2/4 214/2/4
f 215/3/4 216/3/4 217/3/4
f 217/3/4 216/3/4 218/3/4
f 219/2/4 220/2/4 223/2/4
f 223/2/4 220/2/4 224/2/4
f 221/2/4 222/2/4 225/2/4
f 225/2/4 222/2/4 226/2/4
f 227/8/4 228/8/4 229/8/4
f 229/8/4 228/8/4 230/8/4
f 231/3/4 232/3/4 233/3/4
f 233/3/4 232/3/4 234/3/4
f 235/2/4 236/2/4 237/2/4
f 237/2/4 236/2/4 238/2/4
f 239/3/4 240/3/4 241/3/4
f 241/3/4 240/3/4 242/3/4
f 243/2/4 244/2/4 247/2/4
f 247/2/4 244/2/4 248/2/4
f 245/2/4 246/2/4 249/2/4
f 249/2/4 246/2/4 250/2/4
f 251/2/4 252/2/4 253/2/4
f 253/2/4 252/2/4 254/2/4
f 254/2/4 252/2/4 255/2/4
f 253/10/4 254/10/4 256/10/4
f 256/10/4 254/10/4 257/10/4
f 260/10/5 259/10/5 258/10/5
f 261/10/5 259/10/5 260/10/5
f 262/10/5 259/10/5 261/10/5
f 263/10/5 259/10/5 262/10/5
f 264/2/5 261/2/5 260/2/5
f 264/10/5 262/10/5 261/10/5
f 265/3/5 263/3/5 262/3/5
f 265/10/5 262/10/5 264/10/5
f 266/10/5 259/10/5 263/10/5
f 266/3/5 263/3/5 265/3/5
f 267/2/5 265/2/5 264/2/5
f 267/2/5 264/2/5 260/2/5
f 267/2/5 266/2/5 265/2/5
f 268/10/5 259/10/5 266/10/5
f 268/2/5 266/2/5 267/2/5
f 269/10/5 259/10/5 268/10/5
f 274/3/5 271/3/5 270/3/5
f 275/3/5 271/3/5 274/3/5
f 276/2/5 273/2/5 272/2/5
f 277/2/5 273/2/5 276/2/5
f 283/8/5 279/8/5 278/8/5
f 284/1/5 281/1/5 280/1/5
f 285/1/5 281/1/5 284/1/5
f 286/1/5 283/1/5 282/1/5
f 287/8/5 279/8/5 283/8/5
f 287/1/5 283/1/5 286/1/5
f 288/8/5 279/8/5 287/8/5
f 289/8/5 279/8/5 288/8/5
f 294/3/5 291/3/5 290/3/5
f 295/3/5 291/3/5 294/3/5
f 296/2/5 293/2/5 292/2/5
f 297/2/5 293/2/5 296/2/5
f 302/3/5 299/3/5 298/3/5
f 303/3/5 299/3/5 302/3/5
f 304/2/5 301/2/5 300/2/5
f 305/2/5 301/2/5 304/2/5
f 308/2/5 307/2/5 306/2/5
f 309/2/5 307/2/5 308/2/5
f 312/2/5 311/2/5 310/2/5
f 313/2/5 311/2/5 312/2/5
f 314/10/6 315/10/6 316/10/6
f 316/10/6 315/10/6 317/10/6
f 317/10/6 315/10/6 321/10/6
f 318/10/6 319/10/6 322/10/6
f 320/10/6 321/10/6 323/10/6
f 318/10/6 322/10/6 324/10/6
f 323/10/6 321/10/6 325/10/6
f 318/10/6 324/10/6 326/10/6
f 326/10/6 324/10/6 327/10/6
f 325/10/6 321/10/6 328/10/6
f 321/10/6 315/10/6 329/10/6
f 328/10/6 321/10/6 329/10/6
f 329/10/6 315/10/6 330/10/6
f 330/10/6 315/10/6 331/10/6
f 332/3/6 333/3/6 336/3/6
f 336/3/6 333/3/6 337/3/6
f 334/2/6 335/2/6 338/2/6
f 338/2/6 335/2/6 339/2/6
f 340/8/6 341/8/6 342/8/6
f 342/8/6 341/8/6 343/8/6
f 344/2/6 345/2/6 346/2/6
f 346/2/6 345/2/6 347/2/6
f 348/3/6 349/3/6 352/3/6
f 352/3/6 349/3/6 353/3/6
f 350/2/6 351/2/6 354/2/6
f 354/2/6 351/2/6 355/2/6
f 356/3/6 357/3/6 360/3/6
f 360/3/6 357/3/6 361/3/6
f 358/2/6 359/2/6 362/2/6
f 362/2/6 359/2/6 363/2/6
f 364/2/6 365/2/6 366/2/6
f 366/2/6 365/2/6 367/2/6
f 368/2/6 369/2/6 370/2/6
f 370/2/6 369/2/6 371/2/6
f 372/2/6 373/2/6 374/2/6
f 374/2/6 373/2/6 375/2/6
