# MagicaVoxel @ Ephtracy

# material
mtllib moto2.mtl
usemtl palette

# normals
vn -1 0 0
vn 1 0 0
vn 0 0 1
vn 0 0 -1
vn 0 -1 0
vn 0 1 0

# texcoords
vt 0.0605469 0.5
vt 0.123047 0.5
vt 0.404297 0.5

# verts
v -1.5 0 2
v -1.5 0 1
v -1.5 0 -2
v -1.5 0 -3
v -1.5 1 3
v -1.5 1 2
v -1.5 1 1
v -1.5 1 -0
v -1.5 1 -1
v -1.5 1 -2
v -1.5 1 -3
v -1.5 1 -4
v -1.5 2 3
v -1.5 2 2
v -1.5 2 1
v -1.5 2 -0
v -1.5 2 -1
v -1.5 2 -2
v -1.5 2 -3
v -1.5 2 -4
v -1.5 3 2
v -1.5 3 1
v -1.5 3 -1
v -1.5 3 -2
v -1.5 3 -3
v -1.5 4 1
v -1.5 4 -1
v -1.5 4 -3
v -1.5 4 -4
v -1.5 5 -3
v -1.5 5 -4
v -0.5 1 4
v -0.5 1 3
v -0.5 1 2
v -0.5 1 1
v -0.5 1 -2
v -0.5 1 -3
v -0.5 2 3
v -0.5 2 2
v -0.5 2 1
v -0.5 2 -2
v -0.5 2 -3
v -0.5 2 -4
v -0.5 3 4
v -0.5 3 3
v -0.5 3 2
v -0.5 3 1
v -0.5 3 -1
v -0.5 3 -2
v -0.5 3 -3
v -0.5 4 3
v -0.5 4 2
v -0.5 4 1
v -0.5 4 -1
v -0.5 4 -2
v -0.5 4 -3
v -0.5 4 -4
v -0.5 5 -2
v -0.5 5 -3
v -0.5 6 2
v -0.5 6 1
v -0.5 6 -0
v -0.5 7 2
v -0.5 7 -0
v 0.5 1 4
v 0.5 1 3
v 0.5 1 2
v 0.5 1 1
v 0.5 1 -2
v 0.5 1 -3
v 0.5 2 3
v 0.5 2 2
v 0.5 2 1
v 0.5 2 -2
v 0.5 2 -3
v 0.5 2 -4
v 0.5 3 4
v 0.5 3 3
v 0.5 3 2
v 0.5 3 1
v 0.5 3 -1
v 0.5 3 -2
v 0.5 3 -3
v 0.5 4 3
v 0.5 4 2
v 0.5 4 1
v 0.5 4 -1
v 0.5 4 -2
v 0.5 4 -3
v 0.5 4 -4
v 0.5 5 -2
v 0.5 5 -3
v 0.5 6 2
v 0.5 6 1
v 0.5 6 -0
v 0.5 7 2
v 0.5 7 -0
v 1.5 0 2
v 1.5 0 1
v 1.5 0 -2
v 1.5 0 -3
v 1.5 1 3
v 1.5 1 2
v 1.5 1 1
v 1.5 1 -0
v 1.5 1 -1
v 1.5 1 -2
v 1.5 1 -3
v 1.5 1 -4
v 1.5 2 3
v 1.5 2 2
v 1.5 2 1
v 1.5 2 -0
v 1.5 2 -1
v 1.5 2 -2
v 1.5 2 -3
v 1.5 2 -4
v 1.5 3 2
v 1.5 3 1
v 1.5 3 -1
v 1.5 3 -2
v 1.5 3 -3
v 1.5 4 1
v 1.5 4 -1
v 1.5 4 -3
v 1.5 4 -4
v 1.5 5 -3
v 1.5 5 -4
v -0.5 1 4
v -0.5 3 4
v 0.5 1 4
v 0.5 3 4
v -1.5 1 3
v -1.5 2 3
v -0.5 1 3
v -0.5 2 3
v -0.5 3 3
v -0.5 4 3
v 0.5 1 3
v 0.5 2 3
v 0.5 3 3
v 0.5 4 3
v 1.5 1 3
v 1.5 2 3
v -1.5 0 2
v -1.5 1 2
v -1.5 2 2
v -1.5 3 2
v -0.5 2 2
v -0.5 3 2
v -0.5 4 2
v -0.5 6 2
v -0.5 7 2
v 0.5 2 2
v 0.5 3 2
v 0.5 4 2
v 0.5 6 2
v 0.5 7 2
v 1.5 0 2
v 1.5 1 2
v 1.5 2 2
v 1.5 3 2
v -1.5 1 1
v -1.5 2 1
v -1.5 3 1
v -1.5 4 1
v -0.5 1 1
v -0.5 2 1
v -0.5 3 1
v -0.5 4 1
v 0.5 1 1
v 0.5 2 1
v 0.5 3 1
v 0.5 4 1
v 1.5 1 1
v 1.5 2 1
v 1.5 3 1
v 1.5 4 1
v -1.5 0 -2
v -1.5 1 -2
v -0.5 4 -2
v -0.5 5 -2
v 0.5 4 -2
v 0.5 5 -2
v 1.5 0 -2
v 1.5 1 -2
v -1.5 1 -3
v -1.5 2 -3
v -1.5 4 -3
v -1.5 5 -3
v -0.5 1 -3
v -0.5 2 -3
v -0.5 4 -3
v -0.5 5 -3
v 0.5 1 -3
v 0.5 2 -3
v 0.5 4 -3
v 0.5 5 -3
v 1.5 1 -3
v 1.5 2 -3
v 1.5 4 -3
v 1.5 5 -3
v -1.5 1 2
v -1.5 2 2
v -0.5 1 2
v -0.5 2 2
v 0.5 1 2
v 0.5 2 2
v 1.5 1 2
v 1.5 2 2
v -1.5 0 1
v -1.5 1 1
v -0.5 4 1
v -0.5 6 1
v 0.5 4 1
v 0.5 6 1
v 1.5 0 1
v 1.5 1 1
v -0.5 6 -0
v -0.5 7 -0
v 0.5 6 -0
v 0.5 7 -0
v -1.5 3 -1
v -1.5 4 -1
v -0.5 3 -1
v -0.5 4 -1
v 0.5 3 -1
v 0.5 4 -1
v 1.5 3 -1
v 1.5 4 -1
v -1.5 1 -2
v -1.5 2 -2
v -0.5 1 -2
v -0.5 2 -2
v 0.5 1 -2
v 0.5 2 -2
v 1.5 1 -2
v 1.5 2 -2
v -1.5 0 -3
v -1.5 1 -3
v -1.5 2 -3
v -1.5 3 -3
v -0.5 2 -3
v -0.5 3 -3
v 0.5 2 -3
v 0.5 3 -3
v 1.5 0 -3
v 1.5 1 -3
v 1.5 2 -3
v 1.5 3 -3
v -1.5 1 -4
v -1.5 2 -4
v -1.5 4 -4
v -1.5 5 -4
v -0.5 2 -4
v -0.5 4 -4
v 0.5 2 -4
v 0.5 4 -4
v 1.5 1 -4
v 1.5 2 -4
v 1.5 4 -4
v 1.5 5 -4
v -1.5 0 2
v 1.5 0 2
v -1.5 0 1
v 1.5 0 1
v -1.5 0 -2
v 1.5 0 -2
v -1.5 0 -3
v 1.5 0 -3
v -0.5 1 4
v 0.5 1 4
v -1.5 1 3
v -0.5 1 3
v 0.5 1 3
v 1.5 1 3
v -1.5 1 2
v 1.5 1 2
v -1.5 1 1
v 1.5 1 1
v -1.5 1 -0
v -0.5 1 -0
v 0.5 1 -0
v 1.5 1 -0
v -1.5 1 -1
v -0.5 1 -1
v 0.5 1 -1
v 1.5 1 -1
v -1.5 1 -2
v 1.5 1 -2
v -1.5 1 -3
v 1.5 1 -3
v -1.5 1 -4
v 1.5 1 -4
v -1.5 2 2
v -0.5 2 2
v 0.5 2 2
v 1.5 2 2
v -1.5 2 1
v -0.5 2 1
v 0.5 2 1
v 1.5 2 1
v -1.5 2 -2
v -0.5 2 -2
v 0.5 2 -2
v 1.5 2 -2
v -1.5 2 -3
v -0.5 2 -3
v 0.5 2 -3
v 1.5 2 -3
v -1.5 4 -3
v -0.5 4 -3
v 0.5 4 -3
v 1.5 4 -3
v -1.5 4 -4
v -0.5 4 -4
v 0.5 4 -4
v 1.5 4 -4
v -0.5 6 1
v 0.5 6 1
v -0.5 6 -0
v 0.5 6 -0
v -1.5 1 2
v -0.5 1 2
v 0.5 1 2
v 1.5 1 2
v -1.5 1 1
v -0.5 1 1
v 0.5 1 1
v 1.5 1 1
v -1.5 1 -2
v -0.5 1 -2
v 0.5 1 -2
v 1.5 1 -2
v -1.5 1 -3
v -0.5 1 -3
v 0.5 1 -3
v 1.5 1 -3
v -1.5 2 3
v -0.5 2 3
v 0.5 2 3
v 1.5 2 3
v -1.5 2 2
v -0.5 2 2
v 0.5 2 2
v 1.5 2 2
v -1.5 2 -3
v -0.5 2 -3
v 0.5 2 -3
v 1.5 2 -3
v -1.5 2 -4
v -0.5 2 -4
v 0.5 2 -4
v 1.5 2 -4
v -0.5 3 4
v 0.5 3 4
v -0.5 3 3
v 0.5 3 3
v -1.5 3 2
v -0.5 3 2
v 0.5 3 2
v 1.5 3 2
v -1.5 3 1
v -0.5 3 1
v 0.5 3 1
v 1.5 3 1
v -1.5 3 -1
v -0.5 3 -1
v 0.5 3 -1
v 1.5 3 -1
v -1.5 3 -2
v -0.5 3 -2
v 0.5 3 -2
v 1.5 3 -2
v -1.5 3 -3
v -0.5 3 -3
v 0.5 3 -3
v 1.5 3 -3
v -0.5 4 3
v 0.5 4 3
v -0.5 4 2
v 0.5 4 2
v -1.5 4 1
v -0.5 4 1
v 0.5 4 1
v 1.5 4 1
v -1.5 4 -1
v -0.5 4 -1
v 0.5 4 -1
v 1.5 4 -1
v -0.5 4 -2
v 0.5 4 -2
v -0.5 5 -2
v 0.5 5 -2
v -1.5 5 -3
v -0.5 5 -3
v 0.5 5 -3
v 1.5 5 -3
v -1.5 5 -4
v 1.5 5 -4
v -0.5 7 2
v 0.5 7 2
v -0.5 7 -0
v 0.5 7 -0

# faces
f 6/1/1 2/1/1 1/1/1
f 7/1/1 2/1/1 6/1/1
f 10/1/1 4/1/1 3/1/1
f 11/1/1 4/1/1 10/1/1
f 13/1/1 6/1/1 5/1/1
f 14/1/1 6/1/1 13/1/1
f 15/1/1 8/1/1 7/1/1
f 16/3/1 9/3/1 8/3/1
f 16/1/1 8/1/1 15/1/1
f 17/1/1 10/1/1 9/1/1
f 17/3/1 9/3/1 16/3/1
f 18/1/1 10/1/1 17/1/1
f 19/1/1 12/1/1 11/1/1
f 20/1/1 12/1/1 19/1/1
f 21/1/1 15/1/1 14/1/1
f 22/3/1 18/3/1 17/3/1
f 22/1/1 15/1/1 21/1/1
f 22/3/1 16/3/1 15/3/1
f 22/3/1 17/3/1 16/3/1
f 23/3/1 18/3/1 22/3/1
f 24/1/1 19/1/1 18/1/1
f 24/3/1 18/3/1 23/3/1
f 25/1/1 19/1/1 24/1/1
f 26/3/1 23/3/1 22/3/1
f 27/3/1 23/3/1 26/3/1
f 30/1/1 29/1/1 28/1/1
f 31/1/1 29/1/1 30/1/1
f 38/3/1 33/3/1 32/3/1
f 39/1/1 35/1/1 34/1/1
f 40/1/1 35/1/1 39/1/1
f 41/1/1 37/1/1 36/1/1
f 42/1/1 37/1/1 41/1/1
f 44/3/1 38/3/1 32/3/1
f 44/3/1 39/3/1 38/3/1
f 45/3/1 39/3/1 44/3/1
f 46/3/1 39/3/1 45/3/1
f 50/3/1 43/3/1 42/3/1
f 51/3/1 46/3/1 45/3/1
f 51/3/1 47/3/1 46/3/1
f 52/3/1 47/3/1 51/3/1
f 53/3/1 47/3/1 52/3/1
f 54/3/1 49/3/1 48/3/1
f 54/3/1 50/3/1 49/3/1
f 55/3/1 50/3/1 54/3/1
f 56/3/1 43/3/1 50/3/1
f 56/3/1 50/3/1 55/3/1
f 57/3/1 43/3/1 56/3/1
f 58/1/1 56/1/1 55/1/1
f 59/1/1 56/1/1 58/1/1
f 60/3/1 53/3/1 52/3/1
f 61/3/1 53/3/1 60/3/1
f 63/1/1 61/1/1 60/1/1
f 63/1/1 62/1/1 61/1/1
f 64/1/1 62/1/1 63/1/1
f 65/3/2 66/3/2 71/3/2
f 67/1/2 68/1/2 72/1/2
f 72/1/2 68/1/2 73/1/2
f 69/1/2 70/1/2 74/1/2
f 74/1/2 70/1/2 75/1/2
f 65/3/2 71/3/2 77/3/2
f 71/3/2 72/3/2 77/3/2
f 77/3/2 72/3/2 78/3/2
f 78/3/2 72/3/2 79/3/2
f 75/3/2 76/3/2 83/3/2
f 78/3/2 79/3/2 84/3/2
f 79/3/2 80/3/2 84/3/2
f 84/3/2 80/3/2 85/3/2
f 85/3/2 80/3/2 86/3/2
f 81/3/2 82/3/2 87/3/2
f 82/3/2 83/3/2 87/3/2
f 87/3/2 83/3/2 88/3/2
f 83/3/2 76/3/2 89/3/2
f 88/3/2 83/3/2 89/3/2
f 89/3/2 76/3/2 90/3/2
f 88/1/2 89/1/2 91/1/2
f 91/1/2 89/1/2 92/1/2
f 85/3/2 86/3/2 93/3/2
f 93/3/2 86/3/2 94/3/2
f 93/1/2 94/1/2 96/1/2
f 94/1/2 95/1/2 96/1/2
f 96/1/2 95/1/2 97/1/2
f 98/1/2 99/1/2 103/1/2
f 103/1/2 99/1/2 104/1/2
f 100/1/2 101/1/2 107/1/2
f 107/1/2 101/1/2 108/1/2
f 102/1/2 103/1/2 110/1/2
f 110/1/2 103/1/2 111/1/2
f 104/1/2 105/1/2 112/1/2
f 105/3/2 106/3/2 113/3/2
f 112/1/2 105/1/2 113/1/2
f 106/1/2 107/1/2 114/1/2
f 113/3/2 106/3/2 114/3/2
f 114/1/2 107/1/2 115/1/2
f 108/1/2 109/1/2 116/1/2
f 116/1/2 109/1/2 117/1/2
f 111/1/2 112/1/2 118/1/2
f 114/3/2 115/3/2 119/3/2
f 118/1/2 112/1/2 119/1/2
f 112/3/2 113/3/2 119/3/2
f 113/3/2 114/3/2 119/3/2
f 119/3/2 115/3/2 120/3/2
f 115/1/2 116/1/2 121/1/2
f 120/3/2 115/3/2 121/3/2
f 121/1/2 116/1/2 122/1/2
f 119/3/2 120/3/2 123/3/2
f 123/3/2 120/3/2 124/3/2
f 125/1/2 126/1/2 127/1/2
f 127/1/2 126/1/2 128/1/2
f 131/3/3 130/3/3 129/3/3
f 132/3/3 130/3/3 131/3/3
f 135/1/3 134/1/3 133/1/3
f 136/1/3 134/1/3 135/1/3
f 141/3/3 138/3/3 137/3/3
f 142/3/3 138/3/3 141/3/3
f 143/1/3 140/1/3 139/1/3
f 144/1/3 140/1/3 143/1/3
f 149/1/3 148/1/3 147/1/3
f 150/1/3 148/1/3 149/1/3
f 156/3/3 152/3/3 151/3/3
f 157/1/3 153/1/3 152/1/3
f 157/3/3 152/3/3 156/3/3
f 158/1/3 153/1/3 157/1/3
f 159/1/3 146/1/3 145/1/3
f 160/1/3 146/1/3 159/1/3
f 161/1/3 155/1/3 154/1/3
f 162/1/3 155/1/3 161/1/3
f 167/1/3 164/1/3 163/1/3
f 168/1/3 164/1/3 167/1/3
f 169/3/3 166/3/3 165/3/3
f 170/3/3 166/3/3 169/3/3
f 175/1/3 172/1/3 171/1/3
f 176/1/3 172/1/3 175/1/3
f 177/3/3 174/3/3 173/3/3
f 178/3/3 174/3/3 177/3/3
f 183/1/3 182/1/3 181/1/3
f 184/1/3 182/1/3 183/1/3
f 185/1/3 180/1/3 179/1/3
f 186/1/3 180/1/3 185/1/3
f 191/1/3 188/1/3 187/1/3
f 192/1/3 188/1/3 191/1/3
f 193/1/3 190/1/3 189/1/3
f 194/1/3 190/1/3 193/1/3
f 199/1/3 196/1/3 195/1/3
f 200/1/3 196/1/3 199/1/3
f 201/1/3 198/1/3 197/1/3
f 202/1/3 198/1/3 201/1/3
f 203/1/4 204/1/4 205/1/4
f 205/1/4 204/1/4 206/1/4
f 207/1/4 208/1/4 209/1/4
f 209/1/4 208/1/4 210/1/4
f 213/3/4 214/3/4 215/3/4
f 215/3/4 214/3/4 216/3/4
f 211/1/4 212/1/4 217/1/4
f 217/1/4 212/1/4 218/1/4
f 219/1/4 220/1/4 221/1/4
f 221/1/4 220/1/4 222/1/4
f 223/3/4 224/3/4 225/3/4
f 225/3/4 224/3/4 226/3/4
f 227/3/4 228/3/4 229/3/4
f 229/3/4 228/3/4 230/3/4
f 231/1/4 232/1/4 233/1/4
f 233/1/4 232/1/4 234/1/4
f 235/1/4 236/1/4 237/1/4
f 237/1/4 236/1/4 238/1/4
f 241/1/4 242/1/4 243/1/4
f 243/1/4 242/1/4 244/1/4
f 239/1/4 240/1/4 247/1/4
f 247/1/4 240/1/4 248/1/4
f 245/1/4 246/1/4 249/1/4
f 249/1/4 246/1/4 250/1/4
f 251/1/4 252/1/4 255/1/4
f 253/1/4 254/1/4 256/1/4
f 251/1/4 255/1/4 257/1/4
f 255/3/4 256/3/4 257/3/4
f 256/1/4 254/1/4 258/1/4
f 257/3/4 256/3/4 258/3/4
f 251/1/4 257/1/4 259/1/4
f 259/1/4 257/1/4 260/1/4
f 258/1/4 254/1/4 261/1/4
f 261/1/4 254/1/4 262/1/4
f 265/1/5 264/1/5 263/1/5
f 266/1/5 264/1/5 265/1/5
f 269/1/5 268/1/5 267/1/5
f 270/1/5 268/1/5 269/1/5
f 274/3/5 272/3/5 271/3/5
f 275/3/5 272/3/5 274/3/5
f 277/1/5 274/1/5 273/1/5
f 277/1/5 276/1/5 275/1/5
f 277/1/5 275/1/5 274/1/5
f 278/1/5 276/1/5 277/1/5
f 281/1/5 280/1/5 279/1/5
f 282/1/5 280/1/5 281/1/5
f 283/1/5 280/1/5 282/1/5
f 284/1/5 280/1/5 283/1/5
f 285/3/5 282/3/5 281/3/5
f 286/2/5 283/2/5 282/2/5
f 286/3/5 282/3/5 285/3/5
f 287/3/5 284/3/5 283/3/5
f 287/2/5 283/2/5 286/2/5
f 288/3/5 284/3/5 287/3/5
f 289/1/5 286/1/5 285/1/5
f 289/1/5 287/1/5 286/1/5
f 289/1/5 288/1/5 287/1/5
f 290/1/5 288/1/5 289/1/5
f 293/1/5 292/1/5 291/1/5
f 294/1/5 292/1/5 293/1/5
f 299/1/5 296/1/5 295/1/5
f 300/1/5 296/1/5 299/1/5
f 301/1/5 298/1/5 297/1/5
f 302/1/5 298/1/5 301/1/5
f 307/1/5 304/1/5 303/1/5
f 308/1/5 304/1/5 307/1/5
f 309/1/5 306/1/5 305/1/5
f 310/1/5 306/1/5 309/1/5
f 315/1/5 312/1/5 311/1/5
f 316/1/5 312/1/5 315/1/5
f 317/1/5 314/1/5 313/1/5
f 318/1/5 314/1/5 317/1/5
f 321/1/5 320/1/5 319/1/5
f 322/1/5 320/1/5 321/1/5
f 323/1/6 324/1/6 327/1/6
f 327/1/6 324/1/6 328/1/6
f 325/1/6 326/1/6 329/1/6
f 329/1/6 326/1/6 330/1/6
f 331/1/6 332/1/6 335/1/6
f 335/1/6 332/1/6 336/1/6
f 333/1/6 334/1/6 337/1/6
f 337/1/6 334/1/6 338/1/6
f 339/1/6 340/1/6 343/1/6
f 343/1/6 340/1/6 344/1/6
f 341/1/6 342/1/6 345/1/6
f 345/1/6 342/1/6 346/1/6
f 347/1/6 348/1/6 351/1/6
f 351/1/6 348/1/6 352/1/6
f 349/1/6 350/1/6 353/1/6
f 353/1/6 350/1/6 354/1/6
f 355/3/6 356/3/6 357/3/6
f 357/3/6 356/3/6 358/3/6
f 359/1/6 360/1/6 363/1/6
f 363/1/6 360/1/6 364/1/6
f 361/1/6 362/1/6 365/1/6
f 365/1/6 362/1/6 366/1/6
f 367/3/6 368/3/6 371/3/6
f 371/3/6 368/3/6 372/3/6
f 369/3/6 370/3/6 373/3/6
f 373/3/6 370/3/6 374/3/6
f 371/1/6 372/1/6 375/1/6
f 375/1/6 372/1/6 376/1/6
f 373/1/6 374/1/6 377/1/6
f 377/1/6 374/1/6 378/1/6
f 379/3/6 380/3/6 381/3/6
f 381/3/6 380/3/6 382/3/6
f 384/3/6 385/3/6 387/3/6
f 385/3/6 386/3/6 387/3/6
f 383/3/6 384/3/6 387/3/6
f 387/3/6 386/3/6 388/3/6
f 388/3/6 386/3/6 389/3/6
f 389/3/6 386/3/6 390/3/6
f 388/3/6 389/3/6 391/3/6
f 391/3/6 389/3/6 392/3/6
f 393/1/6 394/1/6 396/1/6
f 396/1/6 394/1/6 397/1/6
f 395/1/6 396/1/6 399/1/6
f 397/1/6 398/1/6 399/1/6
f 396/1/6 397/1/6 399/1/6
f 399/1/6 398/1/6 400/1/6
f 401/1/6 402/1/6 403/1/6
f 403/1/6 402/1/6 404/1/6
