# MagicaVoxel @ Ephtracy

# material
mtllib edificioesquina.mtl
usemtl palette

# normals
vn -1 0 0
vn 1 0 0
vn 0 0 1
vn 0 0 -1
vn 0 -1 0
vn 0 1 0

# texcoords
vt 0.00585938 0.5
vt 0.365234 0.5
vt 0.451172 0.5
vt 0.779297 0.5
vt 0.958984 0.5
vt 0.966797 0.5
vt 0.970703 0.5
vt 0.978516 0.5
vt 0.986328 0.5

# verts
v -61.5 0 61.5
v -61.5 0 60.5
v -61.5 0 -61.5
v -61.5 3 60.5
v -61.5 3 18.5
v -61.5 4 61.5
v -61.5 4 28.5
v -61.5 4 18.5
v -61.5 93 28.5
v -61.5 93 -61.5
v -27.5 4 12.5
v -27.5 4 11.5
v -27.5 4 -11.5
v -27.5 4 -12.5
v -27.5 15 -21.5
v -27.5 15 -45.5
v -27.5 16 -22.5
v -27.5 16 -44.5
v -27.5 44 -22.5
v -27.5 44 -44.5
v -27.5 45 -21.5
v -27.5 45 -45.5
v -27.5 46 11.5
v -27.5 46 -11.5
v -27.5 47 12.5
v -27.5 47 -12.5
v -27.5 65 11.5
v -27.5 65 6.5
v -27.5 65 -6.5
v -27.5 65 -20.5
v -27.5 65 -32.5
v -27.5 65 -45.5
v -27.5 66 11.5
v -27.5 66 7.5
v -27.5 66 -7.5
v -27.5 66 -19.5
v -27.5 66 -33.5
v -27.5 66 -44.5
v -27.5 81 17.5
v -27.5 81 11.5
v -27.5 81 7.5
v -27.5 81 -7.5
v -27.5 81 -19.5
v -27.5 81 -33.5
v -27.5 81 -44.5
v -27.5 82 17.5
v -27.5 82 6.5
v -27.5 82 -6.5
v -27.5 82 -20.5
v -27.5 82 -32.5
v -27.5 82 -45.5
v -28.5 4 12.5
v -28.5 4 -12.5
v -28.5 15 -21.5
v -28.5 15 -45.5
v -28.5 45 -21.5
v -28.5 45 -45.5
v -28.5 47 12.5
v -28.5 47 -12.5
v -28.5 65 11.5
v -28.5 65 6.5
v -28.5 65 -6.5
v -28.5 65 -20.5
v -28.5 65 -32.5
v -28.5 65 -45.5
v -28.5 81 17.5
v -28.5 81 11.5
v -28.5 82 17.5
v -28.5 82 6.5
v -28.5 82 -6.5
v -28.5 82 -20.5
v -28.5 82 -32.5
v -28.5 82 -45.5
v 27.5 4 12.5
v 27.5 4 11.5
v 27.5 4 -11.5
v 27.5 4 -12.5
v 27.5 15 -21.5
v 27.5 15 -45.5
v 27.5 16 -22.5
v 27.5 16 -44.5
v 27.5 44 -22.5
v 27.5 44 -44.5
v 27.5 45 -21.5
v 27.5 45 -45.5
v 27.5 46 11.5
v 27.5 46 -11.5
v 27.5 47 12.5
v 27.5 47 -12.5
v 27.5 65 -6.5
v 27.5 65 -20.5
v 27.5 65 -32.5
v 27.5 65 -45.5
v 27.5 66 -7.5
v 27.5 66 -19.5
v 27.5 66 -33.5
v 27.5 66 -44.5
v 27.5 81 -7.5
v 27.5 81 -19.5
v 27.5 81 -33.5
v 27.5 81 -44.5
v 27.5 82 -6.5
v 27.5 82 -20.5
v 27.5 82 -32.5
v 27.5 82 -45.5
v 28.5 4 28.5
v 28.5 4 12.5
v 28.5 4 -12.5
v 28.5 4 -61.5
v 28.5 15 -21.5
v 28.5 15 -45.5
v 28.5 45 -21.5
v 28.5 45 -45.5
v 28.5 47 15.5
v 28.5 47 12.5
v 28.5 47 -12.5
v 28.5 47 -14.5
v 28.5 50 15.5
v 28.5 50 -14.5
v 28.5 65 -6.5
v 28.5 65 -20.5
v 28.5 65 -32.5
v 28.5 65 -45.5
v 28.5 82 -6.5
v 28.5 82 -20.5
v 28.5 82 -32.5
v 28.5 82 -45.5
v 28.5 93 28.5
v 28.5 93 -61.5
v 29.5 47 15.5
v 29.5 47 -14.5
v 29.5 50 15.5
v 29.5 50 -14.5
v 61.5 0 61.5
v 61.5 0 -61.5
v 61.5 4 61.5
v 61.5 4 -61.5
v -61.5 0 61.5
v -61.5 4 61.5
v 61.5 0 61.5
v 61.5 4 61.5
v -61.5 4 28.5
v -61.5 93 28.5
v 28.5 4 28.5
v 28.5 93 28.5
v 28.5 47 15.5
v 28.5 50 15.5
v 29.5 47 15.5
v 29.5 50 15.5
v -28.5 65 6.5
v -28.5 82 6.5
v -27.5 65 6.5
v -27.5 82 6.5
v -28.5 4 -12.5
v -28.5 47 -12.5
v -27.5 4 -12.5
v -27.5 47 -12.5
v 27.5 4 -12.5
v 27.5 47 -12.5
v 28.5 4 -12.5
v 28.5 47 -12.5
v -28.5 65 -20.5
v -28.5 82 -20.5
v -27.5 65 -20.5
v -27.5 82 -20.5
v 27.5 65 -20.5
v 27.5 82 -20.5
v 28.5 65 -20.5
v 28.5 82 -20.5
v -28.5 15 -45.5
v -28.5 45 -45.5
v -28.5 65 -45.5
v -28.5 82 -45.5
v -27.5 15 -45.5
v -27.5 45 -45.5
v -27.5 65 -45.5
v -27.5 82 -45.5
v 27.5 15 -45.5
v 27.5 45 -45.5
v 27.5 65 -45.5
v 27.5 82 -45.5
v 28.5 15 -45.5
v 28.5 45 -45.5
v 28.5 65 -45.5
v 28.5 82 -45.5
v -28.5 81 17.5
v -28.5 82 17.5
v -27.5 81 17.5
v -27.5 82 17.5
v -28.5 4 12.5
v -28.5 47 12.5
v -27.5 4 12.5
v -27.5 47 12.5
v 27.5 4 12.5
v 27.5 47 12.5
v 28.5 4 12.5
v 28.5 47 12.5
v -28.5 65 11.5
v -28.5 81 11.5
v -27.5 65 11.5
v -27.5 66 11.5
v -27.5 81 11.5
v -28.5 65 -6.5
v -28.5 82 -6.5
v -27.5 65 -6.5
v -27.5 82 -6.5
v 27.5 65 -6.5
v 27.5 82 -6.5
v 28.5 65 -6.5
v 28.5 82 -6.5
v 28.5 47 -14.5
v 28.5 50 -14.5
v 29.5 47 -14.5
v 29.5 50 -14.5
v -28.5 15 -21.5
v -28.5 45 -21.5
v -27.5 15 -21.5
v -27.5 45 -21.5
v 27.5 15 -21.5
v 27.5 45 -21.5
v 28.5 15 -21.5
v 28.5 45 -21.5
v -28.5 65 -32.5
v -28.5 82 -32.5
v -27.5 65 -32.5
v -27.5 82 -32.5
v 27.5 65 -32.5
v 27.5 82 -32.5
v 28.5 65 -32.5
v 28.5 82 -32.5
v -61.5 0 -61.5
v -61.5 93 -61.5
v 28.5 0 -61.5
v 28.5 4 -61.5
v 28.5 93 -61.5
v 61.5 0 -61.5
v 61.5 4 -61.5
v -61.5 0 61.5
v 61.5 0 61.5
v -61.5 0 60.5
v -60.5 0 60.5
v -28.5 0 60.5
v 28.5 0 60.5
v -60.5 0 -60.5
v -28.5 0 -60.5
v 28.5 0 -60.5
v -61.5 0 -61.5
v 28.5 0 -61.5
v 61.5 0 -61.5
v -28.5 45 -21.5
v -27.5 45 -21.5
v 27.5 45 -21.5
v 28.5 45 -21.5
v -28.5 45 -45.5
v -27.5 45 -45.5
v 27.5 45 -45.5
v 28.5 45 -45.5
v 28.5 47 15.5
v 29.5 47 15.5
v -28.5 47 12.5
v -27.5 47 12.5
v 27.5 47 12.5
v 28.5 47 12.5
v -28.5 47 -12.5
v -27.5 47 -12.5
v 27.5 47 -12.5
v 28.5 47 -12.5
v 28.5 47 -14.5
v 29.5 47 -14.5
v -28.5 82 17.5
v -27.5 82 17.5
v -28.5 82 6.5
v -27.5 82 6.5
v -28.5 82 -6.5
v -27.5 82 -6.5
v 27.5 82 -6.5
v 28.5 82 -6.5
v -28.5 82 -20.5
v -27.5 82 -20.5
v 27.5 82 -20.5
v 28.5 82 -20.5
v -28.5 82 -32.5
v -27.5 82 -32.5
v 27.5 82 -32.5
v 28.5 82 -32.5
v -28.5 82 -45.5
v -27.5 82 -45.5
v 27.5 82 -45.5
v 28.5 82 -45.5
v -61.5 4 61.5
v 61.5 4 61.5
v -61.5 4 28.5
v 28.5 4 28.5
v -28.5 4 12.5
v -27.5 4 12.5
v 27.5 4 12.5
v 28.5 4 12.5
v -27.5 4 11.5
v 27.5 4 11.5
v -27.5 4 -11.5
v 27.5 4 -11.5
v -28.5 4 -12.5
v -27.5 4 -12.5
v 27.5 4 -12.5
v 28.5 4 -12.5
v 28.5 4 -61.5
v 61.5 4 -61.5
v -28.5 15 -21.5
v -27.5 15 -21.5
v 27.5 15 -21.5
v 28.5 15 -21.5
v -28.5 15 -45.5
v -27.5 15 -45.5
v 27.5 15 -45.5
v 28.5 15 -45.5
v 28.5 50 15.5
v 29.5 50 15.5
v 28.5 50 -14.5
v 29.5 50 -14.5
v -28.5 65 11.5
v -27.5 65 11.5
v -28.5 65 6.5
v -27.5 65 6.5
v -28.5 65 -6.5
v -27.5 65 -6.5
v 27.5 65 -6.5
v 28.5 65 -6.5
v -28.5 65 -20.5
v -27.5 65 -20.5
v 27.5 65 -20.5
v 28.5 65 -20.5
v -28.5 65 -32.5
v -27.5 65 -32.5
v 27.5 65 -32.5
v 28.5 65 -32.5
v -28.5 65 -45.5
v -27.5 65 -45.5
v 27.5 65 -45.5
v 28.5 65 -45.5
v -28.5 81 17.5
v -27.5 81 17.5
v -28.5 81 11.5
v -27.5 81 11.5
v -61.5 93 28.5
v 28.5 93 28.5
v -61.5 93 -61.5
v 28.5 93 -61.5

# faces
f 4/8/1 2/8/1 1/8/1
f 4/4/1 3/4/1 2/4/1
f 5/4/1 3/4/1 4/4/1
f 6/8/1 4/8/1 1/8/1
f 6/8/1 5/8/1 4/8/1
f 7/8/1 5/8/1 6/8/1
f 8/4/1 3/4/1 5/4/1
f 8/8/1 5/8/1 7/8/1
f 9/4/1 8/4/1 7/4/1
f 10/4/1 3/4/1 8/4/1
f 10/4/1 8/4/1 9/4/1
f 17/5/1 16/5/1 15/5/1
f 18/5/1 16/5/1 17/5/1
f 19/5/1 17/5/1 15/5/1
f 19/3/1 18/3/1 17/3/1
f 20/5/1 16/5/1 18/5/1
f 20/3/1 18/3/1 19/3/1
f 21/5/1 19/5/1 15/5/1
f 21/5/1 20/5/1 19/5/1
f 22/5/1 16/5/1 20/5/1
f 22/5/1 20/5/1 21/5/1
f 23/5/1 12/5/1 11/5/1
f 23/3/1 13/3/1 12/3/1
f 24/5/1 14/5/1 13/5/1
f 24/3/1 13/3/1 23/3/1
f 25/5/1 23/5/1 11/5/1
f 25/5/1 24/5/1 23/5/1
f 26/5/1 14/5/1 24/5/1
f 26/5/1 24/5/1 25/5/1
f 33/5/1 28/5/1 27/5/1
f 34/5/1 28/5/1 33/5/1
f 35/5/1 30/5/1 29/5/1
f 36/5/1 30/5/1 35/5/1
f 37/5/1 32/5/1 31/5/1
f 38/5/1 32/5/1 37/5/1
f 40/4/1 34/4/1 33/4/1
f 41/5/1 28/5/1 34/5/1
f 41/4/1 34/4/1 40/4/1
f 42/5/1 35/5/1 29/5/1
f 42/3/1 36/3/1 35/3/1
f 43/5/1 30/5/1 36/5/1
f 43/3/1 36/3/1 42/3/1
f 44/5/1 37/5/1 31/5/1
f 44/3/1 38/3/1 37/3/1
f 45/5/1 32/5/1 38/5/1
f 45/3/1 38/3/1 44/3/1
f 46/5/1 40/5/1 39/5/1
f 46/5/1 41/5/1 40/5/1
f 47/5/1 28/5/1 41/5/1
f 47/5/1 41/5/1 46/5/1
f 48/5/1 42/5/1 29/5/1
f 48/5/1 43/5/1 42/5/1
f 49/5/1 30/5/1 43/5/1
f 49/5/1 43/5/1 48/5/1
f 50/5/1 44/5/1 31/5/1
f 50/5/1 45/5/1 44/5/1
f 51/5/1 32/5/1 45/5/1
f 51/5/1 45/5/1 50/5/1
f 54/1/2 55/1/2 56/1/2
f 56/1/2 55/1/2 57/1/2
f 52/1/2 53/1/2 58/1/2
f 58/1/2 53/1/2 59/1/2
f 60/1/2 61/1/2 67/1/2
f 66/1/2 67/1/2 68/1/2
f 67/1/2 61/1/2 69/1/2
f 68/1/2 67/1/2 69/1/2
f 62/1/2 63/1/2 70/1/2
f 70/1/2 63/1/2 71/1/2
f 64/1/2 65/1/2 72/1/2
f 72/1/2 65/1/2 73/1/2
f 78/5/2 79/5/2 80/5/2
f 80/5/2 79/5/2 81/5/2
f 78/5/2 80/5/2 82/5/2
f 80/3/2 81/3/2 82/3/2
f 81/5/2 79/5/2 83/5/2
f 82/3/2 81/3/2 83/3/2
f 78/5/2 82/5/2 84/5/2
f 82/5/2 83/5/2 84/5/2
f 83/5/2 79/5/2 85/5/2
f 84/5/2 83/5/2 85/5/2
f 74/5/2 75/5/2 86/5/2
f 75/3/2 76/3/2 86/3/2
f 76/5/2 77/5/2 87/5/2
f 86/3/2 76/3/2 87/3/2
f 74/5/2 86/5/2 88/5/2
f 86/5/2 87/5/2 88/5/2
f 87/5/2 77/5/2 89/5/2
f 88/5/2 87/5/2 89/5/2
f 90/5/2 91/5/2 94/5/2
f 94/5/2 91/5/2 95/5/2
f 92/5/2 93/5/2 96/5/2
f 96/5/2 93/5/2 97/5/2
f 90/5/2 94/5/2 98/5/2
f 94/3/2 95/3/2 98/3/2
f 95/5/2 91/5/2 99/5/2
f 98/3/2 95/3/2 99/3/2
f 96/3/2 97/3/2 100/3/2
f 92/5/2 96/5/2 100/5/2
f 97/5/2 93/5/2 101/5/2
f 100/3/2 97/3/2 101/3/2
f 90/5/2 98/5/2 102/5/2
f 98/5/2 99/5/2 102/5/2
f 99/5/2 91/5/2 103/5/2
f 102/5/2 99/5/2 103/5/2
f 92/5/2 100/5/2 104/5/2
f 100/5/2 101/5/2 104/5/2
f 101/5/2 93/5/2 105/5/2
f 104/5/2 101/5/2 105/5/2
f 108/4/2 109/4/2 110/4/2
f 110/4/2 109/4/2 111/4/2
f 108/4/2 110/4/2 112/4/2
f 111/4/2 109/4/2 113/4/2
f 106/4/2 107/4/2 114/4/2
f 114/4/2 107/4/2 115/4/2
f 112/4/2 113/4/2 116/4/2
f 108/4/2 112/4/2 116/4/2
f 116/4/2 113/4/2 117/4/2
f 106/4/2 114/4/2 118/4/2
f 117/4/2 113/4/2 119/4/2
f 118/4/2 119/4/2 120/4/2
f 119/4/2 113/4/2 121/4/2
f 120/4/2 119/4/2 121/4/2
f 121/4/2 113/4/2 122/4/2
f 113/4/2 109/4/2 123/4/2
f 122/4/2 113/4/2 123/4/2
f 118/4/2 120/4/2 124/4/2
f 121/4/2 122/4/2 125/4/2
f 125/4/2 122/4/2 126/4/2
f 123/4/2 109/4/2 127/4/2
f 106/4/2 118/4/2 128/4/2
f 126/4/2 127/4/2 128/4/2
f 118/4/2 124/4/2 128/4/2
f 125/4/2 126/4/2 128/4/2
f 124/4/2 125/4/2 128/4/2
f 127/4/2 109/4/2 129/4/2
f 128/4/2 127/4/2 129/4/2
f 130/6/2 131/6/2 132/6/2
f 132/6/2 131/6/2 133/6/2
f 134/8/2 135/8/2 136/8/2
f 136/8/2 135/8/2 137/8/2
f 140/8/3 139/8/3 138/8/3
f 141/8/3 139/8/3 140/8/3
f 144/4/3 143/4/3 142/4/3
f 145/4/3 143/4/3 144/4/3
f 148/6/3 147/6/3 146/6/3
f 149/6/3 147/6/3 148/6/3
f 152/2/3 151/2/3 150/2/3
f 153/2/3 151/2/3 152/2/3
f 156/2/3 155/2/3 154/2/3
f 157/2/3 155/2/3 156/2/3
f 160/4/3 159/4/3 158/4/3
f 161/4/3 159/4/3 160/4/3
f 164/2/3 163/2/3 162/2/3
f 165/2/3 163/2/3 164/2/3
f 168/4/3 167/4/3 166/4/3
f 169/4/3 167/4/3 168/4/3
f 174/2/3 171/2/3 170/2/3
f 175/2/3 171/2/3 174/2/3
f 176/2/3 173/2/3 172/2/3
f 177/2/3 173/2/3 176/2/3
f 182/4/3 179/4/3 178/4/3
f 183/4/3 179/4/3 182/4/3
f 184/4/3 181/4/3 180/4/3
f 185/4/3 181/4/3 184/4/3
f 186/4/4 187/4/4 188/4/4
f 188/4/4 187/4/4 189/4/4
f 190/2/4 191/2/4 192/2/4
f 192/2/4 191/2/4 193/2/4
f 194/4/4 195/4/4 196/4/4
f 196/4/4 195/4/4 197/4/4
f 198/4/4 199/4/4 200/4/4
f 200/4/4 199/4/4 201/4/4
f 201/4/4 199/4/4 202/4/4
f 203/2/4 204/2/4 205/2/4
f 205/2/4 204/2/4 206/2/4
f 207/4/4 208/4/4 209/4/4
f 209/4/4 208/4/4 210/4/4
f 211/6/4 212/6/4 213/6/4
f 213/6/4 212/6/4 214/6/4
f 215/2/4 216/2/4 217/2/4
f 217/2/4 216/2/4 218/2/4
f 219/4/4 220/4/4 221/4/4
f 221/4/4 220/4/4 222/4/4
f 223/2/4 224/2/4 225/2/4
f 225/2/4 224/2/4 226/2/4
f 227/4/4 228/4/4 229/4/4
f 229/4/4 228/4/4 230/4/4
f 231/4/4 232/4/4 233/4/4
f 233/4/4 232/4/4 234/4/4
f 234/4/4 232/4/4 235/4/4
f 233/8/4 234/8/4 236/8/4
f 236/8/4 234/8/4 237/8/4
f 240/8/5 239/8/5 238/8/5
f 241/8/5 239/8/5 240/8/5
f 242/8/5 239/8/5 241/8/5
f 243/8/5 239/8/5 242/8/5
f 244/4/5 241/4/5 240/4/5
f 244/8/5 242/8/5 241/8/5
f 245/2/5 243/2/5 242/2/5
f 245/8/5 242/8/5 244/8/5
f 246/8/5 239/8/5 243/8/5
f 246/2/5 243/2/5 245/2/5
f 247/4/5 245/4/5 244/4/5
f 247/4/5 244/4/5 240/4/5
f 247/4/5 246/4/5 245/4/5
f 248/8/5 239/8/5 246/8/5
f 248/4/5 246/4/5 247/4/5
f 249/8/5 239/8/5 248/8/5
f 254/2/5 251/2/5 250/2/5
f 255/2/5 251/2/5 254/2/5
f 256/4/5 253/4/5 252/4/5
f 257/4/5 253/4/5 256/4/5
f 263/6/5 259/6/5 258/6/5
f 264/1/5 261/1/5 260/1/5
f 265/1/5 261/1/5 264/1/5
f 266/1/5 263/1/5 262/1/5
f 267/6/5 259/6/5 263/6/5
f 267/1/5 263/1/5 266/1/5
f 268/6/5 259/6/5 267/6/5
f 269/6/5 259/6/5 268/6/5
f 272/2/5 271/2/5 270/2/5
f 273/2/5 271/2/5 272/2/5
f 278/2/5 275/2/5 274/2/5
f 279/2/5 275/2/5 278/2/5
f 280/4/5 277/4/5 276/4/5
f 281/4/5 277/4/5 280/4/5
f 286/2/5 283/2/5 282/2/5
f 287/2/5 283/2/5 286/2/5
f 288/4/5 285/4/5 284/4/5
f 289/4/5 285/4/5 288/4/5
f 290/8/6 291/8/6 292/8/6
f 292/8/6 291/8/6 293/8/6
f 293/8/6 291/8/6 297/8/6
f 294/8/6 295/8/6 298/8/6
f 296/8/6 297/8/6 299/8/6
f 294/8/6 298/8/6 300/8/6
f 299/8/6 297/8/6 301/8/6
f 294/8/6 300/8/6 302/8/6
f 302/8/6 300/8/6 303/8/6
f 301/8/6 297/8/6 304/8/6
f 297/8/6 291/8/6 305/8/6
f 304/8/6 297/8/6 305/8/6
f 305/8/6 291/8/6 306/8/6
f 306/8/6 291/8/6 307/8/6
f 308/2/6 309/2/6 312/2/6
f 312/2/6 309/2/6 313/2/6
f 310/4/6 311/4/6 314/4/6
f 314/4/6 311/4/6 315/4/6
f 316/6/6 317/6/6 318/6/6
f 318/6/6 317/6/6 319/6/6
f 320/2/6 321/2/6 322/2/6
f 322/2/6 321/2/6 323/2/6
f 324/2/6 325/2/6 328/2/6
f 328/2/6 325/2/6 329/2/6
f 326/4/6 327/4/6 330/4/6
f 330/4/6 327/4/6 331/4/6
f 332/2/6 333/2/6 336/2/6
f 336/2/6 333/2/6 337/2/6
f 334/4/6 335/4/6 338/4/6
f 338/4/6 335/4/6 339/4/6
f 340/4/6 341/4/6 342/4/6
f 342/4/6 341/4/6 343/4/6
f 344/4/6 345/4/6 346/4/6
f 346/4/6 345/4/6 347/4/6
