# MagicaVoxel @ Ephtracy

# material
mtllib Parqueesuina.mtl
usemtl palette

# normals
vn -1 0 0
vn 1 0 0
vn 0 0 1
vn 0 0 -1
vn 0 -1 0
vn 0 1 0

# texcoords
vt 0.00585938 0.5
vt 0.365234 0.5
vt 0.533203 0.5
vt 0.623047 0.5
vt 0.779297 0.5
vt 0.966797 0.5
vt 0.970703 0.5
vt 0.978516 0.5
vt 0.986328 0.5

# verts
v -61.5 0 61.5
v -61.5 0 60.5
v -61.5 0 -61.5
v -61.5 3 60.5
v -61.5 3 28.5
v -61.5 3 -61.5
v -61.5 4 61.5
v -61.5 4 28.5
v -61.5 5 28.5
v -61.5 5 -61.5
v -27.5 41 17.5
v -27.5 41 -18.5
v -27.5 70 17.5
v -27.5 70 -18.5
v -23.5 70 2.5
v -23.5 70 -12.5
v -23.5 80 2.5
v -23.5 80 -12.5
v -15.5 5 2.5
v -15.5 5 -5.5
v -15.5 41 2.5
v -15.5 41 -5.5
v -0.5 35 -0.5
v -0.5 35 -2.5
v -0.5 41 -0.5
v -0.5 41 -2.5
v -8.5 70 2.5
v -8.5 70 -12.5
v -8.5 80 2.5
v -8.5 80 -12.5
v -6.5 5 2.5
v -6.5 5 -5.5
v -6.5 33 -0.5
v -6.5 33 -2.5
v -6.5 35 -0.5
v -6.5 35 -2.5
v -6.5 41 2.5
v -6.5 41 -5.5
v 1.5 33 -0.5
v 1.5 33 -2.5
v 1.5 41 -0.5
v 1.5 41 -2.5
v 10.5 41 17.5
v 10.5 41 -18.5
v 10.5 70 17.5
v 10.5 70 -18.5
v 28.5 4 28.5
v 28.5 4 -61.5
v 28.5 5 28.5
v 28.5 5 -61.5
v 61.5 0 61.5
v 61.5 0 -61.5
v 61.5 4 61.5
v 61.5 4 -61.5
v -61.5 0 61.5
v -61.5 4 61.5
v 61.5 0 61.5
v 61.5 4 61.5
v -61.5 4 28.5
v -61.5 5 28.5
v 28.5 4 28.5
v 28.5 5 28.5
v -27.5 41 17.5
v -27.5 70 17.5
v 10.5 41 17.5
v 10.5 70 17.5
v -23.5 70 2.5
v -23.5 80 2.5
v -15.5 5 2.5
v -15.5 41 2.5
v -8.5 70 2.5
v -8.5 80 2.5
v -6.5 5 2.5
v -6.5 41 2.5
v -6.5 33 -0.5
v -6.5 35 -0.5
v -0.5 35 -0.5
v -0.5 41 -0.5
v 1.5 33 -0.5
v 1.5 41 -0.5
v -6.5 33 -2.5
v -6.5 35 -2.5
v -0.5 35 -2.5
v -0.5 41 -2.5
v 1.5 33 -2.5
v 1.5 41 -2.5
v -15.5 5 -5.5
v -15.5 41 -5.5
v -6.5 5 -5.5
v -6.5 41 -5.5
v -23.5 70 -12.5
v -23.5 80 -12.5
v -8.5 70 -12.5
v -8.5 80 -12.5
v -27.5 41 -18.5
v -27.5 70 -18.5
v 10.5 41 -18.5
v 10.5 70 -18.5
v -61.5 0 -61.5
v -61.5 3 -61.5
v -61.5 5 -61.5
v 28.5 0 -61.5
v 28.5 3 -61.5
v 28.5 4 -61.5
v 28.5 5 -61.5
v 61.5 0 -61.5
v 61.5 4 -61.5
v -61.5 0 61.5
v 61.5 0 61.5
v -61.5 0 60.5
v -60.5 0 60.5
v -28.5 0 60.5
v 28.5 0 60.5
v -60.5 0 -60.5
v -28.5 0 -60.5
v 28.5 0 -60.5
v -61.5 0 -61.5
v 28.5 0 -61.5
v 61.5 0 -61.5
v -6.5 33 -0.5
v 1.5 33 -0.5
v -6.5 33 -2.5
v 1.5 33 -2.5
v -27.5 41 17.5
v 10.5 41 17.5
v -15.5 41 2.5
v -6.5 41 2.5
v -0.5 41 -0.5
v 1.5 41 -0.5
v -0.5 41 -2.5
v 1.5 41 -2.5
v -15.5 41 -5.5
v -6.5 41 -5.5
v -27.5 41 -18.5
v 10.5 41 -18.5
v -61.5 4 61.5
v 61.5 4 61.5
v -61.5 4 28.5
v 28.5 4 28.5
v 28.5 4 -61.5
v 61.5 4 -61.5
v -61.5 5 28.5
v 28.5 5 28.5
v -15.5 5 2.5
v -6.5 5 2.5
v -15.5 5 -5.5
v -6.5 5 -5.5
v -61.5 5 -61.5
v 28.5 5 -61.5
v -6.5 35 -0.5
v -0.5 35 -0.5
v -6.5 35 -2.5
v -0.5 35 -2.5
v -27.5 70 17.5
v 10.5 70 17.5
v -23.5 70 2.5
v -8.5 70 2.5
v -23.5 70 -12.5
v -8.5 70 -12.5
v -27.5 70 -18.5
v 10.5 70 -18.5
v -23.5 80 2.5
v -8.5 80 2.5
v -23.5 80 -12.5
v -8.5 80 -12.5

# faces
f 4/8/1 2/8/1 1/8/1
f 4/5/1 3/5/1 2/5/1
f 5/5/1 3/5/1 4/5/1
f 6/5/1 3/5/1 5/5/1
f 7/8/1 4/8/1 1/8/1
f 7/8/1 5/8/1 4/8/1
f 8/4/1 6/4/1 5/4/1
f 8/8/1 5/8/1 7/8/1
f 9/4/1 6/4/1 8/4/1
f 10/4/1 6/4/1 9/4/1
f 13/4/1 12/4/1 11/4/1
f 14/4/1 12/4/1 13/4/1
f 17/4/1 16/4/1 15/4/1
f 18/4/1 16/4/1 17/4/1
f 21/3/1 20/3/1 19/3/1
f 22/3/1 20/3/1 21/3/1
f 25/3/1 24/3/1 23/3/1
f 26/3/1 24/3/1 25/3/1
f 27/4/2 28/4/2 29/4/2
f 29/4/2 28/4/2 30/4/2
f 31/3/2 32/3/2 33/3/2
f 33/3/2 32/3/2 34/3/2
f 31/3/2 33/3/2 35/3/2
f 34/3/2 32/3/2 36/3/2
f 31/3/2 35/3/2 37/3/2
f 35/3/2 36/3/2 37/3/2
f 36/3/2 32/3/2 38/3/2
f 37/3/2 36/3/2 38/3/2
f 39/3/2 40/3/2 41/3/2
f 41/3/2 40/3/2 42/3/2
f 43/4/2 44/4/2 45/4/2
f 45/4/2 44/4/2 46/4/2
f 47/4/2 48/4/2 49/4/2
f 49/4/2 48/4/2 50/4/2
f 51/8/2 52/8/2 53/8/2
f 53/8/2 52/8/2 54/8/2
f 57/8/3 56/8/3 55/8/3
f 58/8/3 56/8/3 57/8/3
f 61/4/3 60/4/3 59/4/3
f 62/4/3 60/4/3 61/4/3
f 65/4/3 64/4/3 63/4/3
f 66/4/3 64/4/3 65/4/3
f 71/4/3 68/4/3 67/4/3
f 72/4/3 68/4/3 71/4/3
f 73/3/3 70/3/3 69/3/3
f 74/3/3 70/3/3 73/3/3
f 77/3/3 76/3/3 75/3/3
f 79/3/3 77/3/3 75/3/3
f 79/3/3 78/3/3 77/3/3
f 80/3/3 78/3/3 79/3/3
f 81/3/4 82/3/4 83/3/4
f 81/3/4 83/3/4 85/3/4
f 83/3/4 84/3/4 85/3/4
f 85/3/4 84/3/4 86/3/4
f 87/3/4 88/3/4 89/3/4
f 89/3/4 88/3/4 90/3/4
f 91/4/4 92/4/4 93/4/4
f 93/4/4 92/4/4 94/4/4
f 95/4/4 96/4/4 97/4/4
f 97/4/4 96/4/4 98/4/4
f 99/5/4 100/5/4 102/5/4
f 100/4/4 101/4/4 103/4/4
f 102/5/4 100/5/4 103/5/4
f 103/4/4 101/4/4 104/4/4
f 104/4/4 101/4/4 105/4/4
f 102/8/4 103/8/4 106/8/4
f 103/8/4 104/8/4 106/8/4
f 106/8/4 104/8/4 107/8/4
f 110/8/5 109/8/5 108/8/5
f 111/8/5 109/8/5 110/8/5
f 112/8/5 109/8/5 111/8/5
f 113/8/5 109/8/5 112/8/5
f 114/5/5 111/5/5 110/5/5
f 114/8/5 112/8/5 111/8/5
f 115/2/5 113/2/5 112/2/5
f 115/8/5 112/8/5 114/8/5
f 116/8/5 109/8/5 113/8/5
f 116/2/5 113/2/5 115/2/5
f 117/5/5 115/5/5 114/5/5
f 117/5/5 114/5/5 110/5/5
f 117/5/5 116/5/5 115/5/5
f 118/8/5 109/8/5 116/8/5
f 118/5/5 116/5/5 117/5/5
f 119/8/5 109/8/5 118/8/5
f 122/3/5 121/3/5 120/3/5
f 123/3/5 121/3/5 122/3/5
f 126/4/5 125/4/5 124/4/5
f 127/4/5 125/4/5 126/4/5
f 128/4/5 125/4/5 127/4/5
f 129/4/5 125/4/5 128/4/5
f 130/4/5 128/4/5 127/4/5
f 131/4/5 125/4/5 129/4/5
f 132/4/5 126/4/5 124/4/5
f 133/4/5 131/4/5 130/4/5
f 133/4/5 130/4/5 127/4/5
f 134/4/5 132/4/5 124/4/5
f 134/4/5 133/4/5 132/4/5
f 135/4/5 131/4/5 133/4/5
f 135/4/5 133/4/5 134/4/5
f 135/4/5 125/4/5 131/4/5
f 136/8/6 137/8/6 138/8/6
f 138/8/6 137/8/6 139/8/6
f 139/8/6 137/8/6 140/8/6
f 140/8/6 137/8/6 141/8/6
f 142/4/6 143/4/6 144/4/6
f 144/4/6 143/4/6 145/4/6
f 142/4/6 144/4/6 146/4/6
f 145/4/6 143/4/6 147/4/6
f 142/4/6 146/4/6 148/4/6
f 146/4/6 147/4/6 148/4/6
f 147/4/6 143/4/6 149/4/6
f 148/4/6 147/4/6 149/4/6
f 150/3/6 151/3/6 152/3/6
f 152/3/6 151/3/6 153/3/6
f 154/4/6 155/4/6 156/4/6
f 156/4/6 155/4/6 157/4/6
f 154/4/6 156/4/6 158/4/6
f 157/4/6 155/4/6 159/4/6
f 154/4/6 158/4/6 160/4/6
f 158/4/6 159/4/6 160/4/6
f 159/4/6 155/4/6 161/4/6
f 160/4/6 159/4/6 161/4/6
f 162/4/6 163/4/6 164/4/6
f 164/4/6 163/4/6 165/4/6
