# MagicaVoxel @ Ephtracy

# material
mtllib Parquecentro.mtl
usemtl palette

# normals
vn -1 0 0
vn 1 0 0
vn 0 0 1
vn 0 0 -1
vn 0 -1 0
vn 0 1 0

# texcoords
vt 0.00585938 0.5
vt 0.365234 0.5
vt 0.533203 0.5
vt 0.623047 0.5
vt 0.779297 0.5
vt 0.966797 0.5
vt 0.970703 0.5
vt 0.978516 0.5
vt 0.986328 0.5
vt 0.990234 0.5

# verts
v -61.5 0 61.5
v -61.5 0 60.5
v -61.5 0 -61.5
v -61.5 3 60.5
v -61.5 3 28.5
v -61.5 3 -61.5
v -61.5 4 61.5
v -61.5 4 28.5
v -61.5 5 61.5
v -61.5 5 -61.5
v -58.5 54 -11.5
v -58.5 54 -50.5
v -58.5 89 -11.5
v -58.5 89 -50.5
v -48.5 42 -8.5
v -48.5 42 -25.5
v -48.5 54 -11.5
v -48.5 54 -25.5
v -48.5 56 -8.5
v -48.5 56 -11.5
v -44.5 46 -41.5
v -44.5 46 -56.5
v -44.5 54 -41.5
v -44.5 54 -50.5
v -44.5 61 -50.5
v -44.5 61 -56.5
v -39.5 5 -28.5
v -39.5 5 -38.5
v -39.5 54 -28.5
v -39.5 54 -38.5
v -38.5 41 46.5
v -38.5 41 10.5
v -38.5 70 46.5
v -38.5 70 10.5
v -37.5 30 -38.5
v -37.5 30 -48.5
v -37.5 34 -38.5
v -37.5 34 -44.5
v -37.5 46 -44.5
v -37.5 46 -48.5
v -35.5 32 -21.5
v -35.5 32 -28.5
v -35.5 35 -23.5
v -35.5 35 -28.5
v -35.5 42 -21.5
v -35.5 42 -23.5
v -34.5 70 31.5
v -34.5 70 16.5
v -34.5 80 31.5
v -34.5 80 16.5
v -26.5 5 31.5
v -26.5 5 23.5
v -26.5 41 31.5
v -26.5 41 23.5
v -11.5 35 28.5
v -11.5 35 26.5
v -11.5 41 28.5
v -11.5 41 26.5
v 2.5 12 33.5
v 2.5 12 30.5
v 2.5 12 28.5
v 2.5 12 25.5
v 2.5 12 23.5
v 2.5 12 20.5
v 2.5 13 33.5
v 2.5 13 30.5
v 2.5 13 28.5
v 2.5 13 25.5
v 2.5 13 23.5
v 2.5 13 20.5
v 2.5 14 33.5
v 2.5 14 32.5
v 2.5 16 33.5
v 2.5 16 32.5
v 2.5 17 33.5
v 2.5 17 32.5
v 2.5 19 33.5
v 2.5 19 32.5
v 2.5 20 33.5
v 2.5 20 32.5
v 2.5 22 33.5
v 2.5 22 32.5
v 4.5 5 33.5
v 4.5 5 21.5
v 4.5 6 32.5
v 4.5 6 22.5
v 4.5 11 32.5
v 4.5 11 22.5
v 4.5 12 33.5
v 4.5 12 30.5
v 4.5 12 28.5
v 4.5 12 25.5
v 4.5 12 23.5
v 4.5 12 21.5
v 46.5 5 33.5
v 46.5 5 21.5
v 46.5 6 32.5
v 46.5 6 22.5
v 46.5 11 32.5
v 46.5 11 22.5
v 46.5 12 33.5
v 46.5 12 30.5
v 46.5 12 28.5
v 46.5 12 25.5
v 46.5 12 23.5
v 46.5 12 21.5
v -33.5 30 -38.5
v -33.5 30 -48.5
v -33.5 32 -21.5
v -33.5 32 -28.5
v -33.5 34 -38.5
v -33.5 34 -44.5
v -33.5 35 -23.5
v -33.5 35 -28.5
v -33.5 42 -21.5
v -33.5 42 -23.5
v -33.5 46 -44.5
v -33.5 46 -48.5
v -31.5 42 -8.5
v -31.5 42 -25.5
v -31.5 54 -11.5
v -31.5 54 -25.5
v -31.5 56 -8.5
v -31.5 56 -11.5
v -30.5 5 -28.5
v -30.5 5 -38.5
v -30.5 54 -28.5
v -30.5 54 -38.5
v -28.5 46 -41.5
v -28.5 46 -56.5
v -28.5 54 -41.5
v -28.5 54 -50.5
v -28.5 61 -50.5
v -28.5 61 -56.5
v -19.5 70 31.5
v -19.5 70 16.5
v -19.5 80 31.5
v -19.5 80 16.5
v -17.5 5 31.5
v -17.5 5 23.5
v -17.5 33 28.5
v -17.5 33 26.5
v -17.5 35 28.5
v -17.5 35 26.5
v -17.5 41 31.5
v -17.5 41 23.5
v -16.5 54 -11.5
v -16.5 54 -50.5
v -16.5 60 -24.5
v -16.5 60 -44.5
v -16.5 79 -24.5
v -16.5 79 -44.5
v -16.5 89 -11.5
v -16.5 89 -50.5
v -9.5 33 28.5
v -9.5 33 26.5
v -9.5 41 28.5
v -9.5 41 26.5
v -4.5 60 -24.5
v -4.5 60 -44.5
v -4.5 79 -24.5
v -4.5 79 -44.5
v -0.5 41 46.5
v -0.5 41 10.5
v -0.5 70 46.5
v -0.5 70 10.5
v 5.5 5 33.5
v 5.5 5 21.5
v 5.5 6 32.5
v 5.5 6 22.5
v 5.5 11 32.5
v 5.5 11 22.5
v 5.5 12 33.5
v 5.5 12 30.5
v 5.5 12 28.5
v 5.5 12 25.5
v 5.5 12 23.5
v 5.5 12 21.5
v 47.5 5 33.5
v 47.5 5 21.5
v 47.5 6 32.5
v 47.5 6 22.5
v 47.5 11 32.5
v 47.5 11 22.5
v 47.5 12 33.5
v 47.5 12 30.5
v 47.5 12 28.5
v 47.5 12 25.5
v 47.5 12 23.5
v 47.5 12 21.5
v 49.5 12 33.5
v 49.5 12 30.5
v 49.5 12 28.5
v 49.5 12 25.5
v 49.5 12 23.5
v 49.5 12 20.5
v 49.5 13 33.5
v 49.5 13 30.5
v 49.5 13 28.5
v 49.5 13 25.5
v 49.5 13 23.5
v 49.5 13 20.5
v 49.5 14 33.5
v 49.5 14 32.5
v 49.5 16 33.5
v 49.5 16 32.5
v 49.5 17 33.5
v 49.5 17 32.5
v 49.5 19 33.5
v 49.5 19 32.5
v 49.5 20 33.5
v 49.5 20 32.5
v 49.5 22 33.5
v 49.5 22 32.5
v 61.5 0 61.5
v 61.5 0 -61.5
v 61.5 4 61.5
v 61.5 4 -61.5
v 61.5 5 61.5
v 61.5 5 -61.5
v -61.5 0 61.5
v -61.5 4 61.5
v -61.5 5 61.5
v 61.5 0 61.5
v 61.5 4 61.5
v 61.5 5 61.5
v -38.5 41 46.5
v -38.5 70 46.5
v -0.5 41 46.5
v -0.5 70 46.5
v 2.5 12 33.5
v 2.5 13 33.5
v 2.5 14 33.5
v 2.5 16 33.5
v 2.5 17 33.5
v 2.5 19 33.5
v 2.5 20 33.5
v 2.5 22 33.5
v 4.5 5 33.5
v 4.5 12 33.5
v 5.5 5 33.5
v 5.5 12 33.5
v 46.5 5 33.5
v 46.5 12 33.5
v 47.5 5 33.5
v 47.5 12 33.5
v 49.5 12 33.5
v 49.5 13 33.5
v 49.5 14 33.5
v 49.5 16 33.5
v 49.5 17 33.5
v 49.5 19 33.5
v 49.5 20 33.5
v 49.5 22 33.5
v -34.5 70 31.5
v -34.5 80 31.5
v -26.5 5 31.5
v -26.5 41 31.5
v -19.5 70 31.5
v -19.5 80 31.5
v -17.5 5 31.5
v -17.5 41 31.5
v -17.5 33 28.5
v -17.5 35 28.5
v -11.5 35 28.5
v -11.5 41 28.5
v -9.5 33 28.5
v -9.5 41 28.5
v 2.5 12 28.5
v 2.5 13 28.5
v 4.5 12 28.5
v 5.5 12 28.5
v 46.5 12 28.5
v 47.5 12 28.5
v 49.5 12 28.5
v 49.5 13 28.5
v 2.5 12 23.5
v 2.5 13 23.5
v 4.5 12 23.5
v 5.5 12 23.5
v 46.5 12 23.5
v 47.5 12 23.5
v 49.5 12 23.5
v 49.5 13 23.5
v 4.5 6 22.5
v 4.5 11 22.5
v 5.5 6 22.5
v 5.5 11 22.5
v 46.5 6 22.5
v 46.5 11 22.5
v 47.5 6 22.5
v 47.5 11 22.5
v -48.5 42 -8.5
v -48.5 56 -8.5
v -31.5 42 -8.5
v -31.5 56 -8.5
v -58.5 54 -11.5
v -58.5 89 -11.5
v -48.5 54 -11.5
v -48.5 56 -11.5
v -31.5 54 -11.5
v -31.5 56 -11.5
v -16.5 54 -11.5
v -16.5 89 -11.5
v -35.5 32 -21.5
v -35.5 42 -21.5
v -33.5 32 -21.5
v -33.5 42 -21.5
v -16.5 60 -24.5
v -16.5 79 -24.5
v -4.5 60 -24.5
v -4.5 79 -24.5
v -39.5 5 -28.5
v -39.5 54 -28.5
v -35.5 32 -28.5
v -35.5 35 -28.5
v -33.5 32 -28.5
v -33.5 35 -28.5
v -30.5 5 -28.5
v -30.5 54 -28.5
v -44.5 46 -41.5
v -44.5 54 -41.5
v -28.5 46 -41.5
v -28.5 54 -41.5
v -37.5 34 -44.5
v -37.5 46 -44.5
v -33.5 34 -44.5
v -33.5 46 -44.5
v 2.5 14 32.5
v 2.5 16 32.5
v 2.5 17 32.5
v 2.5 19 32.5
v 2.5 20 32.5
v 2.5 22 32.5
v 4.5 6 32.5
v 4.5 11 32.5
v 5.5 6 32.5
v 5.5 11 32.5
v 46.5 6 32.5
v 46.5 11 32.5
v 47.5 6 32.5
v 47.5 11 32.5
v 49.5 14 32.5
v 49.5 16 32.5
v 49.5 17 32.5
v 49.5 19 32.5
v 49.5 20 32.5
v 49.5 22 32.5
v 2.5 12 30.5
v 2.5 13 30.5
v 4.5 12 30.5
v 5.5 12 30.5
v 46.5 12 30.5
v 47.5 12 30.5
v 49.5 12 30.5
v 49.5 13 30.5
v -17.5 33 26.5
v -17.5 35 26.5
v -11.5 35 26.5
v -11.5 41 26.5
v -9.5 33 26.5
v -9.5 41 26.5
v 2.5 12 25.5
v 2.5 13 25.5
v 4.5 12 25.5
v 5.5 12 25.5
v 46.5 12 25.5
v 47.5 12 25.5
v 49.5 12 25.5
v 49.5 13 25.5
v -26.5 5 23.5
v -26.5 41 23.5
v -17.5 5 23.5
v -17.5 41 23.5
v 4.5 5 21.5
v 4.5 12 21.5
v 5.5 5 21.5
v 5.5 12 21.5
v 46.5 5 21.5
v 46.5 12 21.5
v 47.5 5 21.5
v 47.5 12 21.5
v 2.5 12 20.5
v 2.5 13 20.5
v 49.5 12 20.5
v 49.5 13 20.5
v -34.5 70 16.5
v -34.5 80 16.5
v -19.5 70 16.5
v -19.5 80 16.5
v -38.5 41 10.5
v -38.5 70 10.5
v -0.5 41 10.5
v -0.5 70 10.5
v -35.5 35 -23.5
v -35.5 42 -23.5
v -33.5 35 -23.5
v -33.5 42 -23.5
v -48.5 42 -25.5
v -48.5 54 -25.5
v -31.5 42 -25.5
v -31.5 54 -25.5
v -39.5 5 -38.5
v -39.5 54 -38.5
v -37.5 30 -38.5
v -37.5 34 -38.5
v -33.5 30 -38.5
v -33.5 34 -38.5
v -30.5 5 -38.5
v -30.5 54 -38.5
v -16.5 60 -44.5
v -16.5 79 -44.5
v -4.5 60 -44.5
v -4.5 79 -44.5
v -37.5 30 -48.5
v -37.5 46 -48.5
v -33.5 30 -48.5
v -33.5 46 -48.5
v -58.5 54 -50.5
v -58.5 89 -50.5
v -44.5 54 -50.5
v -44.5 61 -50.5
v -28.5 54 -50.5
v -28.5 61 -50.5
v -16.5 54 -50.5
v -16.5 89 -50.5
v -44.5 46 -56.5
v -44.5 61 -56.5
v -28.5 46 -56.5
v -28.5 61 -56.5
v -61.5 0 -61.5
v -61.5 3 -61.5
v -61.5 5 -61.5
v 28.5 0 -61.5
v 28.5 3 -61.5
v 28.5 4 -61.5
v 61.5 0 -61.5
v 61.5 4 -61.5
v 61.5 5 -61.5
v -61.5 0 61.5
v 61.5 0 61.5
v -61.5 0 60.5
v -60.5 0 60.5
v -28.5 0 60.5
v 28.5 0 60.5
v -60.5 0 -60.5
v -28.5 0 -60.5
v 28.5 0 -60.5
v -61.5 0 -61.5
v 28.5 0 -61.5
v 61.5 0 -61.5
v 4.5 11 32.5
v 5.5 11 32.5
v 46.5 11 32.5
v 47.5 11 32.5
v 4.5 11 22.5
v 5.5 11 22.5
v 46.5 11 22.5
v 47.5 11 22.5
v 2.5 12 33.5
v 4.5 12 33.5
v 5.5 12 33.5
v 46.5 12 33.5
v 47.5 12 33.5
v 49.5 12 33.5
v 2.5 12 30.5
v 4.5 12 30.5
v 5.5 12 30.5
v 46.5 12 30.5
v 47.5 12 30.5
v 49.5 12 30.5
v 2.5 12 28.5
v 4.5 12 28.5
v 5.5 12 28.5
v 46.5 12 28.5
v 47.5 12 28.5
v 49.5 12 28.5
v 2.5 12 25.5
v 4.5 12 25.5
v 5.5 12 25.5
v 46.5 12 25.5
v 47.5 12 25.5
v 49.5 12 25.5
v 2.5 12 23.5
v 4.5 12 23.5
v 5.5 12 23.5
v 46.5 12 23.5
v 47.5 12 23.5
v 49.5 12 23.5
v 4.5 12 21.5
v 5.5 12 21.5
v 46.5 12 21.5
v 47.5 12 21.5
v 2.5 12 20.5
v 49.5 12 20.5
v 2.5 14 33.5
v 49.5 14 33.5
v 2.5 14 32.5
v 49.5 14 32.5
v 2.5 17 33.5
v 49.5 17 33.5
v 2.5 17 32.5
v 49.5 17 32.5
v 2.5 20 33.5
v 49.5 20 33.5
v 2.5 20 32.5
v 49.5 20 32.5
v -37.5 30 -38.5
v -33.5 30 -38.5
v -37.5 30 -48.5
v -33.5 30 -48.5
v -35.5 32 -21.5
v -33.5 32 -21.5
v -35.5 32 -28.5
v -33.5 32 -28.5
v -17.5 33 28.5
v -9.5 33 28.5
v -17.5 33 26.5
v -9.5 33 26.5
v -38.5 41 46.5
v -0.5 41 46.5
v -26.5 41 31.5
v -17.5 41 31.5
v -11.5 41 28.5
v -9.5 41 28.5
v -11.5 41 26.5
v -9.5 41 26.5
v -26.5 41 23.5
v -17.5 41 23.5
v -38.5 41 10.5
v -0.5 41 10.5
v -48.5 42 -8.5
v -31.5 42 -8.5
v -35.5 42 -21.5
v -33.5 42 -21.5
v -35.5 42 -23.5
v -33.5 42 -23.5
v -48.5 42 -25.5
v -31.5 42 -25.5
v -44.5 46 -41.5
v -28.5 46 -41.5
v -37.5 46 -44.5
v -33.5 46 -44.5
v -37.5 46 -48.5
v -33.5 46 -48.5
v -44.5 46 -56.5
v -28.5 46 -56.5
v -58.5 54 -11.5
v -48.5 54 -11.5
v -31.5 54 -11.5
v -16.5 54 -11.5
v -48.5 54 -25.5
v -31.5 54 -25.5
v -39.5 54 -28.5
v -30.5 54 -28.5
v -39.5 54 -38.5
v -30.5 54 -38.5
v -44.5 54 -41.5
v -28.5 54 -41.5
v -58.5 54 -50.5
v -44.5 54 -50.5
v -28.5 54 -50.5
v -16.5 54 -50.5
v -16.5 60 -24.5
v -4.5 60 -24.5
v -16.5 60 -44.5
v -4.5 60 -44.5
v -61.5 5 61.5
v 61.5 5 61.5
v 4.5 5 33.5
v 5.5 5 33.5
v 46.5 5 33.5
v 47.5 5 33.5
v -26.5 5 31.5
v -17.5 5 31.5
v -26.5 5 23.5
v -17.5 5 23.5
v 4.5 5 21.5
v 5.5 5 21.5
v 46.5 5 21.5
v 47.5 5 21.5
v -39.5 5 -28.5
v -30.5 5 -28.5
v -39.5 5 -38.5
v -30.5 5 -38.5
v -61.5 5 -61.5
v 61.5 5 -61.5
v 4.5 6 32.5
v 5.5 6 32.5
v 46.5 6 32.5
v 47.5 6 32.5
v 4.5 6 22.5
v 5.5 6 22.5
v 46.5 6 22.5
v 47.5 6 22.5
v 4.5 12 30.5
v 5.5 12 30.5
v 46.5 12 30.5
v 47.5 12 30.5
v 4.5 12 28.5
v 5.5 12 28.5
v 46.5 12 28.5
v 47.5 12 28.5
v 4.5 12 25.5
v 5.5 12 25.5
v 46.5 12 25.5
v 47.5 12 25.5
v 4.5 12 23.5
v 5.5 12 23.5
v 46.5 12 23.5
v 47.5 12 23.5
v 2.5 13 33.5
v 49.5 13 33.5
v 2.5 13 30.5
v 49.5 13 30.5
v 2.5 13 28.5
v 49.5 13 28.5
v 2.5 13 25.5
v 49.5 13 25.5
v 2.5 13 23.5
v 49.5 13 23.5
v 2.5 13 20.5
v 49.5 13 20.5
v 2.5 16 33.5
v 49.5 16 33.5
v 2.5 16 32.5
v 49.5 16 32.5
v 2.5 19 33.5
v 49.5 19 33.5
v 2.5 19 32.5
v 49.5 19 32.5
v 2.5 22 33.5
v 49.5 22 33.5
v 2.5 22 32.5
v 49.5 22 32.5
v -37.5 34 -38.5
v -33.5 34 -38.5
v -37.5 34 -44.5
v -33.5 34 -44.5
v -17.5 35 28.5
v -11.5 35 28.5
v -17.5 35 26.5
v -11.5 35 26.5
v -35.5 35 -23.5
v -33.5 35 -23.5
v -35.5 35 -28.5
v -33.5 35 -28.5
v -48.5 56 -8.5
v -31.5 56 -8.5
v -48.5 56 -11.5
v -31.5 56 -11.5
v -44.5 61 -50.5
v -28.5 61 -50.5
v -44.5 61 -56.5
v -28.5 61 -56.5
v -38.5 70 46.5
v -0.5 70 46.5
v -34.5 70 31.5
v -19.5 70 31.5
v -34.5 70 16.5
v -19.5 70 16.5
v -38.5 70 10.5
v -0.5 70 10.5
v -16.5 79 -24.5
v -4.5 79 -24.5
v -16.5 79 -44.5
v -4.5 79 -44.5
v -34.5 80 31.5
v -19.5 80 31.5
v -34.5 80 16.5
v -19.5 80 16.5
v -58.5 89 -11.5
v -16.5 89 -11.5
v -58.5 89 -50.5
v -16.5 89 -50.5

# faces
f 4/8/1 2/8/1 1/8/1
f 4/5/1 3/5/1 2/5/1
f 5/5/1 3/5/1 4/5/1
f 6/5/1 3/5/1 5/5/1
f 7/8/1 4/8/1 1/8/1
f 7/8/1 5/8/1 4/8/1
f 8/4/1 6/4/1 5/4/1
f 8/8/1 5/8/1 7/8/1
f 9/4/1 8/4/1 7/4/1
f 10/4/1 6/4/1 8/4/1
f 10/4/1 8/4/1 9/4/1
f 13/4/1 12/4/1 11/4/1
f 14/4/1 12/4/1 13/4/1
f 17/4/1 16/4/1 15/4/1
f 18/4/1 16/4/1 17/4/1
f 19/4/1 17/4/1 15/4/1
f 20/4/1 17/4/1 19/4/1
f 23/4/1 22/4/1 21/4/1
f 24/4/1 22/4/1 23/4/1
f 25/4/1 22/4/1 24/4/1
f 26/4/1 22/4/1 25/4/1
f 29/3/1 28/3/1 27/3/1
f 30/3/1 28/3/1 29/3/1
f 33/4/1 32/4/1 31/4/1
f 34/4/1 32/4/1 33/4/1
f 37/3/1 36/3/1 35/3/1
f 38/3/1 36/3/1 37/3/1
f 39/3/1 36/3/1 38/3/1
f 40/3/1 36/3/1 39/3/1
f 43/3/1 42/3/1 41/3/1
f 44/3/1 42/3/1 43/3/1
f 45/3/1 43/3/1 41/3/1
f 46/3/1 43/3/1 45/3/1
f 49/4/1 48/4/1 47/4/1
f 50/4/1 48/4/1 49/4/1
f 53/3/1 52/3/1 51/3/1
f 54/3/1 52/3/1 53/3/1
f 57/3/1 56/3/1 55/3/1
f 58/3/1 56/3/1 57/3/1
f 65/3/1 60/3/1 59/3/1
f 66/3/1 60/3/1 65/3/1
f 67/3/1 62/3/1 61/3/1
f 68/3/1 62/3/1 67/3/1
f 69/3/1 64/3/1 63/3/1
f 70/3/1 64/3/1 69/3/1
f 73/3/1 72/3/1 71/3/1
f 74/3/1 72/3/1 73/3/1
f 77/3/1 76/3/1 75/3/1
f 78/3/1 76/3/1 77/3/1
f 81/3/1 80/3/1 79/3/1
f 82/3/1 80/3/1 81/3/1
f 85/10/1 84/10/1 83/10/1
f 86/10/1 84/10/1 85/10/1
f 87/10/1 85/10/1 83/10/1
f 88/10/1 84/10/1 86/10/1
f 89/10/1 87/10/1 83/10/1
f 89/10/1 88/10/1 87/10/1
f 90/10/1 88/10/1 89/10/1
f 91/10/1 88/10/1 90/10/1
f 92/10/1 88/10/1 91/10/1
f 93/10/1 88/10/1 92/10/1
f 94/10/1 84/10/1 88/10/1
f 94/10/1 88/10/1 93/10/1
f 97/10/1 96/10/1 95/10/1
f 98/10/1 96/10/1 97/10/1
f 99/10/1 97/10/1 95/10/1
f 100/10/1 96/10/1 98/10/1
f 101/10/1 99/10/1 95/10/1
f 101/10/1 100/10/1 99/10/1
f 102/10/1 100/10/1 101/10/1
f 103/10/1 100/10/1 102/10/1
f 104/10/1 100/10/1 103/10/1
f 105/10/1 100/10/1 104/10/1
f 106/10/1 96/10/1 100/10/1
f 106/10/1 100/10/1 105/10/1
f 107/3/2 108/3/2 111/3/2
f 111/3/2 108/3/2 112/3/2
f 109/3/2 110/3/2 113/3/2
f 113/3/2 110/3/2 114/3/2
f 109/3/2 113/3/2 115/3/2
f 115/3/2 113/3/2 116/3/2
f 112/3/2 108/3/2 117/3/2
f 117/3/2 108/3/2 118/3/2
f 119/4/2 120/4/2 121/4/2
f 121/4/2 120/4/2 122/4/2
f 119/4/2 121/4/2 123/4/2
f 123/4/2 121/4/2 124/4/2
f 125/3/2 126/3/2 127/3/2
f 127/3/2 126/3/2 128/3/2
f 129/4/2 130/4/2 131/4/2
f 131/4/2 130/4/2 132/4/2
f 132/4/2 130/4/2 133/4/2
f 133/4/2 130/4/2 134/4/2
f 135/4/2 136/4/2 137/4/2
f 137/4/2 136/4/2 138/4/2
f 139/3/2 140/3/2 141/3/2
f 141/3/2 140/3/2 142/3/2
f 139/3/2 141/3/2 143/3/2
f 142/3/2 140/3/2 144/3/2
f 139/3/2 143/3/2 145/3/2
f 143/3/2 144/3/2 145/3/2
f 144/3/2 140/3/2 146/3/2
f 145/3/2 144/3/2 146/3/2
f 147/4/2 148/4/2 149/4/2
f 149/4/2 148/4/2 150/4/2
f 147/4/2 149/4/2 151/4/2
f 150/4/2 148/4/2 152/4/2
f 147/4/2 151/4/2 153/4/2
f 151/4/2 152/4/2 153/4/2
f 152/4/2 148/4/2 154/4/2
f 153/4/2 152/4/2 154/4/2
f 155/3/2 156/3/2 157/3/2
f 157/3/2 156/3/2 158/3/2
f 159/4/2 160/4/2 161/4/2
f 161/4/2 160/4/2 162/4/2
f 163/4/2 164/4/2 165/4/2
f 165/4/2 164/4/2 166/4/2
f 167/10/2 168/10/2 169/10/2
f 169/10/2 168/10/2 170/10/2
f 167/10/2 169/10/2 171/10/2
f 170/10/2 168/10/2 172/10/2
f 167/10/2 171/10/2 173/10/2
f 171/10/2 172/10/2 173/10/2
f 173/10/2 172/10/2 174/10/2
f 174/10/2 172/10/2 175/10/2
f 175/10/2 172/10/2 176/10/2
f 176/10/2 172/10/2 177/10/2
f 172/10/2 168/10/2 178/10/2
f 177/10/2 172/10/2 178/10/2
f 179/10/2 180/10/2 181/10/2
f 181/10/2 180/10/2 182/10/2
f 179/10/2 181/10/2 183/10/2
f 182/10/2 180/10/2 184/10/2
f 179/10/2 183/10/2 185/10/2
f 183/10/2 184/10/2 185/10/2
f 185/10/2 184/10/2 186/10/2
f 186/10/2 184/10/2 187/10/2
f 187/10/2 184/10/2 188/10/2
f 188/10/2 184/10/2 189/10/2
f 184/10/2 180/10/2 190/10/2
f 189/10/2 184/10/2 190/10/2
f 191/3/2 192/3/2 197/3/2
f 197/3/2 192/3/2 198/3/2
f 193/3/2 194/3/2 199/3/2
f 199/3/2 194/3/2 200/3/2
f 195/3/2 196/3/2 201/3/2
f 201/3/2 196/3/2 202/3/2
f 203/3/2 204/3/2 205/3/2
f 205/3/2 204/3/2 206/3/2
f 207/3/2 208/3/2 209/3/2
f 209/3/2 208/3/2 210/3/2
f 211/3/2 212/3/2 213/3/2
f 213/3/2 212/3/2 214/3/2
f 215/8/2 216/8/2 217/8/2
f 217/8/2 216/8/2 218/8/2
f 217/4/2 218/4/2 219/4/2
f 219/4/2 218/4/2 220/4/2
f 224/8/3 222/8/3 221/8/3
f 225/4/3 223/4/3 222/4/3
f 225/8/3 222/8/3 224/8/3
f 226/4/3 223/4/3 225/4/3
f 229/4/3 228/4/3 227/4/3
f 230/4/3 228/4/3 229/4/3
f 240/3/3 232/3/3 231/3/3
f 241/10/3 240/10/3 239/10/3
f 242/3/3 232/3/3 240/3/3
f 242/10/3 240/10/3 241/10/3
f 244/3/3 232/3/3 242/3/3
f 245/10/3 244/10/3 243/10/3
f 246/3/3 232/3/3 244/3/3
f 246/10/3 244/10/3 245/10/3
f 247/3/3 232/3/3 246/3/3
f 248/3/3 232/3/3 247/3/3
f 249/3/3 234/3/3 233/3/3
f 250/3/3 234/3/3 249/3/3
f 251/3/3 236/3/3 235/3/3
f 252/3/3 236/3/3 251/3/3
f 253/3/3 238/3/3 237/3/3
f 254/3/3 238/3/3 253/3/3
f 259/4/3 256/4/3 255/4/3
f 260/4/3 256/4/3 259/4/3
f 261/3/3 258/3/3 257/3/3
f 262/3/3 258/3/3 261/3/3
f 265/3/3 264/3/3 263/3/3
f 267/3/3 265/3/3 263/3/3
f 267/3/3 266/3/3 265/3/3
f 268/3/3 266/3/3 267/3/3
f 271/3/3 270/3/3 269/3/3
f 272/3/3 270/3/3 271/3/3
f 273/3/3 270/3/3 272/3/3
f 274/3/3 270/3/3 273/3/3
f 275/3/3 270/3/3 274/3/3
f 276/3/3 270/3/3 275/3/3
f 279/3/3 278/3/3 277/3/3
f 280/3/3 278/3/3 279/3/3
f 281/3/3 278/3/3 280/3/3
f 282/3/3 278/3/3 281/3/3
f 283/3/3 278/3/3 282/3/3
f 284/3/3 278/3/3 283/3/3
f 287/10/3 286/10/3 285/10/3
f 288/10/3 286/10/3 287/10/3
f 291/10/3 290/10/3 289/10/3
f 292/10/3 290/10/3 291/10/3
f 295/4/3 294/4/3 293/4/3
f 296/4/3 294/4/3 295/4/3
f 299/4/3 298/4/3 297/4/3
f 300/4/3 298/4/3 299/4/3
f 302/4/3 298/4/3 300/4/3
f 303/4/3 302/4/3 301/4/3
f 304/4/3 298/4/3 302/4/3
f 304/4/3 302/4/3 303/4/3
f 307/3/3 306/3/3 305/3/3
f 308/3/3 306/3/3 307/3/3
f 311/4/3 310/4/3 309/4/3
f 312/4/3 310/4/3 311/4/3
f 315/3/3 314/3/3 313/3/3
f 316/3/3 314/3/3 315/3/3
f 317/3/3 315/3/3 313/3/3
f 318/3/3 314/3/3 316/3/3
f 319/3/3 317/3/3 313/3/3
f 319/3/3 318/3/3 317/3/3
f 320/3/3 314/3/3 318/3/3
f 320/3/3 318/3/3 319/3/3
f 323/4/3 322/4/3 321/4/3
f 324/4/3 322/4/3 323/4/3
f 327/3/3 326/3/3 325/3/3
f 328/3/3 326/3/3 327/3/3
f 335/10/4 336/10/4 337/10/4
f 337/10/4 336/10/4 338/10/4
f 339/10/4 340/10/4 341/10/4
f 341/10/4 340/10/4 342/10/4
f 329/3/4 330/3/4 343/3/4
f 343/3/4 330/3/4 344/3/4
f 331/3/4 332/3/4 345/3/4
f 345/3/4 332/3/4 346/3/4
f 333/3/4 334/3/4 347/3/4
f 347/3/4 334/3/4 348/3/4
f 349/3/4 350/3/4 351/3/4
f 351/3/4 350/3/4 352/3/4
f 352/3/4 350/3/4 353/3/4
f 353/3/4 350/3/4 354/3/4
f 354/3/4 350/3/4 355/3/4
f 355/3/4 350/3/4 356/3/4
f 357/3/4 358/3/4 359/3/4
f 357/3/4 359/3/4 361/3/4
f 359/3/4 360/3/4 361/3/4
f 361/3/4 360/3/4 362/3/4
f 363/3/4 364/3/4 365/3/4
f 365/3/4 364/3/4 366/3/4
f 366/3/4 364/3/4 367/3/4
f 367/3/4 364/3/4 368/3/4
f 368/3/4 364/3/4 369/3/4
f 369/3/4 364/3/4 370/3/4
f 371/3/4 372/3/4 373/3/4
f 373/3/4 372/3/4 374/3/4
f 375/10/4 376/10/4 377/10/4
f 377/10/4 376/10/4 378/10/4
f 379/10/4 380/10/4 381/10/4
f 381/10/4 380/10/4 382/10/4
f 383/3/4 384/3/4 385/3/4
f 385/3/4 384/3/4 386/3/4
f 387/4/4 388/4/4 389/4/4
f 389/4/4 388/4/4 390/4/4
f 391/4/4 392/4/4 393/4/4
f 393/4/4 392/4/4 394/4/4
f 395/3/4 396/3/4 397/3/4
f 397/3/4 396/3/4 398/3/4
f 399/4/4 400/4/4 401/4/4
f 401/4/4 400/4/4 402/4/4
f 403/3/4 404/3/4 405/3/4
f 405/3/4 404/3/4 406/3/4
f 403/3/4 405/3/4 407/3/4
f 406/3/4 404/3/4 408/3/4
f 403/3/4 407/3/4 409/3/4
f 407/3/4 408/3/4 409/3/4
f 408/3/4 404/3/4 410/3/4
f 409/3/4 408/3/4 410/3/4
f 411/4/4 412/4/4 413/4/4
f 413/4/4 412/4/4 414/4/4
f 415/3/4 416/3/4 417/3/4
f 417/3/4 416/3/4 418/3/4
f 419/4/4 420/4/4 421/4/4
f 421/4/4 420/4/4 422/4/4
f 422/4/4 420/4/4 424/4/4
f 423/4/4 424/4/4 425/4/4
f 424/4/4 420/4/4 426/4/4
f 425/4/4 424/4/4 426/4/4
f 427/4/4 428/4/4 429/4/4
f 429/4/4 428/4/4 430/4/4
f 431/5/4 432/5/4 434/5/4
f 432/4/4 433/4/4 435/4/4
f 434/5/4 432/5/4 435/5/4
f 435/4/4 433/4/4 436/4/4
f 434/8/4 435/8/4 437/8/4
f 435/8/4 436/8/4 437/8/4
f 436/4/4 433/4/4 438/4/4
f 437/8/4 436/8/4 438/8/4
f 438/4/4 433/4/4 439/4/4
f 442/8/5 441/8/5 440/8/5
f 443/8/5 441/8/5 442/8/5
f 444/8/5 441/8/5 443/8/5
f 445/8/5 441/8/5 444/8/5
f 446/5/5 443/5/5 442/5/5
f 446/8/5 444/8/5 443/8/5
f 447/2/5 445/2/5 444/2/5
f 447/8/5 444/8/5 446/8/5
f 448/8/5 441/8/5 445/8/5
f 448/2/5 445/2/5 447/2/5
f 449/5/5 447/5/5 446/5/5
f 449/5/5 446/5/5 442/5/5
f 449/5/5 448/5/5 447/5/5
f 450/8/5 441/8/5 448/8/5
f 450/5/5 448/5/5 449/5/5
f 451/8/5 441/8/5 450/8/5
f 456/10/5 453/10/5 452/10/5
f 457/10/5 453/10/5 456/10/5
f 458/10/5 455/10/5 454/10/5
f 459/10/5 455/10/5 458/10/5
f 466/3/5 461/3/5 460/3/5
f 467/3/5 461/3/5 466/3/5
f 468/3/5 463/3/5 462/3/5
f 469/3/5 463/3/5 468/3/5
f 470/3/5 465/3/5 464/3/5
f 471/3/5 465/3/5 470/3/5
f 478/3/5 473/3/5 472/3/5
f 479/3/5 473/3/5 478/3/5
f 480/3/5 475/3/5 474/3/5
f 481/3/5 475/3/5 480/3/5
f 482/3/5 477/3/5 476/3/5
f 483/3/5 477/3/5 482/3/5
f 490/3/5 485/3/5 484/3/5
f 491/3/5 487/3/5 486/3/5
f 492/3/5 487/3/5 491/3/5
f 493/3/5 489/3/5 488/3/5
f 494/3/5 492/3/5 491/3/5
f 494/3/5 493/3/5 492/3/5
f 494/3/5 490/3/5 484/3/5
f 494/3/5 491/3/5 490/3/5
f 495/3/5 489/3/5 493/3/5
f 495/3/5 493/3/5 494/3/5
f 498/3/5 497/3/5 496/3/5
f 499/3/5 497/3/5 498/3/5
f 502/3/5 501/3/5 500/3/5
f 503/3/5 501/3/5 502/3/5
f 506/3/5 505/3/5 504/3/5
f 507/3/5 505/3/5 506/3/5
f 510/3/5 509/3/5 508/3/5
f 511/3/5 509/3/5 510/3/5
f 514/3/5 513/3/5 512/3/5
f 515/3/5 513/3/5 514/3/5
f 518/3/5 517/3/5 516/3/5
f 519/3/5 517/3/5 518/3/5
f 522/4/5 521/4/5 520/4/5
f 523/4/5 521/4/5 522/4/5
f 524/4/5 521/4/5 523/4/5
f 525/4/5 521/4/5 524/4/5
f 526/4/5 524/4/5 523/4/5
f 527/4/5 521/4/5 525/4/5
f 528/4/5 522/4/5 520/4/5
f 529/4/5 527/4/5 526/4/5
f 529/4/5 526/4/5 523/4/5
f 530/4/5 528/4/5 520/4/5
f 530/4/5 529/4/5 528/4/5
f 531/4/5 527/4/5 529/4/5
f 531/4/5 529/4/5 530/4/5
f 531/4/5 521/4/5 527/4/5
f 534/4/5 533/4/5 532/4/5
f 535/4/5 533/4/5 534/4/5
f 536/4/5 534/4/5 532/4/5
f 537/4/5 533/4/5 535/4/5
f 538/4/5 536/4/5 532/4/5
f 538/4/5 537/4/5 536/4/5
f 539/4/5 533/4/5 537/4/5
f 539/4/5 537/4/5 538/4/5
f 542/4/5 541/4/5 540/4/5
f 543/4/5 541/4/5 542/4/5
f 544/4/5 542/4/5 540/4/5
f 545/4/5 541/4/5 543/4/5
f 546/4/5 544/4/5 540/4/5
f 546/4/5 545/4/5 544/4/5
f 547/4/5 541/4/5 545/4/5
f 547/4/5 545/4/5 546/4/5
f 552/4/5 549/4/5 548/4/5
f 553/4/5 551/4/5 550/4/5
f 554/4/5 553/4/5 552/4/5
f 555/4/5 551/4/5 553/4/5
f 555/4/5 553/4/5 554/4/5
f 556/4/5 554/4/5 552/4/5
f 557/4/5 551/4/5 555/4/5
f 558/4/5 556/4/5 552/4/5
f 558/4/5 557/4/5 556/4/5
f 559/4/5 551/4/5 557/4/5
f 559/4/5 557/4/5 558/4/5
f 560/4/5 552/4/5 548/4/5
f 560/4/5 558/4/5 552/4/5
f 561/4/5 558/4/5 560/4/5
f 562/4/5 551/4/5 559/4/5
f 563/4/5 551/4/5 562/4/5
f 566/4/5 565/4/5 564/4/5
f 567/4/5 565/4/5 566/4/5
f 568/4/6 569/4/6 570/4/6
f 570/4/6 569/4/6 571/4/6
f 571/4/6 569/4/6 572/4/6
f 572/4/6 569/4/6 573/4/6
f 568/4/6 570/4/6 574/4/6
f 574/4/6 570/4/6 575/4/6
f 568/4/6 574/4/6 576/4/6
f 575/4/6 570/4/6 577/4/6
f 577/4/6 570/4/6 578/4/6
f 576/4/6 577/4/6 578/4/6
f 571/4/6 572/4/6 579/4/6
f 579/4/6 572/4/6 580/4/6
f 573/4/6 569/4/6 581/4/6
f 579/4/6 580/4/6 582/4/6
f 580/4/6 581/4/6 582/4/6
f 576/4/6 578/4/6 582/4/6
f 568/4/6 576/4/6 582/4/6
f 578/4/6 579/4/6 582/4/6
f 582/4/6 581/4/6 583/4/6
f 568/4/6 582/4/6 584/4/6
f 583/4/6 581/4/6 585/4/6
f 568/4/6 584/4/6 586/4/6
f 584/4/6 585/4/6 586/4/6
f 581/4/6 569/4/6 587/4/6
f 586/4/6 585/4/6 587/4/6
f 585/4/6 581/4/6 587/4/6
f 588/10/6 589/10/6 592/10/6
f 592/10/6 589/10/6 593/10/6
f 590/10/6 591/10/6 594/10/6
f 594/10/6 591/10/6 595/10/6
f 596/10/6 597/10/6 600/10/6
f 600/10/6 597/10/6 601/10/6
f 598/10/6 599/10/6 602/10/6
f 602/10/6 599/10/6 603/10/6
f 604/10/6 605/10/6 608/10/6
f 608/10/6 605/10/6 609/10/6
f 606/10/6 607/10/6 610/10/6
f 610/10/6 607/10/6 611/10/6
f 612/3/6 613/3/6 614/3/6
f 614/3/6 613/3/6 615/3/6
f 616/3/6 617/3/6 618/3/6
f 618/3/6 617/3/6 619/3/6
f 620/3/6 621/3/6 622/3/6
f 622/3/6 621/3/6 623/3/6
f 624/3/6 625/3/6 626/3/6
f 626/3/6 625/3/6 627/3/6
f 628/3/6 629/3/6 630/3/6
f 630/3/6 629/3/6 631/3/6
f 632/3/6 633/3/6 634/3/6
f 634/3/6 633/3/6 635/3/6
f 636/3/6 637/3/6 638/3/6
f 638/3/6 637/3/6 639/3/6
f 640/3/6 641/3/6 642/3/6
f 642/3/6 641/3/6 643/3/6
f 644/3/6 645/3/6 646/3/6
f 646/3/6 645/3/6 647/3/6
f 648/4/6 649/4/6 650/4/6
f 650/4/6 649/4/6 651/4/6
f 652/4/6 653/4/6 654/4/6
f 654/4/6 653/4/6 655/4/6
f 656/4/6 657/4/6 658/4/6
f 658/4/6 657/4/6 659/4/6
f 656/4/6 658/4/6 660/4/6
f 659/4/6 657/4/6 661/4/6
f 656/4/6 660/4/6 662/4/6
f 660/4/6 661/4/6 662/4/6
f 661/4/6 657/4/6 663/4/6
f 662/4/6 661/4/6 663/4/6
f 664/4/6 665/4/6 666/4/6
f 666/4/6 665/4/6 667/4/6
f 668/4/6 669/4/6 670/4/6
f 670/4/6 669/4/6 671/4/6
f 672/4/6 673/4/6 674/4/6
f 674/4/6 673/4/6 675/4/6
