# MagicaVoxel @ Ephtracy

# material
mtllib coche.mtl
usemtl palette

# normals
vn -1 0 0
vn 1 0 0
vn 0 0 1
vn 0 0 -1
vn 0 -1 0
vn 0 1 0

# texcoords
vt 0.0566406 0.5
vt 0.0605469 0.5
vt 0.185547 0.5
vt 0.951172 0.5

# verts
v -5 0 5
v -5 0 2
v -5 0 -2
v -5 0 -5
v -5 1 4
v -5 1 3
v -5 1 -3
v -5 1 -4
v -5 2 4
v -5 2 3
v -5 2 -3
v -5 2 -4
v -5 3 5
v -5 3 2
v -5 3 -2
v -5 3 -5
v -4 1 7
v -4 1 5
v -4 1 4
v -4 1 3
v -4 1 2
v -4 1 -2
v -4 1 -3
v -4 1 -4
v -4 1 -5
v -4 1 -7
v -4 2 7
v -4 2 6
v -4 2 4
v -4 2 3
v -4 2 -3
v -4 2 -4
v -4 2 -6
v -4 2 -7
v -4 3 7
v -4 3 6
v -4 3 5
v -4 3 2
v -4 3 -2
v -4 3 -5
v -4 3 -6
v -4 3 -7
v -4 4 6
v -4 4 4
v -4 4 3
v -4 4 -0
v -4 4 -1
v -4 4 -5
v -4 4 -6
v -4 4 -7
v -4 6 4
v -4 6 3
v -4 6 -0
v -4 6 -1
v -4 6 -5
v -4 6 -6
v -4 7 3
v -4 7 -5
v -3 3 7
v -3 3 6
v -3 4 7
v -3 4 6
v -3 6 4
v -3 6 3
v -3 6 -5
v -3 6 -6
v -3 7 4
v -3 7 3
v -3 7 -5
v -3 7 -6
v -3 8 3
v -3 8 -5
v 4 0 5
v 4 0 2
v 4 0 -2
v 4 0 -5
v 4 1 5
v 4 1 2
v 4 1 -2
v 4 1 -5
v -4 0 5
v -4 0 2
v -4 0 -2
v -4 0 -5
v -4 1 5
v -4 1 2
v -4 1 -2
v -4 1 -5
v 3 3 7
v 3 3 6
v 3 4 7
v 3 4 6
v 3 6 4
v 3 6 3
v 3 6 -5
v 3 6 -6
v 3 7 4
v 3 7 3
v 3 7 -5
v 3 7 -6
v 3 8 3
v 3 8 -5
v 4 1 7
v 4 1 5
v 4 1 4
v 4 1 3
v 4 1 2
v 4 1 -2
v 4 1 -3
v 4 1 -4
v 4 1 -5
v 4 1 -7
v 4 2 7
v 4 2 6
v 4 2 4
v 4 2 3
v 4 2 -3
v 4 2 -4
v 4 2 -6
v 4 2 -7
v 4 3 7
v 4 3 6
v 4 3 5
v 4 3 2
v 4 3 -2
v 4 3 -5
v 4 3 -6
v 4 3 -7
v 4 4 6
v 4 4 4
v 4 4 3
v 4 4 -0
v 4 4 -1
v 4 4 -5
v 4 4 -6
v 4 4 -7
v 4 6 4
v 4 6 3
v 4 6 -0
v 4 6 -1
v 4 6 -5
v 4 6 -6
v 4 7 3
v 4 7 -5
v 5 0 5
v 5 0 2
v 5 0 -2
v 5 0 -5
v 5 1 4
v 5 1 3
v 5 1 -3
v 5 1 -4
v 5 2 4
v 5 2 3
v 5 2 -3
v 5 2 -4
v 5 3 5
v 5 3 2
v 5 3 -2
v 5 3 -5
v -4 1 7
v -4 2 7
v -4 3 7
v -3 2 7
v -3 3 7
v -3 4 7
v -1 2 7
v -1 3 7
v 1 2 7
v 1 3 7
v 3 2 7
v 3 3 7
v 3 4 7
v 4 1 7
v 4 2 7
v 4 3 7
v -4 3 6
v -4 4 6
v -3 3 6
v -3 4 6
v 3 3 6
v 3 4 6
v 4 3 6
v 4 4 6
v -5 0 5
v -5 3 5
v -4 0 5
v -4 1 5
v -4 3 5
v 4 0 5
v 4 1 5
v 4 3 5
v 5 0 5
v 5 3 5
v -4 4 4
v -4 6 4
v -3 4 4
v -3 6 4
v -3 7 4
v 3 4 4
v 3 6 4
v 3 7 4
v 4 4 4
v 4 6 4
v -5 1 3
v -5 2 3
v -4 1 3
v -4 2 3
v -4 6 3
v -4 7 3
v -3 6 3
v -3 7 3
v -3 8 3
v 3 6 3
v 3 7 3
v 3 8 3
v 4 1 3
v 4 2 3
v 4 6 3
v 4 7 3
v 5 1 3
v 5 2 3
v -5 0 -2
v -5 3 -2
v -4 0 -2
v -4 1 -2
v -4 3 -2
v 4 0 -2
v 4 1 -2
v 4 3 -2
v 5 0 -2
v 5 3 -2
v -5 1 -4
v -5 2 -4
v -4 1 -4
v -4 2 -4
v 4 1 -4
v 4 2 -4
v 5 1 -4
v 5 2 -4
v -5 1 4
v -5 2 4
v -4 1 4
v -4 2 4
v 4 1 4
v 4 2 4
v 5 1 4
v 5 2 4
v -5 0 2
v -5 3 2
v -4 0 2
v -4 1 2
v -4 3 2
v 4 0 2
v 4 1 2
v 4 3 2
v 5 0 2
v 5 3 2
v -5 1 -3
v -5 2 -3
v -4 1 -3
v -4 2 -3
v 4 1 -3
v 4 2 -3
v 5 1 -3
v 5 2 -3
v -5 0 -5
v -5 3 -5
v -4 0 -5
v -4 1 -5
v -4 3 -5
v -4 6 -5
v -4 7 -5
v -3 6 -5
v -3 7 -5
v -3 8 -5
v 3 6 -5
v 3 7 -5
v 3 8 -5
v 4 0 -5
v 4 1 -5
v 4 3 -5
v 4 6 -5
v 4 7 -5
v 5 0 -5
v 5 3 -5
v -4 4 -6
v -4 6 -6
v -3 4 -6
v -3 6 -6
v -3 7 -6
v 3 4 -6
v 3 6 -6
v 3 7 -6
v 4 4 -6
v 4 6 -6
v -4 1 -7
v -4 2 -7
v -4 3 -7
v -4 4 -7
v -2 2 -7
v -2 3 -7
v 2 2 -7
v 2 3 -7
v 4 1 -7
v 4 2 -7
v 4 3 -7
v 4 4 -7
v -5 0 5
v -4 0 5
v 4 0 5
v 5 0 5
v -5 0 2
v -4 0 2
v 4 0 2
v 5 0 2
v -5 0 -2
v -4 0 -2
v 4 0 -2
v 5 0 -2
v -5 0 -5
v -4 0 -5
v 4 0 -5
v 5 0 -5
v -4 1 7
v 4 1 7
v -4 1 5
v 4 1 5
v -4 1 2
v 4 1 2
v -4 1 -2
v 4 1 -2
v -4 1 -5
v 4 1 -5
v -4 1 -7
v 4 1 -7
v -5 2 4
v -4 2 4
v 4 2 4
v 5 2 4
v -5 2 3
v -4 2 3
v 4 2 3
v 5 2 3
v -5 2 -3
v -4 2 -3
v 4 2 -3
v 5 2 -3
v -5 2 -4
v -4 2 -4
v 4 2 -4
v 5 2 -4
v -5 1 4
v -4 1 4
v 4 1 4
v 5 1 4
v -5 1 3
v -4 1 3
v 4 1 3
v 5 1 3
v -5 1 -3
v -4 1 -3
v 4 1 -3
v 5 1 -3
v -5 1 -4
v -4 1 -4
v 4 1 -4
v 5 1 -4
v -4 3 7
v -3 3 7
v 3 3 7
v 4 3 7
v -4 3 6
v -3 3 6
v 3 3 6
v 4 3 6
v -5 3 5
v -4 3 5
v 4 3 5
v 5 3 5
v -5 3 2
v -4 3 2
v 4 3 2
v 5 3 2
v -5 3 -2
v -4 3 -2
v 4 3 -2
v 5 3 -2
v -5 3 -5
v -4 3 -5
v 4 3 -5
v 5 3 -5
v -3 4 7
v 3 4 7
v -4 4 6
v -3 4 6
v 3 4 6
v 4 4 6
v -4 4 4
v -3 4 4
v 3 4 4
v 4 4 4
v -4 4 -6
v -3 4 -6
v 3 4 -6
v 4 4 -6
v -4 4 -7
v 4 4 -7
v -4 6 4
v -3 6 4
v 3 6 4
v 4 6 4
v -4 6 3
v -3 6 3
v 3 6 3
v 4 6 3
v -4 6 -5
v -3 6 -5
v 3 6 -5
v 4 6 -5
v -4 6 -6
v -3 6 -6
v 3 6 -6
v 4 6 -6
v -3 7 4
v 3 7 4
v -4 7 3
v -3 7 3
v 3 7 3
v 4 7 3
v -4 7 -5
v -3 7 -5
v 3 7 -5
v 4 7 -5
v -3 7 -6
v 3 7 -6
v -3 8 3
v 3 8 3
v -3 8 -5
v 3 8 -5

# faces
f 5/1/1 2/1/1 1/1/1
f 6/1/1 2/1/1 5/1/1
f 7/1/1 4/1/1 3/1/1
f 8/1/1 4/1/1 7/1/1
f 9/1/1 5/1/1 1/1/1
f 10/1/1 2/1/1 6/1/1
f 11/1/1 7/1/1 3/1/1
f 12/1/1 4/1/1 8/1/1
f 13/1/1 9/1/1 1/1/1
f 13/1/1 10/1/1 9/1/1
f 14/1/1 2/1/1 10/1/1
f 14/1/1 10/1/1 13/1/1
f 15/1/1 12/1/1 11/1/1
f 15/1/1 11/1/1 3/1/1
f 16/1/1 4/1/1 12/1/1
f 16/1/1 12/1/1 15/1/1
f 27/4/1 18/4/1 17/4/1
f 28/4/1 18/4/1 27/4/1
f 29/4/1 20/4/1 19/4/1
f 30/4/1 20/4/1 29/4/1
f 31/4/1 24/4/1 23/4/1
f 32/4/1 24/4/1 31/4/1
f 33/4/1 26/4/1 25/4/1
f 34/4/1 26/4/1 33/4/1
f 35/3/1 28/3/1 27/3/1
f 36/4/1 18/4/1 28/4/1
f 36/3/1 28/3/1 35/3/1
f 37/4/1 18/4/1 36/4/1
f 38/4/1 22/4/1 21/4/1
f 39/4/1 22/4/1 38/4/1
f 40/4/1 33/4/1 25/4/1
f 41/3/1 34/3/1 33/3/1
f 41/4/1 33/4/1 40/4/1
f 42/3/1 34/3/1 41/3/1
f 43/4/1 37/4/1 36/4/1
f 43/4/1 40/4/1 39/4/1
f 43/4/1 42/4/1 41/4/1
f 43/4/1 41/4/1 40/4/1
f 43/4/1 39/4/1 38/4/1
f 43/4/1 38/4/1 37/4/1
f 44/4/1 42/4/1 43/4/1
f 45/4/1 42/4/1 44/4/1
f 46/4/1 42/4/1 45/4/1
f 47/4/1 42/4/1 46/4/1
f 48/4/1 42/4/1 47/4/1
f 49/4/1 42/4/1 48/4/1
f 50/4/1 42/4/1 49/4/1
f 51/4/1 45/4/1 44/4/1
f 52/3/1 46/3/1 45/3/1
f 52/4/1 45/4/1 51/4/1
f 53/4/1 47/4/1 46/4/1
f 53/3/1 46/3/1 52/3/1
f 54/3/1 48/3/1 47/3/1
f 54/4/1 47/4/1 53/4/1
f 55/4/1 49/4/1 48/4/1
f 55/3/1 48/3/1 54/3/1
f 56/4/1 49/4/1 55/4/1
f 57/4/1 54/4/1 53/4/1
f 57/4/1 55/4/1 54/4/1
f 57/4/1 53/4/1 52/4/1
f 58/4/1 55/4/1 57/4/1
f 61/4/1 60/4/1 59/4/1
f 62/4/1 60/4/1 61/4/1
f 67/4/1 64/4/1 63/4/1
f 68/4/1 64/4/1 67/4/1
f 69/4/1 66/4/1 65/4/1
f 70/4/1 66/4/1 69/4/1
f 71/4/1 69/4/1 68/4/1
f 72/4/1 69/4/1 71/4/1
f 77/2/1 74/2/1 73/2/1
f 78/2/1 74/2/1 77/2/1
f 79/2/1 76/2/1 75/2/1
f 80/2/1 76/2/1 79/2/1
f 81/1/2 82/1/2 85/1/2
f 85/1/2 82/1/2 86/1/2
f 83/1/2 84/1/2 87/1/2
f 87/1/2 84/1/2 88/1/2
f 89/4/2 90/4/2 91/4/2
f 91/4/2 90/4/2 92/4/2
f 93/4/2 94/4/2 97/4/2
f 97/4/2 94/4/2 98/4/2
f 95/4/2 96/4/2 99/4/2
f 99/4/2 96/4/2 100/4/2
f 98/4/2 99/4/2 101/4/2
f 101/4/2 99/4/2 102/4/2
f 103/4/2 104/4/2 113/4/2
f 113/4/2 104/4/2 114/4/2
f 105/4/2 106/4/2 115/4/2
f 115/4/2 106/4/2 116/4/2
f 109/4/2 110/4/2 117/4/2
f 117/4/2 110/4/2 118/4/2
f 111/4/2 112/4/2 119/4/2
f 119/4/2 112/4/2 120/4/2
f 113/3/2 114/3/2 121/3/2
f 114/4/2 104/4/2 122/4/2
f 121/3/2 114/3/2 122/3/2
f 122/4/2 104/4/2 123/4/2
f 107/4/2 108/4/2 124/4/2
f 124/4/2 108/4/2 125/4/2
f 111/4/2 119/4/2 126/4/2
f 119/3/2 120/3/2 127/3/2
f 126/4/2 119/4/2 127/4/2
f 127/3/2 120/3/2 128/3/2
f 122/4/2 123/4/2 129/4/2
f 125/4/2 126/4/2 129/4/2
f 127/4/2 128/4/2 129/4/2
f 126/4/2 127/4/2 129/4/2
f 124/4/2 125/4/2 129/4/2
f 123/4/2 124/4/2 129/4/2
f 129/4/2 128/4/2 130/4/2
f 130/4/2 128/4/2 131/4/2
f 131/4/2 128/4/2 132/4/2
f 132/4/2 128/4/2 133/4/2
f 133/4/2 128/4/2 134/4/2
f 134/4/2 128/4/2 135/4/2
f 135/4/2 128/4/2 136/4/2
f 130/4/2 131/4/2 137/4/2
f 131/3/2 132/3/2 138/3/2
f 137/4/2 131/4/2 138/4/2
f 132/4/2 133/4/2 139/4/2
f 138/3/2 132/3/2 139/3/2
f 133/3/2 134/3/2 140/3/2
f 139/4/2 133/4/2 140/4/2
f 134/4/2 135/4/2 141/4/2
f 140/3/2 134/3/2 141/3/2
f 141/4/2 135/4/2 142/4/2
f 139/4/2 140/4/2 143/4/2
f 140/4/2 141/4/2 143/4/2
f 138/4/2 139/4/2 143/4/2
f 143/4/2 141/4/2 144/4/2
f 145/2/2 146/2/2 149/2/2
f 149/2/2 146/2/2 150/2/2
f 147/2/2 148/2/2 151/2/2
f 151/2/2 148/2/2 152/2/2
f 145/2/2 149/2/2 153/2/2
f 150/2/2 146/2/2 154/2/2
f 147/2/2 151/2/2 155/2/2
f 152/2/2 148/2/2 156/2/2
f 145/2/2 153/2/2 157/2/2
f 153/2/2 154/2/2 157/2/2
f 154/2/2 146/2/2 158/2/2
f 157/2/2 154/2/2 158/2/2
f 155/2/2 156/2/2 159/2/2
f 147/2/2 155/2/2 159/2/2
f 156/2/2 148/2/2 160/2/2
f 159/2/2 156/2/2 160/2/2
f 164/4/3 162/4/3 161/4/3
f 164/3/3 163/3/3 162/3/3
f 165/3/3 163/3/3 164/3/3
f 167/4/3 164/4/3 161/4/3
f 167/4/3 166/4/3 165/4/3
f 167/4/3 165/4/3 164/4/3
f 168/4/3 166/4/3 167/4/3
f 169/4/3 167/4/3 161/4/3
f 169/2/3 168/2/3 167/2/3
f 170/4/3 166/4/3 168/4/3
f 170/2/3 168/2/3 169/2/3
f 171/4/3 169/4/3 161/4/3
f 171/4/3 170/4/3 169/4/3
f 172/4/3 166/4/3 170/4/3
f 172/4/3 170/4/3 171/4/3
f 173/4/3 166/4/3 172/4/3
f 174/4/3 171/4/3 161/4/3
f 175/3/3 172/3/3 171/3/3
f 175/4/3 171/4/3 174/4/3
f 176/3/3 172/3/3 175/3/3
f 179/4/3 178/4/3 177/4/3
f 180/4/3 178/4/3 179/4/3
f 183/4/3 182/4/3 181/4/3
f 184/4/3 182/4/3 183/4/3
f 187/1/3 186/1/3 185/1/3
f 188/1/3 186/1/3 187/1/3
f 189/1/3 186/1/3 188/1/3
f 193/2/3 191/2/3 190/2/3
f 193/2/3 192/2/3 191/2/3
f 194/2/3 192/2/3 193/2/3
f 197/4/3 196/4/3 195/4/3
f 198/4/3 196/4/3 197/4/3
f 200/3/3 198/3/3 197/3/3
f 201/4/3 199/4/3 198/4/3
f 201/3/3 198/3/3 200/3/3
f 202/4/3 199/4/3 201/4/3
f 203/4/3 201/4/3 200/4/3
f 204/4/3 201/4/3 203/4/3
f 207/1/3 206/1/3 205/1/3
f 208/1/3 206/1/3 207/1/3
f 211/4/3 210/4/3 209/4/3
f 212/4/3 210/4/3 211/4/3
f 215/4/3 213/4/3 212/4/3
f 216/4/3 213/4/3 215/4/3
f 219/4/3 215/4/3 214/4/3
f 220/4/3 215/4/3 219/4/3
f 221/2/3 218/2/3 217/2/3
f 222/2/3 218/2/3 221/2/3
f 225/1/3 224/1/3 223/1/3
f 226/1/3 224/1/3 225/1/3
f 227/1/3 224/1/3 226/1/3
f 231/2/3 229/2/3 228/2/3
f 231/2/3 230/2/3 229/2/3
f 232/2/3 230/2/3 231/2/3
f 235/1/3 234/1/3 233/1/3
f 236/1/3 234/1/3 235/1/3
f 239/2/3 238/2/3 237/2/3
f 240/2/3 238/2/3 239/2/3
f 241/1/4 242/1/4 243/1/4
f 243/1/4 242/1/4 244/1/4
f 245/2/4 246/2/4 247/2/4
f 247/2/4 246/2/4 248/2/4
f 249/1/4 250/1/4 251/1/4
f 251/1/4 250/1/4 252/1/4
f 252/1/4 250/1/4 253/1/4
f 254/2/4 255/2/4 257/2/4
f 255/2/4 256/2/4 257/2/4
f 257/2/4 256/2/4 258/2/4
f 259/1/4 260/1/4 261/1/4
f 261/1/4 260/1/4 262/1/4
f 263/2/4 264/2/4 265/2/4
f 265/2/4 264/2/4 266/2/4
f 267/1/4 268/1/4 269/1/4
f 269/1/4 268/1/4 270/1/4
f 270/1/4 268/1/4 271/1/4
f 272/4/4 273/4/4 274/4/4
f 274/4/4 273/4/4 275/4/4
f 275/4/4 276/4/4 278/4/4
f 278/4/4 276/4/4 279/4/4
f 277/4/4 278/4/4 283/4/4
f 283/4/4 278/4/4 284/4/4
f 281/2/4 282/2/4 285/2/4
f 280/2/4 281/2/4 285/2/4
f 285/2/4 282/2/4 286/2/4
f 287/4/4 288/4/4 289/4/4
f 289/4/4 288/4/4 290/4/4
f 289/3/4 290/3/4 292/3/4
f 290/4/4 291/4/4 293/4/4
f 292/3/4 290/3/4 293/3/4
f 293/4/4 291/4/4 294/4/4
f 292/4/4 293/4/4 295/4/4
f 295/4/4 293/4/4 296/4/4
f 297/4/4 298/4/4 301/4/4
f 298/3/4 299/3/4 301/3/4
f 299/4/4 300/4/4 302/4/4
f 301/3/4 299/3/4 302/3/4
f 297/4/4 301/4/4 303/4/4
f 301/4/4 302/4/4 303/4/4
f 302/4/4 300/4/4 304/4/4
f 303/4/4 302/4/4 304/4/4
f 297/4/4 303/4/4 305/4/4
f 303/3/4 304/3/4 306/3/4
f 305/4/4 303/4/4 306/4/4
f 304/4/4 300/4/4 307/4/4
f 306/3/4 304/3/4 307/3/4
f 307/4/4 300/4/4 308/4/4
f 313/1/5 310/1/5 309/1/5
f 314/1/5 310/1/5 313/1/5
f 315/2/5 312/2/5 311/2/5
f 316/2/5 312/2/5 315/2/5
f 321/1/5 318/1/5 317/1/5
f 322/1/5 318/1/5 321/1/5
f 323/2/5 320/2/5 319/2/5
f 324/2/5 320/2/5 323/2/5
f 327/4/5 326/4/5 325/4/5
f 328/4/5 326/4/5 327/4/5
f 329/4/5 328/4/5 327/4/5
f 330/4/5 328/4/5 329/4/5
f 331/4/5 330/4/5 329/4/5
f 332/4/5 330/4/5 331/4/5
f 333/4/5 332/4/5 331/4/5
f 334/4/5 332/4/5 333/4/5
f 335/4/5 334/4/5 333/4/5
f 336/4/5 334/4/5 335/4/5
f 341/1/5 338/1/5 337/1/5
f 342/1/5 338/1/5 341/1/5
f 343/2/5 340/2/5 339/2/5
f 344/2/5 340/2/5 343/2/5
f 349/1/5 346/1/5 345/1/5
f 350/1/5 346/1/5 349/1/5
f 351/2/5 348/2/5 347/2/5
f 352/2/5 348/2/5 351/2/5
f 353/1/6 354/1/6 357/1/6
f 357/1/6 354/1/6 358/1/6
f 355/2/6 356/2/6 359/2/6
f 359/2/6 356/2/6 360/2/6
f 361/1/6 362/1/6 365/1/6
f 365/1/6 362/1/6 366/1/6
f 363/2/6 364/2/6 367/2/6
f 367/2/6 364/2/6 368/2/6
f 369/3/6 370/3/6 373/3/6
f 373/3/6 370/3/6 374/3/6
f 371/3/6 372/3/6 375/3/6
f 375/3/6 372/3/6 376/3/6
f 377/1/6 378/1/6 381/1/6
f 381/1/6 378/1/6 382/1/6
f 379/2/6 380/2/6 383/2/6
f 383/2/6 380/2/6 384/2/6
f 385/1/6 386/1/6 389/1/6
f 389/1/6 386/1/6 390/1/6
f 387/2/6 388/2/6 391/2/6
f 391/2/6 388/2/6 392/2/6
f 393/4/6 394/4/6 396/4/6
f 396/4/6 394/4/6 397/4/6
f 395/4/6 396/4/6 399/4/6
f 397/4/6 398/4/6 399/4/6
f 396/4/6 397/4/6 399/4/6
f 399/4/6 398/4/6 400/4/6
f 400/4/6 398/4/6 401/4/6
f 401/4/6 398/4/6 402/4/6
f 403/4/6 404/4/6 407/4/6
f 405/4/6 406/4/6 407/4/6
f 404/4/6 405/4/6 407/4/6
f 407/4/6 406/4/6 408/4/6
f 409/4/6 410/4/6 413/4/6
f 413/4/6 410/4/6 414/4/6
f 411/4/6 412/4/6 415/4/6
f 415/4/6 412/4/6 416/4/6
f 417/4/6 418/4/6 421/4/6
f 421/4/6 418/4/6 422/4/6
f 419/4/6 420/4/6 423/4/6
f 423/4/6 420/4/6 424/4/6
f 425/4/6 426/4/6 428/4/6
f 428/4/6 426/4/6 429/4/6
f 427/4/6 428/4/6 431/4/6
f 431/4/6 428/4/6 432/4/6
f 429/4/6 430/4/6 433/4/6
f 433/4/6 430/4/6 434/4/6
f 432/4/6 433/4/6 435/4/6
f 435/4/6 433/4/6 436/4/6
f 437/4/6 438/4/6 439/4/6
f 439/4/6 438/4/6 440/4/6
