# MagicaVoxel @ Ephtracy

# material
mtllib calletripBus30.mtl
usemtl palette

# normals
vn -1 0 0
vn 1 0 0
vn 0 0 1
vn 0 0 -1
vn 0 -1 0
vn 0 1 0

# texcoords
vt 0.00976562 0.5
vt 0.0253906 0.5
vt 0.0449219 0.5
vt 0.978516 0.5

# verts
v -15 0 15
v -15 0 -15
v -15 2 15
v -15 2 -15
v -7 1 15
v -7 1 -15
v -7 2 15
v -7 2 -15
v 15 0 15
v 15 0 -15
v 15 1 15
v 15 1 -15
v -15 0 15
v -15 2 15
v -7 0 15
v -7 1 15
v -7 2 15
v -6 0 15
v -6 1 15
v 7 0 15
v 7 1 15
v 9 0 15
v 9 1 15
v 15 0 15
v 15 1 15
v -15 0 -15
v -15 2 -15
v -7 0 -15
v -7 1 -15
v -7 2 -15
v -6 0 -15
v -6 1 -15
v 7 0 -15
v 7 1 -15
v 9 0 -15
v 9 1 -15
v 15 0 -15
v 15 1 -15
v -15 0 15
v -7 0 15
v -6 0 15
v 7 0 15
v 9 0 15
v 15 0 15
v -14 0 14
v -7 0 14
v -5 0 -9
v -3 0 -9
v -1 0 -9
v 0 0 -9
v 1 0 -9
v 2 0 -9
v 4 0 -9
v 6 0 -9
v -5 0 -10
v -3 0 -10
v -2 0 -10
v 3 0 -10
v 4 0 -10
v 5 0 -10
v -4 0 -11
v -3 0 -11
v -2 0 -11
v 3 0 -11
v 4 0 -11
v 5 0 -11
v -5 0 -12
v -4 0 -12
v -3 0 -12
v 3 0 -12
v 4 0 -12
v 5 0 -12
v -5 0 -13
v -4 0 -13
v -2 0 -13
v -1 0 -13
v 0 0 -13
v 1 0 -13
v 2 0 -13
v 3 0 -13
v 4 0 -13
v 5 0 -13
v -14 0 -14
v -7 0 -14
v -4 0 -14
v -2 0 -14
v 0 0 -14
v 1 0 -14
v 4 0 -14
v 6 0 -14
v -15 0 -15
v -7 0 -15
v -6 0 -15
v 7 0 -15
v 9 0 -15
v 15 0 -15
v -7 1 15
v -6 1 15
v 7 1 15
v 9 1 15
v 15 1 15
v -5 1 -9
v -3 1 -9
v -1 1 -9
v 0 1 -9
v 1 1 -9
v 2 1 -9
v 4 1 -9
v 6 1 -9
v -5 1 -10
v -3 1 -10
v -2 1 -10
v 3 1 -10
v 4 1 -10
v 5 1 -10
v -4 1 -11
v -3 1 -11
v -2 1 -11
v 3 1 -11
v 4 1 -11
v 5 1 -11
v -5 1 -12
v -4 1 -12
v -3 1 -12
v 3 1 -12
v 4 1 -12
v 5 1 -12
v -5 1 -13
v -4 1 -13
v -2 1 -13
v -1 1 -13
v 0 1 -13
v 1 1 -13
v 2 1 -13
v 3 1 -13
v 4 1 -13
v 5 1 -13
v -4 1 -14
v -2 1 -14
v 0 1 -14
v 1 1 -14
v 4 1 -14
v 6 1 -14
v -7 1 -15
v -6 1 -15
v 7 1 -15
v 9 1 -15
v 15 1 -15
v -15 2 15
v -7 2 15
v -15 2 -15
v -7 2 -15

# faces
f 3/2/1 2/2/1 1/2/1
f 4/2/1 2/2/1 3/2/1
f 5/2/2 6/2/2 7/2/2
f 7/2/2 6/2/2 8/2/2
f 9/3/2 10/3/2 11/3/2
f 11/3/2 10/3/2 12/3/2
f 15/2/3 14/2/3 13/2/3
f 16/2/3 14/2/3 15/2/3
f 17/2/3 14/2/3 16/2/3
f 18/1/3 16/1/3 15/1/3
f 19/1/3 16/1/3 18/1/3
f 20/3/3 19/3/3 18/3/3
f 21/3/3 19/3/3 20/3/3
f 22/1/3 21/1/3 20/1/3
f 23/1/3 21/1/3 22/1/3
f 24/3/3 23/3/3 22/3/3
f 25/3/3 23/3/3 24/3/3
f 26/2/4 27/2/4 28/2/4
f 28/2/4 27/2/4 29/2/4
f 29/2/4 27/2/4 30/2/4
f 28/1/4 29/1/4 31/1/4
f 31/1/4 29/1/4 32/1/4
f 31/3/4 32/3/4 33/3/4
f 33/3/4 32/3/4 34/3/4
f 33/1/4 34/1/4 35/1/4
f 35/1/4 34/1/4 36/1/4
f 35/3/4 36/3/4 37/3/4
f 37/3/4 36/3/4 38/3/4
f 45/2/5 40/2/5 39/2/5
f 46/1/5 41/1/5 40/1/5
f 46/2/5 40/2/5 45/2/5
f 47/3/5 42/3/5 41/3/5
f 48/3/5 42/3/5 47/3/5
f 49/3/5 42/3/5 48/3/5
f 50/3/5 42/3/5 49/3/5
f 51/3/5 42/3/5 50/3/5
f 52/3/5 42/3/5 51/3/5
f 53/3/5 42/3/5 52/3/5
f 54/3/5 42/3/5 53/3/5
f 55/3/5 47/3/5 41/3/5
f 55/1/5 48/1/5 47/1/5
f 56/3/5 49/3/5 48/3/5
f 56/1/5 48/1/5 55/1/5
f 57/3/5 49/3/5 56/3/5
f 58/3/5 53/3/5 52/3/5
f 59/1/5 54/1/5 53/1/5
f 59/3/5 53/3/5 58/3/5
f 60/1/5 54/1/5 59/1/5
f 61/3/5 56/3/5 55/3/5
f 62/1/5 57/1/5 56/1/5
f 62/3/5 56/3/5 61/3/5
f 63/3/5 49/3/5 57/3/5
f 63/1/5 57/1/5 62/1/5
f 64/3/5 58/3/5 52/3/5
f 64/1/5 59/1/5 58/1/5
f 65/3/5 60/3/5 59/3/5
f 65/1/5 59/1/5 64/1/5
f 66/1/5 54/1/5 60/1/5
f 66/3/5 60/3/5 65/3/5
f 67/3/5 55/3/5 41/3/5
f 67/3/5 61/3/5 55/3/5
f 68/1/5 62/1/5 61/1/5
f 68/3/5 61/3/5 67/3/5
f 69/3/5 63/3/5 62/3/5
f 69/1/5 62/1/5 68/1/5
f 70/3/5 65/3/5 64/3/5
f 70/3/5 64/3/5 52/3/5
f 71/1/5 66/1/5 65/1/5
f 71/3/5 65/3/5 70/3/5
f 72/1/5 54/1/5 66/1/5
f 72/1/5 66/1/5 71/1/5
f 73/3/5 67/3/5 41/3/5
f 73/1/5 68/1/5 67/1/5
f 74/3/5 69/3/5 68/3/5
f 74/1/5 68/1/5 73/1/5
f 75/3/5 49/3/5 63/3/5
f 75/3/5 69/3/5 74/3/5
f 75/3/5 63/3/5 69/3/5
f 76/1/5 50/1/5 49/1/5
f 76/3/5 49/3/5 75/3/5
f 77/3/5 51/3/5 50/3/5
f 77/1/5 50/1/5 76/1/5
f 78/1/5 52/1/5 51/1/5
f 78/3/5 51/3/5 77/3/5
f 79/3/5 70/3/5 52/3/5
f 79/1/5 52/1/5 78/1/5
f 80/1/5 71/1/5 70/1/5
f 80/3/5 70/3/5 79/3/5
f 81/3/5 72/3/5 71/3/5
f 81/1/5 71/1/5 80/1/5
f 82/1/5 54/1/5 72/1/5
f 82/3/5 72/3/5 81/3/5
f 83/2/5 45/2/5 39/2/5
f 83/4/5 46/4/5 45/4/5
f 84/1/5 41/1/5 46/1/5
f 84/4/5 46/4/5 83/4/5
f 85/3/5 74/3/5 73/3/5
f 85/1/5 75/1/5 74/1/5
f 86/3/5 76/3/5 75/3/5
f 86/1/5 75/1/5 85/1/5
f 86/3/5 77/3/5 76/3/5
f 87/1/5 78/1/5 77/1/5
f 87/3/5 77/3/5 86/3/5
f 88/3/5 79/3/5 78/3/5
f 88/1/5 78/1/5 87/1/5
f 88/3/5 80/3/5 79/3/5
f 88/3/5 81/3/5 80/3/5
f 89/1/5 82/1/5 81/1/5
f 89/3/5 81/3/5 88/3/5
f 90/1/5 54/1/5 82/1/5
f 90/1/5 82/1/5 89/1/5
f 90/3/5 42/3/5 54/3/5
f 91/2/5 83/2/5 39/2/5
f 91/2/5 84/2/5 83/2/5
f 92/1/5 41/1/5 84/1/5
f 92/2/5 84/2/5 91/2/5
f 93/3/5 89/3/5 88/3/5
f 93/1/5 41/1/5 92/1/5
f 93/3/5 88/3/5 87/3/5
f 93/3/5 86/3/5 85/3/5
f 93/3/5 85/3/5 73/3/5
f 93/3/5 90/3/5 89/3/5
f 93/3/5 87/3/5 86/3/5
f 93/3/5 73/3/5 41/3/5
f 94/3/5 42/3/5 90/3/5
f 94/3/5 90/3/5 93/3/5
f 94/1/5 43/1/5 42/1/5
f 95/3/5 44/3/5 43/3/5
f 95/1/5 43/1/5 94/1/5
f 96/3/5 44/3/5 95/3/5
f 98/3/6 99/3/6 102/3/6
f 102/3/6 99/3/6 103/3/6
f 103/3/6 99/3/6 104/3/6
f 104/3/6 99/3/6 105/3/6
f 105/3/6 99/3/6 106/3/6
f 106/3/6 99/3/6 107/3/6
f 107/3/6 99/3/6 108/3/6
f 108/3/6 99/3/6 109/3/6
f 98/3/6 102/3/6 110/3/6
f 102/1/6 103/1/6 110/1/6
f 103/3/6 104/3/6 111/3/6
f 110/1/6 103/1/6 111/1/6
f 111/3/6 104/3/6 112/3/6
f 107/3/6 108/3/6 113/3/6
f 108/1/6 109/1/6 114/1/6
f 113/3/6 108/3/6 114/3/6
f 114/1/6 109/1/6 115/1/6
f 110/3/6 111/3/6 116/3/6
f 111/1/6 112/1/6 117/1/6
f 116/3/6 111/3/6 117/3/6
f 112/3/6 104/3/6 118/3/6
f 117/1/6 112/1/6 118/1/6
f 107/3/6 113/3/6 119/3/6
f 113/1/6 114/1/6 119/1/6
f 114/3/6 115/3/6 120/3/6
f 119/1/6 114/1/6 120/1/6
f 115/1/6 109/1/6 121/1/6
f 120/3/6 115/3/6 121/3/6
f 98/3/6 110/3/6 122/3/6
f 110/3/6 116/3/6 122/3/6
f 116/1/6 117/1/6 123/1/6
f 122/3/6 116/3/6 123/3/6
f 117/3/6 118/3/6 124/3/6
f 123/1/6 117/1/6 124/1/6
f 119/3/6 120/3/6 125/3/6
f 107/3/6 119/3/6 125/3/6
f 120/1/6 121/1/6 126/1/6
f 125/3/6 120/3/6 126/3/6
f 121/1/6 109/1/6 127/1/6
f 126/1/6 121/1/6 127/1/6
f 98/3/6 122/3/6 128/3/6
f 122/1/6 123/1/6 128/1/6
f 123/3/6 124/3/6 129/3/6
f 128/1/6 123/1/6 129/1/6
f 118/3/6 104/3/6 130/3/6
f 129/3/6 124/3/6 130/3/6
f 124/3/6 118/3/6 130/3/6
f 104/1/6 105/1/6 131/1/6
f 130/3/6 104/3/6 131/3/6
f 105/3/6 106/3/6 132/3/6
f 131/1/6 105/1/6 132/1/6
f 106/1/6 107/1/6 133/1/6
f 132/3/6 106/3/6 133/3/6
f 107/3/6 125/3/6 134/3/6
f 133/1/6 107/1/6 134/1/6
f 125/1/6 126/1/6 135/1/6
f 134/3/6 125/3/6 135/3/6
f 126/3/6 127/3/6 136/3/6
f 135/1/6 126/1/6 136/1/6
f 127/1/6 109/1/6 137/1/6
f 136/3/6 127/3/6 137/3/6
f 128/3/6 129/3/6 138/3/6
f 129/1/6 130/1/6 138/1/6
f 130/3/6 131/3/6 139/3/6
f 138/1/6 130/1/6 139/1/6
f 131/3/6 132/3/6 139/3/6
f 132/1/6 133/1/6 140/1/6
f 139/3/6 132/3/6 140/3/6
f 133/3/6 134/3/6 141/3/6
f 140/1/6 133/1/6 141/1/6
f 134/3/6 135/3/6 141/3/6
f 135/3/6 136/3/6 141/3/6
f 136/1/6 137/1/6 142/1/6
f 141/3/6 136/3/6 142/3/6
f 109/3/6 99/3/6 143/3/6
f 142/1/6 137/1/6 143/1/6
f 137/1/6 109/1/6 143/1/6
f 97/1/6 98/1/6 144/1/6
f 141/3/6 142/3/6 145/3/6
f 144/1/6 98/1/6 145/1/6
f 98/3/6 128/3/6 145/3/6
f 142/3/6 143/3/6 145/3/6
f 138/3/6 139/3/6 145/3/6
f 128/3/6 138/3/6 145/3/6
f 140/3/6 141/3/6 145/3/6
f 139/3/6 140/3/6 145/3/6
f 143/3/6 99/3/6 146/3/6
f 145/3/6 143/3/6 146/3/6
f 99/1/6 100/1/6 146/1/6
f 100/3/6 101/3/6 147/3/6
f 146/1/6 100/1/6 147/1/6
f 147/3/6 101/3/6 148/3/6
f 149/2/6 150/2/6 151/2/6
f 151/2/6 150/2/6 152/2/6
