# MagicaVoxel @ Ephtracy

# material
mtllib calletricarrilesp.mtl
usemtl palette

# normals
vn -1 0 0
vn 1 0 0
vn 0 0 1
vn 0 0 -1
vn 0 -1 0
vn 0 1 0

# texcoords
vt 0.00976562 0.5
vt 0.0253906 0.5
vt 0.0449219 0.5
vt 0.978516 0.5

# verts
v -15 0 15
v -15 0 -15
v -15 2 15
v -15 2 -15
v -7 1 15
v -7 1 -15
v -7 2 15
v -7 2 -15
v 15 0 15
v 15 0 -15
v 15 1 15
v 15 1 -15
v -15 0 15
v -15 2 15
v -7 0 15
v -7 1 15
v -7 2 15
v -6 0 15
v -6 1 15
v 7 0 15
v 7 1 15
v 9 0 15
v 9 1 15
v 15 0 15
v 15 1 15
v -15 0 -15
v -15 2 -15
v -7 0 -15
v -7 1 -15
v -7 2 -15
v -6 0 -15
v -6 1 -15
v 7 0 -15
v 7 1 -15
v 9 0 -15
v 9 1 -15
v 15 0 -15
v 15 1 -15
v -15 0 15
v -7 0 15
v -6 0 15
v 7 0 15
v 9 0 15
v 15 0 15
v -14 0 14
v -7 0 14
v -14 0 -14
v -7 0 -14
v -15 0 -15
v -7 0 -15
v -6 0 -15
v 7 0 -15
v 9 0 -15
v 15 0 -15
v -7 1 15
v -6 1 15
v 7 1 15
v 9 1 15
v 15 1 15
v -7 1 -15
v -6 1 -15
v 7 1 -15
v 9 1 -15
v 15 1 -15
v -15 2 15
v -7 2 15
v -15 2 -15
v -7 2 -15

# faces
f 3/2/1 2/2/1 1/2/1
f 4/2/1 2/2/1 3/2/1
f 5/2/2 6/2/2 7/2/2
f 7/2/2 6/2/2 8/2/2
f 9/3/2 10/3/2 11/3/2
f 11/3/2 10/3/2 12/3/2
f 15/2/3 14/2/3 13/2/3
f 16/2/3 14/2/3 15/2/3
f 17/2/3 14/2/3 16/2/3
f 18/1/3 16/1/3 15/1/3
f 19/1/3 16/1/3 18/1/3
f 20/3/3 19/3/3 18/3/3
f 21/3/3 19/3/3 20/3/3
f 22/1/3 21/1/3 20/1/3
f 23/1/3 21/1/3 22/1/3
f 24/3/3 23/3/3 22/3/3
f 25/3/3 23/3/3 24/3/3
f 26/2/4 27/2/4 28/2/4
f 28/2/4 27/2/4 29/2/4
f 29/2/4 27/2/4 30/2/4
f 28/1/4 29/1/4 31/1/4
f 31/1/4 29/1/4 32/1/4
f 31/3/4 32/3/4 33/3/4
f 33/3/4 32/3/4 34/3/4
f 33/1/4 34/1/4 35/1/4
f 35/1/4 34/1/4 36/1/4
f 35/3/4 36/3/4 37/3/4
f 37/3/4 36/3/4 38/3/4
f 45/2/5 40/2/5 39/2/5
f 46/1/5 41/1/5 40/1/5
f 46/2/5 40/2/5 45/2/5
f 47/2/5 45/2/5 39/2/5
f 47/4/5 46/4/5 45/4/5
f 48/1/5 41/1/5 46/1/5
f 48/4/5 46/4/5 47/4/5
f 49/2/5 47/2/5 39/2/5
f 49/2/5 48/2/5 47/2/5
f 50/1/5 41/1/5 48/1/5
f 50/2/5 48/2/5 49/2/5
f 51/3/5 42/3/5 41/3/5
f 51/1/5 41/1/5 50/1/5
f 52/1/5 43/1/5 42/1/5
f 52/3/5 42/3/5 51/3/5
f 53/3/5 44/3/5 43/3/5
f 53/1/5 43/1/5 52/1/5
f 54/3/5 44/3/5 53/3/5
f 55/1/6 56/1/6 60/1/6
f 56/3/6 57/3/6 61/3/6
f 60/1/6 56/1/6 61/1/6
f 57/1/6 58/1/6 62/1/6
f 61/3/6 57/3/6 62/3/6
f 58/3/6 59/3/6 63/3/6
f 62/1/6 58/1/6 63/1/6
f 63/3/6 59/3/6 64/3/6
f 65/2/6 66/2/6 67/2/6
f 67/2/6 66/2/6 68/2/6
