# MagicaVoxel @ Ephtracy

# material
mtllib calle30marquesinabus.mtl
usemtl palette

# normals
vn -1 0 0
vn 1 0 0
vn 0 0 1
vn 0 0 -1
vn 0 -1 0
vn 0 1 0

# texcoords
vt 0.00195312 0.5
vt 0.00976562 0.5
vt 0.0253906 0.5
vt 0.0449219 0.5
vt 0.978516 0.5

# verts
v -15 0 15
v -15 0 -15
v -15 2 15
v -15 2 -15
v 7 1 15
v 7 1 -15
v 7 2 15
v 7 2 -15
v 8 2 -5
v 8 2 -6
v 8 11 5
v 8 11 -5
v 8 12 5
v 8 12 -6
v 12 2 5
v 12 2 -5
v 12 3 4
v 12 3 -5
v 12 3 -6
v 12 11 5
v 12 11 4
v 12 11 -5
v 12 11 -6
v -7 1 15
v -7 1 -15
v -7 2 15
v -7 2 -15
v 9 3 -5
v 9 3 -6
v 9 11 -5
v 9 11 -6
v 13 2 5
v 13 2 -6
v 13 3 4
v 13 3 -5
v 13 11 4
v 13 11 -5
v 13 12 5
v 13 12 -6
v 15 0 15
v 15 0 -15
v 15 2 15
v 15 2 -15
v -15 0 15
v -15 2 15
v -7 0 15
v -7 1 15
v -7 2 15
v -6 0 15
v -6 1 15
v 6 0 15
v 6 1 15
v 7 0 15
v 7 1 15
v 7 2 15
v 15 0 15
v 15 2 15
v 8 11 5
v 8 12 5
v 12 2 5
v 12 11 5
v 13 2 5
v 13 12 5
v 8 2 -5
v 8 11 -5
v 9 3 -5
v 9 11 -5
v 12 2 -5
v 12 3 -5
v 12 11 -5
v 13 3 -5
v 13 11 -5
v 12 3 4
v 12 11 4
v 13 3 4
v 13 11 4
v 8 2 -6
v 8 12 -6
v 9 3 -6
v 9 11 -6
v 12 3 -6
v 12 11 -6
v 13 2 -6
v 13 12 -6
v -15 0 -15
v -15 2 -15
v -7 0 -15
v -7 1 -15
v -7 2 -15
v -6 0 -15
v -6 1 -15
v 6 0 -15
v 6 1 -15
v 7 0 -15
v 7 1 -15
v 7 2 -15
v 15 0 -15
v 15 2 -15
v -15 0 15
v -7 0 15
v -6 0 15
v 6 0 15
v 7 0 15
v 15 0 15
v -14 0 14
v -7 0 14
v 7 0 14
v 14 0 14
v 0 0 10
v 1 0 10
v 0 0 4
v 1 0 4
v 0 0 -4
v 1 0 -4
v 0 0 -11
v 1 0 -11
v -14 0 -14
v -7 0 -14
v 7 0 -14
v 14 0 -14
v -15 0 -15
v -7 0 -15
v -6 0 -15
v 6 0 -15
v 7 0 -15
v 15 0 -15
v 8 11 5
v 12 11 5
v 12 11 4
v 13 11 4
v 8 11 -5
v 9 11 -5
v 12 11 -5
v 13 11 -5
v 9 11 -6
v 12 11 -6
v -7 1 15
v -6 1 15
v 6 1 15
v 7 1 15
v 0 1 10
v 1 1 10
v 0 1 4
v 1 1 4
v 0 1 -4
v 1 1 -4
v 0 1 -11
v 1 1 -11
v -7 1 -15
v -6 1 -15
v 6 1 -15
v 7 1 -15
v -15 2 15
v -7 2 15
v 7 2 15
v 15 2 15
v 12 2 5
v 13 2 5
v 8 2 -5
v 12 2 -5
v 8 2 -6
v 13 2 -6
v -15 2 -15
v -7 2 -15
v 7 2 -15
v 15 2 -15
v 12 3 4
v 13 3 4
v 9 3 -5
v 12 3 -5
v 13 3 -5
v 9 3 -6
v 12 3 -6
v 8 12 5
v 13 12 5
v 8 12 -6
v 13 12 -6

# faces
f 3/3/1 2/3/1 1/3/1
f 4/3/1 2/3/1 3/3/1
f 7/3/1 6/3/1 5/3/1
f 8/3/1 6/3/1 7/3/1
f 12/2/1 10/2/1 9/2/1
f 13/2/1 12/2/1 11/2/1
f 14/2/1 10/2/1 12/2/1
f 14/2/1 12/2/1 13/2/1
f 17/2/1 16/2/1 15/2/1
f 18/2/1 16/2/1 17/2/1
f 20/2/1 17/2/1 15/2/1
f 21/2/1 17/2/1 20/2/1
f 22/2/1 19/2/1 18/2/1
f 23/2/1 19/2/1 22/2/1
f 24/3/2 25/3/2 26/3/2
f 26/3/2 25/3/2 27/3/2
f 28/2/2 29/2/2 30/2/2
f 30/2/2 29/2/2 31/2/2
f 32/2/2 33/2/2 34/2/2
f 34/2/2 33/2/2 35/2/2
f 32/2/2 34/2/2 36/2/2
f 35/2/2 33/2/2 37/2/2
f 32/2/2 36/2/2 38/2/2
f 36/2/2 37/2/2 38/2/2
f 37/2/2 33/2/2 39/2/2
f 38/2/2 37/2/2 39/2/2
f 40/3/2 41/3/2 42/3/2
f 42/3/2 41/3/2 43/3/2
f 46/3/3 45/3/3 44/3/3
f 47/3/3 45/3/3 46/3/3
f 48/3/3 45/3/3 47/3/3
f 49/2/3 47/2/3 46/2/3
f 50/2/3 47/2/3 49/2/3
f 51/4/3 50/4/3 49/4/3
f 52/4/3 50/4/3 51/4/3
f 53/2/3 52/2/3 51/2/3
f 54/2/3 52/2/3 53/2/3
f 56/3/3 54/3/3 53/3/3
f 56/3/3 55/3/3 54/3/3
f 57/3/3 55/3/3 56/3/3
f 61/2/3 59/2/3 58/2/3
f 62/2/3 61/2/3 60/2/3
f 63/2/3 59/2/3 61/2/3
f 63/2/3 61/2/3 62/2/3
f 66/2/3 65/2/3 64/2/3
f 67/2/3 65/2/3 66/2/3
f 68/2/3 66/2/3 64/2/3
f 69/2/3 66/2/3 68/2/3
f 71/2/3 70/2/3 69/2/3
f 72/2/3 70/2/3 71/2/3
f 73/2/4 74/2/4 75/2/4
f 75/2/4 74/2/4 76/2/4
f 77/2/4 78/2/4 79/2/4
f 79/2/4 78/2/4 80/2/4
f 77/2/4 79/2/4 81/2/4
f 80/2/4 78/2/4 82/2/4
f 77/2/4 81/2/4 83/2/4
f 81/2/4 82/2/4 83/2/4
f 82/2/4 78/2/4 84/2/4
f 83/2/4 82/2/4 84/2/4
f 85/3/4 86/3/4 87/3/4
f 87/3/4 86/3/4 88/3/4
f 88/3/4 86/3/4 89/3/4
f 87/2/4 88/2/4 90/2/4
f 90/2/4 88/2/4 91/2/4
f 90/4/4 91/4/4 92/4/4
f 92/4/4 91/4/4 93/4/4
f 92/2/4 93/2/4 94/2/4
f 94/2/4 93/2/4 95/2/4
f 94/3/4 95/3/4 97/3/4
f 95/3/4 96/3/4 97/3/4
f 97/3/4 96/3/4 98/3/4
f 105/3/5 100/3/5 99/3/5
f 106/2/5 101/2/5 100/2/5
f 106/3/5 100/3/5 105/3/5
f 107/3/5 104/3/5 103/3/5
f 107/2/5 103/2/5 102/2/5
f 108/3/5 104/3/5 107/3/5
f 109/4/5 102/4/5 101/4/5
f 110/4/5 102/4/5 109/4/5
f 111/4/5 109/4/5 101/4/5
f 111/1/5 110/1/5 109/1/5
f 112/4/5 102/4/5 110/4/5
f 112/1/5 110/1/5 111/1/5
f 113/4/5 111/4/5 101/4/5
f 113/4/5 112/4/5 111/4/5
f 114/4/5 102/4/5 112/4/5
f 114/4/5 112/4/5 113/4/5
f 115/4/5 113/4/5 101/4/5
f 115/1/5 114/1/5 113/1/5
f 116/4/5 102/4/5 114/4/5
f 116/1/5 114/1/5 115/1/5
f 117/3/5 105/3/5 99/3/5
f 117/5/5 106/5/5 105/5/5
f 118/2/5 101/2/5 106/2/5
f 118/5/5 106/5/5 117/5/5
f 119/2/5 107/2/5 102/2/5
f 119/5/5 108/5/5 107/5/5
f 120/3/5 104/3/5 108/3/5
f 120/5/5 108/5/5 119/5/5
f 121/3/5 117/3/5 99/3/5
f 121/3/5 118/3/5 117/3/5
f 122/2/5 101/2/5 118/2/5
f 122/3/5 118/3/5 121/3/5
f 123/4/5 116/4/5 115/4/5
f 123/2/5 101/2/5 122/2/5
f 123/4/5 115/4/5 101/4/5
f 124/4/5 102/4/5 116/4/5
f 124/4/5 116/4/5 123/4/5
f 124/2/5 119/2/5 102/2/5
f 125/3/5 120/3/5 119/3/5
f 125/2/5 119/2/5 124/2/5
f 126/3/5 104/3/5 120/3/5
f 126/3/5 120/3/5 125/3/5
f 129/2/5 128/2/5 127/2/5
f 131/2/5 129/2/5 127/2/5
f 131/2/5 130/2/5 129/2/5
f 132/2/5 130/2/5 131/2/5
f 133/2/5 130/2/5 132/2/5
f 134/2/5 130/2/5 133/2/5
f 135/2/5 133/2/5 132/2/5
f 136/2/5 133/2/5 135/2/5
f 138/4/6 139/4/6 141/4/6
f 141/4/6 139/4/6 142/4/6
f 138/4/6 141/4/6 143/4/6
f 141/1/6 142/1/6 143/1/6
f 142/4/6 139/4/6 144/4/6
f 143/1/6 142/1/6 144/1/6
f 138/4/6 143/4/6 145/4/6
f 143/4/6 144/4/6 145/4/6
f 144/4/6 139/4/6 146/4/6
f 145/4/6 144/4/6 146/4/6
f 138/4/6 145/4/6 147/4/6
f 145/1/6 146/1/6 147/1/6
f 146/4/6 139/4/6 148/4/6
f 147/1/6 146/1/6 148/1/6
f 137/2/6 138/2/6 149/2/6
f 138/4/6 147/4/6 150/4/6
f 149/2/6 138/2/6 150/2/6
f 147/4/6 148/4/6 150/4/6
f 148/4/6 139/4/6 151/4/6
f 150/4/6 148/4/6 151/4/6
f 139/2/6 140/2/6 151/2/6
f 151/2/6 140/2/6 152/2/6
f 155/3/6 156/3/6 157/3/6
f 157/3/6 156/3/6 158/3/6
f 155/3/6 157/3/6 159/3/6
f 159/3/6 157/3/6 160/3/6
f 155/3/6 159/3/6 161/3/6
f 158/3/6 156/3/6 162/3/6
f 153/3/6 154/3/6 163/3/6
f 163/3/6 154/3/6 164/3/6
f 161/3/6 162/3/6 165/3/6
f 155/3/6 161/3/6 165/3/6
f 162/3/6 156/3/6 166/3/6
f 165/3/6 162/3/6 166/3/6
f 167/2/6 168/2/6 170/2/6
f 170/2/6 168/2/6 171/2/6
f 169/2/6 170/2/6 172/2/6
f 172/2/6 170/2/6 173/2/6
f 174/2/6 175/2/6 176/2/6
f 176/2/6 175/2/6 177/2/6
