# MagicaVoxel @ Ephtracy

# material
mtllib calleesc30.mtl
usemtl palette

# normals
vn -1 0 0
vn 1 0 0
vn 0 0 1
vn 0 0 -1
vn 0 -1 0
vn 0 1 0

# texcoords
vt 0.00195312 0.5
vt 0.00585938 0.5
vt 0.0253906 0.5
vt 0.0449219 0.5

# verts
v -15 0 15
v -15 0 7
v -15 0 6
v -15 0 -6
v -15 0 -7
v -15 0 -15
v -15 1 7
v -15 1 6
v -15 1 -6
v -15 1 -7
v -15 2 15
v -15 2 7
v -15 2 -7
v -15 2 -15
v 7 1 15
v 7 1 7
v 7 1 -7
v 7 1 -15
v 7 2 15
v 7 2 7
v 7 2 -7
v 7 2 -15
v -7 1 15
v -7 1 7
v -7 1 -7
v -7 1 -15
v -7 2 15
v -7 2 7
v -7 2 -7
v -7 2 -15
v 15 0 15
v 15 0 7
v 15 0 6
v 15 0 -6
v 15 0 -7
v 15 0 -15
v 15 1 7
v 15 1 6
v 15 1 -6
v 15 1 -7
v 15 2 15
v 15 2 7
v 15 2 -7
v 15 2 -15
v -15 0 15
v -15 2 15
v -7 0 15
v -7 1 15
v -7 2 15
v -6 0 15
v -6 1 15
v 6 0 15
v 6 1 15
v 7 0 15
v 7 1 15
v 7 2 15
v 15 0 15
v 15 2 15
v -15 1 -7
v -15 2 -7
v -7 1 -7
v -7 2 -7
v 7 1 -7
v 7 2 -7
v 15 1 -7
v 15 2 -7
v -15 1 7
v -15 2 7
v -7 1 7
v -7 2 7
v 7 1 7
v 7 2 7
v 15 1 7
v 15 2 7
v -15 0 -15
v -15 2 -15
v -7 0 -15
v -7 1 -15
v -7 2 -15
v -6 0 -15
v -6 1 -15
v 6 0 -15
v 6 1 -15
v 7 0 -15
v 7 1 -15
v 7 2 -15
v 15 0 -15
v 15 2 -15
v -15 0 15
v -7 0 15
v -6 0 15
v 6 0 15
v 7 0 15
v 15 0 15
v -5 0 11
v -4 0 11
v -2 0 11
v -1 0 11
v 1 0 11
v 2 0 11
v 4 0 11
v 5 0 11
v -15 0 7
v -7 0 7
v 7 0 7
v 15 0 7
v -15 0 6
v -6 0 6
v -5 0 6
v -4 0 6
v -2 0 6
v -1 0 6
v 1 0 6
v 2 0 6
v 4 0 6
v 5 0 6
v 6 0 6
v 15 0 6
v -11 0 5
v -6 0 5
v 6 0 5
v 11 0 5
v -11 0 4
v -6 0 4
v 6 0 4
v 11 0 4
v -11 0 2
v -6 0 2
v 6 0 2
v 11 0 2
v -11 0 1
v -6 0 1
v 6 0 1
v 11 0 1
v -11 0 -1
v -6 0 -1
v 6 0 -1
v 11 0 -1
v -11 0 -2
v -6 0 -2
v 6 0 -2
v 11 0 -2
v -11 0 -4
v -6 0 -4
v 6 0 -4
v 11 0 -4
v -11 0 -5
v -6 0 -5
v 6 0 -5
v 11 0 -5
v -15 0 -6
v -6 0 -6
v -5 0 -6
v -4 0 -6
v -2 0 -6
v -1 0 -6
v 1 0 -6
v 2 0 -6
v 4 0 -6
v 5 0 -6
v 6 0 -6
v 15 0 -6
v -15 0 -7
v -7 0 -7
v 7 0 -7
v 15 0 -7
v -5 0 -11
v -4 0 -11
v -2 0 -11
v -1 0 -11
v 1 0 -11
v 2 0 -11
v 4 0 -11
v 5 0 -11
v -15 0 -15
v -7 0 -15
v -6 0 -15
v 6 0 -15
v 7 0 -15
v 15 0 -15
v -7 1 15
v -6 1 15
v 6 1 15
v 7 1 15
v -5 1 11
v -4 1 11
v -2 1 11
v -1 1 11
v 1 1 11
v 2 1 11
v 4 1 11
v 5 1 11
v -15 1 7
v -7 1 7
v 7 1 7
v 15 1 7
v -15 1 6
v -6 1 6
v -5 1 6
v -4 1 6
v -2 1 6
v -1 1 6
v 1 1 6
v 2 1 6
v 4 1 6
v 5 1 6
v 6 1 6
v 15 1 6
v -11 1 5
v -6 1 5
v 6 1 5
v 11 1 5
v -11 1 4
v -6 1 4
v 6 1 4
v 11 1 4
v -11 1 2
v -6 1 2
v 6 1 2
v 11 1 2
v -11 1 1
v -6 1 1
v 6 1 1
v 11 1 1
v -11 1 -1
v -6 1 -1
v 6 1 -1
v 11 1 -1
v -11 1 -2
v -6 1 -2
v 6 1 -2
v 11 1 -2
v -11 1 -4
v -6 1 -4
v 6 1 -4
v 11 1 -4
v -11 1 -5
v -6 1 -5
v 6 1 -5
v 11 1 -5
v -15 1 -6
v -6 1 -6
v -5 1 -6
v -4 1 -6
v -2 1 -6
v -1 1 -6
v 1 1 -6
v 2 1 -6
v 4 1 -6
v 5 1 -6
v 6 1 -6
v 15 1 -6
v -15 1 -7
v -7 1 -7
v 7 1 -7
v 15 1 -7
v -5 1 -11
v -4 1 -11
v -2 1 -11
v -1 1 -11
v 1 1 -11
v 2 1 -11
v 4 1 -11
v 5 1 -11
v -7 1 -15
v -6 1 -15
v 6 1 -15
v 7 1 -15
v -15 2 15
v -7 2 15
v 7 2 15
v 15 2 15
v -15 2 7
v -7 2 7
v 7 2 7
v 15 2 7
v -15 2 -7
v -7 2 -7
v 7 2 -7
v 15 2 -7
v -15 2 -15
v -7 2 -15
v 7 2 -15
v 15 2 -15

# faces
f 7/3/1 2/3/1 1/3/1
f 7/2/1 3/2/1 2/2/1
f 8/4/1 4/4/1 3/4/1
f 8/2/1 3/2/1 7/2/1
f 9/2/1 5/2/1 4/2/1
f 9/4/1 4/4/1 8/4/1
f 10/3/1 6/3/1 5/3/1
f 10/2/1 5/2/1 9/2/1
f 11/3/1 7/3/1 1/3/1
f 12/3/1 7/3/1 11/3/1
f 13/3/1 6/3/1 10/3/1
f 14/3/1 6/3/1 13/3/1
f 19/3/1 16/3/1 15/3/1
f 20/3/1 16/3/1 19/3/1
f 21/3/1 18/3/1 17/3/1
f 22/3/1 18/3/1 21/3/1
f 23/3/2 24/3/2 27/3/2
f 27/3/2 24/3/2 28/3/2
f 25/3/2 26/3/2 29/3/2
f 29/3/2 26/3/2 30/3/2
f 31/3/2 32/3/2 37/3/2
f 32/2/2 33/2/2 37/2/2
f 33/4/2 34/4/2 38/4/2
f 37/2/2 33/2/2 38/2/2
f 34/2/2 35/2/2 39/2/2
f 38/4/2 34/4/2 39/4/2
f 35/3/2 36/3/2 40/3/2
f 39/2/2 35/2/2 40/2/2
f 31/3/2 37/3/2 41/3/2
f 41/3/2 37/3/2 42/3/2
f 40/3/2 36/3/2 43/3/2
f 43/3/2 36/3/2 44/3/2
f 47/3/3 46/3/3 45/3/3
f 48/3/3 46/3/3 47/3/3
f 49/3/3 46/3/3 48/3/3
f 50/2/3 48/2/3 47/2/3
f 51/2/3 48/2/3 50/2/3
f 52/4/3 51/4/3 50/4/3
f 53/4/3 51/4/3 52/4/3
f 54/2/3 53/2/3 52/2/3
f 55/2/3 53/2/3 54/2/3
f 57/3/3 55/3/3 54/3/3
f 57/3/3 56/3/3 55/3/3
f 58/3/3 56/3/3 57/3/3
f 61/3/3 60/3/3 59/3/3
f 62/3/3 60/3/3 61/3/3
f 65/3/3 64/3/3 63/3/3
f 66/3/3 64/3/3 65/3/3
f 67/3/4 68/3/4 69/3/4
f 69/3/4 68/3/4 70/3/4
f 71/3/4 72/3/4 73/3/4
f 73/3/4 72/3/4 74/3/4
f 75/3/4 76/3/4 77/3/4
f 77/3/4 76/3/4 78/3/4
f 78/3/4 76/3/4 79/3/4
f 77/2/4 78/2/4 80/2/4
f 80/2/4 78/2/4 81/2/4
f 80/4/4 81/4/4 82/4/4
f 82/4/4 81/4/4 83/4/4
f 82/2/4 83/2/4 84/2/4
f 84/2/4 83/2/4 85/2/4
f 84/3/4 85/3/4 87/3/4
f 85/3/4 86/3/4 87/3/4
f 87/3/4 86/3/4 88/3/4
f 95/4/5 92/4/5 91/4/5
f 96/4/5 92/4/5 95/4/5
f 97/4/5 92/4/5 96/4/5
f 98/4/5 92/4/5 97/4/5
f 99/4/5 92/4/5 98/4/5
f 100/4/5 92/4/5 99/4/5
f 101/4/5 92/4/5 100/4/5
f 102/4/5 92/4/5 101/4/5
f 103/3/5 90/3/5 89/3/5
f 104/2/5 91/2/5 90/2/5
f 104/3/5 90/3/5 103/3/5
f 105/3/5 94/3/5 93/3/5
f 105/2/5 93/2/5 92/2/5
f 106/3/5 94/3/5 105/3/5
f 107/2/5 104/2/5 103/2/5
f 108/2/5 91/2/5 104/2/5
f 108/2/5 104/2/5 107/2/5
f 108/4/5 95/4/5 91/4/5
f 109/2/5 96/2/5 95/2/5
f 109/4/5 95/4/5 108/4/5
f 110/4/5 97/4/5 96/4/5
f 110/2/5 96/2/5 109/2/5
f 111/2/5 98/2/5 97/2/5
f 111/4/5 97/4/5 110/4/5
f 112/4/5 99/4/5 98/4/5
f 112/2/5 98/2/5 111/2/5
f 113/2/5 100/2/5 99/2/5
f 113/4/5 99/4/5 112/4/5
f 114/4/5 101/4/5 100/4/5
f 114/2/5 100/2/5 113/2/5
f 115/2/5 102/2/5 101/2/5
f 115/4/5 101/4/5 114/4/5
f 116/4/5 92/4/5 102/4/5
f 116/2/5 102/2/5 115/2/5
f 117/2/5 106/2/5 105/2/5
f 117/4/5 92/4/5 116/4/5
f 117/2/5 105/2/5 92/2/5
f 118/2/5 106/2/5 117/2/5
f 119/4/5 115/4/5 114/4/5
f 119/4/5 116/4/5 115/4/5
f 119/4/5 118/4/5 117/4/5
f 119/4/5 117/4/5 116/4/5
f 119/4/5 114/4/5 113/4/5
f 119/4/5 113/4/5 112/4/5
f 119/4/5 112/4/5 111/4/5
f 119/4/5 111/4/5 110/4/5
f 119/4/5 110/4/5 109/4/5
f 119/4/5 109/4/5 108/4/5
f 119/4/5 108/4/5 107/4/5
f 120/4/5 118/4/5 119/4/5
f 121/4/5 118/4/5 120/4/5
f 122/4/5 118/4/5 121/4/5
f 123/4/5 119/4/5 107/4/5
f 123/2/5 120/2/5 119/2/5
f 124/4/5 121/4/5 120/4/5
f 124/2/5 120/2/5 123/2/5
f 125/2/5 122/2/5 121/2/5
f 125/4/5 121/4/5 124/4/5
f 126/4/5 118/4/5 122/4/5
f 126/2/5 122/2/5 125/2/5
f 127/4/5 125/4/5 124/4/5
f 127/4/5 124/4/5 123/4/5
f 127/4/5 126/4/5 125/4/5
f 127/4/5 123/4/5 107/4/5
f 128/4/5 126/4/5 127/4/5
f 129/4/5 126/4/5 128/4/5
f 130/4/5 118/4/5 126/4/5
f 130/4/5 126/4/5 129/4/5
f 131/4/5 127/4/5 107/4/5
f 131/1/5 128/1/5 127/1/5
f 132/4/5 129/4/5 128/4/5
f 132/1/5 128/1/5 131/1/5
f 133/2/5 130/2/5 129/2/5
f 133/4/5 129/4/5 132/4/5
f 134/4/5 118/4/5 130/4/5
f 134/2/5 130/2/5 133/2/5
f 135/4/5 131/4/5 107/4/5
f 135/4/5 133/4/5 132/4/5
f 135/4/5 134/4/5 133/4/5
f 135/4/5 132/4/5 131/4/5
f 136/4/5 134/4/5 135/4/5
f 137/4/5 134/4/5 136/4/5
f 138/4/5 118/4/5 134/4/5
f 138/4/5 134/4/5 137/4/5
f 139/4/5 135/4/5 107/4/5
f 139/1/5 136/1/5 135/1/5
f 140/4/5 137/4/5 136/4/5
f 140/1/5 136/1/5 139/1/5
f 141/2/5 138/2/5 137/2/5
f 141/4/5 137/4/5 140/4/5
f 142/4/5 118/4/5 138/4/5
f 142/2/5 138/2/5 141/2/5
f 143/4/5 139/4/5 107/4/5
f 143/4/5 141/4/5 140/4/5
f 143/4/5 142/4/5 141/4/5
f 143/4/5 140/4/5 139/4/5
f 144/4/5 142/4/5 143/4/5
f 145/4/5 142/4/5 144/4/5
f 146/4/5 118/4/5 142/4/5
f 146/4/5 142/4/5 145/4/5
f 147/4/5 143/4/5 107/4/5
f 147/2/5 144/2/5 143/2/5
f 148/4/5 145/4/5 144/4/5
f 148/2/5 144/2/5 147/2/5
f 149/2/5 146/2/5 145/2/5
f 149/4/5 145/4/5 148/4/5
f 150/4/5 118/4/5 146/4/5
f 150/2/5 146/2/5 149/2/5
f 151/4/5 147/4/5 107/4/5
f 151/4/5 149/4/5 148/4/5
f 151/4/5 150/4/5 149/4/5
f 151/4/5 148/4/5 147/4/5
f 152/4/5 150/4/5 151/4/5
f 153/4/5 150/4/5 152/4/5
f 154/4/5 150/4/5 153/4/5
f 155/4/5 150/4/5 154/4/5
f 156/4/5 150/4/5 155/4/5
f 157/4/5 150/4/5 156/4/5
f 158/4/5 150/4/5 157/4/5
f 159/4/5 150/4/5 158/4/5
f 160/4/5 150/4/5 159/4/5
f 161/4/5 150/4/5 160/4/5
f 162/4/5 118/4/5 150/4/5
f 162/4/5 150/4/5 161/4/5
f 163/2/5 152/2/5 151/2/5
f 164/2/5 152/2/5 163/2/5
f 165/2/5 162/2/5 161/2/5
f 166/2/5 162/2/5 165/2/5
f 167/4/5 153/4/5 152/4/5
f 167/2/5 154/2/5 153/2/5
f 168/4/5 155/4/5 154/4/5
f 168/2/5 154/2/5 167/2/5
f 169/2/5 156/2/5 155/2/5
f 169/4/5 155/4/5 168/4/5
f 170/4/5 157/4/5 156/4/5
f 170/2/5 156/2/5 169/2/5
f 171/2/5 158/2/5 157/2/5
f 171/4/5 157/4/5 170/4/5
f 172/4/5 159/4/5 158/4/5
f 172/2/5 158/2/5 171/2/5
f 173/2/5 160/2/5 159/2/5
f 173/4/5 159/4/5 172/4/5
f 174/4/5 161/4/5 160/4/5
f 174/2/5 160/2/5 173/2/5
f 175/3/5 164/3/5 163/3/5
f 176/2/5 152/2/5 164/2/5
f 176/3/5 164/3/5 175/3/5
f 177/4/5 173/4/5 172/4/5
f 177/2/5 152/2/5 176/2/5
f 177/4/5 167/4/5 152/4/5
f 177/4/5 174/4/5 173/4/5
f 177/4/5 168/4/5 167/4/5
f 177/4/5 169/4/5 168/4/5
f 177/4/5 170/4/5 169/4/5
f 177/4/5 171/4/5 170/4/5
f 177/4/5 172/4/5 171/4/5
f 178/2/5 165/2/5 161/2/5
f 178/4/5 174/4/5 177/4/5
f 178/4/5 161/4/5 174/4/5
f 179/3/5 166/3/5 165/3/5
f 179/2/5 165/2/5 178/2/5
f 180/3/5 166/3/5 179/3/5
f 182/4/6 183/4/6 185/4/6
f 185/4/6 183/4/6 186/4/6
f 186/4/6 183/4/6 187/4/6
f 187/4/6 183/4/6 188/4/6
f 188/4/6 183/4/6 189/4/6
f 189/4/6 183/4/6 190/4/6
f 190/4/6 183/4/6 191/4/6
f 191/4/6 183/4/6 192/4/6
f 181/2/6 182/2/6 194/2/6
f 183/2/6 184/2/6 195/2/6
f 193/2/6 194/2/6 197/2/6
f 182/4/6 185/4/6 198/4/6
f 197/2/6 194/2/6 198/2/6
f 194/2/6 182/2/6 198/2/6
f 185/2/6 186/2/6 199/2/6
f 198/4/6 185/4/6 199/4/6
f 186/4/6 187/4/6 200/4/6
f 199/2/6 186/2/6 200/2/6
f 187/2/6 188/2/6 201/2/6
f 200/4/6 187/4/6 201/4/6
f 188/4/6 189/4/6 202/4/6
f 201/2/6 188/2/6 202/2/6
f 189/2/6 190/2/6 203/2/6
f 202/4/6 189/4/6 203/4/6
f 190/4/6 191/4/6 204/4/6
f 203/2/6 190/2/6 204/2/6
f 191/2/6 192/2/6 205/2/6
f 204/4/6 191/4/6 205/4/6
f 192/4/6 183/4/6 206/4/6
f 205/2/6 192/2/6 206/2/6
f 195/2/6 196/2/6 207/2/6
f 206/4/6 183/4/6 207/4/6
f 183/2/6 195/2/6 207/2/6
f 207/2/6 196/2/6 208/2/6
f 204/4/6 205/4/6 209/4/6
f 205/4/6 206/4/6 209/4/6
f 207/4/6 208/4/6 209/4/6
f 206/4/6 207/4/6 209/4/6
f 197/4/6 198/4/6 209/4/6
f 203/4/6 204/4/6 209/4/6
f 202/4/6 203/4/6 209/4/6
f 201/4/6 202/4/6 209/4/6
f 200/4/6 201/4/6 209/4/6
f 199/4/6 200/4/6 209/4/6
f 198/4/6 199/4/6 209/4/6
f 209/4/6 208/4/6 210/4/6
f 210/4/6 208/4/6 211/4/6
f 211/4/6 208/4/6 212/4/6
f 197/4/6 209/4/6 213/4/6
f 209/2/6 210/2/6 213/2/6
f 210/4/6 211/4/6 214/4/6
f 213/2/6 210/2/6 214/2/6
f 211/2/6 212/2/6 215/2/6
f 214/4/6 211/4/6 215/4/6
f 212/4/6 208/4/6 216/4/6
f 215/2/6 212/2/6 216/2/6
f 214/4/6 215/4/6 217/4/6
f 213/4/6 214/4/6 217/4/6
f 215/4/6 216/4/6 217/4/6
f 197/4/6 213/4/6 217/4/6
f 217/4/6 216/4/6 218/4/6
f 218/4/6 216/4/6 219/4/6
f 216/4/6 208/4/6 220/4/6
f 219/4/6 216/4/6 220/4/6
f 197/4/6 217/4/6 221/4/6
f 217/1/6 218/1/6 221/1/6
f 218/4/6 219/4/6 222/4/6
f 221/1/6 218/1/6 222/1/6
f 219/2/6 220/2/6 223/2/6
f 222/4/6 219/4/6 223/4/6
f 220/4/6 208/4/6 224/4/6
f 223/2/6 220/2/6 224/2/6
f 197/4/6 221/4/6 225/4/6
f 222/4/6 223/4/6 225/4/6
f 223/4/6 224/4/6 225/4/6
f 221/4/6 222/4/6 225/4/6
f 225/4/6 224/4/6 226/4/6
f 226/4/6 224/4/6 227/4/6
f 224/4/6 208/4/6 228/4/6
f 227/4/6 224/4/6 228/4/6
f 197/4/6 225/4/6 229/4/6
f 225/1/6 226/1/6 229/1/6
f 226/4/6 227/4/6 230/4/6
f 229/1/6 226/1/6 230/1/6
f 227/2/6 228/2/6 231/2/6
f 230/4/6 227/4/6 231/4/6
f 228/4/6 208/4/6 232/4/6
f 231/2/6 228/2/6 232/2/6
f 197/4/6 229/4/6 233/4/6
f 230/4/6 231/4/6 233/4/6
f 231/4/6 232/4/6 233/4/6
f 229/4/6 230/4/6 233/4/6
f 233/4/6 232/4/6 234/4/6
f 234/4/6 232/4/6 235/4/6
f 232/4/6 208/4/6 236/4/6
f 235/4/6 232/4/6 236/4/6
f 197/4/6 233/4/6 237/4/6
f 233/2/6 234/2/6 237/2/6
f 234/4/6 235/4/6 238/4/6
f 237/2/6 234/2/6 238/2/6
f 235/2/6 236/2/6 239/2/6
f 238/4/6 235/4/6 239/4/6
f 236/4/6 208/4/6 240/4/6
f 239/2/6 236/2/6 240/2/6
f 197/4/6 237/4/6 241/4/6
f 238/4/6 239/4/6 241/4/6
f 239/4/6 240/4/6 241/4/6
f 237/4/6 238/4/6 241/4/6
f 241/4/6 240/4/6 242/4/6
f 242/4/6 240/4/6 243/4/6
f 243/4/6 240/4/6 244/4/6
f 244/4/6 240/4/6 245/4/6
f 245/4/6 240/4/6 246/4/6
f 246/4/6 240/4/6 247/4/6
f 247/4/6 240/4/6 248/4/6
f 248/4/6 240/4/6 249/4/6
f 249/4/6 240/4/6 250/4/6
f 250/4/6 240/4/6 251/4/6
f 240/4/6 208/4/6 252/4/6
f 251/4/6 240/4/6 252/4/6
f 241/2/6 242/2/6 253/2/6
f 253/2/6 242/2/6 254/2/6
f 251/2/6 252/2/6 255/2/6
f 255/2/6 252/2/6 256/2/6
f 242/4/6 243/4/6 257/4/6
f 243/2/6 244/2/6 257/2/6
f 244/4/6 245/4/6 258/4/6
f 257/2/6 244/2/6 258/2/6
f 245/2/6 246/2/6 259/2/6
f 258/4/6 245/4/6 259/4/6
f 246/4/6 247/4/6 260/4/6
f 259/2/6 246/2/6 260/2/6
f 247/2/6 248/2/6 261/2/6
f 260/4/6 247/4/6 261/4/6
f 248/4/6 249/4/6 262/4/6
f 261/2/6 248/2/6 262/2/6
f 249/2/6 250/2/6 263/2/6
f 262/4/6 249/4/6 263/4/6
f 250/4/6 251/4/6 264/4/6
f 263/2/6 250/2/6 264/2/6
f 254/2/6 242/2/6 265/2/6
f 262/4/6 263/4/6 266/4/6
f 265/2/6 242/2/6 266/2/6
f 242/4/6 257/4/6 266/4/6
f 263/4/6 264/4/6 266/4/6
f 257/4/6 258/4/6 266/4/6
f 258/4/6 259/4/6 266/4/6
f 261/4/6 262/4/6 266/4/6
f 260/4/6 261/4/6 266/4/6
f 259/4/6 260/4/6 266/4/6
f 251/2/6 255/2/6 267/2/6
f 266/4/6 264/4/6 267/4/6
f 264/4/6 251/4/6 267/4/6
f 267/2/6 255/2/6 268/2/6
f 269/3/6 270/3/6 273/3/6
f 273/3/6 270/3/6 274/3/6
f 271/3/6 272/3/6 275/3/6
f 275/3/6 272/3/6 276/3/6
f 277/3/6 278/3/6 281/3/6
f 281/3/6 278/3/6 282/3/6
f 279/3/6 280/3/6 283/3/6
f 283/3/6 280/3/6 284/3/6
